<svg id="Group_124072" data-name="Group 124072" xmlns="http://www.w3.org/2000/svg" xmlns:xlink="http://www.w3.org/1999/xlink" width="106.224" height="90" viewBox="0 0 106.224 90">
  <defs>
    <clipPath id="clip-path">
      <rect id="Rectangle_38508" data-name="Rectangle 38508" width="106.224" height="90" fill="#ff6b00"/>
    </clipPath>
  </defs>
  <g id="Group_124073" data-name="Group 124073" clip-path="url(#clip-path)">
    <path id="Path_186803" data-name="Path 186803" d="M106.225,32.344V43.131c-.98,2.792-2.945,3.974-5.886,3.771-1.718-.119-3.45-.022-5.175-.022H91.59V57.354c3.2,0,6.333.023,9.469-.009A4.931,4.931,0,0,1,105.3,59.28a12.135,12.135,0,0,1,.922,1.692V71.966c-1.088,2.87-3.234,3.854-6.19,3.691-2.414-.133-4.838-.027-7.259-.027H91.611c0,3.183.028,6.221-.007,9.258-.038,3.219-1.928,5.093-5.125,5.1-7.606.013-15.21.026-22.815-.025a14.018,14.018,0,0,1-2.568-.63,3.023,3.023,0,0,0-1.187.02,14.083,14.083,0,0,1-2.582.611q-11.458.074-22.918,0a7.129,7.129,0,0,1-2.463-.631,1.428,1.428,0,0,0-1.309-.014,6.273,6.273,0,0,1-2.462.645q-11.615.071-23.231.018A4.672,4.672,0,0,1,.016,85C0,82.374.01,79.747.014,77.12c0-3.373,1.885-5.279,5.249-5.3,2.765-.015,5.531,0,8.3,0h1.1V61.384H13.518c-2.869,0-5.74.021-8.608-.007A4.67,4.67,0,0,1,.018,56.471q-.033-4.251,0-8.5a4.663,4.663,0,0,1,4.838-4.845c2.9-.026,5.808-.006,8.712-.006h1.1V32.644H13.527c-2.835,0-5.67.026-8.5-.009C1.88,32.6.027,30.69.014,27.544c-.009-2.627,0-5.255,0-7.882,0-3.375,1.881-5.273,5.254-5.292,2.766-.015,5.531,0,8.3,0h1.06c0-3.079-.007-6.013,0-8.947.011-3.6,1.838-5.412,5.444-5.413C27.5,0,34.933-.02,42.365.038a15.259,15.259,0,0,1,2.969.678,2.2,2.2,0,0,0,.92.025,15.254,15.254,0,0,1,2.962-.7C56.578-.022,63.943.006,71.305.007c3.81,0,5.563,1.764,5.566,5.6,0,2.859,0,5.717,0,8.664H78c2.939,0,5.877-.029,8.814.013a4.617,4.617,0,0,1,4.662,4.589c.049,1.451.012,2.9.014,4.356,0,1.778,0,3.557,0,5.382,3.006,0,5.944.046,8.878-.013,2.82-.057,4.893.948,5.857,3.744M60.292,43.116q5.6,0,11.2,0c1.264,0,1.481-.2,1.485-1.412q.014-3.835,0-7.672c0-1.159-.23-1.383-1.412-1.384q-11.249-.009-22.5,0c-1.255,0-1.4.165-1.409,1.463q-.009,3.784,0,7.569c0,1.276.164,1.435,1.44,1.436q5.6.006,11.2,0m-.015,28.608q5.647,0,11.3,0c1.155,0,1.4-.243,1.4-1.4q.014-3.835,0-7.67c0-1.135-.267-1.411-1.407-1.412-7.532-.008-15.063.005-22.6-.014-.989,0-1.344.406-1.33,1.371.036,2.522.01,5.045.013,7.567,0,1.424.136,1.56,1.531,1.561q5.544,0,11.091,0M89.6,43.117q5.545,0,11.091,0c1.3,0,1.611-.294,1.615-1.557.009-2.523-.027-5.045.017-7.566.018-.987-.359-1.361-1.335-1.359q-11.348.027-22.7,0c-.9,0-1.323.343-1.313,1.289.032,2.626.037,5.252,0,7.877-.015.977.326,1.343,1.328,1.331,3.766-.043,7.532-.017,11.3-.017m-.073,28.607c3.764,0,7.528-.015,11.291.011.952.006,1.4-.328,1.4-1.323-.027-2.624-.023-5.249,0-7.873.008-.908-.361-1.315-1.3-1.313q-11.292.022-22.583,0c-.965,0-1.369.374-1.355,1.358.035,2.589.009,5.179.013,7.769,0,1.251.113,1.368,1.351,1.369q5.592.007,11.187,0M31.2,14.366c3.767,0,7.533-.019,11.3.013.971.008,1.371-.332,1.354-1.329-.042-2.522-.011-5.046-.015-7.568,0-1.443-.113-1.557-1.522-1.557q-11.144,0-22.288,0c-1.325,0-1.512.181-1.515,1.478q-.009,3.732,0,7.465c0,1.33.165,1.495,1.49,1.5q5.6.008,11.2,0m29.233,0c3.766,0,7.532-.018,11.3.013.969.008,1.368-.329,1.352-1.33-.045-2.556-.012-5.114-.017-7.67,0-1.336-.129-1.454-1.515-1.454H49.27c-1.31,0-1.516.2-1.52,1.485q-.01,3.732,0,7.463c0,1.344.146,1.49,1.493,1.492q5.6.008,11.195,0M74.9,28.613c3.8,0,7.606-.024,11.409.017.941.01,1.291-.28,1.273-1.243-.051-2.558-.014-5.117-.019-7.675,0-1.254-.181-1.437-1.444-1.437-7.536,0-15.073.009-22.609-.016-.936,0-1.3.3-1.28,1.26.045,2.558.011,5.116.016,7.675,0,1.266.159,1.417,1.453,1.418q5.6,0,11.2,0M31.255,32.537c-3.8,0-7.6.022-11.4-.014-1-.009-1.355.393-1.344,1.354q.042,3.888,0,7.775c-.008.9.3,1.325,1.264,1.323q11.4-.031,22.807,0c.951,0,1.287-.376,1.275-1.3-.032-2.591-.005-5.184-.013-7.775,0-1.22-.154-1.364-1.391-1.365q-5.6-.006-11.2,0M74.993,47.121c-3.833,0-7.665.019-11.5-.014-.946-.008-1.28.335-1.263,1.279q.066,3.882,0,7.767c-.014,1,.4,1.322,1.367,1.319q11.34-.034,22.682,0c.928,0,1.307-.334,1.294-1.276-.032-2.589-.044-5.179.007-7.768.018-.98-.286-1.34-1.3-1.327-3.763.05-7.526.02-11.29.021m-.094,28.6c-3.833,0-7.666.013-11.5-.011-.846,0-1.173.31-1.164,1.16.031,2.624.035,5.249,0,7.873-.013.987.382,1.34,1.355,1.338q11.343-.033,22.686,0c.923,0,1.313-.332,1.3-1.276-.031-2.624-.04-5.249,0-7.873.017-.966-.353-1.239-1.288-1.228-3.8.044-7.6.018-11.4.019M31.139,61.384c-3.8,0-7.6.021-11.4-.016-.9-.008-1.242.3-1.232,1.195.03,2.591,0,5.183.013,7.774,0,1.145.337,1.48,1.483,1.48,7.5.006,15-.007,22.493.016.963,0,1.379-.314,1.363-1.319-.04-2.59-.008-5.182-.017-7.774,0-1.205-.161-1.354-1.4-1.355q-5.649-.006-11.3,0M16.5,75.724c-3.769,0-7.537.021-11.3-.014-.926-.009-1.3.276-1.285,1.247.048,2.558.012,5.117.018,7.675,0,1.257.189,1.439,1.442,1.439q11.2,0,22.4,0c1.271,0,1.469-.205,1.471-1.528q.007-3.681,0-7.364c0-1.249-.2-1.451-1.44-1.453q-5.653-.007-11.305,0M45.583,47.033c-3.763,0-7.527.03-11.289-.02-1.022-.014-1.317.355-1.3,1.327.048,2.554.041,5.11.005,7.664-.014.983.386,1.359,1.353,1.357q11.338-.022,22.682,0c.99,0,1.33-.407,1.313-1.376-.042-2.485-.012-4.971-.015-7.457,0-1.391-.1-1.495-1.459-1.5q-5.645,0-11.29,0M45.8,75.724q-5.648,0-11.3,0c-1.257,0-1.333.081-1.335,1.368-.005,2.556.024,5.113-.013,7.669-.015,1,.4,1.325,1.362,1.322,7.5-.023,14.994-.011,22.491-.015,1.125,0,1.476-.352,1.481-1.479q.01-3.68,0-7.358c0-1.3-.205-1.506-1.495-1.507q-5.6-.006-11.195,0M16.5,47.033c-3.8,0-7.6.023-11.4-.016-.916-.01-1.2.318-1.188,1.208q.063,3.884,0,7.769c-.016.977.34,1.371,1.324,1.368q11.292-.027,22.584,0c.92,0,1.3-.352,1.289-1.294-.036-2.589-.053-5.18.008-7.769.024-1.028-.366-1.293-1.33-1.282-3.763.041-7.528.017-11.292.017m0-18.42c3.871,0,7.743-.021,11.614.017.839.008,1.166-.213,1.15-1.1-.046-2.592-.039-5.185,0-7.777.013-.979-.363-1.346-1.349-1.342q-11.406.036-22.813,0c-.925,0-1.2.334-1.185,1.216.04,2.558.011,5.116.014,7.674,0,1.265.054,1.311,1.373,1.311q5.6,0,11.2,0m29.321,0c3.836,0,7.674-.029,11.509.021.936.012,1.186-.305,1.169-1.191-.045-2.557-.036-5.116,0-7.673.01-.962-.339-1.36-1.339-1.357q-11.406.037-22.814,0c-.915,0-1.211.311-1.2,1.2.04,2.591.045,5.185,0,7.776-.016.959.325,1.251,1.27,1.24,3.8-.044,7.6-.018,11.408-.018" fill="#ff6b00"/>
  </g>
</svg>
