<svg id="Group_124159" data-name="Group 124159" xmlns="http://www.w3.org/2000/svg" xmlns:xlink="http://www.w3.org/1999/xlink" width="75.415" height="75.414" viewBox="0 0 75.415 75.414">
  <defs>
    <clipPath id="clip-path">
      <rect id="Rectangle_38598" data-name="Rectangle 38598" width="75.415" height="75.414" transform="translate(0 0)" fill="none"/>
    </clipPath>
  </defs>
  <g id="Group_124160" data-name="Group 124160" clip-path="url(#clip-path)">
    <path id="Path_187166" data-name="Path 187166" d="M.123,70.029,0,69.964V53.173l.128-.05q0,8.452-.005,16.906" fill="#0b0b0b"/>
    <path id="Path_187167" data-name="Path 187167" d="M75.415,58.475l-.144.009q.01-5.042.019-10.084l.125.059Z" fill="#0c0c0c"/>
    <path id="Path_187168" data-name="Path 187168" d="M30.49,75.414a1.1,1.1,0,0,1,1.178,0Z" fill="#232323"/>
    <path id="Path_187169" data-name="Path 187169" d="M20.243,38.818h0"/>
    <path id="Path_187170" data-name="Path 187170" d="M74.818,66.707a6.058,6.058,0,0,0-3.21-2.657.943.943,0,0,1-.706-1.043c.024-.929.03-1.86,0-2.788-.021-.614.237-.824.825-.807.782.022,1.567.042,2.348-.013.873-.062,1.19-.354,1.266-1.095V48.5c-.156-.767-.37-.98-1.2-.988-2.994-.027-5.989-.034-8.983,0-1,.013-1.408.457-1.451,1.468-.035.809-.019,1.619-.009,2.429.007.55-.2.805-.776.8q-2.908-.015-5.817,0c-.585,0-.775-.263-.763-.805.015-.712.016-1.424,0-2.135-.03-1.234-.513-1.721-1.76-1.769-.711-.027-1.425-.028-2.135,0-.61.022-.82-.246-.818-.833.012-3.117.007-6.234,0-9.351a.994.994,0,0,1,.721-1.052,5.126,5.126,0,0,0,2.123-1.414A5.537,5.537,0,0,0,52.6,26.08a1.43,1.43,0,0,1-.983-1.563c.049-1.5.037-2.994,0-4.491-.024-1.114-.511-1.6-1.621-1.68-.318-.024-.638-.014-.957-.014q-5.374,0-10.75,0c-.87,0-.938-.066-.945-.906-.011-1.153.008-2.307-.007-3.46-.008-.571.234-.787.793-.777,1.055.018,2.111,0,3.166,0q8.69,0,17.378,0c1.328,0,1.773-.386,1.781-1.592.024-3.412.009-6.823.01-10.235A1.206,1.206,0,0,0,59.507,0H23.42a1.022,1.022,0,0,0-.784,1.1c.126.964.458,1.282,1.413,1.341.344.021.688.01,1.031.01q13.659,0,27.319,0c.785,0,1.571.027,2.356-.019.784.031,1.567.014,2.35.011.5,0,.7.215.7.707q0,3.341,0,6.681c0,.5-.212.7-.705.7-.783-.005-1.566-.019-2.349.011a7.5,7.5,0,0,0-.808-.019H15.674c-.27,0-.54-.013-.809,0-.565.025-.785-.24-.784-.8.006-2.158.01-4.317,0-6.476,0-.615.274-.813.851-.8.932.017,1.864.009,2.8,0A1.434,1.434,0,0,0,19.241,1.4,1.154,1.154,0,0,0,18.412,0H12.373c-.9.284-.946,1.055-.952,1.791q-.037,4.674,0,9.348c.013,1.622.465,2.048,2.064,2.049q7.729,0,15.458,0c1.619,0,3.239-.007,4.858,0,.8,0,.872.078.88.9.011,1.055.006,2.11,0,3.165,0,1.04-.04,1.078-1.073,1.079-3.705,0-7.409-.006-11.114,0-1.657,0-2.21.551-2.24,2.2-.024,1.349-.035,2.7.005,4.048a1.358,1.358,0,0,1-.944,1.507,5.024,5.024,0,0,0-3.161,4.441c-.186,2.165.492,4.127,2.463,5.126a2.625,2.625,0,0,1,1.632,3.121l-.005.035c0-.005,0-.006,0,.038-.006,1.1-.029,1.125-1.1,1.127-2.086,0-4.171,0-6.257,0-1.653,0-2.2.547-2.213,2.212-.014,1.5-.016,2.993,0,4.49.007.6-.234.837-.831.815-.71-.026-1.423-.027-2.134,0a1.457,1.457,0,0,0-1.6,1.612c-.03.711,0,1.423-.011,2.135-.011.895-.061.947-.97.954-1.3.011-2.6-.024-3.9.017C.427,52.25.2,52.472.076,53.248V69.893c.141.829.376,1.023,1.384,1.027,3.655.014,7.311,0,10.966.005q5.962,0,11.924,0c.537,0,.98.037,1.233.661a5.6,5.6,0,0,0,4.612,3.83h.3a1.926,1.926,0,0,1,1.178,0h.3a16.3,16.3,0,0,0,1.715-.32,5.578,5.578,0,0,0,3.313-3.98A5.78,5.78,0,0,0,33.345,64.1a.966.966,0,0,1-.729-1.033c.021-.981.012-1.963,0-2.945,0-.506.223-.7.715-.693.81.01,1.621.026,2.43-.007.968-.04,1.372-.446,1.411-1.419.033-.809.015-1.62.009-2.43,0-.49.194-.712.7-.71q2.909.012,5.817,0c.5,0,.716.2.712.7-.005.736-.01,1.473,0,2.209.023,1.246.4,1.647,1.633,1.654q4.308.021,8.616,0c1.125-.005,1.613-.486,1.659-1.6.031-.761.008-1.522.011-2.283,0-.455.2-.672.664-.672q3.02,0,6.038,0c.464,0,.67.2.67.662,0,.76-.012,1.522.005,2.282a1.425,1.425,0,0,0,1.575,1.614c.76.031,1.522.018,2.283.006.5-.008.709.208.705.7-.008.957-.027,1.915.007,2.872a1.034,1.034,0,0,1-.81,1.126,5.835,5.835,0,0,0-3.625,6.919,5.474,5.474,0,0,0,4.937,4.368h1.768a2.3,2.3,0,0,1,.776-.137A1.313,1.313,0,0,0,72.4,73.293a1.471,1.471,0,0,0-1.715-.471,3.25,3.25,0,0,1-2.085-.033A3.187,3.187,0,0,1,66.325,69.7a3.1,3.1,0,0,1,2.084-3.137,3.375,3.375,0,0,1,2.024-.132A3.252,3.252,0,0,1,72.986,69.4c.1.76.4,1.308,1.226,1.429a1.1,1.1,0,0,0,1.2-.867V68.786a5.648,5.648,0,0,0-.6-2.079m-44.656-3.23c0,.367-.076.532-.481.653a5.513,5.513,0,0,0-3.943,3.9c-.141.476-.375.521-.777.519q-5.521-.013-11.042,0c-3.681,0-7.362-.014-11.043.015-.561,0-.68-.145-.677-.687q.038-6.294,0-12.588c-.005-.581.17-.689.7-.665.955.042,1.914.038,2.87,0,.473-.018.576.146.56.586-.034.907-.017,1.816-.009,2.723.009.926.37,1.316,1.274,1.319q4.491.017,8.981,0c.858,0,1.25-.411,1.253-1.274q.01-4.454,0-8.907c0-.892-.408-1.294-1.31-1.309-.932-.014-1.866-.028-2.8.008-.469.018-.575-.146-.566-.587.027-1.349.036-2.7,0-4.049-.016-.538.113-.705.682-.7,3.681.028,7.361.014,11.042.014,1.571,0,3.142.018,4.712-.011.465-.009.58.14.571.584q-.039,2.061,0,4.122c.009.46-.084.655-.6.629-.906-.046-1.815-.022-2.723-.01-.951.012-1.348.4-1.35,1.342q-.008,4.416,0,8.834c0,.916.378,1.3,1.284,1.316s1.817.028,2.724-.006c.483-.017.7.079.679.631-.043,1.2-.023,2.405-.007,3.607M49.238,25.366a.578.578,0,0,1-.47.669,5.321,5.321,0,0,0,.04,10.167c.377.127.425.3.424.626-.006,3.461-.015,6.922.009,10.383,0,.486-.164.562-.588.548-.907-.029-1.816-.018-2.724-.006-.95.012-1.322.393-1.332,1.354-.009.859-.031,1.719.008,2.576.025.543-.079.766-.7.753-2.086-.046-4.173-.033-6.259-.006-.5.006-.69-.1-.664-.638.046-.931.024-1.865.009-2.8a1.1,1.1,0,0,0-1.222-1.239,22.354,22.354,0,0,0-2.576.013c-.749.068-.873-.212-.853-.89.051-1.716.022-3.436.016-5.154-.005-1.13-.373-1.492-1.511-1.493-2.479,0-4.958-.015-7.437.01-.5,0-.687-.1-.66-.639.045-.905.034-1.816,0-2.723-.014-.421.131-.568.533-.7a5.318,5.318,0,0,0,0-10.122.658.658,0,0,1-.533-.775c.025-1.276.035-2.554,0-3.829-.016-.53.163-.647.666-.645,4.2.019,8.394.011,12.591.011,4.173,0,8.346.012,12.518-.015.59,0,.742.163.723.735-.043,1.275-.03,2.552,0,3.828"/>
    <path id="Path_187171" data-name="Path 187171" d="M19.146,1.134c.974,0,1.949,0,2.923.01A1.1,1.1,0,0,0,22.763,1c.146.968.431,1.2,1.482,1.2l29.66,0c.3,0,.588.015.881.024a1.228,1.228,0,0,1,.242.965q.012,3.3,0,6.59a1.346,1.346,0,0,1-.241.971c-.244.013-.488.038-.732.038q-19.657,0-39.314.016c-.657,0-.872-.14-.858-.836.047-2.355.04-4.711,0-7.067-.01-.6.174-.74.737-.715.98.045,1.964-.019,2.944.023a1.341,1.341,0,0,0,1.578-1.086" fill="#a757f7"/>
    <path id="Path_187172" data-name="Path 187172" d="M12,57.039c-.982,0-1.964-.017-2.944.008-.4.01-.554-.081-.549-.518.023-2.012.02-4.024,0-6.036,0-.411.107-.548.533-.543q3.018.03,6.036,0c.41,0,.547.1.542.528q-.031,3.018,0,6.036c0,.412-.106.547-.528.535-1.03-.03-2.061-.01-3.092-.01" fill="#98e5fb"/>
    <path id="Path_187173" data-name="Path 187173" d="M27.689,53.541c0-1.03.015-2.06-.008-3.09-.008-.382.107-.5.5-.5q3.052.027,6.107,0c.382,0,.508.109.505.5q-.024,3.052,0,6.106c0,.393-.124.495-.5.492q-3.052-.024-6.106,0c-.377,0-.512-.093-.5-.489.027-1,.009-2.01.009-3.016" fill="#ff6b00"/>
    <path id="Path_187174" data-name="Path 187174" d="M50.4,49.959c.981,0,1.962.013,2.943-.007.378-.007.575.044.569.505q-.036,3.054,0,6.108c0,.407-.149.483-.512.48-2.036-.013-4.072-.016-6.108,0-.387,0-.5-.111-.5-.5q.027-3.054,0-6.107c0-.4.143-.5.516-.49,1.029.021,2.06.007,3.09.007" fill="#7926cb"/>
    <path id="Path_187175" data-name="Path 187175" d="M73.2,53.46c0,.979-.019,1.959.009,2.938.012.427-.074.6-.555.59-2.007-.029-4.015-.023-6.023,0-.416,0-.542-.116-.538-.535.019-2.032.015-4.065,0-6.1,0-.34.084-.467.447-.464q3.122.022,6.243,0c.4,0,.423.179.42.488-.013,1.028,0,2.057,0,3.085" fill="#c7eefd"/>
    <path id="Path_187176" data-name="Path 187176" d="M53.474,31.133a3.107,3.107,0,0,1-3.158,3.086A3.11,3.11,0,0,1,50.367,28a3.1,3.1,0,0,1,3.107,3.134" fill="#fd9bd7"/>
    <path id="Path_187177" data-name="Path 187177" d="M54.788,10.76q0-4.263,0-8.526c.929-.008,1.858,0,2.787-.032.368-.011.512.077.509.481-.018,2.544-.012,5.089-.005,7.633,0,.317-.047.5-.432.49-.952-.033-1.9-.033-2.858-.046" fill="#7926cb"/>
    <path id="Path_187178" data-name="Path 187178" d="M74.23,70.7A5.019,5.019,0,0,1,72.9,73c-.178.16-.324.37-.6.381a1.437,1.437,0,0,0-1.654-.342,2.7,2.7,0,0,1-2.186-.106.48.48,0,0,1,.1-.269,4.62,4.62,0,0,0-.239-6.246,3.456,3.456,0,0,1,4.839,2.9A1.378,1.378,0,0,0,74.23,70.7" fill="#ff6b00"/>
    <path id="Path_187179" data-name="Path 187179" d="M29.9,66.423a3.447,3.447,0,0,1,4.142,1.054,3.535,3.535,0,0,1,.085,4.241,3.452,3.452,0,0,1-4.1,1.207,7.152,7.152,0,0,0,1.2-2.563,4.157,4.157,0,0,0-1.106-3.649.929.929,0,0,1-.22-.29" fill="#fd92d2"/>
    <path id="Path_187180" data-name="Path 187180" d="M29.9,66.423c.515.069.692.513.924.87a4.418,4.418,0,0,1-.8,5.632,3.471,3.471,0,0,1-.129-6.5" fill="#fdade0"/>
    <path id="Path_187181" data-name="Path 187181" d="M68.324,66.416a2.466,2.466,0,0,1,1.33,1.9,4.331,4.331,0,0,1-1.194,4.618,3.359,3.359,0,0,1-2.35-3.177,3.311,3.311,0,0,1,2.214-3.338" fill="#ff8d3b"/>
    <path id="Path_187182" data-name="Path 187182" d="M20.455,28.268a3.076,3.076,0,0,1,3.683.925,3.244,3.244,0,0,1-.1,3.956,3.112,3.112,0,0,1-3.731.739,3.951,3.951,0,0,0,.325-5.226.876.876,0,0,1-.18-.394" fill="#ff6b00"/>
    <path id="Path_187183" data-name="Path 187183" d="M20.455,28.268a4.1,4.1,0,0,1,.4,5.3.788.788,0,0,1-.548.323,2.842,2.842,0,0,1-1.767-2.932,2.818,2.818,0,0,1,1.912-2.688" fill="#ff8d3b"/>
  </g>
</svg>
