<svg id="Group_120525" data-name="Group 120525" xmlns="http://www.w3.org/2000/svg" xmlns:xlink="http://www.w3.org/1999/xlink" width="90" height="90" viewBox="0 0 90 90">
  <defs>
    <clipPath id="clip-path">
      <rect id="Rectangle_37045" data-name="Rectangle 37045" width="90" height="90" fill="#ff6b00"/>
    </clipPath>
  </defs>
  <g id="Group_120524" data-name="Group 120524" clip-path="url(#clip-path)">
    <path id="Path_181729" data-name="Path 181729" d="M0,54.668V40.957A15.2,15.2,0,0,1,2.537,34.7a.478.478,0,0,0-.04-.453A11.539,11.539,0,0,1,0,28.828V14.239a2.029,2.029,0,0,0,.151-.4A15.675,15.675,0,0,1,10.3,1.072,32.771,32.771,0,0,1,14.238,0h3.34c.253.059.5.14.76.174,7.046.949,13.039,7.1,13.456,14.172.266,4.524.111,9.074.122,13.612a9.424,9.424,0,0,1-.225,1.738,10.56,10.56,0,0,1-2.482,4.838c3.113,3.714,2.775,8.192,2.831,12.59a5.724,5.724,0,0,0,.664-1.111,3.859,3.859,0,0,1,7.177,0c1.083,2.206,2.214,4.388,3.274,6.6a4.014,4.014,0,0,1,.391,1.665q.036,12.961.017,25.923V81.22h2.874V80.026q0-17.267.015-34.535a3.6,3.6,0,0,1,.348-1.5c1.08-2.239,2.23-4.445,3.314-6.682a3.856,3.856,0,0,1,7.179-.02c1.074,2.21,2.213,4.388,3.275,6.6a4.018,4.018,0,0,1,.4,1.665q.033,17.312.016,34.623v1.052h2.809V34.764l-1.952,1.273c-2.622-2.626-5.179-5.188-7.775-7.787.286-.6.612-1.286.941-1.971a.8.8,0,0,0-.507-1.237A11.776,11.776,0,0,0,53,24.529c-.645-.145-.782-.51-.774-1.125.032-2.577.013-5.155.013-7.733,0-2.155,0-2.154,2-2.874.055-.02.107-.048.162-.066a.835.835,0,0,0,.569-1.339c-.332-.676-.65-1.358-.983-2.058l6.062-6.066c1.527-1.527,1.527-1.526,3.506-.609.053.025.1.057.155.081a.8.8,0,0,0,1.247-.505c.265-.744.522-1.49.783-2.235H76.465c.243.655.491,1.308.729,1.964.346.954.655,1.094,1.555.677.45-.209.91-.4,1.336-.653a.735.735,0,0,1,1.051.18c1.778,1.818,3.588,3.6,5.384,5.4.556.558,1.425,1.058,1.563,1.709.131.626-.477,1.422-.8,2.126s-.107,1.1.589,1.336c.715.247,1.419.528,2.127.793V24.258l-2.153.749c-.7.244-.88.676-.549,1.36s.926,1.441.808,2.052-.964,1.112-1.5,1.655c-.41.418-.828.828-1.241,1.243l-4.8,4.82-2.123-1.388V81.288c2.574,0,5.09.008,7.606,0,1.314-.006,2.629-.047,3.943-.073V90H0V81.211c1.312.025,2.624.075,3.934.048.2-.005.477-.326.586-.562.317-.684.584-1.392.836-2.1a4.981,4.981,0,0,0,.428-1.539c.033-4.793.02-9.586.02-14.379V59.71a21.653,21.653,0,0,1-2.79-.944A6.036,6.036,0,0,1,0,54.668M27.176,32.386a6.849,6.849,0,0,0,1.832-4.612c.019-4.1.01-8.2,0-12.3a10.771,10.771,0,0,0-.154-1.57A13.045,13.045,0,0,0,3.364,12.6a15.123,15.123,0,0,0-.437,3.47c-.054,3.748-.02,7.5-.021,11.246a7.051,7.051,0,0,0,1.869,5.055,14.868,14.868,0,0,1,6.766-3c.074-.881.078-.888-.658-1.254a8.519,8.519,0,0,1-5.014-7.031,37.748,37.748,0,0,1-.058-4.477A7.257,7.257,0,0,1,10.492,9.9c.254-.1.507-.2.814-.325L9.035,6.712l2.259-1.8c.761.946,1.466,1.84,2.19,2.718a10.486,10.486,0,0,0,8.167,3.981,4.379,4.379,0,0,1,4.486,4.516c.026,1.142,0,2.285.01,3.427a8.838,8.838,0,0,1-5.2,8.639c-.27.134-.405.538-.6.816.256.179.489.457.771.522a14.187,14.187,0,0,1,6.065,2.859M80.3,32.3c1.286-1.291,2.61-2.655,3.979-3.973.414-.4.5-.736.172-1.193a1.959,1.959,0,0,1-.036-2.485,1.3,1.3,0,0,0,.2-.483,1.983,1.983,0,0,1,1.8-1.722c.58-.091.7-.465.692-1.01-.032-1.376-.01-2.754-.01-4.13,0-1.68-.051-1.585-1.533-2.37-.524-.277-.711-1.16-1.1-1.737a2.081,2.081,0,0,1,.01-2.64c.323-.429.2-.753-.182-1.117-1.2-1.156-2.4-2.325-3.537-3.546-.5-.532-.93-.7-1.544-.263a1.6,1.6,0,0,1-2.077.043,1.369,1.369,0,0,0-.563-.235A2.264,2.264,0,0,1,74.64,3.488a.946.946,0,0,0-.706-.549c-1.874-.047-3.749-.039-5.624-.007-.22,0-.6.236-.628.411-.227,1.293-1.107,1.78-2.231,2.245a2.4,2.4,0,0,1-2.655-.08c-.46-.349-.767-.14-1.113.215C60.478,6.961,59.27,8.2,58.01,9.381c-.458.429-.519.792-.18,1.263a1.9,1.9,0,0,1,.025,2.408,1.048,1.048,0,0,0-.174.4A2.073,2.073,0,0,1,55.8,15.315c-.556.078-.64.445-.633.944.026,1.669.045,3.34-.007,5.008-.021.689.126,1.124.859,1.234.875.13,1.23.713,1.6,1.492.627,1.332.957,2.547-.033,3.6l4.639,4.63c1.44-.428,1.883-1.523,1.641-3a1.18,1.18,0,0,1,0-.351,1.721,1.721,0,0,0-.662-1.589,11.245,11.245,0,0,1-3.566-10.023,11.6,11.6,0,0,1,21.851-3.64,11.477,11.477,0,0,1-2.251,13.494,2.911,2.911,0,0,0-.873,2.121A2.517,2.517,0,0,0,80.3,32.3M14.506,49.34V38.588l-.229-.129-3.192,3.429c-.578-1.525-1.072-2.826-1.564-4.129q-.753-2-1.5-4a9.541,9.541,0,0,0-5.009,7.475c-.145,2.57-.072,5.152-.09,7.729a1.609,1.609,0,0,0,.09.364H5.8V40.694H8.727V52.172H23.241V40.694h2.936v8.615h2.838c0-2.4.034-4.746-.018-7.085a10.19,10.19,0,0,0-.385-2.593,9.96,9.96,0,0,0-4.667-5.941c-1.033,2.74-2.029,5.379-3.024,8.019l-.328.2-3.228-3.32V49.34ZM87.052,84.271H2.906v2.75H87.052ZM8.78,55.217V75.829a6.852,6.852,0,0,1,5.669.676,3.463,3.463,0,0,0,.073-.443c0-4.248.012-8.5-.013-12.743a2.123,2.123,0,0,0-.388-1.032c-.717-1.131-1.472-2.238-2.252-3.415l2.4-1.6,1.991,2.954c.532-.654.993-1.219,1.465-1.8l2.2,2.207c-.649.606-1.269,1.226-1.936,1.792a1.7,1.7,0,0,0-.6,1.454c.025,3.9.013,7.792.013,11.688v1a6.9,6.9,0,0,1,5.757-.766V55.217Zm7.193-23.058c.8-1.138,1.679-2.1,1.468-3.6A2.474,2.474,0,0,1,18.552,26.2,12.435,12.435,0,0,1,20,25.388a5.7,5.7,0,0,0,3.211-5.255c.016-1.142,0-2.284,0-3.427,0-1.773-.3-2.124-2.045-2.213a11.8,11.8,0,0,1-5.918-1.72,3.646,3.646,0,0,0-3.068-.381,3.824,3.824,0,0,0-3.27,3.161,24.617,24.617,0,0,0,.1,6.278c.268,1.883,1.73,3.061,3.446,3.821a2.831,2.831,0,0,1,2.022,2.8,5.267,5.267,0,0,0,1.493,3.711M69.6,24.728H66.844V81.254H69.6Zm3.065,56.486h2.766V24.724H72.661ZM52.186,46.492H49.423V81.244h2.763Zm5.809,0H55.226V81.235h2.769ZM63.74,23.327c.156-.381.269-.712.423-1.022,1.131-2.279,2.284-4.547,3.4-6.831A3.847,3.847,0,0,1,74.7,15.5c1.087,2.234,2.221,4.446,3.324,6.672.188.381.324.788.475,1.161,2.249-2.869,1.622-7.927-1.368-10.755a8.692,8.692,0,0,0-11.677-.3C62.21,15.1,61.426,20.086,63.74,23.327m-28.974,31.9H32.013V81.25h2.753Zm5.811-.006H37.814V81.243h2.763ZM26.143,59.653v1c0,5.178.012,10.357-.011,15.536a4.244,4.244,0,0,0,.7,2.894,3.392,3.392,0,0,1,.447,1.133c.369,1.224.361,1.226,1.687.956V58.883l-2.819.77M50.262,43.527h6.9c-.937-1.848-1.8-3.626-2.738-5.359a.829.829,0,0,0-1.462.037c-.92,1.716-1.767,3.47-2.7,5.322M67.7,21.726h6.867c-.909-1.807-1.745-3.539-2.65-5.234a.86.86,0,0,0-1.565-.02c-.9,1.7-1.738,3.431-2.652,5.254M39.73,52.211c-.938-1.85-1.8-3.623-2.737-5.356a.852.852,0,0,0-1.421.01c-.929,1.734-1.789,3.5-2.717,5.346ZM14.356,81.23a3.546,3.546,0,0,0-4.062-2.8c-1.537.258-2.914,1.669-2.75,2.8Zm10.162.015a3.519,3.519,0,0,0-3.81-2.841,3.317,3.317,0,0,0-3.056,2.841ZM3.043,52.286c-.575,2.419.741,4.43,2.757,4.2,0-1.277,0-2.559,0-3.841a2.409,2.409,0,0,0-.064-.363ZM26.19,56.538c2.09,0,3.236-1.82,2.707-4.24H26.19ZM12.167,36.52l1.89-1.92c-.27-.408-.539-.82-.812-1.229-.879-1.318-.88-1.318-2.4-.806-.026.008-.046.035-.124.1l1.445,3.858m5.789-2.037,1.812,2.061c.512-1.381.982-2.649,1.454-3.92-1.662-.555-1.662-.555-2.564.8-.257.386-.513.773-.7,1.059" fill="#ff6b00"/>
  </g>
</svg>
