<svg id="Group_120715" data-name="Group 120715" xmlns="http://www.w3.org/2000/svg" xmlns:xlink="http://www.w3.org/1999/xlink" width="49.999" height="50" viewBox="0 0 49.999 50">
  <defs>
    <clipPath id="clip-path">
      <rect id="Rectangle_37160" data-name="Rectangle 37160" width="49.999" height="50" fill="#5a189a"/>
    </clipPath>
  </defs>
  <g id="Group_120714" data-name="Group 120714" clip-path="url(#clip-path)">
    <path id="Path_181896" data-name="Path 181896" d="M16.406,50a1.158,1.158,0,0,1-.586-1.134c.02-1.854,0-3.709.013-5.563a.717.717,0,0,0-.305-.656A15.669,15.669,0,0,1,9.3,31.95c-.033-.235-.085-.355-.346-.432a4.157,4.157,0,0,1-.07-8.024c.09-.029.18-.06.293-.1,0-.483.026-.955-.006-1.423A2.058,2.058,0,0,1,10.2,20.01a5.872,5.872,0,0,1,1.108-.6c.847-.322,1.714-.592,2.646-.908.139.586.261,1.1.394,1.655a9.418,9.418,0,0,0-3.612,1.55,7.464,7.464,0,0,0,.868.579A16.491,16.491,0,0,0,16.2,23.524a58.025,58.025,0,0,0,17.014.076,40.115,40.115,0,0,0,4.771-1.156,6.791,6.791,0,0,0,1.308-.71,8.82,8.82,0,0,0-3.643-1.568c.124-.535.244-1.05.373-1.61a11.063,11.063,0,0,1,3.815,1.476,2.078,2.078,0,0,1,.994,1.941c-.032.468-.006.94-.006,1.326a12.537,12.537,0,0,1,1.673.9,4.138,4.138,0,0,1-1.217,7.247.746.746,0,0,0-.616.7,15.721,15.721,0,0,1-6.221,10.553.863.863,0,0,0-.263.609c-.02,1.838-.026,3.677,0,5.514A1.2,1.2,0,0,1,33.594,50ZM39.261,23.7c-.444.185-.722.313-1.008.419a29.083,29.083,0,0,1-7.638,1.467,64.166,64.166,0,0,1-10.045.094A37.186,37.186,0,0,1,13.248,24.6c-.808-.22-1.592-.527-2.412-.8,0,1.793-.015,3.582.006,5.37a20.089,20.089,0,0,0,.143,2.822,14.142,14.142,0,0,0,16.53,11.95,13.979,13.979,0,0,0,11.406-11.6c.357-2.808.239-5.677.34-8.638M32.488,43.979a16.019,16.019,0,0,1-14.96.008V48.3h14.96Zm8.367-14.207a2.361,2.361,0,0,0,1.639-2.433c-.02-.881-.9-2.094-1.639-2.09ZM9.144,25.221a2.372,2.372,0,0,0-1.634,2.36,2.316,2.316,0,0,0,1.634,2.192Z" fill="#5a189a"/>
    <path id="Path_181897" data-name="Path 181897" d="M0,12.019c.049-.116.1-.232.147-.351a2.494,2.494,0,1,1,0,1.679C.1,13.228.049,13.113,0,13v-.977m3.323.467a.816.816,0,0,0-.857-.8.824.824,0,0,0,.042,1.648.816.816,0,0,0,.815-.846" fill="#5a189a"/>
    <path id="Path_181898" data-name="Path 181898" d="M0,2.06A2.633,2.633,0,0,1,1.845.1,2.5,2.5,0,1,1,.193,3.468C.132,3.323.064,3.18,0,3.037V2.06m2.5-.383a.85.85,0,0,0-.833.843.834.834,0,0,0,.855.813.816.816,0,0,0,.8-.811A.835.835,0,0,0,2.5,1.677" fill="#5a189a"/>
    <path id="Path_181899" data-name="Path 181899" d="M24.979,1.372a10.747,10.747,0,0,1,.987-.985,1.686,1.686,0,0,1,.856-.36c.744-.051,1.494-.013,2.243-.018a.871.871,0,0,1,.918.648c.164.493.34.983.489,1.48.08.269.2.435.507.379.017,0,.034,0,.049,0,1.84-.432,2.764.892,3.785,2a1.14,1.14,0,0,1,.173.685c.02.829-.008,1.659.018,2.488a1.194,1.194,0,0,0,.221.713,6.683,6.683,0,0,1,1.5,4.807,3.991,3.991,0,0,1-1.572,3.658c-.039.028-.066.074-.105.1a2.018,2.018,0,0,0-.889,2.044c.072.584-.2.857-.771,1.006-.786.2-1.58.376-2.358.6a.858.858,0,0,0-.482.437c-.212.49-.353,1.011-.528,1.517-.208.606-.427.759-1.079.762s-1.3-.018-1.952.007a1.314,1.314,0,0,1-1.124-.461c-.254-.293-.535-.563-.88-.923a9.093,9.093,0,0,1-.931.98,1.762,1.762,0,0,1-.9.38c-.727.055-1.462.014-2.195.019a.893.893,0,0,1-.948-.677c-.163-.51-.354-1.012-.5-1.527a.681.681,0,0,0-.583-.55c-.746-.159-1.482-.369-2.222-.553-.674-.167-.93-.409-.861-1.076a2.027,2.027,0,0,0-.814-1.934,10.063,10.063,0,0,1-1.308-1.311,1.512,1.512,0,0,1-.367-.851c-.039-1.3-.029-2.6-.006-3.9a2.644,2.644,0,0,1,.225-.726.166.166,0,0,1,.025-.042,9.391,9.391,0,0,0,1.349-2.181A8.234,8.234,0,0,0,15,5.441a1.542,1.542,0,0,1,.549-1.33A15.082,15.082,0,0,0,16.721,2.94a1.225,1.225,0,0,1,1.036-.428c.406.02.815-.015,1.219.01a.459.459,0,0,0,.557-.389c.116-.438.276-.866.422-1.3.233-.692.427-.826,1.18-.827.618,0,1.237.021,1.855-.007a1.321,1.321,0,0,1,1.163.476c.25.295.524.569.826.893M22.427,17.518a1.748,1.748,0,0,1-.67,1.926c-.865.8-.84.822-.424,1.924.006.015.007.036.018.044.128.09.246.233.385.256a1.963,1.963,0,0,0,2.048-.758,1.487,1.487,0,0,0,.387-.987c-.011-5.27-.036-10.54.02-15.809a2.473,2.473,0,0,0-1.007-2.246c-.013-.01-.022-.033-.035-.034-.565-.04-1.129-.083-1.694-.11-.031,0-.073.133-.1.206-.464,1.12-.464,1.12.394,1.98a2.984,2.984,0,0,0,.276.275c.571.438.515,1.022.422,1.634H20.9a2.232,2.232,0,0,0-.222-.6A2.082,2.082,0,0,0,18.51,4.18c-.138.031-.293-.011-.437.009a.716.716,0,0,0-.349.122,2.576,2.576,0,0,0-1.1,2.163,2.914,2.914,0,0,0,1.147,2.634,1.524,1.524,0,0,1,.524,1.7H16.9c-.349-.461-.61-.809-.865-1.148A3.19,3.19,0,0,0,15,12.462a6.61,6.61,0,0,1,0,1.559c-.085.685.329,1.009.851,1.419V14.21h1.672v4.312c.673.17,1.3.336,1.933.482.126.029.329.029.4-.047.4-.443,1.028-.718,1.028-1.439ZM27.572,5.83a1.732,1.732,0,0,1,.64-1.894c.9-.827.881-.858.444-1.954a.593.593,0,0,0-.4-.3,1.959,1.959,0,0,0-2.046.756,1.492,1.492,0,0,0-.386.988c.011,5.253.035,10.507-.017,15.76a2.45,2.45,0,0,0,.973,2.259c.025.019.045.063.07.065.565.043,1.128.085,1.694.111.03,0,.069-.134.1-.208.462-1.121.462-1.121-.393-1.978a2.292,2.292,0,0,0-.243-.24,1.53,1.53,0,0,1-.461-1.669h1.491c.145.276.239.506.375.71A1.4,1.4,0,0,0,31.4,18.8a2.07,2.07,0,0,1,.378-.094c.9-.243.716-.056.727-.941.014-1.182,0-2.364,0-3.561h1.684v1.2a1.494,1.494,0,0,0,.816-1.522,6.5,6.5,0,0,1,0-1.655,3.2,3.2,0,0,0-1.035-2.59L33.135,10.8H31.673c0-.536-.166-1.108.319-1.445a3.224,3.224,0,0,0,1.336-3.422c-.019-.128.011-.262-.009-.39a.586.586,0,0,0-.11-.3C32.65,4.606,32.1,3.949,31.1,4.178a4.129,4.129,0,0,1-.535.011.488.488,0,0,0-.307.1c-.415.492-1.11.773-1.137,1.544Z" fill="#5a189a"/>
    <path id="Path_181900" data-name="Path 181900" d="M50,12.484a2.495,2.495,0,1,1-2.5-2.478A2.512,2.512,0,0,1,50,12.484m-1.667.039a.835.835,0,0,0-.827-.842.825.825,0,0,0-.033,1.649.832.832,0,0,0,.86-.807" fill="#5a189a"/>
    <path id="Path_181901" data-name="Path 181901" d="M47.517,5a2.472,2.472,0,0,1-2.506-2.451A2.495,2.495,0,1,1,47.517,5m-.006-3.323a.835.835,0,0,0-.834.834.816.816,0,0,0,.789.822.836.836,0,0,0,.866-.8.851.851,0,0,0-.821-.854" fill="#5a189a"/>
    <path id="Path_181902" data-name="Path 181902" d="M12.217,5.226l-1.232,1.2c-.336-.363-.7-.769-1.078-1.16C9.455,4.8,8.961,4.369,8.54,3.877a1.4,1.4,0,0,0-1.354-.544,3.75,3.75,0,0,1-.5,0V1.7c.615,0,1.225-.015,1.832.011a.732.732,0,0,1,.414.233c1.1,1.084,2.182,2.178,3.285,3.283" fill="#5a189a"/>
    <path id="Path_181903" data-name="Path 181903" d="M38.958,6.4,37.775,5.251C38.9,4.124,40,3.005,41.118,1.9a.789.789,0,0,1,.476-.211c.563-.025,1.127-.01,1.719-.01V3.292a.837.837,0,0,1-.27.041,1.829,1.829,0,0,0-1.8.762c-.728.8-1.524,1.545-2.285,2.308" fill="#5a189a"/>
    <rect id="Rectangle_37158" data-name="Rectangle 37158" width="4.941" height="1.605" transform="translate(6.684 11.707)" fill="#5a189a"/>
    <rect id="Rectangle_37159" data-name="Rectangle 37159" width="4.935" height="1.605" transform="translate(38.378 11.7)" fill="#5a189a"/>
    <path id="Path_181904" data-name="Path 181904" d="M22.533,29.208h1.631c0,.331,0,.635,0,.939,0,1.284-.006,2.568,0,3.852,0,.636.311.986.828.989s.833-.347.838-.98c.009-1.4,0-2.8,0-4.193v-.6h1.619a2.094,2.094,0,0,1,.049.321c0,1.511.02,3.023,0,4.534a2.491,2.491,0,0,1-3.286,2.467,2.215,2.215,0,0,1-1.661-2.022c-.075-1.748-.021-3.5-.021-5.3" fill="#5a189a"/>
    <path id="Path_181905" data-name="Path 181905" d="M19.169,36.668c.507,0,.96-.015,1.41.012a.389.389,0,0,1,.276.244A2.209,2.209,0,0,0,22.043,38.4a5.926,5.926,0,0,0,5.826.055,2.254,2.254,0,0,0,1.286-1.568.349.349,0,0,1,.26-.2c.451-.022.9-.01,1.4-.01a2.907,2.907,0,0,1-.523,1.768,5.327,5.327,0,0,1-3.641,2.222,7.192,7.192,0,0,1-6.127-1.31,3.456,3.456,0,0,1-1.351-2.68" fill="#5a189a"/>
    <path id="Path_181906" data-name="Path 181906" d="M16.644,29.969h-1.6A2.457,2.457,0,1,1,19.961,30c-.465,0-.933.008-1.4-.008a.328.328,0,0,1-.244-.165.822.822,0,0,0-.917-.63c-.461.042-.65.368-.757.776" fill="#5a189a"/>
    <path id="Path_181907" data-name="Path 181907" d="M34.942,29.972H33.365c-.123-.43-.34-.793-.875-.786-.514.007-.733.348-.85.782H30.028a2.444,2.444,0,0,1,2.6-2.449,2.384,2.384,0,0,1,2.315,2.453" fill="#5a189a"/>
    <path id="Path_181908" data-name="Path 181908" d="M20.825,7.541h1.644c0,.895.01,1.765-.009,2.634a.72.72,0,0,1-.215.421c-.526.549-1.068,1.083-1.614,1.633l-1.172-1.3c.311-.281.732-.628,1.109-1.018a.991.991,0,0,0,.246-.586c.032-.579.011-1.16.011-1.787" fill="#5a189a"/>
    <path id="Path_181909" data-name="Path 181909" d="M20.826,16.654h-1.59a2.475,2.475,0,0,1,1.021-3.027l1.06,1.125a4.066,4.066,0,0,0-.473.875,4.206,4.206,0,0,0-.018,1.027" fill="#5a189a"/>
    <path id="Path_181910" data-name="Path 181910" d="M29.373,12.2c-.544-.54-1.114-1.09-1.661-1.662a.786.786,0,0,1-.188-.482c-.019-.825-.009-1.65-.009-2.509h1.66c0,.591-.024,1.172.012,1.749a1.1,1.1,0,0,0,.261.628c.359.393.767.741,1.137,1.092L29.373,12.2" fill="#5a189a"/>
    <path id="Path_181911" data-name="Path 181911" d="M29.821,13.711c1.188.6,1.112,1.739.975,2.933H29.2c-.118-.648.235-1.435-.583-1.8l1.2-1.129" fill="#5a189a"/>
  </g>
</svg>
