<svg id="Group_120712" data-name="Group 120712" xmlns="http://www.w3.org/2000/svg" xmlns:xlink="http://www.w3.org/1999/xlink" width="50" height="50" viewBox="0 0 50 50">
  <defs>
    <clipPath id="clip-path">
      <rect id="Rectangle_37149" data-name="Rectangle 37149" width="50" height="50" fill="#5a189a"/>
    </clipPath>
  </defs>
  <g id="Group_120711" data-name="Group 120711" clip-path="url(#clip-path)">
    <path id="Path_181878" data-name="Path 181878" d="M0,37.989c.062-.184.123-.367.185-.55a3,3,0,0,1,2.162-2.058c.288-.075.366-.189.356-.459-.016-.422-.012-.846,0-1.269.013-.547.281-.849.731-.844s.712.308.728.857a7.842,7.842,0,0,0,.018,1.169,4.337,4.337,0,0,0,.428,1.257.906.906,0,0,0,1.184.412c1.937-.7,3.073.563,3.364,2.223a.745.745,0,0,1-.59.955c-.426.071-.739-.179-.851-.67a4.383,4.383,0,0,0-.132-.519c-.237-.667-.557-.825-1.238-.627a2.448,2.448,0,0,1-2.945-.9.665.665,0,0,0-.516-.195,1.712,1.712,0,0,0-1.414,1.78A1.741,1.741,0,0,0,2.88,40.34a1.406,1.406,0,0,1,1.277,1.523c.017.748,0,1.5.008,2.246A1.268,1.268,0,0,0,5.586,45.52c.213,0,.424-.006.635,0a1.244,1.244,0,0,1,1.322,1.215,4.875,4.875,0,0,0,.074.482A1.619,1.619,0,0,0,9.166,48.53a1.56,1.56,0,0,0,1.465-1.4c.079-.953.052-1.917.047-2.875a.391.391,0,0,0-.244-.29,3.008,3.008,0,0,0-.944.055,1.585,1.585,0,0,1-1.982-1.781.9.9,0,0,1,.593-.58c.229-.033.528.209.744.393.114.095.116.324.163.472l1.643-.124V34.654l-1.416-.463c-.047.091-.11.214-.176.335a.728.728,0,0,1-1.348-.547A1.589,1.589,0,0,1,10.075,32.9l.431.213a2.419,2.419,0,0,0,.177-.587q.029-1.1,0-2.2a2.227,2.227,0,0,0-.142-.712A1.486,1.486,0,0,0,7.715,29.6a2.412,2.412,0,0,0-.138.516c-.2,1.215-.474,1.446-1.685,1.461a6.4,6.4,0,0,0-1.012.117.734.734,0,0,1-.89-.478.673.673,0,0,1,.446-.9c.525-.145,1.075-.2,1.627-.293.483-3.05,3.671-3.755,5.345-1.813a1.559,1.559,0,0,0,.177-.138,2.788,2.788,0,0,1,2.935-.83,3.006,3.006,0,0,1,2.155,2.421c.074.336.164.451.519.452a2.815,2.815,0,0,1,2.987,2.5c.47-.5.887-.944,1.309-1.385.226-.235.45-.472.692-.689a1.457,1.457,0,0,0,.635-1.631,1.973,1.973,0,0,1,1.147-2.131.59.59,0,0,0,.288-.376c.02-1.252.009-2.5,0-3.758a.331.331,0,0,0-.04-.115,7.464,7.464,0,0,1-1.119.323,3.017,3.017,0,0,1-3.352-2.517c-.066-.356-.188-.438-.527-.44a2.74,2.74,0,0,1-2.947-2.959c0-.635.013-1.27-.013-1.9a.489.489,0,0,0-.252-.368,3.233,3.233,0,0,1-2.432-3.3,3.212,3.212,0,0,1,2.509-3.135c.046-.013.091-.033.187-.069,0-.7,0-1.408,0-2.119a2.735,2.735,0,0,1,2.971-3.024c.2,0,.419.058.472-.265A3.22,3.22,0,0,1,22.265,0h.879L25,.933C25.583.639,26.219.319,26.855,0h.879A3.28,3.28,0,0,1,30.3,2.747c.02.107.224.232.359.258.4.072.813.057,1.2.154a.714.714,0,0,1,.582.914c-.111.415-.472.58-.966.5a9.72,9.72,0,0,0-1.208-.093,1.264,1.264,0,0,1-1.391-1.25c-.008-.066-.015-.129-.025-.194a1.66,1.66,0,0,0-1.579-1.568,1.642,1.642,0,0,0-1.523,1.67c-.04.779-.024,1.56-.01,2.342A1.929,1.929,0,0,0,25.918,6l.483-.233a1.6,1.6,0,0,1,2.324,1.16A.7.7,0,0,1,28.3,7.8a.725.725,0,0,1-.937-.39c-.06-.114-.114-.228-.162-.325l-1.433.452V15.3l1.647.125c.035-.114.073-.27.13-.418a.683.683,0,0,1,.81-.468.648.648,0,0,1,.593.717c-.051,1.061-.861,2.1-2.122,1.619a1.358,1.358,0,0,0-.474-.081c-.409,0-.662.126-.628.63.046.664.007,1.333.014,2a3.586,3.586,0,0,0,.058.679,1.521,1.521,0,0,0,3,.077,2.756,2.756,0,0,0,.053-.288c.2-1.232.468-1.456,1.732-1.458s1.682-.42,1.684-1.7V15.166a2.069,2.069,0,0,1,.466-1.652,1.128,1.128,0,0,0-1.112-.627,8.281,8.281,0,0,1-1.405-.108,3.034,3.034,0,0,1-2.306-2.1.733.733,0,1,1,1.362-.522,1.791,1.791,0,0,0,2.016,1.258,2.747,2.747,0,0,1,2.839,1.562,1.786,1.786,0,0,0,.816-1.845A1.736,1.736,0,0,0,33.62,9.669a1.441,1.441,0,0,1-1.356-1.652c-.005-.505-.013-1.01.005-1.514A.749.749,0,0,1,33,5.7a.741.741,0,0,1,.72.816c.013.55,0,1.1,0,1.668a3.116,3.116,0,0,1,2.489,2.071,3.286,3.286,0,0,1-2.171,4.377c-.276.076-.322.2-.319.438.008.65.01,1.3,0,1.953a2.726,2.726,0,0,1-2.888,2.871c-.37,0-.508.083-.6.479a2.972,2.972,0,0,1-4.3,2.174,1.354,1.354,0,0,0-.208-.061c0,.623,0,1.217,0,1.811,0,.667-.019,1.335.013,2a.687.687,0,0,0,.288.474,2.267,2.267,0,0,1,1.074,2.717.54.54,0,0,0,.029.429c.867.9,1.754,1.776,2.69,2.714a2.929,2.929,0,0,1,1.139-1.989,2.888,2.888,0,0,1,1.887-.532c.265.011.4-.048.453-.352a3.009,3.009,0,0,1,2.127-2.5,2.8,2.8,0,0,1,3.05.888.491.491,0,0,0,.11.06,2.857,2.857,0,0,1,3.289-.89,3.2,3.2,0,0,1,2.034,2.756c.4.033.77.046,1.136.1a1.891,1.891,0,0,1,.643.209.661.661,0,0,1,.294.884.7.7,0,0,1-.782.451c-.5-.048-1-.112-1.5-.143A1.216,1.216,0,0,1,42.458,30.4a4.724,4.724,0,0,0-.081-.531,1.6,1.6,0,0,0-1.471-1.279,1.462,1.462,0,0,0-1.5,1.221,25.562,25.562,0,0,0-.076,2.919c0,.111.107.223.179.362.146-.067.262-.115.374-.171a1.587,1.587,0,0,1,2.378.973.757.757,0,0,1-.394,1.021.731.731,0,0,1-.953-.439c-.051-.1-.106-.2-.151-.28l-1.43.463V42.4l1.653.117c.031-.1.069-.255.127-.4a.683.683,0,0,1,.8-.486.664.664,0,0,1,.6.717c-.044,1.049-.842,2.108-2.114,1.623a1.366,1.366,0,0,0-.523-.082c-.386.016-.62.153-.587.627.047.664.009,1.334.014,2a3.94,3.94,0,0,0,.041.585,1.526,1.526,0,0,0,3.036.1c.367-1.624.393-1.644,2.094-1.68a1.248,1.248,0,0,0,1.351-1.334c.018-.748-.025-1.5.019-2.245a2.338,2.338,0,0,1,.3-1.049c.179-.288.136-.5-.1-.6a3.282,3.282,0,0,0-1.2-.288,3.327,3.327,0,0,1-3.191-1.76,2.328,2.328,0,0,1-.245-.633.686.686,0,0,1,.481-.848.625.625,0,0,1,.856.355,2.081,2.081,0,0,0,2.375,1.414,2.541,2.541,0,0,1,2.551,1.54,1.717,1.717,0,0,0,.838-1.726A1.759,1.759,0,0,0,47.3,36.8a3.727,3.727,0,0,1-.823-.278,1.311,1.311,0,0,1-.633-1.195c-.012-.569-.017-1.139,0-1.708.015-.515.291-.805.724-.81.449,0,.719.3.733.844.01.439-.013.879.012,1.317.008.128.109.339.2.361a3.22,3.22,0,0,1,2.457,2.619c0,.014.019.026.028.039v1.172c-.049.132-.1.264-.148.4a3.052,3.052,0,0,1-2.229,2.174c-.105.028-.205.073-.334.122,0,.878.031,1.739-.008,2.6a2.617,2.617,0,0,1-1.99,2.426c-.34.087-.709.056-1.059.112-.129.021-.332.124-.348.215A3.287,3.287,0,0,1,41.308,50h-.879l-1.856-.934L36.718,50h-.879a3.224,3.224,0,0,1-2.551-2.75c-.052-.323-.27-.261-.473-.264a2.738,2.738,0,0,1-2.969-3.028c0-.71,0-1.422,0-2.132-.176-.049-.3-.083-.425-.119A3.331,3.331,0,0,1,29.4,35.4c.525-.155.623-.5.233-.892-1.157-1.167-2.318-2.331-3.493-3.48a.818.818,0,0,0-.5-.14,12.367,12.367,0,0,1-1.294-.028.533.533,0,0,0-.587.165c-.145.175-.319.326-.48.487q-1.45,1.449-2.9,2.9c-.37.373-.326.833.074.948a3.324,3.324,0,0,1-.017,6.388c-.09.026-.177.063-.3.106,0,.872.039,1.736-.01,2.594a2.545,2.545,0,0,1-1.8,2.374,7.977,7.977,0,0,1-1.245.175c-.135.026-.339.151-.359.258A3.283,3.283,0,0,1,14.16,50h-.879l-1.854-.934L9.57,50H8.691a3.208,3.208,0,0,1-2.515-2.555c-.077-.365-.189-.469-.553-.469A2.7,2.7,0,0,1,2.7,44.064c-.006-.743,0-1.488,0-2.246a3.119,3.119,0,0,1-2.378-1.8C.191,39.741.1,39.446,0,39.161V37.989m13.849,4.534c.038-.133.036-.341.137-.431a1.524,1.524,0,0,1,.725-.452.619.619,0,0,1,.654.6,1.617,1.617,0,0,1-2,1.786,3.069,3.069,0,0,0-.944-.057.388.388,0,0,0-.245.288c-.006.959-.033,1.923.045,2.876a1.566,1.566,0,0,0,1.462,1.4,1.618,1.618,0,0,0,1.552-1.308,5.229,5.229,0,0,0,.08-.531,1.225,1.225,0,0,1,1.215-1.164c.243-.017.488,0,.732-.007a1.268,1.268,0,0,0,1.427-1.406c.012-.732-.026-1.466.016-2.2a2.029,2.029,0,0,1,.287-1c.23-.334.132-.559-.134-.666A3.162,3.162,0,0,0,17.692,40a3.29,3.29,0,0,1-3.365-2.223.744.744,0,0,1,.4-1.009.736.736,0,0,1,.965.493,1.8,1.8,0,0,0,1.97,1.26,2.756,2.756,0,0,1,2.886,1.559,1.781,1.781,0,0,0,.823-1.8A1.731,1.731,0,0,0,20,36.764a1.421,1.421,0,0,1-1.306-1.594c-.01-.765.012-1.53-.01-2.294a1.254,1.254,0,0,0-1.291-1.3c-.308-.017-.619,0-.927-.016a1.183,1.183,0,0,1-1.143-1.064c-.03-.209-.043-.422-.092-.627A1.567,1.567,0,0,0,13.515,28.6a1.652,1.652,0,0,0-1.337,1.636c-.039.763-.027,1.529-.011,2.293a2.324,2.324,0,0,0,.18.583l.432-.217a1.591,1.591,0,0,1,2.361,1.085.728.728,0,0,1-1.351.54c-.066-.121-.131-.242-.177-.328l-1.41.458V42.4l1.646.121M24.054,5.993c.078-.144.178-.243.178-.34a25.694,25.694,0,0,0-.076-2.966,1.471,1.471,0,0,0-1.505-1.216,1.629,1.629,0,0,0-1.458,1.3,5.226,5.226,0,0,0-.079.531A1.224,1.224,0,0,1,19.9,4.472c-.308.021-.619,0-.927.013a1.2,1.2,0,0,0-1.215,1.157c-.036.8-.049,1.6-.01,2.391A1.337,1.337,0,0,0,19.5,9.354c1.859-.618,3.056.722,3.238,2.464a.667.667,0,0,1-.6.763.69.69,0,0,1-.821-.527c-.072-.214-.091-.447-.165-.66-.234-.672-.563-.856-1.229-.634a2.465,2.465,0,0,1-2.976-.929.561.561,0,0,0-.432-.167,1.687,1.687,0,0,0-1.472,1.674,1.768,1.768,0,0,0,1.35,1.889,1.447,1.447,0,0,1,1.341,1.667c.006.732-.011,1.465.007,2.2a1.266,1.266,0,0,0,1.309,1.34c.194.011.39,0,.586,0,1,.007,1.359.333,1.494,1.334a3.536,3.536,0,0,0,.067.386,1.523,1.523,0,0,0,3.012-.073,3.411,3.411,0,0,0,.054-.631c.006-.683-.028-1.369.013-2.05.029-.477-.208-.6-.6-.606a1.238,1.238,0,0,0-.475.07c-1.116.473-2.032-.35-2.144-1.534a.659.659,0,0,1,.565-.784.678.678,0,0,1,.84.486c.052.147.1.3.126.39l1.636-.125V7.535c-.5-.156-.94-.3-1.414-.445-.036.063-.095.156-.145.253a.748.748,0,0,1-.986.456.765.765,0,0,1-.363-1.035A1.583,1.583,0,0,1,23.661,5.8l.393.194m13.574,27.1c.079-.144.179-.243.178-.34a25.015,25.015,0,0,0-.079-2.965,1.444,1.444,0,0,0-1.508-1.2,1.6,1.6,0,0,0-1.453,1.3,5.227,5.227,0,0,0-.079.531,1.2,1.2,0,0,1-1.223,1.145c-.292.014-.586-.007-.878.012A1.243,1.243,0,0,0,31.32,32.85c-.024.748-.032,1.5,0,2.245a1.371,1.371,0,0,0,1.865,1.333,2.474,2.474,0,0,1,3.138,2.556.727.727,0,0,1-1.418.2c-.075-.214-.093-.446-.165-.66-.233-.695-.563-.87-1.261-.653a2.475,2.475,0,0,1-2.941-.919.6.6,0,0,0-.474-.19,1.714,1.714,0,0,0-1.447,1.755A1.755,1.755,0,0,0,30,40.336a1.424,1.424,0,0,1,1.313,1.591c.011.781-.013,1.563.014,2.343A1.226,1.226,0,0,0,32.6,45.518c.13,0,.26,0,.39,0,1.241,0,1.532.248,1.73,1.473a1.645,1.645,0,0,0,1.606,1.535,1.676,1.676,0,0,0,1.5-1.653c.01-.112.013-.227.014-.34,0-.684-.025-1.369.01-2.051.021-.409-.161-.571-.521-.583a1.455,1.455,0,0,0-.571.068c-1.2.467-2.031-.439-2.13-1.556a.673.673,0,0,1,.586-.776.684.684,0,0,1,.826.512c.051.144.089.293.113.372l1.648-.112V34.657l-1.432-.469c-.041.079-.08.149-.115.221-.243.5-.594.674-1,.5a.767.767,0,0,1-.344-1.077,1.575,1.575,0,0,1,2.369-.9c.1.05.2.1.349.167M25.765,28.75a.766.766,0,1,0-.788.752.76.76,0,0,0,.788-.752" fill="#5a189a"/>
    <path id="Path_181881" data-name="Path 181881" d="M26.855,0,25,.933,23.144,0Z" fill="#5a189a"/>
    <path id="Path_181882" data-name="Path 181882" d="M9.57,50l1.857-.933L13.281,50Z" fill="#5a189a"/>
    <path id="Path_181883" data-name="Path 181883" d="M36.719,50l1.855-.934L40.43,50Z" fill="#5a189a"/>
  </g>
</svg>
