<svg xmlns="http://www.w3.org/2000/svg" xmlns:xlink="http://www.w3.org/1999/xlink" width="97" height="142" viewBox="0 0 97 142">
  <defs>
    <clipPath id="clip-path">
      <rect id="Rectangle_36956" data-name="Rectangle 36956" width="50" height="50" fill="#f6f6f6"/>
    </clipPath>
  </defs>
  <g id="Group_124189" data-name="Group 124189" transform="translate(-437 -1976)">
    <line id="Line_163" data-name="Line 163" y2="34.452" transform="translate(485.5 2082.548)" fill="none" stroke="#fc6b21" stroke-linecap="round" stroke-linejoin="round" stroke-width="2" stroke-dasharray="0 4.053"/>
    <circle id="Ellipse_4983" data-name="Ellipse 4983" cx="48.5" cy="48.5" r="48.5" transform="translate(437 1976)" fill="#ff6b00"/>
    <g id="Group_120487" data-name="Group 120487" transform="translate(461 2000)">
      <g id="Group_120486" data-name="Group 120486" clip-path="url(#clip-path)">
        <path id="Path_181630" data-name="Path 181630" d="M25.878,0A20.974,20.974,0,0,1,28.69.895,8.284,8.284,0,0,1,31.66,13.3a8.143,8.143,0,0,1-2.971,2.466.557.557,0,0,0-.37.594c.023.845.011,1.691.007,2.537,0,.82-.29,1.1-1.123,1.109-.436,0-.871,0-1.361,0,0,1.264-.007,2.478.01,3.693,0,.12.124.256.222.355.788.8,1.575,1.6,2.384,2.378a.9.9,0,0,0,.548.219c.714.025,1.432-.012,2.146.019a.613.613,0,0,0,.652-.418,9.335,9.335,0,0,1,8.559-5.408A9.555,9.555,0,0,1,49.9,29.025c.022.158.07.311.1.467v16.8a13.164,13.164,0,0,1-.867,2.027A4.073,4.073,0,0,1,46.29,50H38.965a1.023,1.023,0,0,1-.632-1.1c.014-.357,0-.716,0-1.074v-2.82h-6.29c-.95,0-1.2-.258-1.2-1.222v-3.78c-.768,0-1.466,0-2.163,0-1.078,0-1.419-.545-.943-1.5.964-1.934,1.934-3.864,2.894-5.8a1.539,1.539,0,0,0,.2-.589c.054-1.247.082-2.5.122-3.791a14.265,14.265,0,0,0-1.623.011,2.433,2.433,0,0,1-2.3-.942c-.613-.727-1.332-1.364-2.023-2.06-.876.877-1.712,1.7-2.525,2.537a1.4,1.4,0,0,1-1.126.461c-.793-.025-1.587-.007-2.388-.007a8.188,8.188,0,0,1,.157,1.594,7.409,7.409,0,0,0,1.223,4.75c.119.193.207.4.309.609.567,1.133,1.142,2.262,1.7,3.4A.846.846,0,0,1,21.568,40c-.243.014-.488,0-.732,0H19.16c0,1.313,0,2.547,0,3.78,0,.964-.254,1.221-1.2,1.222h-6.29v.575c0,1.107-.01,2.213,0,3.319a1.04,1.04,0,0,1-.633,1.1H0V29.492c.186-.753.318-1.524.567-2.255a9.414,9.414,0,0,1,8.875-6.381A9.3,9.3,0,0,1,18.219,26.3a.55.55,0,0,0,.581.373c.715-.025,1.432.011,2.147-.02a1.047,1.047,0,0,0,.63-.253c.789-.752,1.555-1.527,2.315-2.308a.833.833,0,0,0,.259-.487c.022-1.17.012-2.341.012-3.6-.47,0-.918,0-1.365,0-.833-.006-1.121-.289-1.124-1.109s-.021-1.66.009-2.488a.63.63,0,0,0-.414-.666,8.221,8.221,0,0,1-4.085-4.577A8.308,8.308,0,0,1,21.973.589C22.667.332,23.4.193,24.122,0ZM20.319,38.336c-.883-1.767-1.726-3.416-2.528-5.085a3.523,3.523,0,0,1-.289-1.209c-.1-1.115-.149-2.234-.214-3.351-.017-.289-.158-.376-.442-.37q-1.219.026-2.441,0a.528.528,0,0,0-.553.342A2.439,2.439,0,0,1,11.1,29.925a2.489,2.489,0,0,1-.039-4.837,2.463,2.463,0,0,1,2.809,1.248c.066.118.167.3.256.306.783.025,1.567.014,2.386.014a7.894,7.894,0,0,0-14.841,3.9c-.014,5.778,0,11.556,0,17.334,0,.14.019.279.028.41h8.3c0-1.3-.005-2.572,0-3.84,0-.84.282-1.119,1.109-1.121q2.906,0,5.81,0h.577v-.578c0-1.107,0-2.213,0-3.32,0-.8.29-1.093,1.082-1.1.548-.008,1.1,0,1.744,0M32.813,28.327a1.82,1.82,0,0,0-.092.336c-.075,1.149-.128,2.3-.221,3.447a3.1,3.1,0,0,1-.256,1.07c-.745,1.551-1.529,3.086-2.3,4.627-.075.151-.14.308-.207.456.064.036.078.05.092.051.552.008,1.1.008,1.656.024.7.02,1,.318,1.018,1.02.009.618,0,1.237,0,1.855V43.34H33.1c1.937,0,3.872,0,5.808,0,.805,0,1.092.281,1.1,1.081.01,1.122,0,2.245,0,3.367,0,.172.016.343.027.547,1.851,0,3.654,0,5.458,0A2.56,2.56,0,0,0,48.336,45.5q0-7.419,0-14.837a9.374,9.374,0,0,0-.144-1.7,7.893,7.893,0,0,0-10.9-5.811,7.652,7.652,0,0,0-3.815,3.5c.725,0,1.385-.016,2.043.007a.629.629,0,0,0,.669-.394,2.449,2.449,0,0,1,3.156-1.061A2.492,2.492,0,0,1,40.7,28.262a2.371,2.371,0,0,1-2.06,1.7,2.431,2.431,0,0,1-2.5-1.268c-.1-.152-.277-.348-.424-.353-.958-.032-1.919-.017-2.908-.017m-6.15-10c0-.82.048-1.6-.012-2.374A1.386,1.386,0,0,1,27.656,14.4,6.6,6.6,0,0,0,29.314,3.282,6.259,6.259,0,0,0,22.38,2.231a6.314,6.314,0,0,0-4.015,5.8,6.484,6.484,0,0,0,4.064,6.407,1.237,1.237,0,0,1,.911,1.406,5.583,5.583,0,0,0,0,.634v1.843Zm-15,8.346a.849.849,0,0,0-.82.854.824.824,0,0,0,1.648-.051.864.864,0,0,0-.828-.8m27.493.819a.826.826,0,1,0-.839.831.841.841,0,0,0,.839-.831" fill="#f6f6f6"/>
        <path id="Path_181631" data-name="Path 181631" d="M46.289,50a4.077,4.077,0,0,0,2.844-1.684A12.972,12.972,0,0,0,50,46.289V50Z" fill="#f6f6f6"/>
        <rect id="Rectangle_36948" data-name="Rectangle 36948" width="1.598" height="1.6" transform="translate(9.214 4.211)" fill="#f6f6f6"/>
        <rect id="Rectangle_36949" data-name="Rectangle 36949" width="1.602" height="1.611" transform="translate(9.2 7.53)" fill="#f6f6f6"/>
        <rect id="Rectangle_36950" data-name="Rectangle 36950" width="1.589" height="1.615" transform="translate(12.542 7.546)" fill="#f6f6f6"/>
        <rect id="Rectangle_36951" data-name="Rectangle 36951" width="1.585" height="1.619" transform="translate(9.215 10.848)" fill="#f6f6f6"/>
        <rect id="Rectangle_36952" data-name="Rectangle 36952" width="1.603" height="1.601" transform="translate(39.198 4.2)" fill="#f6f6f6"/>
        <rect id="Rectangle_36953" data-name="Rectangle 36953" width="1.618" height="1.593" transform="translate(35.855 7.54)" fill="#f6f6f6"/>
        <rect id="Rectangle_36954" data-name="Rectangle 36954" width="1.617" height="1.592" transform="translate(39.191 7.549)" fill="#f6f6f6"/>
        <rect id="Rectangle_36955" data-name="Rectangle 36955" width="1.604" height="1.612" transform="translate(39.197 10.867)" fill="#f6f6f6"/>
        <path id="Path_181632" data-name="Path 181632" d="M21.919,7.278l1.2-1.13L24.9,8,26.8,6.05c.446.467.811.848,1.229,1.284-.58.574-1.2,1.211-1.845,1.817a1.038,1.038,0,0,0-.353.854c.02,1.086.008,2.173.008,3.3H24.192c-.009-.166-.026-.337-.027-.508,0-.944.021-1.888-.015-2.83a1.28,1.28,0,0,0-.309-.757c-.606-.655-1.258-1.268-1.922-1.927" fill="#f6f6f6"/>
      </g>
    </g>
  </g>
</svg>
