<svg id="Group_120717" data-name="Group 120717" xmlns="http://www.w3.org/2000/svg" xmlns:xlink="http://www.w3.org/1999/xlink" width="45.101" height="50" viewBox="0 0 45.101 50">
  <defs>
    <clipPath id="clip-path">
      <rect id="Rectangle_37161" data-name="Rectangle 37161" width="45.101" height="50" fill="#5a189a"/>
    </clipPath>
  </defs>
  <g id="Group_120717-2" data-name="Group 120717" clip-path="url(#clip-path)">
    <path id="Path_181912" data-name="Path 181912" d="M19.513,50a4.923,4.923,0,0,1-.614-1,12.164,12.164,0,0,0-2.414-4.63c-.044-.048-.086-.1-.131-.144a1.226,1.226,0,0,0-1.445-.355c-1.907.642-3.863,1.137-5.78,1.752A3.215,3.215,0,0,1,4.781,42.8a7.308,7.308,0,0,1,.053-2.168c.147-1.015.142-1.134-.717-1.673-1.112-.7-1.164-.842-.859-2.149A.458.458,0,0,0,3.1,36.42c-.98-.667-1.247-1.118-.459-2.573.744-1.375.712-1.45-.624-2.216a11.5,11.5,0,0,1-1.078-.665A1.91,1.91,0,0,1,.4,28.156c.8-1.208,1.7-2.345,2.472-3.567.685-1.082,1.252-2.239,1.877-3.36a.623.623,0,0,0-.157-.864c-.207-.184-.4-.386-.6-.573a2.463,2.463,0,0,1-.741-3.076,47.492,47.492,0,0,0,1.836-5.488A14.217,14.217,0,0,1,9.993,4,15.708,15.708,0,0,1,16.08,1.375,52.71,52.71,0,0,1,24.944.038,18.593,18.593,0,0,1,34.4,1.92a25.419,25.419,0,0,1,6,4.06,13.96,13.96,0,0,1,4.31,8.377,25.019,25.019,0,0,1,.339,5.782,13.774,13.774,0,0,1-2.909,7.278,37.245,37.245,0,0,0-2.384,3.5,12.973,12.973,0,0,0-1.571,7.861,21.83,21.83,0,0,0,1.76,7.163,16.95,16.95,0,0,0,.919,1.546c.209.348.438.685.618,1.047.359.72.27,1.019-.385,1.463Zm19.842-1.663c-.31-.552-.617-1.027-.854-1.535a23.628,23.628,0,0,1-1.968-7.811,14.592,14.592,0,0,1,1.712-8.765,34.1,34.1,0,0,1,2.53-3.757,12.09,12.09,0,0,0,2.64-8.316c-.081-1.215-.191-2.432-.375-3.635a12.177,12.177,0,0,0-3.3-6.874,21.933,21.933,0,0,0-4.556-3.417,16.881,16.881,0,0,0-9.039-2.538,44.106,44.106,0,0,0-11.2,1.723c-4.264,1.2-6.858,4.121-8.234,8.211a45.408,45.408,0,0,1-1.75,5.313c-.487,1.014-.435,1.08.39,1.834.036.032.073.063.11.1a2.461,2.461,0,0,1,.644,3.38A38.207,38.207,0,0,1,2.11,28.6c-.174.228-.321.478-.49.732a2.927,2.927,0,0,0,.362.317q.642.4,1.3.773a2.531,2.531,0,0,1,1.1,3.711c-.138.271-.278.54-.409.795a8.524,8.524,0,0,1,1.178,1.068c.395.521-.118.963-.307,1.42a.7.7,0,0,0,.123.106A2.827,2.827,0,0,1,6.468,41a4.709,4.709,0,0,0,.069,1.91,1.408,1.408,0,0,0,1.94,1.148c2.429-.715,4.859-1.435,7.268-2.217,1.714-.556,3.417-1.159,5.081-1.848C22,39.5,23.048,38.8,23.146,37.309a.749.749,0,0,1,.883-.59.833.833,0,0,1,.721.895,3.476,3.476,0,0,1-.907,2.256,8.328,8.328,0,0,1-3.407,2.111c-.95.36-1.918.674-2.92,1.024.131.174.222.306.324.428a12.589,12.589,0,0,1,2.42,4.416c.125.407.324.5.719.5q7.422-.018,14.844-.008h3.532" fill="#5a189a"/>
    <path id="Path_181913" data-name="Path 181913" d="M37.375,11.522c.253.633.462,1.195.709,1.74a.491.491,0,0,0,.367.2c.438.026.879,0,1.318.013a.87.87,0,0,1,.945.847,12.059,12.059,0,0,1,0,3.839.882.882,0,0,1-.937.862c-.422.017-.847.021-1.269,0a.422.422,0,0,0-.493.34c-.147.428-.364.834-.507,1.264a.59.59,0,0,0,.088.485c.293.347.637.65.952.98a.827.827,0,0,1,.086,1.151,11.591,11.591,0,0,1-2.854,2.847.825.825,0,0,1-1.185-.125c-.384-.373-.745-.769-1.09-1.128-.613.243-1.162.442-1.692.683a.541.541,0,0,0-.245.391c-.032.454-.008.911-.017,1.367a.821.821,0,0,1-.752.871,11.534,11.534,0,0,1-4.03,0,.827.827,0,0,1-.743-.88c-.018-.549.151-1.22-.106-1.612-.243-.372-.944-.428-1.419-.671a.467.467,0,0,0-.664.127c-.281.315-.585.612-.9.9a.837.837,0,0,1-1.153.074,11.757,11.757,0,0,1-2.821-2.813.835.835,0,0,1,.108-1.224c.291-.307.583-.616.9-.894a.4.4,0,0,0,.09-.587,6.1,6.1,0,0,1-.36-.8c-.277-.736-.272-.738-1.085-.738h-.048c-1.561,0-1.729-.12-1.8-1.7a27.2,27.2,0,0,1,.1-2.965.846.846,0,0,1,.951-.885c.52-.014,1.149.159,1.529-.075.35-.216.4-.88.642-1.319a.585.585,0,0,0-.146-.864,7.618,7.618,0,0,1-.8-.789.826.826,0,0,1-.1-1.188,11.685,11.685,0,0,1,2.817-2.817.841.841,0,0,1,1.19.084c.321.3.634.61.931.933a.387.387,0,0,0,.551.092,6.031,6.031,0,0,1,.8-.361c.779-.3.781-.292.781-1.151,0-1.571-.006-1.639,1.557-1.769a20.521,20.521,0,0,1,3.209.1c.525.04.745.362.763.9.014.423.019.847,0,1.269a.411.411,0,0,0,.339.5,4.992,4.992,0,0,1,.689.244c.9.38.9.383,1.6-.319.15-.15.3-.3.451-.448a.84.84,0,0,1,1.153-.1,11.561,11.561,0,0,1,2.853,2.849.821.821,0,0,1-.116,1.186c-.374.383-.776.739-1.142,1.083M22.121,24.4l.144-.1a.344.344,0,0,0,.082-.047c.3-.3.6-.6.9-.894.5-.49.761-.494,1.388-.192a20.6,20.6,0,0,0,2.148.9c.733.255.9.43.908,1.222,0,.43,0,.861,0,1.318h2.2c0-.508,0-.961,0-1.414.01-.673.2-.871.814-1.1.774-.283,1.537-.6,2.285-.952.578-.27.863-.275,1.306.181.337.346.638.726.962,1.1.387-.348.664-.575.916-.828s.473-.524.756-.842c-.367-.343-.72-.655-1.053-.988a.949.949,0,0,1-.19-1.312c.345-.748.661-1.512.943-2.286.218-.6.417-.794,1.052-.8.482-.005.964,0,1.471,0V15.139c-.562,0-1.064,0-1.566,0a.892.892,0,0,1-.9-.666c-.325-.845-.675-1.682-1.042-2.509a.921.921,0,0,1,.166-1.157c.364-.349.733-.691,1.172-1.105L35.419,8.1a1.141,1.141,0,0,1-.147.123l-.94.922c-.5.49-.75.49-1.389.181a20.278,20.278,0,0,0-2.149-.9c-.717-.25-.9-.426-.9-1.174,0-.447,0-.895,0-1.36h-2.2c0,.518.009.988,0,1.457-.013.635-.217.838-.807,1.054-.774.282-1.538.6-2.284.95-.6.279-.867.281-1.344-.21-.324-.335-.613-.7-.985-1.135L20.578,9.663c.457.435.82.762,1.163,1.108a.93.93,0,0,1,.181,1.234c-.352.781-.684,1.572-.987,2.374-.212.564-.421.753-1.033.759-.482.005-.965,0-1.47,0v2.227c.532,0,1,0,1.47,0,.635.008.832.2,1.051.8q.423,1.162.943,2.288a.941.941,0,0,1-.188,1.311c-.34.339-.7.656-1.138,1.061L22.121,24.4" fill="#5a189a"/>
    <path id="Path_181914" data-name="Path 181914" d="M13.37,29.988a.783.783,0,0,1-.79-.65,2.793,2.793,0,0,1-.034-.534c-.006-.582-.145-.763-.723-.863a.482.482,0,0,0-.328.128c-.2.164-.366.373-.572.529a.808.808,0,0,1-1.1-.092.828.828,0,0,1-.035-1.075,1.589,1.589,0,0,1,.3-.317.63.63,0,0,0,.2-.944c-.131-.231-.228-.351-.5-.34a3.415,3.415,0,0,1-.776-.047.733.733,0,0,1-.625-.762.741.741,0,0,1,.632-.806,3.215,3.215,0,0,1,.727-.047.516.516,0,0,0,.545-.345.639.639,0,0,0-.213-.942,1.681,1.681,0,0,1-.3-.318.824.824,0,0,1,.047-1.073.814.814,0,0,1,1.105-.085,1.607,1.607,0,0,1,.353.335c.254.355.52.367.909.179.266-.13.373-.25.356-.535a2.9,2.9,0,0,1,.033-.728.807.807,0,0,1,1.561-.065,1.2,1.2,0,0,1,.06.575c-.134.6.272.758.7.887a.445.445,0,0,0,.332-.1c.189-.152.344-.347.533-.5A.819.819,0,0,1,16.93,22.6a1.442,1.442,0,0,1-.267.284.632.632,0,0,0-.207.944c.131.23.227.351.5.341a3.138,3.138,0,0,1,.775.049.8.8,0,0,1-.008,1.568,2.08,2.08,0,0,1-.629.043c-.363-.039-.532.094-.68.441s-.116.537.155.746a2.056,2.056,0,0,1,.276.276.837.837,0,1,1-1.19,1.166.916.916,0,0,0-.105-.1c-.244-.152-.316-.545-.789-.371a.731.731,0,0,0-.551.9,1.38,1.38,0,0,1-.064.528.784.784,0,0,1-.773.572m.017-3.329a1.66,1.66,0,0,0-.03-3.319,1.66,1.66,0,1,0,.03,3.319" fill="#5a189a"/>
    <path id="Path_181915" data-name="Path 181915" d="M9.33,11.693c.321.223.557.409.816.558.142.083.358.185.476.132s.187-.28.246-.441A1.77,1.77,0,0,0,10.9,11.6a.8.8,0,0,1,.8-.755.833.833,0,0,1,.819.7c.083.285-.174.672.257.861.448.2.523-.272.773-.422a.853.853,0,0,1,1.111.092.815.815,0,0,1,.024,1.109c-.05.063-.132.109-.163.179-.083.183-.248.419-.189.551s.34.223.531.237c.618.047,1,.348,1,.844s-.382.8-1,.84c-.191.014-.468.1-.532.241s.064.4.187.546c.42.486.483.931.134,1.3s-.842.32-1.332-.113c-.134-.118-.406-.258-.5-.2a.755.755,0,0,0-.265.522c-.042.432-.131.815-.583.979-.572.208-1.063-.213-1.1-.922-.011-.231.086-.551-.259-.583a.85.85,0,0,0-.552.23c-.464.405-.938.461-1.3.107s-.3-.829.1-1.3a.857.857,0,0,0,.227-.557c-.029-.352-.349-.249-.578-.258-.6-.021-.951-.312-.964-.806s.343-.821.921-.861c.234-.017.59.13.623-.254a.958.958,0,0,0-.269-.59A.846.846,0,0,1,8.623,12.3a3.078,3.078,0,0,1,.707-.6m2.349,4.456a1.149,1.149,0,0,0,.075-2.3,1.149,1.149,0,1,0-.075,2.3" fill="#5a189a"/>
    <path id="Path_181916" data-name="Path 181916" d="M34.2,16.311a5.408,5.408,0,1,1-5.274-5.472A5.42,5.42,0,0,1,34.2,16.311m-1.674-.075A3.736,3.736,0,1,0,28.782,20a3.749,3.749,0,0,0,3.744-3.766" fill="#5a189a"/>
  </g>
</svg>
