<svg id="Group_124011" data-name="Group 124011" xmlns="http://www.w3.org/2000/svg" xmlns:xlink="http://www.w3.org/1999/xlink" width="427.79" height="347.767" viewBox="0 0 427.79 347.767">
  <defs>
    <clipPath id="clip-path">
      <path id="Path_186589" data-name="Path 186589" d="M303.43,299.194H131.842l-12.271,45.867H315.7Z" fill="none"/>
    </clipPath>
    <linearGradient id="linear-gradient" x1="-0.61" y1="1.059" x2="-0.605" y2="1.059" gradientUnits="objectBoundingBox">
      <stop offset="0" stop-color="#421072"/>
      <stop offset="1" stop-color="#a757f7"/>
    </linearGradient>
    <clipPath id="clip-path-2">
      <rect id="Rectangle_38365" data-name="Rectangle 38365" width="427.79" height="347.767" fill="none"/>
    </clipPath>
    <clipPath id="clip-path-3">
      <rect id="Rectangle_38367" data-name="Rectangle 38367" width="196.132" height="2.706" transform="translate(119.57 345.061)" fill="none"/>
    </clipPath>
    <linearGradient id="linear-gradient-2" x1="-0.61" y1="1" x2="-0.605" y2="1" xlink:href="#linear-gradient"/>
    <clipPath id="clip-path-5">
      <path id="Rectangle_38371" data-name="Rectangle 38371" d="M7.758,0H225.322a7.759,7.759,0,0,1,7.759,7.759v148.91a7.758,7.758,0,0,1-7.758,7.758H7.758A7.758,7.758,0,0,1,0,156.669V7.758A7.758,7.758,0,0,1,7.758,0Z" transform="translate(101.683 63.986)" fill="none"/>
    </clipPath>
    <linearGradient id="linear-gradient-3" x1="-0.436" y1="1.726" x2="-0.432" y2="1.726" xlink:href="#linear-gradient"/>
    <clipPath id="clip-path-6">
      <rect id="Rectangle_38373" data-name="Rectangle 38373" width="216.188" height="126.489" transform="translate(109.924 72.036)" fill="none"/>
    </clipPath>
    <linearGradient id="linear-gradient-4" x1="-0.508" y1="2.18" x2="-0.504" y2="2.18" gradientUnits="objectBoundingBox">
      <stop offset="0" stop-color="#404b61"/>
      <stop offset="0.486" stop-color="#3b475f"/>
      <stop offset="1" stop-color="#2f3e5c"/>
    </linearGradient>
    <clipPath id="clip-path-7">
      <rect id="Rectangle_38375" data-name="Rectangle 38375" width="121.436" height="6.189" transform="translate(157.505 270.045)" fill="none"/>
    </clipPath>
    <linearGradient id="linear-gradient-5" x1="-1.297" y1="12.558" x2="-1.289" y2="12.558" xlink:href="#linear-gradient"/>
    <clipPath id="clip-path-9">
      <path id="Path_186642" data-name="Path 186642" d="M308.591,249.608a16.583,16.583,0,1,0,0,33.167h79.321V249.608Z" fill="none"/>
    </clipPath>
    <linearGradient id="linear-gradient-6" x1="-3.045" y1="2.96" x2="-3.034" y2="2.96" gradientUnits="objectBoundingBox">
      <stop offset="0" stop-color="#3076a1"/>
      <stop offset="1" stop-color="#639c38"/>
    </linearGradient>
    <clipPath id="clip-path-11">
      <path id="Path_186645" data-name="Path 186645" d="M290.352,224.1v25.607h83.1a12.8,12.8,0,1,0,0-25.607Z" fill="none"/>
    </clipPath>
    <linearGradient id="linear-gradient-7" x1="-3.027" y1="4.829" x2="-3.017" y2="4.829" gradientUnits="objectBoundingBox">
      <stop offset="0" stop-color="#7f90de"/>
      <stop offset="1" stop-color="#8f55ff"/>
    </linearGradient>
    <clipPath id="clip-path-13">
      <path id="Path_186648" data-name="Path 186648" d="M312.507,206.36a8.869,8.869,0,1,0,0,17.739h98.365V206.36Z" fill="none"/>
    </clipPath>
    <linearGradient id="linear-gradient-8" x1="-2.832" y1="7.972" x2="-2.822" y2="7.972" xlink:href="#linear-gradient-6"/>
    <clipPath id="clip-path-15">
      <path id="Path_186651" data-name="Path 186651" d="M303.672,188.621a8.869,8.869,0,0,0,0,17.739h69.138V188.621Z" fill="none"/>
    </clipPath>
    <linearGradient id="linear-gradient-9" x1="-3.779" y1="8.972" x2="-3.766" y2="8.972" xlink:href="#linear-gradient-7"/>
    <clipPath id="clip-path-17">
      <rect id="Rectangle_38398" data-name="Rectangle 38398" width="7.125" height="21.643" transform="translate(72.652 208.18)" fill="none"/>
    </clipPath>
    <linearGradient id="linear-gradient-10" x1="-10.197" y1="6.45" x2="-10.056" y2="6.45" gradientUnits="objectBoundingBox">
      <stop offset="0" stop-color="#bcd7e8"/>
      <stop offset="0.083" stop-color="#bcd7e8"/>
      <stop offset="1" stop-color="#e6e7e8"/>
    </linearGradient>
    <clipPath id="clip-path-19">
      <path id="Rectangle_38405" data-name="Rectangle 38405" d="M2.13,0H59.4a2.129,2.129,0,0,1,2.129,2.129v39.15A2.129,2.129,0,0,1,59.4,43.408H2.13A2.13,2.13,0,0,1,0,41.278V2.13A2.13,2.13,0,0,1,2.13,0Z" transform="translate(45.449 175.197)" fill="none"/>
    </clipPath>
    <linearGradient id="linear-gradient-11" x1="-0.739" y1="3.976" x2="-0.722" y2="3.976" xlink:href="#linear-gradient-10"/>
  </defs>
  <g id="Group_123972" data-name="Group 123972">
    <g id="Group_123971" data-name="Group 123971" clip-path="url(#clip-path)">
      <rect id="Rectangle_38364" data-name="Rectangle 38364" width="196.131" height="45.867" transform="translate(119.571 299.194)" fill="url(#linear-gradient)"/>
    </g>
  </g>
  <g id="Group_123974" data-name="Group 123974">
    <g id="Group_123973" data-name="Group 123973" clip-path="url(#clip-path-2)">
      <path id="Path_186590" data-name="Path 186590" d="M133.194,311.376h11.227a.677.677,0,0,1,.736.758l-1.088,4.884a.727.727,0,0,1-.735.519H131.915a.673.673,0,0,1-.731-.778l1.279-4.884a.734.734,0,0,1,.731-.5" fill="#fff"/>
      <path id="Path_186591" data-name="Path 186591" d="M149.569,311.376h8.487l-1.129,6.161h-8.649Z" fill="#fff"/>
      <path id="Path_186592" data-name="Path 186592" d="M162.3,311.376h8.488l-.888,6.161-8.65.009Z" fill="#fff"/>
      <path id="Path_186593" data-name="Path 186593" d="M175.032,311.376h8.487l-.645,6.161h-8.649Z" fill="#fff"/>
      <path id="Path_186594" data-name="Path 186594" d="M187.763,311.376h8.487l-.4,6.161H187.2Z" fill="#fff"/>
      <path id="Path_186595" data-name="Path 186595" d="M200.494,311.376h8.487l-.161,6.161-8.649.009Z" fill="#fff"/>
      <path id="Path_186596" data-name="Path 186596" d="M302.372,311.376H289.641l1.372,6.161h12.973Z" fill="#fff"/>
      <path id="Path_186597" data-name="Path 186597" d="M285.4,311.376h-8.488l1.13,6.161h8.649Z" fill="#fff"/>
      <path id="Path_186598" data-name="Path 186598" d="M272.666,311.376h-8.487l.887,6.161,8.651.009Z" fill="#fff"/>
      <path id="Path_186599" data-name="Path 186599" d="M259.935,311.376h-8.488l.646,6.161h8.649Z" fill="#fff"/>
      <path id="Path_186600" data-name="Path 186600" d="M247.2,311.376h-8.488l.4,6.161h8.649Z" fill="#fff"/>
      <path id="Path_186601" data-name="Path 186601" d="M234.472,311.376h-8.487l.161,6.161,8.649.009Z" fill="#fff"/>
      <path id="Path_186602" data-name="Path 186602" d="M213.225,311.376h8.488l.14,6.161h-8.628Z" fill="#fff"/>
      <path id="Path_186603" data-name="Path 186603" d="M129.46,322.127h17.735l-1.01,6.355H128.113Z" fill="#fff"/>
      <path id="Path_186604" data-name="Path 186604" d="M305.142,322.127H283.219l1.249,6.355h22.339Z" fill="#fff"/>
      <path id="Path_186605" data-name="Path 186605" d="M278.834,322.127h-8.769l1,6.355H280Z" fill="#fff"/>
      <path id="Path_186606" data-name="Path 186606" d="M265.68,322.127h-8.769l.749,6.355H266.6Z" fill="#fff"/>
      <path id="Path_186607" data-name="Path 186607" d="M252.527,322.127h-8.769l.5,6.355h8.936Z" fill="#fff"/>
      <path id="Path_186608" data-name="Path 186608" d="M239.373,322.127H230.6l.25,6.355h8.935Z" fill="#fff"/>
      <path id="Path_186609" data-name="Path 186609" d="M126.81,333.456h18.132l-1.323,6.313H125.156Z" fill="#fff"/>
      <path id="Path_186610" data-name="Path 186610" d="M149.475,333.456h9.066l-1.075,6.313h-9.231Z" fill="#fff"/>
      <path id="Path_186611" data-name="Path 186611" d="M163.074,333.456h67.989l.253,6.313H162.082Z" fill="#fff"/>
      <path id="Path_186612" data-name="Path 186612" d="M235.6,333.456h9.066l.5,6.313h-9.232Z" fill="#fff"/>
      <path id="Path_186613" data-name="Path 186613" d="M249.2,333.456h9.066l.744,6.313h-9.231Z" fill="#fff"/>
      <path id="Path_186614" data-name="Path 186614" d="M262.8,333.456h9.066l.992,6.313h-9.231Z" fill="#fff"/>
      <path id="Path_186615" data-name="Path 186615" d="M276.4,333.456h9.066l1.24,6.313h-9.231Z" fill="#fff"/>
      <path id="Path_186616" data-name="Path 186616" d="M290,333.456h18.132l1.654,6.313H291.319Z" fill="#fff"/>
      <path id="Path_186617" data-name="Path 186617" d="M226.238,322.127h-8.7v6.355h8.866Z" fill="#fff"/>
      <path id="Path_186618" data-name="Path 186618" d="M213.085,322.127h-8.769l-.25,6.355H213Z" fill="#fff"/>
      <path id="Path_186619" data-name="Path 186619" d="M199.931,322.127h-8.769l-.5,6.355H199.6Z" fill="#fff"/>
      <path id="Path_186620" data-name="Path 186620" d="M186.777,322.127h-8.769l-.749,6.355h8.935Z" fill="#fff"/>
      <path id="Path_186621" data-name="Path 186621" d="M173.623,322.127h-8.769l-1,6.355h8.936Z" fill="#fff"/>
      <path id="Path_186622" data-name="Path 186622" d="M160.47,322.127H151.7l-1.249,6.355h8.936Z" fill="#fff"/>
      <path id="Path_186623" data-name="Path 186623" d="M133.608,307.5l1.441-5.5h4.121l-1.345,5.5Z" fill="#fff"/>
      <path id="Path_186624" data-name="Path 186624" d="M143.291,302h8.242l-1.153,5.5h-8.386Z" fill="#fff"/>
      <path id="Path_186625" data-name="Path 186625" d="M155.654,302H163.9l-.937,5.5h-8.386Z" fill="#fff"/>
      <path id="Path_186626" data-name="Path 186626" d="M168.017,302h8.242l-.72,5.5h-8.387Z" fill="#fff"/>
      <path id="Path_186627" data-name="Path 186627" d="M180.38,302h8.242l-.5,5.5h-8.386Z" fill="#fff"/>
      <path id="Path_186628" data-name="Path 186628" d="M192.743,302h8.242l-.288,5.5h-8.386Z" fill="#fff"/>
      <path id="Path_186629" data-name="Path 186629" d="M205.106,302h8.242l-.072,5.5H204.89Z" fill="#fff"/>
      <path id="Path_186630" data-name="Path 186630" d="M217.469,302h8.242l.144,5.5h-8.386Z" fill="#fff"/>
      <path id="Path_186631" data-name="Path 186631" d="M229.832,302h8.242l.36,5.5h-8.386Z" fill="#fff"/>
      <path id="Path_186632" data-name="Path 186632" d="M242.195,302h8.242l.576,5.5h-8.385Z" fill="#fff"/>
      <path id="Path_186633" data-name="Path 186633" d="M254.558,302H262.8l.792,5.5h-8.386Z" fill="#fff"/>
      <path id="Path_186634" data-name="Path 186634" d="M266.921,302h8.242l1.009,5.5h-8.386Z" fill="#fff"/>
      <path id="Path_186635" data-name="Path 186635" d="M279.284,302h8.242l1.225,5.5h-8.386Z" fill="#fff"/>
      <path id="Path_186636" data-name="Path 186636" d="M291.647,302h8.242l1.441,5.5h-8.386Z" fill="#fff"/>
    </g>
  </g>
  <g id="Group_123976" data-name="Group 123976">
    <g id="Group_123975" data-name="Group 123975" clip-path="url(#clip-path-3)">
      <rect id="Rectangle_38366" data-name="Rectangle 38366" width="196.132" height="2.706" transform="translate(119.57 345.061)" fill="url(#linear-gradient-2)"/>
    </g>
  </g>
  <g id="Group_123978" data-name="Group 123978">
    <g id="Group_123977" data-name="Group 123977" clip-path="url(#clip-path-2)">
      <rect id="Rectangle_38368" data-name="Rectangle 38368" width="26.993" height="81.986" transform="translate(204.727 191.153)" fill="#5a189a"/>
    </g>
  </g>
  <g id="Group_123980" data-name="Group 123980">
    <g id="Group_123979" data-name="Group 123979" clip-path="url(#clip-path-5)">
      <rect id="Rectangle_38370" data-name="Rectangle 38370" width="233.081" height="164.427" transform="translate(101.683 63.986)" fill="url(#linear-gradient-3)"/>
    </g>
  </g>
  <g id="Group_123982" data-name="Group 123982">
    <g id="Group_123981" data-name="Group 123981" clip-path="url(#clip-path-6)">
      <rect id="Rectangle_38372" data-name="Rectangle 38372" width="216.188" height="126.489" transform="translate(109.924 72.036)" fill="url(#linear-gradient-4)"/>
    </g>
  </g>
  <g id="Group_123984" data-name="Group 123984">
    <g id="Group_123983" data-name="Group 123983" clip-path="url(#clip-path-7)">
      <rect id="Rectangle_38374" data-name="Rectangle 38374" width="121.436" height="6.189" transform="translate(157.505 270.045)" fill="url(#linear-gradient-5)"/>
    </g>
  </g>
  <g id="Group_123986" data-name="Group 123986">
    <g id="Group_123985" data-name="Group 123985" clip-path="url(#clip-path-2)">
      <path id="Path_186637" data-name="Path 186637" d="M119.279,185.011a.019.019,0,0,0-.011,0c.045.02.051.021.011,0" fill="#323657"/>
      <path id="Path_186638" data-name="Path 186638" d="M102.259,0h48.76V42.786l-7.444-7.444H102.259Z" fill="#5a189a"/>
      <path id="Path_186639" data-name="Path 186639" d="M138.175,12.555H115.1a1.337,1.337,0,1,1,0-2.673h23.071a1.336,1.336,0,0,1,1.336,1.336h0a1.336,1.336,0,0,1-1.336,1.336" fill="#fff"/>
      <path id="Path_186640" data-name="Path 186640" d="M135.686,17.83H115.1a1.337,1.337,0,1,1,0-2.673h20.582a1.337,1.337,0,0,1,0,2.673" fill="#fff"/>
      <path id="Path_186641" data-name="Path 186641" d="M130.3,23.246H115.1a1.337,1.337,0,0,1,0-2.673H130.3a1.336,1.336,0,0,1,1.336,1.336h0a1.336,1.336,0,0,1-1.336,1.336" fill="#fff"/>
    </g>
  </g>
  <g id="Group_123988" data-name="Group 123988">
    <g id="Group_123987" data-name="Group 123987" clip-path="url(#clip-path-9)">
      <rect id="Rectangle_38377" data-name="Rectangle 38377" width="95.905" height="33.167" transform="translate(292.008 249.608)" fill="url(#linear-gradient-6)"/>
    </g>
  </g>
  <g id="Group_123990" data-name="Group 123990">
    <g id="Group_123989" data-name="Group 123989" clip-path="url(#clip-path-2)">
      <path id="Path_186643" data-name="Path 186643" d="M403.264,253.022v26.341h1.568v3.414H339.744a6.223,6.223,0,0,1-6.222-6.223V255.83a6.222,6.222,0,0,1,6.222-6.222h65.088v3.414Z" fill="#3a7d8d"/>
      <path id="Path_186644" data-name="Path 186644" d="M403.262,279.361H351.474a13.17,13.17,0,1,1,0-26.34h51.788Z" fill="#fff"/>
      <rect id="Rectangle_38378" data-name="Rectangle 38378" width="25.311" height="0.652" transform="translate(367.529 266.059)" fill="#deccc5"/>
      <rect id="Rectangle_38379" data-name="Rectangle 38379" width="27.028" height="0.652" transform="translate(355.663 268.041)" fill="#deccc5"/>
    </g>
  </g>
  <g id="Group_123992" data-name="Group 123992">
    <g id="Group_123991" data-name="Group 123991" clip-path="url(#clip-path-11)">
      <rect id="Rectangle_38381" data-name="Rectangle 38381" width="95.905" height="25.607" transform="translate(290.352 224.1)" fill="url(#linear-gradient-7)"/>
    </g>
  </g>
  <g id="Group_123994" data-name="Group 123994">
    <g id="Group_123993" data-name="Group 123993" clip-path="url(#clip-path-2)">
      <path id="Path_186646" data-name="Path 186646" d="M275,226.736v20.336h-1.567v2.635H338.28a6.462,6.462,0,0,0,6.462-6.462V230.562a6.462,6.462,0,0,0-6.462-6.462H273.433v2.636Z" fill="#8187e3"/>
      <path id="Path_186647" data-name="Path 186647" d="M275,247.071h55.975a10.168,10.168,0,1,0,0-20.335H275Z" fill="#fff"/>
      <rect id="Rectangle_38382" data-name="Rectangle 38382" width="19.609" height="0.39" transform="translate(301.104 232.906)" fill="#c5d2de"/>
      <rect id="Rectangle_38383" data-name="Rectangle 38383" width="20.939" height="0.39" transform="translate(308.966 234.091)" fill="#c5d2de"/>
    </g>
  </g>
  <g id="Group_123996" data-name="Group 123996">
    <g id="Group_123995" data-name="Group 123995" clip-path="url(#clip-path-13)">
      <rect id="Rectangle_38385" data-name="Rectangle 38385" width="107.235" height="17.739" transform="translate(303.637 206.36)" fill="url(#linear-gradient-8)"/>
    </g>
  </g>
  <g id="Group_123998" data-name="Group 123998">
    <g id="Group_123997" data-name="Group 123997" clip-path="url(#clip-path-2)">
      <path id="Path_186649" data-name="Path 186649" d="M426.222,208.186v14.088h1.568V224.1H360.37a3.891,3.891,0,0,1-3.89-3.891v-9.958a3.89,3.89,0,0,1,3.89-3.89h67.42v1.825Z" fill="#3a7d8d"/>
      <path id="Path_186650" data-name="Path 186650" d="M426.221,222.273H366.657a7.043,7.043,0,1,1,0-14.087h59.564Z" fill="#fff"/>
      <rect id="Rectangle_38386" data-name="Rectangle 38386" width="25.311" height="0.503" transform="translate(390.487 211.194)" fill="#deccc5"/>
      <rect id="Rectangle_38387" data-name="Rectangle 38387" width="27.028" height="0.349" transform="translate(378.621 216.219)" fill="#deccc5"/>
    </g>
  </g>
  <g id="Group_124000" data-name="Group 124000">
    <g id="Group_123999" data-name="Group 123999" clip-path="url(#clip-path-15)">
      <rect id="Rectangle_38389" data-name="Rectangle 38389" width="78.008" height="17.739" transform="translate(294.803 188.621)" fill="url(#linear-gradient-9)"/>
    </g>
  </g>
  <g id="Group_124002" data-name="Group 124002">
    <g id="Group_124001" data-name="Group 124001" clip-path="url(#clip-path-2)">
      <path id="Path_186652" data-name="Path 186652" d="M383.978,190.447v14.088h1.14v1.826H337.139a3.9,3.9,0,0,1-3.9-3.9v-9.947a3.9,3.9,0,0,1,3.9-3.9h47.979v1.826Z" fill="#8187e3"/>
      <path id="Path_186653" data-name="Path 186653" d="M383.977,204.534H342.566a7.044,7.044,0,0,1,0-14.088h41.41Z" fill="#fff"/>
      <rect id="Rectangle_38390" data-name="Rectangle 38390" width="18.413" height="0.503" transform="translate(357.981 193.454)" fill="#c5d2de"/>
      <rect id="Rectangle_38391" data-name="Rectangle 38391" width="19.662" height="0.349" transform="translate(349.35 198.479)" fill="#c5d2de"/>
      <rect id="Rectangle_38392" data-name="Rectangle 38392" width="32.102" height="1.292" transform="matrix(0.005, -1, 1, 0.005, 349.375, 99.788)" fill="#292929"/>
      <path id="Path_186654" data-name="Path 186654" d="M350.008,98.776V98.77c.007,0,.013,0,.021,0s.013,0,.02,0v.006c3.043.157,2.62,15.816,2.62,15.816l-2.691-.012h-.041l-2.692-.012s-.281-15.663,2.763-15.792" fill="#292929"/>
      <path id="Path_186655" data-name="Path 186655" d="M274.431,55.774,244.862,38.252l62.044-16.808,68.536,49.651-37.377,7.714Z" fill="#272a45"/>
      <path id="Path_186656" data-name="Path 186656" d="M273.46,63.986s29.549-.214,61.3,20.627l6.181-10.872s-21.28-27.538-66.6-21.222Z" fill="#51578f"/>
      <rect id="Rectangle_38393" data-name="Rectangle 38393" width="27.072" height="1.607" transform="translate(43.971 228.216)" fill="#e2d2ca"/>
      <rect id="Rectangle_38394" data-name="Rectangle 38394" width="2.372" height="73.085" transform="translate(47.599 234.006)" fill="#706865"/>
      <rect id="Rectangle_38395" data-name="Rectangle 38395" width="18.818" height="2.295" transform="translate(66.806 227.76)" fill="#ccbdb7"/>
    </g>
  </g>
  <g id="Group_124004" data-name="Group 124004">
    <g id="Group_124003" data-name="Group 124003" clip-path="url(#clip-path-17)">
      <rect id="Rectangle_38397" data-name="Rectangle 38397" width="7.125" height="21.643" transform="translate(72.652 208.18)" fill="url(#linear-gradient-10)"/>
    </g>
  </g>
  <g id="Group_124006" data-name="Group 124006">
    <g id="Group_124005" data-name="Group 124005" clip-path="url(#clip-path-2)">
      <rect id="Rectangle_38399" data-name="Rectangle 38399" width="104.262" height="4.155" transform="translate(34.26 229.85)" fill="#b59074"/>
      <path id="Path_186657" data-name="Path 186657" d="M14.249,204.7s-1.14,15.992,1.984,17.906c1.958,1.2,9.762,5.242,9.531,6s-4.407,6.747-4.407,6.747S6.366,225.48,5.883,222.369c-.473-3.039.738-23.415,2.8-24.353,1.543-.7,2.358-.122,4.3,1.322,2.729,2.027,1.265,5.36,1.265,5.36" fill="#ff6b00"/>
      <path id="Path_186658" data-name="Path 186658" d="M41.571,209.264l1.321-.489s-1.648-3.868-2.367-3.773a17.862,17.862,0,0,0-1.862.381Z" fill="#ead8cf"/>
      <path id="Path_186659" data-name="Path 186659" d="M41.872,209.931c-.169-.126-2.809-5.19-2.809-5.19l-5.64.766,3.048,6Z" fill="#da9b5b"/>
      <path id="Path_186660" data-name="Path 186660" d="M32.693,297.112s-.466,3.236-.524,3.722-5.186-.287-5.186-.287l-.415-3.852s5.484-.04,6.125.417" fill="#424773"/>
      <path id="Path_186661" data-name="Path 186661" d="M32.223,300.422a13.853,13.853,0,0,0,3.2,2.8c1.571.85,4.04,1.186,4.969,2.066.671.635,2.443,3.369-4.083,3.313s-9.672.387-10.371-.662,1.012-7.736,1.012-7.736a13.817,13.817,0,0,0,5.277.219" fill="#292c47"/>
      <path id="Path_186662" data-name="Path 186662" d="M65.545,297.142s-.467,3.236-.524,3.722-5.187-.286-5.187-.286l-.414-3.853s5.483-.039,6.125.417" fill="#424773"/>
      <path id="Path_186663" data-name="Path 186663" d="M65.075,300.453a13.829,13.829,0,0,0,3.2,2.8c1.571.849,7.353,1.547,8.282,2.427.671.635,1.787,3.191-7.4,2.952-6.523-.17-9.672.386-10.371-.662s1.012-7.736,1.012-7.736,1.456.594,5.277.219" fill="#292c47"/>
      <path id="Path_186664" data-name="Path 186664" d="M16.155,241.219s18.642,3.154,22.852,3.816,27.04,6.342,29.9,8.073c2.272,1.377-1.192,34.47-2,47.1H57.908l-.652-37.873c-10.79.27-18.49-2.524-26.347-1.33s-14.409,2.889-19.4-3.808c0,0-.185-14.51,4.648-15.973" fill="#292c47"/>
      <path id="Path_186665" data-name="Path 186665" d="M34.529,300.234l-8.763-.542-.854-37.361a53.337,53.337,0,0,1-10-.635L7.84,245.251c6.2,1.239,26.067,6.25,28.716,7.856,2.273,1.379-1.218,34.5-2.027,47.127" fill="#292c47"/>
      <path id="Path_186666" data-name="Path 186666" d="M24.736,171.343s6.834-1.889,9.441,3.416,1.425,15.362-2.019,16.308-8.4-.143-9.827-3.445-2.57-7.993-2.228-11.032,2.818-4.521,4.633-5.247" fill="#eea886"/>
      <path id="Path_186667" data-name="Path 186667" d="M30.373,190.009s-.075,4.034.37,4.894-9.516.645-9.516.645,1.57-4.845.679-8.972c-.881-4.086,8.467,3.433,8.467,3.433" fill="#eea886"/>
      <path id="Path_186668" data-name="Path 186668" d="M21.369,185.048s.532,1.082,3.111.908,5.978-3.285,7.073-3.563,1.159-.9,1.159-.9l.58,1.03,1.121.17s-.762-3.117.9-4.215-.747-9.938-9.154-7.805c0,0-6.416,1.174-6.5,4.757s.469,7.721,1.715,9.619" fill="#3a3f47"/>
      <path id="Path_186669" data-name="Path 186669" d="M31.266,194.8s-.028-1.643-.773-1.8-7.829-1.132-8.744-.773l-.392,2.17s1.762,1.085,9.909.4" fill="#e2d2ca"/>
      <path id="Path_186670" data-name="Path 186670" d="M33.316,180.757c-.191-1.347-1.723-2.894-2.6-.8s.593,5.153,1.576,4.989,1.283-2.365,1.024-4.193" fill="#eea886"/>
      <path id="Path_186671" data-name="Path 186671" d="M60.94,214.216a.016.016,0,0,0-.012,0c.051.022.058.025.012,0" fill="#323657"/>
      <path id="Path_186672" data-name="Path 186672" d="M22.743,172.3s-8.332-.392-1.454,12.615Z" fill="#3a3f47"/>
      <path id="Path_186673" data-name="Path 186673" d="M4.179,304.665l.62,1.744,26.189-8.115-1.255-3.531Z" fill="#736a67"/>
      <rect id="Rectangle_38400" data-name="Rectangle 38400" width="2.977" height="28.473" transform="translate(28.909 268.579)" fill="#736a67"/>
      <rect id="Rectangle_38401" data-name="Rectangle 38401" width="17.557" height="1.678" transform="translate(21.619 267.066)" fill="#5e5854"/>
      <path id="Path_186674" data-name="Path 186674" d="M56.846,304.665l-.62,1.744-26.189-8.115,1.151-3.752Z" fill="#736a67"/>
      <path id="Path_186675" data-name="Path 186675" d="M38.395,306.222v2.028l-8.357-9.956,1.151-3.752Z" fill="#736a67"/>
      <path id="Path_186676" data-name="Path 186676" d="M59.294,307.091a2.448,2.448,0,1,1-2.447-2.447,2.447,2.447,0,0,1,2.447,2.447" fill="#bfb2ac"/>
      <path id="Path_186677" data-name="Path 186677" d="M38.6,307.091a2.448,2.448,0,1,1-2.448-2.447,2.447,2.447,0,0,1,2.448,2.447" fill="#bfb2ac"/>
      <path id="Path_186678" data-name="Path 186678" d="M6.626,307.091a2.448,2.448,0,1,1-2.448-2.447,2.447,2.447,0,0,1,2.448,2.447" fill="#bfb2ac"/>
      <path id="Path_186679" data-name="Path 186679" d="M48.131,267.067H12.894a3.177,3.177,0,1,1,0-6.355H48.131a3.177,3.177,0,1,1,0,6.355" fill="#736a67"/>
      <rect id="Rectangle_38402" data-name="Rectangle 38402" width="2.372" height="73.085" transform="translate(122.81 234.006)" fill="#706865"/>
    </g>
  </g>
  <g id="Group_124008" data-name="Group 124008">
    <g id="Group_124007" data-name="Group 124007" clip-path="url(#clip-path-19)">
      <rect id="Rectangle_38404" data-name="Rectangle 38404" width="61.532" height="43.408" transform="translate(45.449 175.197)" fill="url(#linear-gradient-11)"/>
    </g>
  </g>
  <g id="Group_124010" data-name="Group 124010">
    <g id="Group_124009" data-name="Group 124009" clip-path="url(#clip-path-2)">
      <rect id="Rectangle_38406" data-name="Rectangle 38406" width="56.712" height="34.259" transform="translate(47.859 177.544)" fill="#f5f7ff"/>
      <path id="Path_186680" data-name="Path 186680" d="M88.953,229.9v-.772s-1.086-4.8-8.767-4.8S72.66,229.9,72.66,229.9Z" fill="#ff6b00"/>
      <path id="Path_186681" data-name="Path 186681" d="M72.567,225.042a7.6,7.6,0,0,0,2.28-.5c.611-.369,4.269-2.829,5.128-2.436s6.577,2.146,6.379,2.982-.728.755-1.131.607a29.371,29.371,0,0,0-4.922-.872s4.078,1.488,4.1,2.573-.854,1.35-1.24,1.761-.852,1.43-1.9,1.508-6.18-1.706-7.235-1.788a25.73,25.73,0,0,1-3.143-.106,29.275,29.275,0,0,1,1.691-3.731" fill="#eea886"/>
      <path id="Path_186682" data-name="Path 186682" d="M42.187,197.077c-5.321-.935-10.921-2.278-10.921-2.278l-9.909-.4s-9.094,2-12.676,3.619c-.34.154-.341,8.113-1.274,10.2l2.97,6.264s1.715,12.41,2.071,17.929c.164,2.533-.462,24.486-.462,24.486s.89.439,7.653,1.184,23.661-.269,23.767-1.068-3.272-29.743-3.422-31.242c-.229-2.3.665-12.93.665-12.93,1.274,1.711,4.522,9.441,7.908,13.118,1.992,2.164,11.854,3.49,13.713,3.552,4.046.135,11.428.941,11.644.547.172-.236.643-6.552.18-6.707-.4-.135-14.112-.924-17.624-2.787-1.285-.682-5.126-9.057-5.126-9.057s-6.222-13.109-9.157-14.428" fill="#ff6b00"/>
      <path id="Path_186683" data-name="Path 186683" d="M14.342,256.26h0A14.342,14.342,0,0,1,0,241.918V230.876a14.342,14.342,0,1,1,28.683,0v11.044A14.341,14.341,0,0,1,14.342,256.26" fill="#736a67"/>
      <path id="Path_186684" data-name="Path 186684" d="M23.6,265.485a13.14,13.14,0,0,1-10.2-4.221c-5.734-6.331-4.7-17.459-4.657-17.929a1.6,1.6,0,0,1,3.176.313c-.012.127-.926,10.214,3.853,15.48a9.949,9.949,0,0,0,7.823,3.165,1.6,1.6,0,1,1,0,3.192" fill="#918783"/>
      <path id="Path_186685" data-name="Path 186685" d="M67.587,182.083h-14.8a.9.9,0,0,1,0-1.81h14.8a.9.9,0,1,1,0,1.81" fill="#dfe1e8"/>
      <path id="Path_186686" data-name="Path 186686" d="M67.587,185.965h-14.8a.9.9,0,1,1,0-1.81h14.8a.9.9,0,0,1,0,1.81" fill="#dfe1e8"/>
      <path id="Path_186687" data-name="Path 186687" d="M60.734,209.074h-1.1a7.758,7.758,0,0,1-7.758-7.758v-4.951a7.759,7.759,0,0,1,7.758-7.758h1.1a7.759,7.759,0,0,1,7.758,7.758v4.951a7.758,7.758,0,0,1-7.758,7.758" fill="#dfe1e8"/>
      <path id="Path_186688" data-name="Path 186688" d="M89.149,209.074H84.127a12.281,12.281,0,0,1-12.281-12.281v-4.239a12.281,12.281,0,0,1,12.281-12.282h5.021a12.281,12.281,0,0,1,12.281,12.282v4.24a12.28,12.28,0,0,1-12.28,12.28" fill="#dfe1e8"/>
      <path id="Path_186689" data-name="Path 186689" d="M125.726,206.743a6.71,6.71,0,1,1,5.743-3.235,6.714,6.714,0,0,1-5.743,3.235" fill="#36572b"/>
      <path id="Path_186690" data-name="Path 186690" d="M118.908,206.141a4.7,4.7,0,0,1-4.7-4.7q0-.223.021-.444a4.7,4.7,0,1,1,4.677,5.142" fill="#45613c"/>
      <path id="Path_186691" data-name="Path 186691" d="M125.835,200.383s.374,3.118.5,7.358-3.243,4.24-3.243,4.24v15.531h-2.337s.055-15.842-1.109-17.117-1.164-7.317-1.164-7.317l.665-.387s-1,7.15,3.548,8.2,2.827-10.2,2.827-10.2Z" fill="#925e2e"/>
      <path id="Path_186692" data-name="Path 186692" d="M127.389,201.111a13.9,13.9,0,0,1-7.764-3.884,6.714,6.714,0,1,1,11.844,6.281c-.185-.913-1.184-1.857-4.08-2.4" fill="#48753a"/>
      <path id="Path_186693" data-name="Path 186693" d="M117.536,202.732A7.776,7.776,0,0,1,114.231,201a4.7,4.7,0,1,1,7.249,4.375c-.476-.9-1.554-1.954-3.944-2.642" fill="#538742"/>
      <path id="Path_186694" data-name="Path 186694" d="M114.892,220.292h15.8l-.815,2.931h-14Z" fill="#877670"/>
      <path id="Path_186695" data-name="Path 186695" d="M116.865,223.224h11.724l-1.629,6.631h-8.955Z" fill="#876455"/>
      <path id="Path_186696" data-name="Path 186696" d="M118.482,197.336l-.4.125s-.638-1.733-.679-1.968a18.166,18.166,0,0,1,1.084,1.843" fill="#538742"/>
      <path id="Path_186697" data-name="Path 186697" d="M114.654,197.46l2.009.61s-.014.18-.277.18a10.99,10.99,0,0,1-1.732-.79" fill="#538742"/>
      <path id="Path_186698" data-name="Path 186698" d="M115.347,201.673h.513a2.729,2.729,0,0,1-.513,1.247c-.416.485,0-1.247,0-1.247" fill="#538742"/>
      <path id="Path_186699" data-name="Path 186699" d="M127.68,192.056c.208.152-.734,2.453-.734,2.453h-.472s1-2.6,1.206-2.453" fill="#48753a"/>
      <path id="Path_186700" data-name="Path 186700" d="M125.49,193.941a4.15,4.15,0,0,1,.4-1.677v1.58s-.319.721-.4.1" fill="#48753a"/>
      <path id="Path_186701" data-name="Path 186701" d="M129.2,203.006c-.291-.238-.3-2.331-.3-2.331l.457.167s.139,2.4-.152,2.164" fill="#48753a"/>
      <path id="Path_186702" data-name="Path 186702" d="M120.749,223.224h7.84l-1.628,6.631h-2.568a5.137,5.137,0,0,0-3.644-6.631" fill="#715346"/>
      <path id="Path_186703" data-name="Path 186703" d="M126.549,229.855c-.643-.268-1.682-3.306-2.182-4.878-.178-.558-.287-.932-.287-.932h5.882a17.762,17.762,0,0,1-1.743,5.81Z" fill="#9e633a"/>
      <path id="Path_186704" data-name="Path 186704" d="M126.077,222.236c0-.211-.944-1.095-1.416-1.673s.181-1.673.181-1.673c2.106.87,1.743,3.346,1.743,3.346s-.508.212-.508,0" fill="#97a43c"/>
      <path id="Path_186705" data-name="Path 186705" d="M127.275,222.33h-.254s-.182-4.276,1.38-4.857,1.561-1.743,1.561-1.743.472,1.6-.291,2.433-1.634,1.815-1.488,2.614-.908,1.553-.908,1.553" fill="#97a43c"/>
      <path id="Path_186706" data-name="Path 186706" d="M124.366,224.977c-.177-.558-.287-.932-.287-.932h5.883a17.791,17.791,0,0,1-1.743,5.81h-.384a4.548,4.548,0,0,0-3.469-4.878" fill="#82522f"/>
      <path id="Path_186707" data-name="Path 186707" d="M124.081,222.236h5.926l.337,1.809h-6.5Z" fill="#c67b47"/>
      <path id="Path_186708" data-name="Path 186708" d="M249.632,155.827s2.084,4.756,4.08,4.159a17.889,17.889,0,0,1,5.892-.318c1.243.137,5.29-.813,5.052.7s-6.608,1.869-7.94,2.2,3.456,3.716,3.791,5.018-6.352,8.846-9.34,6.146-4.223-7.56-4.852-7.93a37.346,37.346,0,0,1-3.371-4.241Z" fill="#eea886"/>
      <path id="Path_186709" data-name="Path 186709" d="M259.972,166.789s8.544,8.876,8.573,9.947-.522,1.509-1.359.713-8.525-8.336-8.525-8.336,8.186,12.217,8.411,13.08c.132.506-.887,1.412-1.377,1.027s-9.352-12.016-9.352-12.016,7.622,11.42,7.582,12.207a1.028,1.028,0,0,1-1.8.5c-.629-.807-8.348-11-8.348-11s4.985,8.671,4.542,9.336c-.271.406-1.115,1.226-2.327-1.053s-4.673-7.342-4.673-7.342Z" fill="#eea886"/>
      <path id="Path_186710" data-name="Path 186710" d="M207.73,198.525H181.358c-.582-3.061-1.1-4.913-1.482-4.869s-1.129,1.888-2.072,4.869h-29.08c1.341-11.4,3.051-24.1,4.384-34.2.088-.626.167-1.235.246-1.817.459-3.449.8-5.989.971-7.206.07-.529.1-.812.1-.812.635-.291,1.3-.555,1.985-.8,16.476-5.919,48.246.344,48.246.344s.017.158.053.45c.044.352.106.917.194,1.64.185,1.561.458,3.9.767,6.6,0,.026.009.043.009.061.009.08.017.168.026.247,1.111,9.632,1.658,14.915,2.532,25.19.044.591-.168,4.6-.512,10.311" fill="#292c47"/>
      <path id="Path_186711" data-name="Path 186711" d="M189.843,63.309s26.979,5.728,29.228,13.225,6.616,25.106,12.691,44.257c3.635,11.457,22.1,37.552,22.1,37.552s-10.566,7.788-10.566,6.738-24.883-34.253-25.183-38.3-7.84-24.753-7.84-24.753S206.7,141.832,206.7,147.98s.406,18.6.406,18.6-10,3.83-29.409,2.818c0,0-30.9-1.062-25.623-10.478,3.988-7.121,1.543-55.023.944-55.323s-11.371,13.191-10.321,15.788,28.924,11.912,28.924,11.912.816,3-3.515,9.8c0,0-41.637-12.167-41.787-14.716s17.318-52.056,23.023-54.647c8.213-3.731,29.69-9.6,29.69-9.6Z" fill="#8382e6"/>
      <path id="Path_186712" data-name="Path 186712" d="M189.4,53.926s-1.112,6.092.8,10.253c0,0,1.947,9.7-7.98,10.131s-10.155-8.459-10.155-8.459,2.375-3.189.79-11.865,16.545-.06,16.545-.06" fill="#eea886"/>
      <path id="Path_186713" data-name="Path 186713" d="M183.37,18.694s12.7,2.049,10.768,22.4-13.145,18.684-13.894,18.663-11.254.371-12.073-24.477c0,0-.358-18.375,15.2-16.587" fill="#eea886"/>
      <path id="Path_186714" data-name="Path 186714" d="M194.334,35.346s1.391-1.521,1.9.019-1.812,8.174-1.983,8.731c0,0-.255.6-.588.269s.67-9.019.67-9.019" fill="#eea886"/>
      <path id="Path_186715" data-name="Path 186715" d="M168.479,35.089s-1.362-1.549-1.9-.019,1.708,8.509,1.818,8.769c0,0,.243.6.583.28s-.5-9.03-.5-9.03" fill="#eea886"/>
      <path id="Path_186716" data-name="Path 186716" d="M194.328,38.467l-1.818,2.491a50.854,50.854,0,0,0-.241-6.314c-.291-.856.345-3.837.1-4.453s-8.688,1.677-22.536.267c0,0,1.54,4.917.637,5.266s-.46,6.393-.46,6.393l-1.495-1.728s-1.688-10.323-1.524-12.047c.218-2.293-.56-13,18.926-11.166a11.771,11.771,0,0,1,6.155,2.42c2,1.563,4.061,4,3.873,7.352a112.229,112.229,0,0,1-1.618,11.519" fill="#434343"/>
      <path id="Path_186717" data-name="Path 186717" d="M174.457,57.061s5.24,6.118,13.559,0c0,0-2.332,4.642-7.223,4.75s-6.336-4.75-6.336-4.75" fill="#a77860"/>
      <rect id="Rectangle_38407" data-name="Rectangle 38407" width="61.548" height="40.872" transform="translate(133.321 146.27) rotate(-73.811)" fill="#6e6760"/>
      <path id="Path_186718" data-name="Path 186718" d="M178.935,130.874s2.562-.071,3.347-.184.266,1.555-.645,1.87-2.7-1.686-2.7-1.686" fill="#c98462"/>
      <path id="Path_186719" data-name="Path 186719" d="M180.432,143.111a5.23,5.23,0,0,1-1.665.152s-.979-.295-1.687-.462a4.809,4.809,0,0,0-.553-.1,9.638,9.638,0,0,1-3.021-.508c-1.267-.5-5.568-2.7-5.568-2.7l1.23-4,.927-3.168s7.268-1.934,8.5-1.608a3.337,3.337,0,0,1,.346.111,12.2,12.2,0,0,1,2.13,1.345c.188.1,1.987,1.177,2.081,1.8a2.051,2.051,0,0,1-.57,1.91,4.9,4.9,0,0,1-.447,2.659,3.046,3.046,0,0,1-.9,2.533s.045,1.607-.8,2.043" fill="#eea886"/>
      <path id="Path_186720" data-name="Path 186720" d="M171.623,131.3a15.053,15.053,0,0,1-3.516,9.8s-30.575-9.54-34.217-10.972,13.233-46.272,13.233-46.272l12.415,4.226-6.67,12.614s-3.3,7.065-10.17,18.688c0,0,4.227,4.014,28.925,11.913" fill="#8382e6"/>
      <path id="Path_186721" data-name="Path 186721" d="M193.152,70.383l-2.822-8.891s-4.54,2.112-17.7.648l-2.989,8.507s11.293,9.84,23.51-.264" fill="#8382e6"/>
      <path id="Path_186722" data-name="Path 186722" d="M318.141,187.1a8.54,8.54,0,0,1-1.062-2.2,2.6,2.6,0,0,0-.607-1.275s-3.46-.5-4.79-1.738-4.147-4.6-5.477-3.589.964,5.247,2.322,6.528,3.194,3.526,4.864,3.36,3.943-.959,4.75-1.089" fill="#cfbfb8"/>
      <path id="Path_186723" data-name="Path 186723" d="M318.141,186.887l-1.669-3.26s7.989-1.464,10.326-2.871c.586-.353,1.169-.707,1.711-1.042a31.055,31.055,0,0,0,2.619-1.727c1.153-.981,5.778-4.258,7.028-5.461s2.723-.47,4.671-.45,9,1.974,11.112,2.255,9.732,1.7,9.732,1.7c-1.342,3.666-45.53,10.861-45.53,10.861" fill="#25354d"/>
      <path id="Path_186724" data-name="Path 186724" d="M364.115,175.907s-4.3.62-5.4.7c-1.131.086-7.534.6-10.622.9s-9.152.119-10.356.648-8.157,2.886-10.433,3.621-17.067,3.442-17.067,3.442a5.006,5.006,0,0,0,1.056,3.543,58.046,58.046,0,0,1,9.96-.077,28.085,28.085,0,0,0,13.1-1.919c3.647-1.654,9.429-.145,12.659.99s15.584,2.047,17.125,1.7a15.324,15.324,0,0,0,6.843-4.252c2.227-2.422-6.856-9.3-6.856-9.3" fill="#2f4563"/>
      <path id="Path_186725" data-name="Path 186725" d="M311.289,188.762a8.545,8.545,0,0,1-.5-2.388,2.143,2.143,0,0,0-.2-1.219s-3.315-1.492-4.307-3.011-2.912-5.463-4.446-4.807-.334,5.325.673,6.9,1.63,5.753,3.291,5.995,4.675-1.535,5.489-1.466" fill="#eddad3"/>
      <path id="Path_186726" data-name="Path 186726" d="M373.781,173.155s5.434,12.332-3,15.322c-6.728,2.384-19.132.189-19.132.189l7.631-12.024Z" fill="#2f4563"/>
      <path id="Path_186727" data-name="Path 186727" d="M359.794,126.619c2.069.46.836,5.655,2.222,12.919s5.765,8.4,5.765,8.4a13.02,13.02,0,0,1-1.732-6.589c.166-2.631,3.354-9.81.2-14.5-2.434-3.626-6.724-.334-6.724-.334Z" fill="#323657"/>
      <path id="Path_186728" data-name="Path 186728" d="M362.908,141.741l-4.024,4.141a9,9,0,0,0-.6-2.457c-.141-.377-.284-.719-.4-.983-.153-.347-.26-.563-.26-.563l3.588-3.795Z" fill="#eea886"/>
      <path id="Path_186729" data-name="Path 186729" d="M358.118,145.475a9.974,9.974,0,0,1-1.24,3.828c-1.084,1.837-2.876,4.887-2.622,6.869a4.862,4.862,0,0,0,1.859,3.416c.762.714,2.854,5.866,3.107,7.849a37.968,37.968,0,0,1-.068,9.131s14.109,1.637,15.529-.828c0,0-1.751-7.927-2.577-9.913s-2.555-13.87-3.3-15.891-2.49-3.974-3.559-5.376c-.956-1.251-2.7-3.58-2.7-3.58Z" fill="#ff6b00"/>
      <path id="Path_186730" data-name="Path 186730" d="M356.355,127.041a6.315,6.315,0,0,0-5.928,6.511,15.506,15.506,0,0,0,.742,2.308c.441,1-.136,4.175.125,4.3a6.769,6.769,0,0,0,1.287.2s1.467,3.223,2.639,3.059a9.809,9.809,0,0,0,7.13-6.005c1.615-4.407,1.524-10.873-5.995-10.371" fill="#eea886"/>
      <path id="Path_186731" data-name="Path 186731" d="M350.427,133.552a16.758,16.758,0,0,0,6.274,1.771c3.031.069,5.515,4.928,5.515,4.928s3.67-8.233-.533-12.411-12.565.071-11.256,5.712" fill="#323657"/>
      <path id="Path_186732" data-name="Path 186732" d="M357.409,135.294a.924.924,0,0,1,1.529-.84c1.038.679.083,3.573-.724,3.393s-.753-1.954-.8-2.553" fill="#eea886"/>
      <path id="Path_186733" data-name="Path 186733" d="M360.759,140.141a18.148,18.148,0,0,1-2.478,3.285c-.141-.377-.284-.719-.4-.983a12.652,12.652,0,0,0,2.877-2.3" fill="#a77860"/>
      <rect id="Rectangle_38408" data-name="Rectangle 38408" width="20.064" height="1.746" transform="translate(330.387 178.887) rotate(-10.69)" fill="#c4c4c4"/>
      <rect id="Rectangle_38409" data-name="Rectangle 38409" width="1.746" height="20.065" transform="matrix(0.825, -0.566, 0.566, 0.825, 319.357, 164.056)" fill="#c4c4c4"/>
      <path id="Path_186734" data-name="Path 186734" d="M334.48,178.114c-.1-.438,0-1.17,1.38-1.909s4.36-2.42,5.408-2.46,3.112.125,3.536.123-.664,2.494-.664,2.494Z" fill="#eea886"/>
      <path id="Path_186735" data-name="Path 186735" d="M344.319,174.059s5.752-2.264,6.686-2.715,5.29-1.916,5.677-2.109,2.207-11.068,2.368-13.806.322-8.535,3.414-8.277,3.833,2.287,3.446,6.28-2.673,18.294-3.639,18.777-12.059,2.964-17.907,4.131c-5.6,1.117-.045-2.281-.045-2.281" fill="#eea886"/>
      <path id="Path_186736" data-name="Path 186736" d="M358.734,156.281s4.456.831,7.024,1.089c0,0,3.2-9.1-1.154-10.56-5.159-1.724-6.311,5.332-5.87,9.471" fill="#eddad3"/>
      <path id="Path_186737" data-name="Path 186737" d="M324.273,256.132a16.377,16.377,0,0,0-4.1.692c-.9.5-6.955-1.409-7.068-1.85a1,1,0,0,1,0-.657h11.891Z" fill="#de9673"/>
      <path id="Path_186738" data-name="Path 186738" d="M338.655,242s1.022,8.031,0,9.083c-3.9,4.021-18.374,3.7-18.374,3.7l.006,1.635s21.994,2.743,24.038-1.523c2.455-5.126,1.5-13.485,1.5-13.485Z" fill="#de9673"/>
      <path id="Path_186739" data-name="Path 186739" d="M345.914,326.634l-1.307-1.489,2.359-2.467,1.992,1.4Z" fill="#2f4563"/>
      <path id="Path_186740" data-name="Path 186740" d="M348.958,324.073s-2.692,2.028-3.441,2.109-1.1.416-1.013,1.557-1.094,5.945-1.918,6.022-3.631.092-4.14,1.942,8.9,1.462,9.487-.056,4.635-8.871,4.155-9.463a5.77,5.77,0,0,0-3.13-2.111" fill="#1e2d40"/>
      <path id="Path_186741" data-name="Path 186741" d="M331.685,266.592s-17.587,30.636-10.449,36.974c2.8,2.486,5.5,4.734,9.368,8.061a95.609,95.609,0,0,1,7.494,6.884l.122.128c2.1,2.192,3.836,4.043,4.371,4.616a.476.476,0,0,1,.05.054l.061.063,1.957,1.868,2.871-2.524a85.176,85.176,0,0,1-5.091-7.965c-2.576-4.856-6.9-10.564-8.908-12.156-3.431-2.728-4.373-3.264-4.373-5.872,0-2.8,16.118-18.424,16.118-18.424s2.34-9.78-3.247-12.339a11.532,11.532,0,0,0-10.344.632" fill="#3c4145"/>
      <path id="Path_186742" data-name="Path 186742" d="M345.1,331.379a8.715,8.715,0,0,0-.127-2.313c-.238-.9,3.641-.384,3.641-.384a33.709,33.709,0,0,1,.355,4.631c-.145.862-3.869-1.934-3.869-1.934" fill="#eea987"/>
      <path id="Path_186743" data-name="Path 186743" d="M344.372,329.071l5.231.943s.377-6.675.309-11.789c-.073-5.5.2-9.818-1.475-14.193-1.571-4.092-1.213-5.652-1.351-8.445s1.342-17.18,1.342-17.18,1.787-6.442-2.35-10.985c-4.03-4.428-14.456-.019-14.456-.019s2.172,19.654,7.386,31.81c1.477,3.441.679,5.531,2.561,10.847,0,0,2.859,11.594,2.8,19.011" fill="#3c4145"/>
      <path id="Path_186744" data-name="Path 186744" d="M339.818,228.545a6.054,6.054,0,0,1,.62,1.682,14.36,14.36,0,0,1,.287,1.795,20.894,20.894,0,0,1,.1,2.285s6.978-1.519,5.833-3.146-.471-6.56-.471-6.56-7.278,2.422-6.374,3.944" fill="#eea987"/>
      <path id="Path_186745" data-name="Path 186745" d="M335.892,215.1s-1.786,1.551-.987,6.021c0,0-.395,3.559-.941,4.18s1.463.85,1.675,1.3.611,2.539,2.01,3.8,8.331-2.541,8.669-4.689,5.14-11.353-2.461-11.775-7.965,1.165-7.965,1.165" fill="#eea886"/>
      <path id="Path_186746" data-name="Path 186746" d="M331.11,248.078c.141.448-.391,7.324-.343,7.918a45.486,45.486,0,0,1-.9,9.964c-.079.418-.123.632-.123.632,7.535,3.685,18.014,3.363,18.014,3.363-.037-.285-1.5-3.826-1.538-4.1-.62-4.423-1.536-6.443-1.287-9.434h0a18.692,18.692,0,0,1,1.452-5.615,25.677,25.677,0,0,0,2-13.926,17,17,0,0,0-1.452-5.423l-6.365.684c-1.351,1.5-2.553,2.294-6.394,5.7-4.085,3.628-4.8,4.729-3.062,10.232" fill="#ff6b00"/>
      <path id="Path_186747" data-name="Path 186747" d="M349.2,332.335s-3.682-1.047-3.791-1.15-.134-.326-.642-.122-.718.973-1.216,1.216-3.537,1.132-5.2,1.951c-.6.3-3.147,1.267-3.514,2.078s-.253,2.029,4.121,1.74,9.158.328,10.116-.151.379-4.3.128-5.562" fill="#23344a"/>
      <path id="Path_186748" data-name="Path 186748" d="M334.715,219.518s-.855-9.28,8.143-7.623,4.359,11.8,3.147,15.1c0,0,.147-5.134-4.185-5.3s-5.227-1.169-7.105-2.18" fill="#464240"/>
      <path id="Path_186749" data-name="Path 186749" d="M342.524,220.4a1.24,1.24,0,0,1,2.187.995c-.212,1.436-1.7,2.868-2.194,2.174a2.784,2.784,0,0,1,.007-3.169" fill="#eea987"/>
      <path id="Path_186750" data-name="Path 186750" d="M342.319,238.627s.741,7.95-.28,9c-3.9,4.021-19.309,4.1-19.309,4.1l-.736,2.311s22.9,1.559,24.942-2.707c2.455-5.126,1.5-13.485,1.5-13.485Z" fill="#eea987"/>
      <path id="Path_186751" data-name="Path 186751" d="M345.709,214.179s3.465-3.324,5.928.441-2.926,9.018-5.111,5.9a6.946,6.946,0,0,1-.817-6.341" fill="#464240"/>
      <path id="Path_186752" data-name="Path 186752" d="M340.439,230.227a14.573,14.573,0,0,1,.286,1.795c2.318-1.057,4.052-4.285,4.052-4.285A17.876,17.876,0,0,1,340.439,230.227Z" fill="#a77860"/>
      <rect id="Rectangle_38410" data-name="Rectangle 38410" width="21.839" height="1.219" transform="translate(307.317 254.038)" fill="#c4c4c4"/>
      <rect id="Rectangle_38411" data-name="Rectangle 38411" width="1.22" height="21.838" transform="translate(297.479 235.76) rotate(-26.775)" fill="#c4c4c4"/>
      <path id="Path_186753" data-name="Path 186753" d="M325.946,251.727s-3.2-.246-4.1-.882-6.955,1.795-7.067,2.356a1.6,1.6,0,0,0,0,.838h11.891Z" fill="#eea987"/>
      <path id="Path_186754" data-name="Path 186754" d="M346.932,231.459l-.448-1.217-6.114,1.217v1.082Z" fill="#ffb755"/>
      <path id="Path_186755" data-name="Path 186755" d="M342.328,238.732s-.656-4.608,2.552-5.013,3.559,4.144,3.559,4.144Z" fill="#eea987"/>
    </g>
  </g>
</svg>
