<svg xmlns="http://www.w3.org/2000/svg" xmlns:xlink="http://www.w3.org/1999/xlink" width="97" height="142" viewBox="0 0 97 142">
  <defs>
    <clipPath id="clip-path">
      <rect id="Rectangle_36958" data-name="Rectangle 36958" width="42.211" height="50" fill="#f6f6f6"/>
    </clipPath>
  </defs>
  <g id="Group_124191" data-name="Group 124191" transform="translate(-857 -1976)">
    <line id="Line_165" data-name="Line 165" y2="34.452" transform="translate(905.5 2082.548)" fill="none" stroke="#fc6b21" stroke-linecap="round" stroke-linejoin="round" stroke-width="2" stroke-dasharray="0 4.053"/>
    <circle id="Ellipse_4985" data-name="Ellipse 4985" cx="48.5" cy="48.5" r="48.5" transform="translate(857 1976)" fill="#ff6b00"/>
    <g id="Group_120491" data-name="Group 120491" transform="translate(884 2000)">
      <g id="Group_120490" data-name="Group 120490" clip-path="url(#clip-path)">
        <path id="Path_181666" data-name="Path 181666" d="M13,50a1.2,1.2,0,0,1-.5-1.132c.028-1.168.009-2.337.009-3.552-.993,0-1.948.018-2.9-.007a8.251,8.251,0,0,1-1.789-.158,4.12,4.12,0,0,1-3.088-4.172c-.012-1.741,0-3.483,0-5.224v-.6H2.765a17.105,17.105,0,0,1-1.755-.017,1.481,1.481,0,0,1-.868-.4c-.284-.3-.088-.665.112-.983,1.412-2.243,2.827-4.484,4.22-6.739a1.648,1.648,0,0,0,.245-.858,22.888,22.888,0,0,1,.556-6.491,18.679,18.679,0,0,1,9.053-11.83c.542-.313.989-.244,1.236.169s.083.868-.475,1.192A17.162,17.162,0,0,0,6.71,20.392a18.065,18.065,0,0,0-.406,5.43,3.618,3.618,0,0,1-.659,2.322c-1.162,1.763-2.258,3.569-3.438,5.45H3.9c.488,0,.977-.005,1.465,0,.655.008.92.282.922.976.005,2.1,0,4.2,0,6.3a2.621,2.621,0,0,0,2.246,2.849,8.988,8.988,0,0,0,1.657.032,26.334,26.334,0,0,0,4.555-.362,35.7,35.7,0,0,0,4.688-1.766c.469-.184.92-.415,1.392-.588a.768.768,0,0,1,1.011.434.741.741,0,0,1-.4.983,44.823,44.823,0,0,1-6.818,2.607c-.158.038-.319.061-.515.1v3.255h21.8V34.756c-.724.494-1.411.975-2.111,1.435-.38.25-.778.473-1.176.694a.807.807,0,0,1-1.19-.221.786.786,0,0,1,.418-1.129,22.023,22.023,0,0,0,4.081-2.913,14.671,14.671,0,0,0,1.688-19.7c-.09-.115-.186-.227-.266-.349a.789.789,0,0,1,.144-1.092.74.74,0,0,1,1.082.149,23.827,23.827,0,0,1,1.625,2.428A16.206,16.206,0,0,1,37.76,33.044a1.066,1.066,0,0,0-.238.687q-.02,7.569,0,15.136a1.23,1.23,0,0,1-.5,1.133Z" fill="#f6f6f6"/>
        <path id="Path_181667" data-name="Path 181667" d="M27.551,0a21.148,21.148,0,0,1,2.925.875A9.338,9.338,0,0,1,32.4,16.7a.775.775,0,0,0-.361.727c.031.418.008.84.008,1.319.5,0,.966-.006,1.432,0,.611.01.9.291.909.894q.014,1.44,0,2.881c0,.627-.3.905-.943.91-.731,0-1.463,0-2.235,0a4.767,4.767,0,0,1-2.138,3.183,4.612,4.612,0,0,1-2.788.716c-2.1-.112-3.654-1.5-4.351-3.9-.7,0-1.414,0-2.128,0-.789,0-1.038-.256-1.039-1.06q0-1.319,0-2.636c0-.727.27-.986,1.009-.991.391,0,.781,0,1.172,0a1.227,1.227,0,0,0,.161-.036c0-.513.021-1.044-.015-1.572-.01-.139-.179-.29-.307-.395A9.376,9.376,0,0,1,25.225.093,3.5,3.5,0,0,0,25.6,0Zm-.193,10.913c0-.276-.006-.517,0-.758A2.341,2.341,0,1,1,29.7,12.5c-.252.007-.505,0-.778,0v6.22h1.562c0-.533.04-1.039-.009-1.536a1.583,1.583,0,0,1,.779-1.583,7.79,7.79,0,0,0-6.09-13.9,7.455,7.455,0,0,0-6.189,6.015,7.474,7.474,0,0,0,3.134,8.042,1.2,1.2,0,0,1,.57,1.1c-.029.625-.007,1.253-.007,1.864H24.2V12.528c-2.143-.17-3.087-.9-3.088-2.371a2.356,2.356,0,0,1,2.177-2.338,2.3,2.3,0,0,1,1.635.52,2.754,2.754,0,0,1,.866,2.574ZM32.8,20.346H20.364v1.5H32.8Zm-9.211,3.1a3.065,3.065,0,0,0,3.174,2.325,2.981,2.981,0,0,0,2.767-2.325Zm3.731-10.91h-1.5v6.188h1.5Zm-3.1-1.611a7.978,7.978,0,0,0-.006-.882.767.767,0,0,0-.823-.669.792.792,0,0,0-.72.733.768.768,0,0,0,.682.812,8.24,8.24,0,0,0,.867.006m4.7,0c.32,0,.595.023.865-.005a.771.771,0,0,0,.688-.807.789.789,0,0,0-.762-.741.771.771,0,0,0-.787.711c-.024.256,0,.517,0,.842" fill="#f6f6f6"/>
      </g>
    </g>
  </g>
</svg>
