<svg xmlns="http://www.w3.org/2000/svg" xmlns:xlink="http://www.w3.org/1999/xlink" width="97" height="141" viewBox="0 0 97 141">
  <defs>
    <clipPath id="clip-path">
      <rect id="Rectangle_36947" data-name="Rectangle 36947" width="41.457" height="50" fill="#f6f6f6"/>
    </clipPath>
  </defs>
  <g id="Group_124188" data-name="Group 124188" transform="translate(-227 -2213)">
    <line id="Line_162" data-name="Line 162" y2="34.452" transform="translate(275.5 2214)" fill="none" stroke="#fc6b21" stroke-linecap="round" stroke-linejoin="round" stroke-width="2" stroke-dasharray="0 4.053"/>
    <g id="Group_124187" data-name="Group 124187">
      <circle id="Ellipse_4982" data-name="Ellipse 4982" cx="48.5" cy="48.5" r="48.5" transform="translate(227 2257)" fill="#ff6b00"/>
      <g id="Group_120485" data-name="Group 120485" transform="translate(254 2281)">
        <g id="Group_120484" data-name="Group 120484" clip-path="url(#clip-path)">
          <path id="Path_181624" data-name="Path 181624" d="M12.462,50c-.236-1.144-.473-2.289-.722-3.5H5.273c-.892,0-1.132-.236-1.132-1.12V34.064H1.907c-.325,0-.652.011-.976,0a.847.847,0,0,1-.779-1.345c.161-.3.34-.592.512-.887q2.481-4.252,4.963-8.5c.088-.151.184-.3.293-.477l1.416.821c-.852,1.464-1.689,2.9-2.527,4.343L2.253,32.4h1.81c.227,0,.455,0,.683,0,.774.011,1.053.287,1.054,1.07q0,5.367,0,10.735v.639h.561q2.9,0,5.807,0c.77,0,1.013.2,1.161.956.251,1.273.5,2.545.758,3.845L12.657,50Z" fill="#f6f6f6"/>
          <path id="Path_181625" data-name="Path 181625" d="M29.571,30.094c-1.137.5-2.175,1-3.244,1.415-1,.389-1.011.352-1.011,1.445,0,.6.011,1.2,0,1.806a.862.862,0,0,1-.975.961q-2.341.016-4.686,0c-.675-.005-.961-.314-.968-1.007-.007-.846.008-1.693-.011-2.539-.005-.14-.118-.374-.224-.4a14.784,14.784,0,0,1-4.01-1.717c-.66.67-1.307,1.334-1.96,1.99-.552.551-.958.552-1.5.011q-1.609-1.6-3.209-3.211c-.542-.544-.544-.918-.013-1.458.593-.6,1.2-1.194,1.782-1.807a.515.515,0,0,0,.136-.438c-.542-1.3-1.11-2.582-1.71-3.96-.808,0-1.766,0-2.725,0-.818,0-1.093-.268-1.095-1.071q0-2.271,0-4.541c0-.76.27-1.025,1.027-1.027.895,0,1.79-.012,2.685.005.3.005.428-.077.541-.39.443-1.232.944-2.444,1.47-3.78C9.24,9.766,8.505,9.053,7.78,8.333c-.6-.6-.6-.969,0-1.565q1.586-1.59,3.177-3.175a.87.87,0,0,1,1.462-.007c.707.7,1.4,1.41,2.115,2.1a.513.513,0,0,0,.439.119c1.209-.5,2.409-1.031,3.7-1.591,0-.921,0-1.976,0-3.031,0-.945.239-1.18,1.184-1.18q2.2,0,4.393,0c.777,0,1.062.281,1.068,1.057.007.993-.009,1.986.014,2.978a.551.551,0,0,0,.257.426c1.2.472,2.423.914,3.72,1.395.673-.675,1.44-1.447,2.211-2.216.555-.554.941-.56,1.5-.011q1.635,1.611,3.255,3.236a.856.856,0,0,1,0,1.423c-.7.706-1.4,1.413-2.11,2.1-.2.195-.2.326-.081.578.487,1.06.954,2.13,1.379,3.216.113.287.231.367.515.363.977-.014,1.952-.01,2.93,0a.813.813,0,0,1,.932.926q.017,2.392,0,4.785a.831.831,0,0,1-.945.925c-.944.009-1.888.013-2.832,0-.28,0-.368.1-.463.358q-.621,1.688-1.321,3.345c-.12.281-.145.442.091.665.638.6,1.253,1.233,1.869,1.859a.88.88,0,0,1,0,1.466q-1.617,1.629-3.245,3.245a.856.856,0,0,1-1.425,0c-.69-.687-1.368-1.386-1.99-2.018m-17.8.352c.575-.58,1.167-1.18,1.763-1.777s.836-.616,1.526-.166a12.555,12.555,0,0,0,4.2,1.758c.9.2,1.03.348,1.03,1.283v2.5H23.61c0-.914-.005-1.8,0-2.693,0-.657.211-.93.838-1.06a12.329,12.329,0,0,0,4.453-1.9c.6-.408.886-.375,1.407.148.642.642,1.277,1.291,1.934,1.957L34.58,28.02c-.64-.63-1.334-1.315-2.03-2a.845.845,0,0,1-.149-1.148A12.713,12.713,0,0,0,34.16,20.26a.821.821,0,0,1,.892-.731h3.094v-3.32H35.195c-.758,0-.984-.178-1.153-.9a12.31,12.31,0,0,0-1.662-3.931c-.552-.853-.537-1.014.2-1.748.677-.672,1.359-1.339,1.962-1.933L32.189,5.334l-2.1,2.091c-.568.566-.82.6-1.49.172A12.155,12.155,0,0,0,24.6,5.958c-.729-.157-.911-.385-.911-1.141,0-1.036,0-2.073,0-3.126h-3.32c0,1.035,0,2.041,0,3.047,0,.8-.177,1.029-.975,1.191a12.307,12.307,0,0,0-4.049,1.622c-.647.4-.906.379-1.449-.182-.7-.721-1.379-1.465-2.028-2.156l-2.5,2.5c.647.617,1.336,1.258,2.008,1.919.644.635.658.866.169,1.6a12.1,12.1,0,0,0-1.742,4c-.187.811-.4.973-1.252.974H5.846v3.32H8.521c.809,0,1.028.171,1.179.977a11.178,11.178,0,0,0,1.448,3.858c.774,1.253.71,1.306-.334,2.329-.484.473-.956.954-1.4,1.4l2.356,2.355" fill="#f6f6f6"/>
          <path id="Path_181626" data-name="Path 181626" d="M39.912,23.273h1.513c0,1.17.083,2.324-.016,3.463a16.848,16.848,0,0,1-3.277,8.537c-.744,1.027-1.477,2.062-2.188,3.112a1.43,1.43,0,0,0-.235.756c-.016,3.367-.011,6.734-.011,10.1V49.8h-1.66V49.29c0-3.514-.009-7.027.014-10.54a1.988,1.988,0,0,1,.329-1.026c.81-1.218,1.661-2.409,2.508-3.6A15.508,15.508,0,0,0,39.841,24.8c0-.471.009-.942.017-1.414,0-.029.025-.057.054-.117" fill="#f6f6f6"/>
          <path id="Path_181627" data-name="Path 181627" d="M21.985,26.985a9.135,9.135,0,1,1,9.134-9.113,9.126,9.126,0,0,1-9.134,9.113M22,25.324A7.474,7.474,0,1,0,14.514,17.9,7.455,7.455,0,0,0,22,25.324" fill="#f6f6f6"/>
          <path id="Path_181628" data-name="Path 181628" d="M26.034,16.816l1.521-.388a5.6,5.6,0,0,1-1.84,5.892,5.81,5.81,0,0,1-9.159-6.512,5.726,5.726,0,0,1,5.4-3.722v1.593a4.2,4.2,0,0,0-3.63,2.231,3.975,3.975,0,0,0-.345,3.025,4.165,4.165,0,0,0,4.772,3.006,4.215,4.215,0,0,0,3.278-5.125" fill="#f6f6f6"/>
          <path id="Path_181629" data-name="Path 181629" d="M26.426,13.946l-1.274,1.127-1.471-1.082.667-1.536,2.078,1.491" fill="#f6f6f6"/>
        </g>
      </g>
    </g>
  </g>
</svg>
