<svg id="Group_124019" data-name="Group 124019" xmlns="http://www.w3.org/2000/svg" xmlns:xlink="http://www.w3.org/1999/xlink" width="74.99" height="90" viewBox="0 0 74.99 90">
  <defs>
    <clipPath id="clip-path">
      <rect id="Rectangle_38415" data-name="Rectangle 38415" width="74.99" height="90" fill="#ff6b00"/>
    </clipPath>
  </defs>
  <g id="Group_124019-2" data-name="Group 124019" clip-path="url(#clip-path)">
    <path id="Path_186757" data-name="Path 186757" d="M35.205,90c-1.637-.284-3.29-.5-4.908-.862A31.5,31.5,0,0,1,6.2,62.066a1.145,1.145,0,0,0-.521-.833C2.25,60,.583,57.361.12,53.965a9.288,9.288,0,0,1,3.423-9.082A6.035,6.035,0,0,1,5.3,43.929a.926.926,0,0,0,.713-1.081c-.031-2.577.046-5.157-.035-7.732a3.751,3.751,0,0,1,1.824-3.462,19.778,19.778,0,0,1,7.112-2.634c1.971-.423,3.967-.731,6.062-1.11v-1q0-9.4,0-18.806C20.984,3.13,24.12,0,29.106,0q11.38,0,22.76,0C53.548,0,54,.452,54,2.135q0,12.347,0,24.693v1.1c1.767.305,3.515.5,5.2.925,2.23.57,4.427,1.282,6.6,2.031A6.957,6.957,0,0,1,67.722,32.1a3.248,3.248,0,0,1,1.268,2.757c-.041,2.694-.027,5.39.008,8.084a1.083,1.083,0,0,0,.455.845c3.4,1.347,5,4.028,5.443,7.47a9.628,9.628,0,0,1-2.151,7.64A7.593,7.593,0,0,1,69.4,61.219a1.113,1.113,0,0,0-.6.775A31.566,31.566,0,0,1,42.453,89.619c-.891.137-1.785.254-2.678.381ZM9.038,38.22C9.027,38.4,9,38.6,9,38.793c0,6.825-.033,13.651.036,20.475A25.361,25.361,0,0,0,9.627,64.4a28.477,28.477,0,0,0,56.331-5.291c.075-6.765.02-13.533.02-20.3,0-.214-.039-.427-.064-.688-.68.266-1.266.524-1.871.727-5.576,1.878-11.381,2.375-17.193,2.8a130.392,130.392,0,0,1-18.7.005A84.11,84.11,0,0,1,13.816,39.7c-1.6-.4-3.164-.975-4.778-1.481M24.03,32.962H50.936v-17.9H39v1.118c0,3.016.036,6.033-.036,9.047a2.376,2.376,0,0,1-.769,1.535c-.531.466-1.206.219-1.78-.176-.965-.663-1.925-1.336-2.929-1.935a1.133,1.133,0,0,0-.975,0c-1.077.647-2.088,1.4-3.159,2.062a1.489,1.489,0,0,1-2.362-1.2,6.843,6.843,0,0,1-.011-.7c0-3.075.007-6.149-.013-9.223,0-.273-.107-.7-.294-.791-.848-.426-1.742-.758-2.64-1.133ZM9.015,34.354c-.022.148-.043.3-.065.443A25.847,25.847,0,0,0,11.6,36.008a58.206,58.206,0,0,0,13.441,2.447,131.993,131.993,0,0,0,30.411-.673,34.7,34.7,0,0,0,8.993-2.26,16.943,16.943,0,0,0,1.8-1.092C62.3,32.156,58.181,31.679,54,30.986c0,.489-.006.862,0,1.236.077,3.814.018,3.816-3.833,3.8q-12.61-.049-25.222,0c-4.045.015-4.033.062-3.965-3.931,0-.339,0-.679,0-1.118-4.2.745-8.35,1.142-11.966,3.381M50.958,5.99V3.038c-.326-.016-.61-.041-.9-.041q-2.943-.006-5.888,0c-5.185,0-10.37-.015-15.555.006a4.495,4.495,0,1,0,.107,8.981q10.722.012,21.443,0c.254,0,.507-.037.757-.056V8.987h-15.8a5.022,5.022,0,0,1-.877-.029,1.381,1.381,0,0,1-1.223-1.3,1.337,1.337,0,0,1,.925-1.519A3.482,3.482,0,0,1,35.068,6q7.25-.013,14.5-.006ZM30.024,22.666c.668-.439,1.276-.8,1.843-1.222a1.743,1.743,0,0,1,2.258-.006c.557.394,1.146.743,1.813,1.172V15.05H30.024Zm39,35.372c2.3-1.34,3.365-3.851,2.895-6.848a5.831,5.831,0,0,0-2.895-4.271Zm-63.09.06V46.906A6.394,6.394,0,0,0,3,53.172,6.16,6.16,0,0,0,5.931,58.1" fill="#ff6b00"/>
    <path id="Path_186758" data-name="Path 186758" d="M24.115,59.979a6.351,6.351,0,0,1-5.575-3.006,20.564,20.564,0,0,1-1.875-3.74,1.48,1.48,0,0,1,.873-2.149c.866-.3,1.523.195,1.989,1.218a14.954,14.954,0,0,0,1.887,3.416,3.208,3.208,0,0,0,5.228-.063A15.347,15.347,0,0,0,28.471,52.3c.463-1.029,1.118-1.51,1.984-1.207a1.541,1.541,0,0,1,.875,2.155,11.329,11.329,0,0,1-2.973,4.994,6.014,6.014,0,0,1-4.242,1.738" fill="#ff6b00"/>
    <path id="Path_186759" data-name="Path 186759" d="M51.013,60.03a6.348,6.348,0,0,1-4.442-1.846,11.283,11.283,0,0,1-3.009-5.266,1.472,1.472,0,0,1,1.032-1.857,1.522,1.522,0,0,1,1.827.974A15.366,15.366,0,0,0,47.9,55.087a5.585,5.585,0,0,0,2.305,1.754,2.711,2.711,0,0,0,3.228-.983,23.986,23.986,0,0,0,2.083-3.706c.419-.85,1.058-1.331,1.829-1.1a1.426,1.426,0,0,1,1.111,1.577c-.152,2.761-3.205,6.479-5.892,7.155-.506.128-1.035.167-1.553.247" fill="#ff6b00"/>
    <path id="Path_186760" data-name="Path 186760" d="M36.6,65.423c1.216-.306,2.288-.587,3.366-.843a1.51,1.51,0,1,1,.716,2.912c-1.837.475-3.676.949-5.523,1.384-1.547.364-2.422-.5-2.046-2.048.926-3.8,1.882-7.594,2.84-11.388.272-1.08,1.01-1.6,1.877-1.378.93.239,1.318,1.013,1.033,2.161-.716,2.891-1.451,5.776-2.177,8.665-.033.132-.044.271-.086.535" fill="#ff6b00"/>
  </g>
</svg>
