<svg xmlns="http://www.w3.org/2000/svg" xmlns:xlink="http://www.w3.org/1999/xlink" width="97" height="141" viewBox="0 0 97 141">
  <defs>
    <clipPath id="clip-path">
      <rect id="Rectangle_36959" data-name="Rectangle 36959" width="49.994" height="50" fill="#f6f6f6"/>
    </clipPath>
  </defs>
  <g id="Group_124192" data-name="Group 124192" transform="translate(-1067 -2213)">
    <line id="Line_166" data-name="Line 166" y2="34.452" transform="translate(1115.5 2214)" fill="none" stroke="#fc6b21" stroke-linecap="round" stroke-linejoin="round" stroke-width="2" stroke-dasharray="0 4.053"/>
    <circle id="Ellipse_4986" data-name="Ellipse 4986" cx="48.5" cy="48.5" r="48.5" transform="translate(1067 2257)" fill="#ff6b00"/>
    <g id="Group_120493" data-name="Group 120493" transform="translate(1091 2281)">
      <g id="Group_120492" data-name="Group 120492" clip-path="url(#clip-path)">
        <path id="Path_181668" data-name="Path 181668" d="M16.66,26.75v1.573c-.376,0-.735,0-1.093,0-1.716.028-3.442-.048-5.146.112A9.973,9.973,0,0,0,9.9,48.147a9.914,9.914,0,0,0,11.66-8.626c.2-2.012.086-4.055.114-6.082,0-.293,0-.586,0-.915h1.666c0,.226,0,.447,0,.666-.03,2.168.073,4.345-.116,6.5A11.639,11.639,0,0,1,.279,40.747a11.614,11.614,0,0,1,9.989-13.966c2.1-.193,4.223-.031,6.392-.031" fill="#f6f6f6"/>
        <path id="Path_181669" data-name="Path 181669" d="M33.353,28.323v-1.58c.038-.031.065-.07.091-.07,2.508.06,5.035-.269,7.52.29A11.654,11.654,0,1,1,26.8,39.707c-.214-2.369-.035-4.774-.035-7.191h1.576v.539q0,2.524,0,5.049a9.993,9.993,0,1,0,11.738-9.61,11.8,11.8,0,0,0-2.069-.164c-1.539-.023-3.079-.007-4.659-.007" fill="#f6f6f6"/>
        <path id="Path_181670" data-name="Path 181670" d="M41.674,30.847v1.644c.326,0,.616-.009.9,0a2.463,2.463,0,0,1,2.412,2.4q.043,3.852,0,7.7a2.4,2.4,0,0,1-2.314,2.375c-3.365.036-6.73.012-10.132.012V43.341H39.95A2.981,2.981,0,0,0,40,42.967c0-1.493.006-2.985,0-4.477,0-.689-.3-.994-.975-1-.762-.008-1.524,0-2.327,0a2.678,2.678,0,0,1-1.538,2.306c-.093.046-.144.254-.149.39-.018.465-.007.932-.007,1.434H33.341c0-.47.027-.936-.014-1.4a.74.74,0,0,0-.3-.5,2.573,2.573,0,0,1-1.355-2.356c0-.781-.008-1.562,0-2.342a2.486,2.486,0,0,1,2.549-2.528c1.718-.011,3.436,0,5.154,0H40V30.847Zm-4.957,3.309v1.665c.781,0,1.541,0,2.3,0a2.546,2.546,0,0,1,2.39,1.381c.065.117.2.266.313.272.529.028,1.06.012,1.615.012v-.431c0-.677.013-1.354-.006-2.031a.815.815,0,0,0-.9-.864c-1.891-.009-3.782,0-5.717,0m5,5.017v4.141c.3,0,.563.016.821,0a.746.746,0,0,0,.776-.7c.039-1.137.013-2.276.013-3.434ZM35,34.157c-.32,0-.578-.014-.834,0a.8.8,0,0,0-.822.829c-.019.831-.019,1.664,0,2.494a.825.825,0,1,0,1.65.01c.019-1.089.006-2.178.006-3.336" fill="#f6f6f6"/>
        <path id="Path_181671" data-name="Path 181671" d="M31.687,23.325V21.659h.547c1.978,0,3.956,0,5.933,0A9.994,9.994,0,1,0,28.49,10.014a24.483,24.483,0,0,0-.2,2.453H26.708a10.585,10.585,0,0,1,.237-3.273,11.654,11.654,0,1,1,13.2,13.985,11.325,11.325,0,0,1-1.813.14c-2.047.016-4.095.006-6.142.006h-.507" fill="#f6f6f6"/>
        <path id="Path_181672" data-name="Path 181672" d="M18.32,21.659v1.666h-.546q-2.994,0-5.986,0A11.66,11.66,0,1,1,23.2,9.861c.142.845.133,1.715.2,2.607H21.722c-.042-.659-.058-1.329-.134-1.992A9.982,9.982,0,1,0,11.542,21.651c2.064.032,4.129.007,6.194.008h.584" fill="#f6f6f6"/>
        <path id="Path_181673" data-name="Path 181673" d="M45,12.5h.876a27.43,27.43,0,0,1-.177,3.2,2.3,2.3,0,0,1-2.283,1.786q-5.071.027-10.143,0a2.444,2.444,0,0,1-2.417-2.273c-.051-.879-.01-1.763-.01-2.688l.825-.053V11.9c0-1.456-.009-2.913,0-4.369A2.479,2.479,0,0,1,34.22,5q4.135-.015,8.271,0A2.472,2.472,0,0,1,45,7.513c.016,1.473,0,2.948.005,4.422V12.5m-1.667-.023c0-1.671.007-3.282,0-4.893,0-.62-.336-.913-1.005-.914q-3.978-.006-7.956,0c-.741,0-1.028.3-1.03,1.048q-.006,2.184,0,4.368c0,.131.024.263.036.392Zm.832,1.72H32.509c0,.273-.009.514,0,.753a.821.821,0,0,0,.885.876q4.938.013,9.877,0a.825.825,0,0,0,.894-.869c.012-.24,0-.481,0-.761" fill="#f6f6f6"/>
        <path id="Path_181674" data-name="Path 181674" d="M31.674,30.8H18.425c0-1.458-.112-2.9.031-4.32a3.736,3.736,0,0,1,2.4-3.045c.331-.151.675-.271,1.009-.414.594-.254.879-.763.553-1.289-1.041-1.683-.742-3.529-.707-5.326a3.261,3.261,0,0,1,3.322-3.073,3.312,3.312,0,0,1,3.3,3.111,26.656,26.656,0,0,1-.016,3.173,4.906,4.906,0,0,1-.5,1.618c-.524,1.142-.434,1.495.727,1.926A4.284,4.284,0,0,1,31.5,26.11a8.049,8.049,0,0,1,.169,1.8c.027.95.007,1.9.007,2.886M30,29.132c0-.7.027-1.346-.006-1.986A2.407,2.407,0,0,0,28.586,25c-.262-.131-.542-.228-.816-.336a2.649,2.649,0,0,1-1.539-3.983,3.134,3.134,0,0,0,.416-1.107c.059-1.02.054-2.047.012-3.069A1.635,1.635,0,0,0,25.073,15a1.576,1.576,0,0,0-1.693,1.432c0,1.551-.293,3.115.548,4.622a2.491,2.491,0,0,1-1.368,3.484c-.365.159-.743.29-1.1.457a2.131,2.131,0,0,0-1.322,1.572,25.053,25.053,0,0,0-.161,2.568Z" fill="#f6f6f6"/>
        <path id="Path_181675" data-name="Path 181675" d="M16.424,32.265c-.851.849-1.593,1.683-2.435,2.4a1.846,1.846,0,0,0-.6,1.952,1.867,1.867,0,0,0,1.932-.586c.72-.856,1.573-1.6,2.432-2.454.613,1.271,1.262,2.456,1.759,3.7a2.257,2.257,0,0,1-.575,2.452c-.39.417-.8.819-1.214,1.215a2.5,2.5,0,0,1-1.791.707c-1.163,0-2.326-.017-3.487.013a1.168,1.168,0,0,0-.71.3c-.793.752-1.548,1.543-2.326,2.312a2.606,2.606,0,1,1-3.7-3.672c.775-.795,1.58-1.561,2.345-2.366a1.1,1.1,0,0,0,.274-.669c.028-1.144.021-2.29.01-3.435a2.608,2.608,0,0,1,.8-1.962c.37-.367.726-.747,1.107-1.1a2.476,2.476,0,0,1,2.653-.548,5.782,5.782,0,0,1,.7.33c.911.456,1.821.915,2.808,1.411m.841,4.085a7.66,7.66,0,0,0-.532.6,3.159,3.159,0,0,1-3.3,1.379,12.313,12.313,0,0,0-1.752-.014c0-1.195-.011-2.3.012-3.413a.883.883,0,0,1,.256-.523c.527-.549,1.078-1.075,1.674-1.662a7.351,7.351,0,0,0-1.316-.616,1.227,1.227,0,0,0-.891.2,4.456,4.456,0,0,0-.993.984,1.835,1.835,0,0,0-.39.957c-.043,1.351-.007,2.7-.03,4.055a1.006,1.006,0,0,1-.258.625c-.9.935-1.835,1.842-2.752,2.764a.956.956,0,0,0-.128,1.459c.41.424.939.38,1.448-.128.895-.894,1.794-1.786,2.675-2.694a1.013,1.013,0,0,1,.811-.347c1.334.02,2.67.024,4,0a1.4,1.4,0,0,0,.8-.281,6.023,6.023,0,0,0,1.1-1.1,1.21,1.21,0,0,0,.2-.891,7.613,7.613,0,0,0-.633-1.348" fill="#f6f6f6"/>
        <path id="Path_181676" data-name="Path 181676" d="M15.729,18.306H7.609c-.1-.875-.2-1.746-.3-2.618C7.144,14.225,7,12.759,6.8,11.3a1.237,1.237,0,0,0-.463-.749A2.549,2.549,0,0,1,5.277,7.226,2.5,2.5,0,0,1,8.505,6.034a.6.6,0,0,0,.15.011,3.337,3.337,0,0,1,3.039-1.872,3.251,3.251,0,0,1,2.935,1.742,9.608,9.608,0,0,1,1.824.02A2.281,2.281,0,0,1,18.3,7.89a2.251,2.251,0,0,1-1.005,2.445,1.769,1.769,0,0,0-.824,1.5c-.2,2.017-.433,4.031-.656,6.047-.015.135-.053.269-.084.422m-1.1-5c.091-.771.181-1.525.269-2.279a2.408,2.408,0,0,1,1.136-1.834c.391-.249.727-.507.617-1.024a.782.782,0,0,0-.766-.662c-.546-.026-.783.349-.92.823H13.346c0-.339.009-.6,0-.858a1.664,1.664,0,0,0-3.327.02c-.009.27,0,.54,0,.823H8.387c-.135-.479-.394-.892-.927-.785a1.162,1.162,0,0,0-.725.616c-.193.481.163.783.563,1.03a2.425,2.425,0,0,1,1.167,1.87c.087.753.178,1.505.267,2.26Zm-5.54,3.318h5.179c.058-.548.111-1.061.168-1.6H8.924c.057.542.11,1.055.168,1.6" fill="#f6f6f6"/>
      </g>
    </g>
  </g>
</svg>
