<svg id="Group_120723" data-name="Group 120723" xmlns="http://www.w3.org/2000/svg" xmlns:xlink="http://www.w3.org/1999/xlink" width="301.375" height="300" viewBox="0 0 301.375 300">
  <defs>
    <clipPath id="clip-path">
      <rect id="Rectangle_37187" data-name="Rectangle 37187" width="301.375" height="300" fill="none"/>
    </clipPath>
    <clipPath id="clip-path-3">
      <rect id="Rectangle_37171" data-name="Rectangle 37171" width="11.609" height="13.487" transform="translate(222.229 182.028)" fill="none"/>
    </clipPath>
    <clipPath id="clip-path-4">
      <rect id="Rectangle_37182" data-name="Rectangle 37182" width="11.207" height="1.815" transform="translate(86.67 287.489)" fill="none"/>
    </clipPath>
    <clipPath id="clip-path-5">
      <rect id="Rectangle_37183" data-name="Rectangle 37183" width="11.936" height="3.001" transform="translate(48.948 287.636)" fill="none"/>
    </clipPath>
    <clipPath id="clip-path-6">
      <rect id="Rectangle_37184" data-name="Rectangle 37184" width="3.851" height="6.767" transform="translate(21.361 63.364)" fill="none"/>
    </clipPath>
    <clipPath id="clip-path-7">
      <rect id="Rectangle_37185" data-name="Rectangle 37185" width="1.497" height="0.727" transform="translate(25.886 62.923)" fill="none"/>
    </clipPath>
  </defs>
  <g id="Group_120740" data-name="Group 120740" clip-path="url(#clip-path)">
    <g id="Group_120739" data-name="Group 120739">
      <g id="Group_120738" data-name="Group 120738" clip-path="url(#clip-path)">
        <path id="Path_181925" data-name="Path 181925" d="M290.2,146.491l-5.991,3.2s2.689,5.031-2.491,7.915a5.5,5.5,0,0,1-6.348-.585,6.087,6.087,0,0,1-2.167-5.08c.121-2.218,1.533-4.932,5.951-6.378l-7.22-13.509-5.924,3.167,4.229,7.913s-7.16,6.589-2.266,15.745c4.683,8.76,13.627,6.6,16.99,4.8,2.572-1.375,11-6.679,5.237-17.188" fill="#ebebeb"/>
        <rect id="Rectangle_37164" data-name="Rectangle 37164" width="6.817" height="6.367" transform="translate(261.45 126.863) rotate(-28.129)" fill="#ebebeb"/>
        <path id="Path_181926" data-name="Path 181926" d="M51.319,24.716l5.558,1.921a5,5,0,0,1,6.491-3.075,4.757,4.757,0,0,1,3.363,4.376A5.27,5.27,0,0,1,64.78,32.3c-1.48,1.228-4.034,1.927-7.552-.028L52.9,44.807l5.5,1.9,2.537-7.34a11.355,11.355,0,0,0,11.332-7.823c2.809-8.128-3.827-12.534-6.947-13.612-2.386-.825-10.712-3.056-14,6.785" fill="#ebebeb"/>
        <rect id="Rectangle_37165" data-name="Rectangle 37165" width="5.512" height="5.901" transform="translate(50.191 52.593) rotate(-70.939)" fill="#ebebeb"/>
        <path id="Path_181927" data-name="Path 181927" d="M22.423,17.826l3.246-.939A2.87,2.87,0,0,1,27.7,13.294a2.734,2.734,0,0,1,3.029.941,3.029,3.029,0,0,1,.529,2.7C30.968,18,30,19.171,27.7,19.418l2.117,7.319,3.209-.929-1.24-4.287a6.523,6.523,0,0,0,2.73-7.425c-1.373-4.747-5.948-4.618-7.77-4.091-1.393.4-6.041,2.113-4.324,7.821" fill="#f5f5f5"/>
        <rect id="Rectangle_37166" data-name="Rectangle 37166" width="3.39" height="3.167" transform="translate(30.245 28.247) rotate(-16.131)" fill="#f5f5f5"/>
        <path id="Path_181928" data-name="Path 181928" d="M289.9,105.019l-5.185-.143a4.408,4.408,0,0,1-4.647,4.306,4.2,4.2,0,0,1-3.989-2.79,4.648,4.648,0,0,1,.485-4.189c.92-1.426,2.884-2.69,6.361-1.978l.323-11.691-5.127-.142-.189,6.848a10.017,10.017,0,0,0-7.461,9.585c-.21,7.582,6.541,9.531,9.452,9.611,2.225.062,9.822-.267,9.977-9.417" fill="#e0e0e0"/>
        <rect id="Rectangle_37167" data-name="Rectangle 37167" width="4.861" height="5.205" transform="matrix(0.028, -1, 1, 0.028, 278.126, 85.982)" fill="#e0e0e0"/>
        <path id="Path_181929" data-name="Path 181929" d="M196.453,282.634v17.141h52.714V282.634Z" fill="#f5f5f5"/>
        <path id="Path_181930" data-name="Path 181930" d="M194.241,277.842v4.792h56.768v-4.792H194.241Z" fill="#e0e0e0"/>
        <path id="Path_181931" data-name="Path 181931" d="M222.626,299.775h26.541V282.634h1.843v-4.792H221.52v4.349Z" fill="#e0e0e0"/>
        <rect id="Rectangle_37168" data-name="Rectangle 37168" width="10.69" height="2.58" transform="translate(203.826 285.398)" fill="#e0e0e0"/>
        <rect id="Rectangle_37169" data-name="Rectangle 37169" width="13.727" height="5.449" transform="translate(202.449 291.204)" fill="#fff"/>
        <path id="Path_181932" data-name="Path 181932" d="M18.042,232.462a23.665,23.665,0,0,0-10.125-3.485,6.741,6.741,0,0,0-4.789.881.984.984,0,0,0-.494.874,1.067,1.067,0,0,0,.469.6,14.475,14.475,0,0,0,14.939,1.132" fill="#e0e0e0"/>
        <path id="Path_181933" data-name="Path 181933" d="M17.782,232.175a49.426,49.426,0,0,1-6.54-5.754,16.546,16.546,0,0,1-4.1-7.582,3.06,3.06,0,0,1,.324-2.538c5.213,4.071,9.308,9.337,10.316,15.874" fill="#e0e0e0"/>
        <path id="Path_181934" data-name="Path 181934" d="M17.988,232.423a23.636,23.636,0,0,1,.121-8.586,11.61,11.61,0,0,1,4.574-7.085c.9,2.1.513,4.531-.121,6.731a32.714,32.714,0,0,1-4.535,9.548" fill="#e0e0e0"/>
        <path id="Path_181935" data-name="Path 181935" d="M23.1,241.579a14.958,14.958,0,0,0-8.12,4.11,15.363,15.363,0,0,0-4.645,7.973c3.043-.188,5.624-2.334,7.5-4.74s3.169-5.046,5.226-7.3" fill="#e0e0e0"/>
        <path id="Path_181936" data-name="Path 181936" d="M24.208,243.044A20.028,20.028,0,0,1,26.52,224.1a24.112,24.112,0,0,1-2.312,18.944" fill="#e0e0e0"/>
        <path id="Path_181937" data-name="Path 181937" d="M30.96,251.084a14.482,14.482,0,0,0-13.847,7.971c-.171.343-.323.778-.093,1.085a1.031,1.031,0,0,0,.918.271c2.729-.177,5.148-1.819,7.143-3.689s3.735-4.029,5.94-5.646" fill="#e0e0e0"/>
        <path id="Path_181938" data-name="Path 181938" d="M30.744,250.646a25.783,25.783,0,0,1-.257-14.406c.507-1.854,1.359-3.807,3.074-4.676a.607.607,0,0,1,.47-.083.617.617,0,0,1,.3.345,8.663,8.663,0,0,1,.725,4.133,25.844,25.844,0,0,1-.647,4.184c-.54,2.557-.828,5.3-2.23,7.51a15.338,15.338,0,0,0-.892,1.65c-.265.56-.267.758-.511,1.2" fill="#e0e0e0"/>
        <path id="Path_181939" data-name="Path 181939" d="M48.617,253.309a18.573,18.573,0,0,1,3.255-15.272c.234-.3.544-.63.926-.6.584.054.736.833.71,1.42a27.6,27.6,0,0,1-4.891,14.447" fill="#e0e0e0"/>
        <path id="Path_181940" data-name="Path 181940" d="M50.229,254.41A22.214,22.214,0,0,0,68.457,250.7a14.76,14.76,0,0,0-9.867-1.211,14.073,14.073,0,0,0-8.361,4.919" fill="#e0e0e0"/>
        <path id="Path_181941" data-name="Path 181941" d="M51.588,251.056a21.064,21.064,0,0,1,16.544-9.567,10.194,10.194,0,0,1-5.411,5.983,30.052,30.052,0,0,1-7.943,2.323c-1.056.205-2.506.431-3.19,1.261" fill="#e0e0e0"/>
        <path id="Path_181942" data-name="Path 181942" d="M48.958,234.783a48.077,48.077,0,0,0,2.116-9.689,16.133,16.133,0,0,0-1.93-9.585,21.1,21.1,0,0,0-.282,19.606" fill="#e0e0e0"/>
        <path id="Path_181943" data-name="Path 181943" d="M59.736,229.335c3.744-6.8,11.382-12.239,19.111-13-2.982,7.423-11.113,13.16-19.111,13" fill="#e0e0e0"/>
        <path id="Path_181944" data-name="Path 181944" d="M57.381,230.668c5.583.85,10.34,4.416,15.558,6.578a6.965,6.965,0,0,0,3.517.674,2.754,2.754,0,0,0,1.724-4.871,7.548,7.548,0,0,0-2.555-1.55,28.391,28.391,0,0,0-17.763-.99" fill="#e0e0e0"/>
        <path id="Path_181945" data-name="Path 181945" d="M54.15,234.584c1.264.362,1.7,1.016,2.7,1.869a29.092,29.092,0,0,0,11.8,6.06c.45.112,1.042.157,1.265-.25.195-.356-.052-.786-.305-1.1a16.237,16.237,0,0,0-7.124-4.836c-2.722-1.014-5.081-2.236-8.331-1.974" fill="#e0e0e0"/>
        <path id="Path_181946" data-name="Path 181946" d="M50.5,210.933a22.326,22.326,0,0,0,17.118,5.824,1.175,1.175,0,0,0,.779-.28c.431-.468-.086-1.192-.588-1.583A19.72,19.72,0,0,0,50.5,210.933" fill="#e0e0e0"/>
        <path id="Path_181947" data-name="Path 181947" d="M54.826,209.351a23.861,23.861,0,0,1,21.361-3.524,16.961,16.961,0,0,1-10.18,4.468,32.205,32.205,0,0,1-11.181-.944" fill="#e0e0e0"/>
        <path id="Path_181948" data-name="Path 181948" d="M53.108,198.482c-.494-5.022-.173-8.989-.522-14.035-.028-.4-.115-.888-.492-1.034-.525-.2-.963.443-1.135.98A16.087,16.087,0,0,0,53.1,198.372" fill="#e0e0e0"/>
        <path id="Path_181949" data-name="Path 181949" d="M52.747,199.037a29.519,29.519,0,0,0,8.321-8.086c1.644-2.25,3.029-4.944,2.656-7.7a7.962,7.962,0,0,0-6,2.98,16.759,16.759,0,0,0-3.06,6.155c-.666,2.212-1.132,4.483-1.914,6.654" fill="#e0e0e0"/>
        <path id="Path_181950" data-name="Path 181950" d="M60.922,196.766A67.1,67.1,0,0,0,81.4,184.691c-2.446-.985-5.247-.4-7.692.592a24.252,24.252,0,0,0-12.893,11.428" fill="#e0e0e0"/>
        <path id="Path_181951" data-name="Path 181951" d="M55.046,201.786a41.644,41.644,0,0,0,11.371.055,48.241,48.241,0,0,0,10.615-3.527,1.244,1.244,0,0,0,.721-.547.831.831,0,0,0-.258-.909,2.2,2.2,0,0,0-.905-.424,19.658,19.658,0,0,0-11.472.686,53.163,53.163,0,0,0-10.072,4.666" fill="#e0e0e0"/>
        <path id="Path_181952" data-name="Path 181952" d="M33.46,211.1a20.112,20.112,0,0,1-.184-16.646c1.569,2.39,1.76,5.433,1.473,8.277s-1.152,5.771-1.208,8.629" fill="#e0e0e0"/>
        <path id="Path_181953" data-name="Path 181953" d="M23.157,205.908A23.217,23.217,0,0,0,5.9,213.258a16.117,16.117,0,0,0,9.447-1.752,47.975,47.975,0,0,0,8.1-5.419" fill="#e0e0e0"/>
        <path id="Path_181954" data-name="Path 181954" d="M16.23,203.591c-3.15-.254-6.181-.644-9.21.284A11.049,11.049,0,0,0,0,209.826a16.634,16.634,0,0,0,8.635-1.63,49.521,49.521,0,0,0,7.595-4.6" fill="#e0e0e0"/>
        <path id="Path_181955" data-name="Path 181955" d="M26.486,203.7c-2.834-1.857-5.744-3.748-9.044-4.517s-7.123-.2-9.424,2.286c2.671,1.568,5.912,1.753,9.009,1.75s6.893-.037,9.813,1" fill="#e0e0e0"/>
        <path id="Path_181956" data-name="Path 181956" d="M26.5,203.847c-4.845-4.757-6.681-13.3-4.732-19.808A30.185,30.185,0,0,1,26.5,203.847" fill="#e0e0e0"/>
        <path id="Path_181957" data-name="Path 181957" d="M39.825,190.368c.914-2.124,1.556-4.354,2.376-6.516a18.734,18.734,0,0,1,3.388-6.007,8.922,8.922,0,0,1,6-3.109A24.168,24.168,0,0,1,39.944,190.4" fill="#e0e0e0"/>
        <path id="Path_181958" data-name="Path 181958" d="M37.414,193.176c-1.512-2.081-3.259-4.906-5.31-6.46a8.884,8.884,0,0,0-7.222-1.9,16.82,16.82,0,0,0,12.532,8.357" fill="#e0e0e0"/>
        <path id="Path_181959" data-name="Path 181959" d="M37.9,190.541a35.934,35.934,0,0,1-2.39-7.74,12.07,12.07,0,0,1,1.212-7.87c2.659,5.027,3.516,10.423,1.314,15.667" fill="#e0e0e0"/>
        <path id="Path_181960" data-name="Path 181960" d="M39.85,174.931c1.506-4.984,6.07-8.653,11-10.337a4.11,4.11,0,0,1,1.928-.289,1.672,1.672,0,0,1,1.421,1.186c.18.848-.52,1.608-1.179,2.171a37.443,37.443,0,0,1-13.166,7.269" fill="#e0e0e0"/>
        <path id="Path_181961" data-name="Path 181961" d="M39.9,170.855a35.711,35.711,0,0,1,1.437-9.517,12.027,12.027,0,0,1,5.99-7.233c.5,3.245-.934,6.474-2.66,9.266s-3.808,5.429-4.846,8.544" fill="#e0e0e0"/>
        <path id="Path_181962" data-name="Path 181962" d="M39.825,173.067c-1.245-3.632-1.374-8.245-3.548-11.409-1.521-2.212-3.955-3.719-5.265-6.061a9.22,9.22,0,0,0,.306,6.88,19.922,19.922,0,0,0,4.023,5.76c1.61,1.719,2.988,3.012,4.484,4.83" fill="#e0e0e0"/>
        <path id="Path_181963" data-name="Path 181963" d="M39.85,280.024c-.1,0-.181-24.227-.187-54.108s.066-54.114.163-54.114.18,24.223.187,54.114-.066,54.108-.163,54.108" fill="#e0e0e0"/>
        <path id="Path_181964" data-name="Path 181964" d="M61.022,207.449a5.176,5.176,0,0,1-.911.342l-2.507.846c-2.114.72-5.018,1.763-8.169,3.054-3.121,1.339-6.064,2.426-7.74,3.878a5.69,5.69,0,0,0-1.555,2.057c-.24.569-.283.917-.315.911a.706.706,0,0,1,.01-.254,3.9,3.9,0,0,1,.178-.706,5.46,5.46,0,0,1,1.518-2.193,13.6,13.6,0,0,1,3.358-2.086c1.343-.627,2.832-1.281,4.413-1.931,3.161-1.295,6.087-2.3,8.225-2.966,1.068-.333,1.94-.578,2.545-.74a5.14,5.14,0,0,1,.95-.212" fill="#e0e0e0"/>
        <path id="Path_181965" data-name="Path 181965" d="M67.962,190.4a1.475,1.475,0,0,1-.255.272l-.778.731-2.9,2.636-9.66,8.6c-3.771,3.357-7.03,6.564-9.289,8.979-1.131,1.206-2.021,2.205-2.629,2.9l-.7.8a1.514,1.514,0,0,1-.262.266,1.5,1.5,0,0,1,.208-.311c.146-.194.36-.485.652-.844.576-.726,1.441-1.752,2.551-2.983a122.521,122.521,0,0,1,9.237-9.072c3.784-3.349,7.228-6.357,9.73-8.526l2.976-2.554.821-.68a1.5,1.5,0,0,1,.3-.22" fill="#e0e0e0"/>
        <path id="Path_181966" data-name="Path 181966" d="M50.3,206.056c-.1-.044.689-1.863,1.474-4.163s1.165-4.241,1.265-4.225a14.155,14.155,0,0,1-.934,4.337,28.31,28.31,0,0,1-1.172,2.912,4.55,4.55,0,0,1-.633,1.139" fill="#e0e0e0"/>
        <path id="Path_181967" data-name="Path 181967" d="M39.872,220.72a4.305,4.305,0,0,1-.581-.675L37.8,218.137c-1.25-1.617-2.979-3.848-4.916-6.29s-3.72-4.632-5.01-6.216l-1.521-1.883a4.241,4.241,0,0,1-.525-.719,4.314,4.314,0,0,1,.628.63c.388.421.938,1.04,1.607,1.812,1.34,1.546,3.154,3.714,5.095,6.159s3.639,4.7,4.84,6.358c.6.828,1.079,1.5,1.4,1.977a4.347,4.347,0,0,1,.471.755" fill="#e0e0e0"/>
        <path id="Path_181968" data-name="Path 181968" d="M35.229,214.76a8.519,8.519,0,0,1-1.945-3.641,10.385,10.385,0,0,1-.441-3.67l.155.013c-.069.28-.12.428-.148.423s-.029-.16-.006-.448l.155.012a16.649,16.649,0,0,0,.621,3.571,27.042,27.042,0,0,0,1.609,3.74" fill="#e0e0e0"/>
        <path id="Path_181969" data-name="Path 181969" d="M29.236,207.221a6.264,6.264,0,0,0-1.358-.789,9.084,9.084,0,0,0-3.77-.3,23.421,23.421,0,0,0-3.8.613,11.4,11.4,0,0,1-1.563.375,5.462,5.462,0,0,1,1.5-.613,17.33,17.33,0,0,1,3.837-.724,8.217,8.217,0,0,1,3.889.42,2.413,2.413,0,0,1,1.265,1.018" fill="#e0e0e0"/>
        <path id="Path_181970" data-name="Path 181970" d="M27.815,205.394c-.027.054-.791-.317-2.08-.758a20.947,20.947,0,0,0-10.484-.8c-1.341.24-2.153.491-2.171.434a1.932,1.932,0,0,1,.551-.235,13.079,13.079,0,0,1,1.571-.442,18.506,18.506,0,0,1,10.617.81,12.786,12.786,0,0,1,1.486.674,1.94,1.94,0,0,1,.51.316" fill="#e0e0e0"/>
        <path id="Path_181971" data-name="Path 181971" d="M39.825,197.668a42.98,42.98,0,0,1-1.517-5.27,43.126,43.126,0,0,1-1.178-5.356,42.915,42.915,0,0,1,1.517,5.27,43.043,43.043,0,0,1,1.178,5.356" fill="#e0e0e0"/>
        <path id="Path_181972" data-name="Path 181972" d="M39.922,197.668a25.3,25.3,0,0,0-1.682-3.155,13.888,13.888,0,0,0-2.474-2.554,2.306,2.306,0,0,1,.955.492,7.7,7.7,0,0,1,1.806,1.861,6.989,6.989,0,0,1,1.4,3.356" fill="#e0e0e0"/>
        <path id="Path_181973" data-name="Path 181973" d="M39.85,267.109c-.038.006-.109-.583-.382-1.611a22.954,22.954,0,0,0-1.619-4.195,58.029,58.029,0,0,0-8.591-12.1c-1.917-2.192-3.778-4.259-5.357-6.238a43.912,43.912,0,0,1-3.832-5.525,26.564,26.564,0,0,1-1.934-4.1c-.177-.505-.308-.9-.379-1.173a1.938,1.938,0,0,1-.1-.418c.031-.01.207.554.607,1.542a29.974,29.974,0,0,0,2.02,4.025,46.47,46.47,0,0,0,3.869,5.448c1.585,1.958,3.449,4.014,5.37,6.209a55.017,55.017,0,0,1,8.55,12.225,20.97,20.97,0,0,1,1.528,4.27,12.033,12.033,0,0,1,.215,1.215,1.945,1.945,0,0,1,.035.429" fill="#e0e0e0"/>
        <path id="Path_181974" data-name="Path 181974" d="M58.982,245.5a8.768,8.768,0,0,1-1,.563,21.959,21.959,0,0,0-2.6,1.719,29.974,29.974,0,0,0-3.415,3.116c-1.2,1.266-2.434,2.737-3.695,4.313-2.519,3.162-4.876,5.959-6.288,8.193-.716,1.107-1.237,2.042-1.578,2.7a8.837,8.837,0,0,1-.552,1.009.935.935,0,0,1,.092-.284c.075-.181.176-.451.337-.786a25.755,25.755,0,0,1,1.492-2.768,90.011,90.011,0,0,1,6.224-8.28c1.263-1.579,2.513-3.053,3.735-4.318a27.823,27.823,0,0,1,3.5-3.09,18.289,18.289,0,0,1,2.686-1.642c.332-.167.6-.269.783-.346a.956.956,0,0,1,.283-.1" fill="#e0e0e0"/>
        <path id="Path_181975" data-name="Path 181975" d="M59.356,252.509a14.508,14.508,0,0,1-2.119.308,27.988,27.988,0,0,0-5.027.99,15.108,15.108,0,0,0-4.5,2.362c-1.038.8-1.527,1.465-1.575,1.426a1.6,1.6,0,0,1,.314-.488,7.927,7.927,0,0,1,1.1-1.13,13.619,13.619,0,0,1,4.55-2.5,22.671,22.671,0,0,1,5.109-.9,11.687,11.687,0,0,1,2.144-.061" fill="#e0e0e0"/>
        <path id="Path_181976" data-name="Path 181976" d="M46.754,256.825c-.111-.063.845-1.522,1.585-3.484.7-1.98.858-3.716.983-3.7a3.346,3.346,0,0,1-.035,1.137,12.193,12.193,0,0,1-.618,2.679,12.929,12.929,0,0,1-1.23,2.456,3.419,3.419,0,0,1-.685.908" fill="#e0e0e0"/>
        <path id="Path_181977" data-name="Path 181977" d="M65.178,226.677a1.635,1.635,0,0,1-.339.18l-1,.453c-.436.187-.966.424-1.563.739s-1.3.627-2.025,1.064l-1.156.657c-.4.231-.8.5-1.219.769-.853.517-1.707,1.154-2.618,1.8a44.871,44.871,0,0,0-10.081,10.432c-.619.933-1.226,1.808-1.714,2.678-.25.431-.51.837-.726,1.245l-.618,1.178c-.412.742-.706,1.451-.994,2.06s-.513,1.145-.685,1.587c-.17.41-.308.744-.418,1.011a1.638,1.638,0,0,1-.169.345,1.6,1.6,0,0,1,.1-.369l.358-1.036c.153-.452.354-1,.632-1.616s.553-1.34.953-2.093l.6-1.2c.212-.414.468-.826.713-1.263.481-.882,1.083-1.769,1.7-2.714A43.227,43.227,0,0,1,55.07,232.084c.923-.648,1.789-1.28,2.654-1.79.428-.261.831-.531,1.238-.757l1.175-.641c.739-.426,1.449-.73,2.059-1.024s1.147-.519,1.593-.687l1.024-.393a1.614,1.614,0,0,1,.365-.115" fill="#e0e0e0"/>
        <path id="Path_181978" data-name="Path 181978" d="M50.036,236.823a2.438,2.438,0,0,1,.833-1.24,5.251,5.251,0,0,1,3.354-1.287,9.157,9.157,0,0,1,3.531.69,5,5,0,0,1,1.334.648,8.168,8.168,0,0,1-1.416-.415,10.677,10.677,0,0,0-3.437-.573,5.46,5.46,0,0,0-3.205,1.125,9.887,9.887,0,0,0-.994,1.052" fill="#e0e0e0"/>
        <path id="Path_181979" data-name="Path 181979" d="M47.773,239.158a8.961,8.961,0,0,0,.739-6.334,2.05,2.05,0,0,1,.393.9,6.409,6.409,0,0,1-.541,4.644c-.3.536-.557.812-.591.788" fill="#e0e0e0"/>
        <path id="Path_181980" data-name="Path 181980" d="M23.116,270.58c.522,9.259,3.312,18.676,7.6,28.2H49.383c4.093-9.426,6.69-18.828,7.152-28.2Z" fill="#e0e0e0"/>
        <path id="Path_181981" data-name="Path 181981" d="M53.51,285.563c0,.1-6.145.175-13.723.175s-13.724-.078-13.724-.175,6.143-.175,13.724-.175,13.723.078,13.723.175" fill="#fafafa"/>
        <path id="Path_181982" data-name="Path 181982" d="M53.093,288.918c0,.1-5.761.175-12.865.175s-12.866-.078-12.866-.175,5.759-.175,12.866-.175,12.865.078,12.865.175" fill="#fafafa"/>
        <path id="Path_181983" data-name="Path 181983" d="M31.021,276.66a52.879,52.879,0,0,1,0,8.6,52.879,52.879,0,0,1,0-8.6" fill="#fafafa"/>
        <path id="Path_181984" data-name="Path 181984" d="M41.02,276.66a56.7,56.7,0,0,1,0,8.9,56.7,56.7,0,0,1,0-8.9" fill="#fafafa"/>
        <path id="Path_181985" data-name="Path 181985" d="M50.407,276.584a58.991,58.991,0,0,1,0,9.081,58.99,58.99,0,0,1,0-9.081" fill="#fafafa"/>
        <path id="Path_181986" data-name="Path 181986" d="M55.942,276.66c0,.1-7.207.175-16.1.175s-16.1-.078-16.1-.175,7.2-.175,16.1-.175,16.1.078,16.1.175" fill="#fafafa"/>
        <rect id="Rectangle_37170" data-name="Rectangle 37170" width="45.54" height="6.257" transform="translate(229.066 261.396)" fill="#263238"/>
        <path id="Path_181987" data-name="Path 181987" d="M274.683,267.731h-45.7v-6.413h45.7Zm-45.539-.156h45.384v-6.1H229.144Z" fill="#263238"/>
        <path id="Path_181988" data-name="Path 181988" d="M233.288,265.571l6.555,32.339H264.1l6.337-30.256Z" fill="#263238"/>
        <path id="Path_181989" data-name="Path 181989" d="M233.288,294.85l3.5,4.807h29.481l4.169-4.807Z" fill="#455a64"/>
        <path id="Path_181990" data-name="Path 181990" d="M250.126,266.515c-.091,0-.205-14.981-.257-33.458s-.022-33.462.069-33.463.2,14.979.255,33.462.022,33.459-.067,33.459" fill="#263238"/>
        <path id="Path_181991" data-name="Path 181991" d="M260.27,229.024a1.562,1.562,0,0,1-.122.348c-.107.255-.241.576-.407.97l-.3.7-.3.851c-.11.306-.227.632-.351.975s-.218.723-.337,1.113a45.364,45.364,0,0,0-1.274,5.575,68,68,0,0,0-.7,6.973,94.163,94.163,0,0,0,.36,12.737c.147,1.626.294,2.94.4,3.847.047.425.085.772.115,1.046a1.6,1.6,0,0,1,.019.368,1.465,1.465,0,0,1-.083-.359c-.046-.272-.1-.616-.176-1.038-.146-.9-.329-2.215-.505-3.841a83.97,83.97,0,0,1-.456-12.775,63.577,63.577,0,0,1,.735-7.007,42.1,42.1,0,0,1,1.349-5.594c.127-.39.231-.766.361-1.112l.376-.973c.118-.3.228-.582.33-.844s.227-.483.325-.691l.463-.947a1.554,1.554,0,0,1,.181-.32" fill="#263238"/>
        <path id="Path_181992" data-name="Path 181992" d="M259.106,216.907a3.153,3.153,0,0,1-.145.494q-.177.519-.474,1.393-.159.457-.348,1-.17.561-.367,1.21c-.266.867-.575,1.852-.849,2.96q-.219.829-.457,1.732-.205.912-.427,1.894c-.318,1.3-.547,2.721-.841,4.2-.5,2.975-.944,6.265-1.249,9.734-.287,3.473-.413,6.791-.457,9.81-.009,3.018.029,5.738.153,8.019.04,1.141.114,2.172.172,3.077s.11,1.686.167,2.322c.047.614.084,1.1.112,1.467a3.082,3.082,0,0,1,.017.515,3.087,3.087,0,0,1-.082-.508q-.064-.546-.172-1.462c-.077-.635-.153-1.414-.222-2.32s-.166-1.936-.221-3.079c-.153-2.283-.215-5.008-.223-8.033.028-3.026.144-6.353.433-9.835.306-3.479.758-6.778,1.278-9.76.3-1.482.542-2.9.873-4.207q.231-.981.446-1.9.249-.9.479-1.731c.289-1.108.614-2.092.9-2.955l.392-1.205c.137-.361.262-.694.376-1l.532-1.374a3.1,3.1,0,0,1,.206-.471" fill="#263238"/>
        <path id="Path_181993" data-name="Path 181993" d="M247.245,269.165a.718.718,0,0,1-.026-.175c-.011-.135-.025-.3-.043-.516-.032-.477-.077-1.141-.134-1.984-.109-1.747-.265-4.234-.456-7.3-.4-6.16-.967-14.672-2-24.031-.53-4.68-1.144-9.124-1.783-13.154-.339-2.011-.647-3.925-1-5.705-.321-1.786-.666-3.44-.984-4.95-.3-1.514-.633-2.869-.9-4.065s-.519-2.222-.732-3.058c-.2-.82-.359-1.466-.473-1.93l-.115-.505a.78.78,0,0,1-.029-.175.7.7,0,0,1,.061.166l.146.5.532,1.916c.232.832.506,1.852.787,3.047s.635,2.546.949,4.059c.332,1.508.691,3.162,1.023,4.947.361,1.781.679,3.7,1.028,5.708.655,4.032,1.279,8.481,1.81,13.166,1.037,9.369,1.573,17.888,1.91,24.053.167,3.084.283,5.579.353,7.305.032.844.056,1.509.074,1.987,0,.212.008.382.01.517a.683.683,0,0,1-.007.177" fill="#263238"/>
        <path id="Path_181994" data-name="Path 181994" d="M249.754,206.8a4.515,4.515,0,0,0-4.474-3.746,7.047,7.047,0,0,0-5.422,2.943,16.952,16.952,0,0,0-2.611,5.795,39.369,39.369,0,0,0-1.606,15.42,23.332,23.332,0,0,0,6.416,13.9,2.628,2.628,0,0,0,2.211,1.01,2.66,2.66,0,0,0,1.166-.72,34.511,34.511,0,0,0,11.2-26.241,10.653,10.653,0,0,0-1.4-5.646c-1.088-1.636-3.624-3.374-5.476-2.717" fill="#7926cb"/>
        <path id="Path_181995" data-name="Path 181995" d="M233.837,189.8l-3,5.437c-.07.127-.163.269-.307.281s-.276-.136-.362-.269l-7.937-12.181,1.829-1.036Z" fill="#7926cb"/>
        <g id="Group_120725" data-name="Group 120725" opacity="0.2">
          <g id="Group_120724" data-name="Group 120724">
            <g id="Group_120723-2" data-name="Group 120723" clip-path="url(#clip-path-3)">
              <path id="Path_181996" data-name="Path 181996" d="M233.837,189.8l-3,5.437c-.07.127-.163.269-.307.281s-.276-.136-.362-.269l-7.937-12.181,1.829-1.036Z"/>
            </g>
          </g>
        </g>
        <path id="Path_181997" data-name="Path 181997" d="M249.937,199.594l-27.075-15.977a1.259,1.259,0,0,1-.659-.665c-.108-.4.193-.787.481-1.085a18.663,18.663,0,0,1,14.47-5.684,16.533,16.533,0,0,1,13.081,8.136c2.612,4.668,2.7,10.843-.3,15.275" fill="#7926cb"/>
        <path id="Path_181998" data-name="Path 181998" d="M226.764,178.518a1.481,1.481,0,0,1,.355-.044c.233-.012.578-.054,1.023-.049a20.316,20.316,0,0,1,3.757.3,21.955,21.955,0,0,1,17.524,15.857,20.385,20.385,0,0,1,.671,3.708,7.753,7.753,0,0,1,.042.79,1.339,1.339,0,0,1-.209.591,4.6,4.6,0,0,0,.042-1.367,23.207,23.207,0,0,0-.766-3.659,22.119,22.119,0,0,0-17.345-15.694,23.069,23.069,0,0,0-3.717-.4c-.884-.02-1.376,0-1.377-.033" fill="#263238"/>
        <path id="Path_181999" data-name="Path 181999" d="M246.273,188.567a6.588,6.588,0,0,1-1.369.622c-.862.34-2.069.775-3.416,1.2s-2.584.769-3.485.989a6.594,6.594,0,0,1-1.478.282,7.341,7.341,0,0,1,1.416-.5l3.448-1.077,3.437-1.11a7.359,7.359,0,0,1,1.447-.406" fill="#263238"/>
        <path id="Path_182000" data-name="Path 182000" d="M242.009,177.114a18.936,18.936,0,0,1,.153,6.053,18.824,18.824,0,0,1-.157-3.024,18.981,18.981,0,0,1,0-3.029" fill="#263238"/>
        <path id="Path_182001" data-name="Path 182001" d="M222.626,183.314a12.391,12.391,0,0,1,1.967-.691c1.23-.38,2.943-.859,4.852-1.32s3.655-.813,4.923-1.035a12.23,12.23,0,0,1,2.066-.28,14.455,14.455,0,0,1-2.021.5c-1.254.279-2.986.667-4.892,1.125s-3.622.9-4.866,1.226a14.47,14.47,0,0,1-2.029.47" fill="#263238"/>
        <path id="Path_182002" data-name="Path 182002" d="M238.516,202.191c-2.329-1.766-4.791-2.114-7.711-2a23.578,23.578,0,0,0-8.439,2.178c-4.566,2-8.857,4.947-11.585,9.118s-3.677,9.694-1.635,14.241a2.032,2.032,0,0,0,.925,1.122,2.214,2.214,0,0,0,1.528-.117c5.192-1.694,10.422-3.4,15.2-6.057s9.12-6.34,11.683-11.164a9.593,9.593,0,0,0,1.229-3.705,4.6,4.6,0,0,0-1.191-3.618" fill="#7926cb"/>
        <path id="Path_182003" data-name="Path 182003" d="M238.563,201.644a1.871,1.871,0,0,1-.374.152l-1.088.374-.788.263c-.285.1-.59.23-.92.358-.657.266-1.42.531-2.223.921l-1.273.58c-.442.2-.882.455-1.349.692-.941.463-1.893,1.053-2.908,1.652a45.971,45.971,0,0,0-11.455,10.078c-.723.93-1.43,1.8-2.009,2.674-.295.433-.6.838-.858,1.25l-.737,1.189c-.489.747-.85,1.47-1.2,2.087-.169.312-.335.6-.473.868s-.251.519-.361.747c-.209.424-.378.765-.509,1.032a1.847,1.847,0,0,1-.2.351,1.93,1.93,0,0,1,.139-.378l.455-1.058.337-.763c.13-.275.288-.566.45-.883.334-.628.682-1.362,1.161-2.121l.723-1.206c.255-.418.556-.829.848-1.268.573-.887,1.276-1.768,2-2.709a44.5,44.5,0,0,1,11.53-10.144c1.026-.6,1.989-1.181,2.941-1.636.473-.235.919-.481,1.366-.68l1.289-.564c.813-.378,1.585-.63,2.251-.881.335-.12.643-.24.933-.335l.8-.236,1.109-.317a1.831,1.831,0,0,1,.392-.089" fill="#263238"/>
        <path id="Path_182004" data-name="Path 182004" d="M220.37,211.494a54.735,54.735,0,0,1-5.664,1.825,54.754,54.754,0,0,1-5.756,1.514,54.708,54.708,0,0,1,5.665-1.825,54.71,54.71,0,0,1,5.755-1.514" fill="#263238"/>
        <path id="Path_182005" data-name="Path 182005" d="M220.137,223.994a9.046,9.046,0,0,1-.125-1.765c-.029-1.091-.034-2.6.012-4.264s.136-3.172.227-4.259a8.963,8.963,0,0,1,.223-1.755,10.184,10.184,0,0,1,.006,1.767c-.037,1.2-.082,2.649-.132,4.256s-.076,3.059-.106,4.255a10.078,10.078,0,0,1-.105,1.765" fill="#263238"/>
        <path id="Path_182006" data-name="Path 182006" d="M230.845,218.539c-.089.006-.374-3.059-.636-6.845s-.4-6.862-.312-6.868.374,3.058.636,6.846.4,6.861.312,6.867" fill="#263238"/>
        <path id="Path_182007" data-name="Path 182007" d="M217.516,204.529a10.122,10.122,0,0,1,1.816-.055c1.119.008,2.665.041,4.371.1s3.25.126,4.368.192a10.109,10.109,0,0,1,1.808.175,10.068,10.068,0,0,1-1.813.055c-1.119-.008-2.666-.041-4.374-.1s-3.253-.126-4.37-.193a10.007,10.007,0,0,1-1.806-.174" fill="#263238"/>
        <path id="Path_182008" data-name="Path 182008" d="M243.219,241.822a1.572,1.572,0,0,1-.039-.362c-.012-.273-.028-.618-.047-1.042-.041-.9-.051-2.215-.016-3.834s.14-3.546.334-5.679c.211-2.132.516-4.47.953-6.9s.987-4.731,1.541-6.8c.57-2.069,1.146-3.914,1.69-5.444s1.009-2.758,1.366-3.593l.412-.961a1.637,1.637,0,0,1,.164-.327,1.491,1.491,0,0,1-.1.351c-.093.257-.21.582-.355.981-.32.848-.757,2.084-1.267,3.62s-1.066,3.381-1.618,5.447c-.536,2.069-1.063,4.36-1.51,6.785s-.749,4.754-.975,6.877c-.21,2.125-.344,4.044-.4,5.658s-.089,2.922-.087,3.826c-.005.424-.01.768-.013,1.041a1.575,1.575,0,0,1-.027.364" fill="#263238"/>
        <path id="Path_182009" data-name="Path 182009" d="M244.647,224.1a7.443,7.443,0,0,1-1.08,1.185c-.7.7-1.7,1.637-2.83,2.632s-2.195,1.858-2.979,2.461a7.477,7.477,0,0,1-1.317.916,8.373,8.373,0,0,1,1.171-1.093l2.911-2.528,2.887-2.555a8.329,8.329,0,0,1,1.237-1.018" fill="#263238"/>
        <path id="Path_182010" data-name="Path 182010" d="M253.217,231a12.687,12.687,0,0,1-1.15-1.593c-.741-1.08-1.66-2.422-2.676-3.9l-2.731-3.866A12.62,12.62,0,0,1,245.566,220a11.037,11.037,0,0,1,1.277,1.495c.751.954,1.756,2.3,2.815,3.819s1.968,2.93,2.6,3.965a10.972,10.972,0,0,1,.958,1.718" fill="#263238"/>
        <path id="Path_182011" data-name="Path 182011" d="M248.727,209.288c.048.076-2.8,1.992-6.358,4.28s-6.485,4.083-6.533,4.008,2.8-1.992,6.358-4.281,6.485-4.082,6.533-4.007" fill="#263238"/>
        <path id="Path_182012" data-name="Path 182012" d="M256.754,217.952a52.833,52.833,0,0,1-4.306-3.979,52.949,52.949,0,0,1-4.079-4.211,53.229,53.229,0,0,1,4.306,3.979,52.97,52.97,0,0,1,4.079,4.211" fill="#263238"/>
        <path id="Path_182013" data-name="Path 182013" d="M258.773,217.778l2.444-.2a12.1,12.1,0,0,0,4.935-1.511,19.613,19.613,0,0,1,2.3-1.155c3.021-1.213,6.393-1,9.644-1.159a39.956,39.956,0,0,0,15.342-3.923,1.492,1.492,0,0,0,.669-.607c.5-.914-.431-1.729-1.233-2.223-4.117-2.537-8.308-5.106-12.977-6.366s-9.969-1.046-13.953,1.695c-4.677,3.219-6.381,9.829-7.171,15.451" fill="#7926cb"/>
        <path id="Path_182014" data-name="Path 182014" d="M294.162,208.921a2.408,2.408,0,0,1-.414-.193l-1.159-.607c-1-.528-2.451-1.308-4.278-2.184a40,40,0,0,0-6.622-2.552,21.863,21.863,0,0,0-8.584-.7,14.684,14.684,0,0,0-7.825,3.36,17.41,17.41,0,0,0-4.074,5.723,47.844,47.844,0,0,0-1.773,4.456L259,217.461a2.436,2.436,0,0,1-.171.424,2.436,2.436,0,0,1,.109-.444c.1-.317.221-.733.377-1.253A40.683,40.683,0,0,1,261,211.676a17.332,17.332,0,0,1,4.084-5.851,14.834,14.834,0,0,1,7.981-3.457,21.837,21.837,0,0,1,8.705.729,38.378,38.378,0,0,1,6.643,2.634c1.822.906,3.253,1.717,4.239,2.28l1.129.66a2.349,2.349,0,0,1,.383.25" fill="#263238"/>
        <path id="Path_182015" data-name="Path 182015" d="M288.293,212.074c-.05.074-3.246-1.993-7.138-4.618s-7.008-4.812-6.958-4.887,3.246,1.993,7.139,4.619,7.007,4.812,6.957,4.886" fill="#263238"/>
        <path id="Path_182016" data-name="Path 182016" d="M284.884,202.4a7.767,7.767,0,0,1-2.327.418,7.894,7.894,0,0,1-2.373-.03,15.179,15.179,0,0,1,2.345-.24,15.4,15.4,0,0,1,2.355-.148" fill="#263238"/>
        <path id="Path_182017" data-name="Path 182017" d="M270.892,200.577a6.142,6.142,0,0,1-1.049,1.638,6.959,6.959,0,0,1-1.328,1.51,6.224,6.224,0,0,1,1.049-1.638,7.049,7.049,0,0,1,1.328-1.51" fill="#263238"/>
        <path id="Path_182018" data-name="Path 182018" d="M273.756,213.956a8.373,8.373,0,0,1-1.538-.834c-.924-.559-2.171-1.38-3.5-2.349s-2.509-1.883-3.353-2.554a9.306,9.306,0,0,1-1.327-1.138,9.327,9.327,0,0,1,1.465.954l3.406,2.475c1.329.966,2.55,1.812,3.438,2.42a10.427,10.427,0,0,1,1.414,1.026" fill="#263238"/>
        <path id="Path_182019" data-name="Path 182019" d="M262.371,228.161c-2.331-.616-5.109,1.652-5.59,4.014s.406,4.779,1.443,6.955a35.473,35.473,0,0,0,9.639,12.612,23.826,23.826,0,0,0,14.739,5.426c-.985-4.577.261-9.359-.288-14.008a18.224,18.224,0,0,0-16.14-15.979c-1.487-.161-3.21-.394-3.8.98" fill="#7926cb"/>
        <path id="Path_182020" data-name="Path 182020" d="M282.6,257.168a1.53,1.53,0,0,1-.332-.154,6.062,6.062,0,0,1-.872-.586,9.091,9.091,0,0,1-2.3-3.078c-.372-.721-.787-1.505-1.193-2.372l-1.254-2.773a26.911,26.911,0,0,0-1.541-2.962,23.294,23.294,0,0,0-2.121-2.885c-1.6-1.874-3.308-3.5-4.792-5.045a32.821,32.821,0,0,1-3.654-4.385,16.1,16.1,0,0,1-1.786-3.41,10.363,10.363,0,0,1-.311-1,1.53,1.53,0,0,1-.074-.357c.03-.009.162.476.5,1.311a17.6,17.6,0,0,0,1.857,3.327,34.823,34.823,0,0,0,3.679,4.306c1.491,1.532,3.213,3.15,4.826,5.043a22.98,22.98,0,0,1,2.144,2.929,26.288,26.288,0,0,1,1.542,3.005l1.226,2.783c.391.863.8,1.655,1.153,2.38a9.413,9.413,0,0,0,2.179,3.087c.68.587,1.141.8,1.122.836" fill="#263238"/>
        <path id="Path_182021" data-name="Path 182021" d="M270.549,253.364a7,7,0,0,1,.214-1.569c.182-.96.482-2.278.886-3.713s.837-2.717,1.182-3.631a7.07,7.07,0,0,1,.637-1.45,8.477,8.477,0,0,1-.419,1.525c-.289.93-.685,2.214-1.088,3.644s-.735,2.731-.974,3.675a8.484,8.484,0,0,1-.438,1.519" fill="#263238"/>
        <path id="Path_182022" data-name="Path 182022" d="M282.161,242.129a9.622,9.622,0,0,1-1.642-.377c-1-.263-2.391-.622-3.934-.97s-2.951-.617-3.971-.811a9.49,9.49,0,0,1-1.645-.363,7.972,7.972,0,0,1,1.682.137c1.032.136,2.453.372,4.005.721s2.936.745,3.927,1.065a7.98,7.98,0,0,1,1.578.6" fill="#263238"/>
        <path id="Path_182023" data-name="Path 182023" d="M261.9,245.394a9.533,9.533,0,0,1,.252-1.816c.2-1.112.531-2.642.967-4.314s.9-3.166,1.265-4.237a9.383,9.383,0,0,1,.668-1.707,11.212,11.212,0,0,1-.449,1.776c-.308,1.086-.735,2.585-1.17,4.25s-.8,3.181-1.056,4.28a11.184,11.184,0,0,1-.477,1.768" fill="#263238"/>
        <path id="Path_182024" data-name="Path 182024" d="M276.813,232.338c-.009.089-2.919-.146-6.5-.526s-6.474-.759-6.465-.848,2.919.146,6.5.525,6.473.76,6.464.849" fill="#263238"/>
        <path id="Path_182025" data-name="Path 182025" d="M274.681,267.627c0,.09-10.229.162-22.844.162s-22.847-.072-22.847-.162,10.227-.162,22.847-.162,22.844.072,22.844.162" fill="#455a64"/>
        <path id="Path_182026" data-name="Path 182026" d="M267.565,280.791c0,.09-6.893.162-15.392.162s-15.393-.072-15.393-.162,6.89-.162,15.393-.162,15.392.072,15.392.162" fill="#455a64"/>
        <path id="Path_182027" data-name="Path 182027" d="M267.3,282.673c0,.09-6.772.162-15.124.162s-15.125-.072-15.125-.162,6.77-.162,15.125-.162,15.124.072,15.124.162" fill="#455a64"/>
        <path id="Path_182028" data-name="Path 182028" d="M267.833,279.239c0,.09-7.129.162-15.921.162s-15.922-.072-15.922-.162,7.127-.162,15.922-.162,15.921.072,15.921.162" fill="#455a64"/>
        <path id="Path_182029" data-name="Path 182029" d="M218.743,74.057c-2.085-10.07-12.338-42.777-56.568-40.916-21.962.925-34.1,11.322-40.416,19.881a49.518,49.518,0,0,0-8.546,18.571l-.05.281h-24.5v-.34c0-.1.022-10.03,1.073-15.015l.663.14c-.927,4.4-1.042,12.754-1.056,14.537H112.6a50.884,50.884,0,0,1,8.6-18.553c6.4-8.689,18.705-19.242,40.95-20.179,18.144-.765,32.653,4.187,43.123,14.717a53.976,53.976,0,0,1,14.137,26.738Z" fill="#ff6b00"/>
        <path id="Path_182030" data-name="Path 182030" d="M178.08,231.108H141.406V126.65l.4.07c34.639,6.1,49.673-9.244,55.551-18.936,6.943-11.448,8.159-25.26,3.253-36.948C197.58,63.623,188.06,46.9,164.882,47.288c-11.344.2-26.593,3.774-34.813,19.711a47.182,47.182,0,0,0-4.991,19.264V86.6H79.055l0-.335c-.041-3.876,0-17.021,0-17.154l0-.375,5.672.6v8.474l33.189-.046a55.236,55.236,0,0,1,8.144-19.448c6.007-8.888,17.49-19.42,38.152-19.42.222,0,.441,0,.665,0,15.116.164,27.591,5.479,36.077,15.372,9.143,10.659,11.9,24.744,10.586,33.974,0,.176-.869,21.415-16.832,35.565-11.139,9.873-26.817,14.028-46.609,12.349V168.6h6.836V142.686l.368.032a72.154,72.154,0,0,0,18.461-1.394c9.316-1.911,22.167-6.612,30.477-18.155,14.942-20.752,15.1-32.488,15.221-41.057.009-.691.018-1.359.035-2.008l-.072-1.711h10.17l.027.309c.018.211,1.628,21.375-16.008,45.116-10.976,14.775-23.832,24.287-36.2,26.784l-.134-.664c12.2-2.464,24.915-11.884,35.791-26.524,16.314-21.962,16.02-41.657,15.894-44.344H220.13l.043,1.028c-.017.669-.026,1.335-.035,2.023-.12,8.66-.282,20.519-15.348,41.444-8.443,11.726-21.47,16.493-30.911,18.427a74.263,74.263,0,0,1-18.268,1.427v25.856h-8.192V135.419l.369.032c19.767,1.742,35.4-2.341,46.462-12.144C210,109.355,210.857,88.395,210.864,88.185c1.3-9.116-1.421-22.975-10.427-33.474-8.355-9.74-20.655-14.974-35.57-15.135-20.777-.223-32.255,10.26-38.233,19.1a53.99,53.99,0,0,0-8.1,19.481l-.045.286-34.441.047V69.944l-4.319-.453c-.006,2.118-.034,12.61,0,16.433h44.682a48.245,48.245,0,0,1,5.047-19.213c4.62-8.971,14.514-19.74,35.416-20.1.276,0,.553-.007.826-.007,22.972,0,32.49,16.716,35.536,23.971,4.99,11.887,3.756,25.929-3.3,37.562-5.028,8.289-16.642,20.655-41.122,20.657a86.826,86.826,0,0,1-14.729-1.336V230.43h36Z" fill="#ff6b00"/>
        <path id="Path_182031" data-name="Path 182031" d="M187.569,230.769h-.678V169.754l.254-.066A94.4,94.4,0,0,0,218.934,152.7c14.483-11.732,31.749-33.309,31.749-69.478,0-28.416-11.494-51.244-33.24-66.017C199.482,5.007,177.9.678,164.881.678c-19.213,0-65.548,4.891-80.795,50.193A92.591,92.591,0,0,0,81.3,63.486l-.671-.09a93.317,93.317,0,0,1,2.809-12.733C98.83,4.936,145.521,0,164.881,0,178,0,199.737,4.36,217.824,16.648c21.94,14.9,33.536,37.926,33.536,66.577,0,36.449-17.413,58.2-32.021,70.022a95.939,95.939,0,0,1-31.77,17.027Z" fill="#ff6b00"/>
        <path id="Path_182032" data-name="Path 182032" d="M182.527,191.544h-.678l.047-27.27.287-.045a61.183,61.183,0,0,0,17.555-6.565c9.1-4.917,22.052-14.438,32.023-31.871,14.222-24.867,11.64-44.009,11.612-44.2-1.682-24.546-11.336-43.657-28.7-56.825C196.542,11.009,175.648,8.081,164.807,7.56a96.86,96.86,0,0,0-36.887,6.38C109.4,21.206,97.1,33.513,91.379,50.521l-.642-.216c5.79-17.207,18.217-29.654,36.935-37A97.626,97.626,0,0,1,164.84,6.883c10.918.525,31.965,3.475,50.247,17.344,17.523,13.292,27.266,32.568,28.96,57.293.025.167,2.649,19.524-11.7,44.608-10.056,17.585-23.124,27.188-32.315,32.147a63.609,63.609,0,0,1-17.46,6.573Z" fill="#ff6b00"/>
        <path id="Path_182033" data-name="Path 182033" d="M182.47,224.943h-27.2v-.678h26.521l.035-21.07h.678Z" fill="#ff6b00"/>
        <path id="Path_182034" data-name="Path 182034" d="M155.272,224.943h-7.29V177.037h7.629v41.881h-.678v-41.2H148.66v46.55h6.612Z" fill="#ff6b00"/>
        <path id="Path_182035" data-name="Path 182035" d="M108.21,63.78H96.061l.01-.349c.391-12.766,5.652-21.13,10-25.9a33.95,33.95,0,0,1,8.988-7.144l-6.46-5.566.442-.514,7.247,6.244-.48.22c-.182.084-18.145,8.59-19.044,32.329h11.177c.54-2.371,4.82-19.5,16.462-24.008l-3.8-3.971c-1.42.432-10.907,3.938-16.178,21.426l-.648-.195c5.8-19.256,16.408-21.842,16.857-21.943l.186-.042,4.8,5.01-.5.174c-12.471,4.372-16.532,23.76-16.572,23.955l-.055.272Z" fill="#ff6b00"/>
        <path id="Path_182036" data-name="Path 182036" d="M128.638,35.208,113.515,21.15l.461-.5,14.66,13.628a30.13,30.13,0,0,1,6.254-4.038,52.615,52.615,0,0,1,19.977-5.179c18.285-1.29,31.32,2.165,37.1,5.589l5.021-8.445c-3.877-1.7-39.7-16.583-68.959.36l-.34-.587c31.129-18.024,69.545-.413,69.929-.234l.338.159L192.2,31.589l-.293-.181c-5.54-3.428-18.546-6.969-36.992-5.669-17.57,1.239-25.963,9.166-26.046,9.246Z" fill="#ff6b00"/>
        <path id="Path_182037" data-name="Path 182037" d="M175.795,215.944l-.678-.012,1.034-57.76.33,0c19.439-.141,46.6-27.907,54.374-49.695,10.85-30.4,2.031-51.688-7.278-64.193A73.527,73.527,0,0,0,200.8,24.34l-4.939,8.951C199.185,34.7,224.39,46.3,224.6,73.511l10.7.087-.006.678-11.366-.092v-.337c0-28.761-28.378-39.961-28.664-40.071l-.364-.139,5.627-10.2.29.143a73.635,73.635,0,0,1,23.3,20.272c9.417,12.641,18.343,34.152,7.389,64.848-4.379,12.271-13.459,25.048-24.912,35.056-10.6,9.262-21.691,14.876-29.765,15.083Z" fill="#ff6b00"/>
        <path id="Path_182038" data-name="Path 182038" d="M170.106,216.277h-9.249l.006-.345,1.075-59.647-.025-3.978h8.349v56.445h-.678V152.985H162.6l.021,3.3L161.547,215.6h8.559Z" fill="#ff6b00"/>
        <path id="Path_182039" data-name="Path 182039" d="M229.073,143.513c-.577-.709-4.3-4.467-5.235-5.4l-.1-.1-.1-.1,0,0a.294.294,0,0,1-.088-.337l.258-.234c.074-.014.121-.022.288.114l.019-.019.193.194-.007.007c.347.324.993.98,2.284,2.294,1.7,1.732,2.713,2.792,3.005,3.15Z" fill="#ff6b00"/>
        <rect id="Rectangle_37172" data-name="Rectangle 37172" width="6.732" height="0.678" transform="translate(203.383 16.737) rotate(-51.712)" fill="#ff6b00"/>
        <path id="Path_182040" data-name="Path 182040" d="M205.361,83.561c-.544,0-1.06,0-1.52-.021l.022-.677c1.076.036,2.469.018,3.817,0s2.759-.037,3.85,0l-.023.677c-1.076-.035-2.468-.017-3.817,0-.784.011-1.584.021-2.329.021" fill="#ff6b00"/>
        <rect id="Rectangle_37173" data-name="Rectangle 37173" width="0.678" height="7.751" transform="translate(99.725 78.211)" fill="#ff6b00"/>
        <rect id="Rectangle_37174" data-name="Rectangle 37174" width="0.678" height="6.67" transform="translate(162.489 39.749)" fill="#ff6b00"/>
        <rect id="Rectangle_37175" data-name="Rectangle 37175" width="0.677" height="8.482" transform="translate(223.746 123.562) rotate(-66.354)" fill="#ff6b00"/>
        <rect id="Rectangle_37176" data-name="Rectangle 37176" width="0.678" height="8.151" transform="matrix(0.795, -0.607, 0.607, 0.795, 191.392, 135.14)" fill="#ff6b00"/>
        <rect id="Rectangle_37177" data-name="Rectangle 37177" width="8.255" height="0.677" transform="translate(239.711 59.871) rotate(-15.494)" fill="#ff6b00"/>
        <path id="Path_182041" data-name="Path 182041" d="M188.118,283.966H141.28V248.335h.677v34.953H187.44V240.854H141.619v-.678h46.5Z" fill="#ff6b00"/>
        <path id="Path_182042" data-name="Path 182042" d="M182.507,276.589H147.983v-21h27.812v12.53H155.272v-6.039H168.72v.677H155.95v4.684h19.167V256.271H148.661v19.64h33.168V248.933h-40.21v-.678h40.888Z" fill="#ff6b00"/>
        <rect id="Rectangle_37178" data-name="Rectangle 37178" width="0.678" height="7.377" transform="translate(156.001 276.25)" fill="#ff6b00"/>
        <rect id="Rectangle_37179" data-name="Rectangle 37179" width="5.611" height="0.678" transform="translate(182.168 260.006)" fill="#ff6b00"/>
        <rect id="Rectangle_37180" data-name="Rectangle 37180" width="0.678" height="6.14" transform="translate(160.863 255.931)" fill="#ff6b00"/>
        <rect id="Rectangle_37181" data-name="Rectangle 37181" width="6.703" height="0.678" transform="translate(141.618 265.971)" fill="#ff6b00"/>
        <path id="Path_182043" data-name="Path 182043" d="M108.346,73.768l-2.375.6-.977.872,1.3.33,2.886-.824Z" fill="#455a64"/>
        <path id="Path_182044" data-name="Path 182044" d="M116.948,74.873l-3.57-4.374h-3.66L107.4,73.177a1.086,1.086,0,0,0,.143.434,1.669,1.669,0,0,0-1.269.137l2.113,5.588,4.012,4.017,5.074-1.412Zm-5.534,2.053-1.874-.893a5.189,5.189,0,0,0-1.349-2.074,1.147,1.147,0,0,0,.193,0,2.406,2.406,0,0,0,.709-.244c1.607-.8,2.053-.981,2.053-.981l1.027,1.874Z" fill="#ffbe9d"/>
        <path id="Path_182045" data-name="Path 182045" d="M114.156,73.531c-.078.058-.631-.558-1.234-1.376a4.944,4.944,0,0,1-.951-1.585c.079-.058.631.558,1.235,1.376a4.951,4.951,0,0,1,.95,1.585" fill="#eb996e"/>
        <path id="Path_182046" data-name="Path 182046" d="M111.414,76.926a8.652,8.652,0,0,1-2.064-.589l-.077-.027-.025-.086a5.209,5.209,0,0,0-.44-1.081,2.8,2.8,0,0,0-1.61-1.456c-.549-.1-.906.127-.927.061-.009-.018.059-.091.217-.172a1.328,1.328,0,0,1,.749-.136,2.784,2.784,0,0,1,1.881,1.533,4.759,4.759,0,0,1,.449,1.168l-.1-.113a8.643,8.643,0,0,1,1.949.9" fill="#eb996e"/>
        <path id="Path_182047" data-name="Path 182047" d="M108.923,74.811l8.364-2.223a.6.6,0,0,0-.293-1.163l-8.906,2.412a3.914,3.914,0,0,1,.835.974" fill="#455a64"/>
        <path id="Path_182048" data-name="Path 182048" d="M44.921,179.5l5.07-2.741.192,1.881-2.559,9.585a20.552,20.552,0,0,1-1.967-4.3s-.812-3.563-.815-3.82a2.488,2.488,0,0,1,.079-.608" fill="#ffbe9d"/>
        <path id="Path_182049" data-name="Path 182049" d="M86.4,279.247l.866,20.4,11.015-.247-.825-20.442Z" fill="#455a64"/>
        <path id="Path_182050" data-name="Path 182050" d="M92.677,298.757c.092,0-.079-4.472-.382-9.977s-.622-9.965-.714-9.96.079,4.472.382,9.978.622,9.964.714,9.959" fill="#263238"/>
        <path id="Path_182051" data-name="Path 182051" d="M87.209,298.241l11.017-.283.058,1.443-11.015.247Z" fill="#263238"/>
        <path id="Path_182052" data-name="Path 182052" d="M98.02,292.868c.016-.013-.086-.172-.3-.433a7.721,7.721,0,0,0-1.03-1,7.49,7.49,0,0,0-1.833-1.11,5.867,5.867,0,0,0-6.8,1.59,5.042,5.042,0,0,0-.75,1.234,1.423,1.423,0,0,0-.152.507,11.431,11.431,0,0,1,1.081-1.587,5.86,5.86,0,0,1,4.045-1.885,6.741,6.741,0,0,1,4.262,1.438c.956.707,1.432,1.29,1.476,1.249" fill="#263238"/>
        <g id="Group_120728" data-name="Group 120728" opacity="0.3">
          <g id="Group_120727" data-name="Group 120727">
            <g id="Group_120726" data-name="Group 120726" clip-path="url(#clip-path-4)">
              <path id="Path_182053" data-name="Path 182053" d="M86.67,287.489l.16,1.815H97.876l-.073-1.815Z"/>
            </g>
          </g>
        </g>
        <path id="Path_182054" data-name="Path 182054" d="M49.268,280.671l-.393,12.235s-12.307,4.656-12.394,6.962l24.05-.3.564-19.088Z" fill="#455a64"/>
        <path id="Path_182055" data-name="Path 182055" d="M56.146,291.736a.991.991,0,0,1,.711,1.115.953.953,0,0,1-1.1.716,1.046,1.046,0,0,1-.748-1.185.988.988,0,0,1,1.226-.618" fill="#e0e0e0"/>
        <path id="Path_182056" data-name="Path 182056" d="M60.532,299.563,60.5,298.02l-23.338.764a1.831,1.831,0,0,0-.8,1.216Z" fill="#263238"/>
        <path id="Path_182057" data-name="Path 182057" d="M48.658,292.991c.007.118.6.158,1.193.526.6.352.915.858,1.022.809.109-.026-.084-.73-.809-1.163s-1.434-.28-1.406-.172" fill="#263238"/>
        <path id="Path_182058" data-name="Path 182058" d="M46.136,294.1c-.024.117.494.306.908.8.429.479.543,1.02.661,1.011.112.017.178-.679-.349-1.281s-1.22-.641-1.22-.528" fill="#263238"/>
        <path id="Path_182059" data-name="Path 182059" d="M44.761,297.185c.108.023.26-.574-.06-1.216s-.88-.887-.928-.787c-.065.1.3.439.558.97s.312,1.024.43,1.033" fill="#263238"/>
        <path id="Path_182060" data-name="Path 182060" d="M48.805,290.124c.051.107.591-.069,1.264-.04s1.2.229,1.257.126c.066-.087-.453-.514-1.243-.538s-1.339.36-1.278.452" fill="#263238"/>
        <path id="Path_182061" data-name="Path 182061" d="M48.31,287.459a2.284,2.284,0,0,0,1.216-.035,5.465,5.465,0,0,0,1.263-.42,5.706,5.706,0,0,0,.689-.387,1.474,1.474,0,0,0,.361-.3.516.516,0,0,0,.039-.632.651.651,0,0,0-.525-.259,1.608,1.608,0,0,0-.455.074,4.424,4.424,0,0,0-.75.277,4.316,4.316,0,0,0-1.1.762c-.551.535-.733.983-.692,1.005s.32-.34.883-.784a4.87,4.87,0,0,1,1.071-.637A4.541,4.541,0,0,1,51,285.9c.255-.074.474-.081.543.032.025.043.028.06-.024.137a1.2,1.2,0,0,1-.265.215,6.311,6.311,0,0,1-.634.382,6.7,6.7,0,0,1-1.165.478,8.5,8.5,0,0,0-1.144.318" fill="#263238"/>
        <g id="Group_120731" data-name="Group 120731" opacity="0.3">
          <g id="Group_120730" data-name="Group 120730">
            <g id="Group_120729" data-name="Group 120729" clip-path="url(#clip-path-5)">
              <path id="Path_182062" data-name="Path 182062" d="M60.884,287.636l-.083,2.817-11.853.184.111-2.552Z"/>
            </g>
          </g>
        </g>
        <path id="Path_182063" data-name="Path 182063" d="M55.894,83.663l5.834,24.667L75.6,106.488l-1.018-7.866s5.059.082,5.494-4.682c.145-1.585-1.086-8.593-2.3-14.947a11.188,11.188,0,1,0-21.878,4.67" fill="#ffbe9d"/>
        <path id="Path_182064" data-name="Path 182064" d="M68.692,69.247c1.194.437.891,1.025,1.142,1.562s1.294.493,2.327.9a11.261,11.261,0,0,1,4.016,3.471c.623,1.174.251,1.327.135,1.987a28.157,28.157,0,0,0,.972,4.586c.257,1.116.754,4.408.754,4.408l-1,.527s-.522-3.607-1.7-3.588-1.461,1.244-1.52,1.579a5.294,5.294,0,0,0-.754,1.667c-.26,1.577-.143,3.872-.262,5.316-.184,2.228-2.627,5.53-2.627,5.53l-10.847,1S54.419,87.081,54.1,84.182a16.37,16.37,0,0,1,2.425-9.395,12.746,12.746,0,0,1,2.87-2.923A21.785,21.785,0,0,1,61.859,70.4,11.863,11.863,0,0,1,67.9,69.2Z" fill="#263238"/>
        <path id="Path_182065" data-name="Path 182065" d="M77.105,90.258c.017.007-.023.176-.234.4a1.683,1.683,0,0,1-1.165.481,2.244,2.244,0,0,1-1.682-.816,3.948,3.948,0,0,1-.856-2.108,6.769,6.769,0,0,1,.615-4,2.38,2.38,0,0,1,.847-.919.761.761,0,0,1,.431-.153A2.984,2.984,0,0,0,74,84.325a7.186,7.186,0,0,0-.485,3.839,3.781,3.781,0,0,0,.753,1.944,2.038,2.038,0,0,0,1.437.778,1.663,1.663,0,0,0,1.072-.334c.218-.168.3-.309.325-.294" fill="#eb996e"/>
        <path id="Path_182066" data-name="Path 182066" d="M75.807,88.614c.032.037-.233.205-.607,0a1.558,1.558,0,0,1-.619-1.313,2.111,2.111,0,0,1,.462-1.358c.238-.289.459-.378.483-.344a3.487,3.487,0,0,0-.592,1.7,1.566,1.566,0,0,0,.407,1.113c.231.2.455.158.466.206" fill="#eb996e"/>
        <path id="Path_182067" data-name="Path 182067" d="M51.916,169.538,46.825,190.75v99.09l15.274.45,1.34-58.911,7.683-36.465,7.069,37.475,7.093,56.4,13.608-.393s-2.31-23.874-1.906-30.543-2.379-27.687-2.379-27.687.436-35.1-.29-39.315C93.5,186.1,92.8,170.706,92.8,170.1Z" fill="#263238"/>
        <path id="Path_182068" data-name="Path 182068" d="M71.117,195.125a23.912,23.912,0,0,1-2.474.541c-1.529.316-3.631.8-5.917,1.461s-4.32,1.385-5.781,1.937a23.741,23.741,0,0,1-2.378.869,2.564,2.564,0,0,1,.595-.335c.392-.2.969-.459,1.691-.765A53.23,53.23,0,0,1,68.6,195.42c.773-.128,1.4-.215,1.838-.259a2.559,2.559,0,0,1,.682-.036" fill="#455a64"/>
        <path id="Path_182069" data-name="Path 182069" d="M86.384,193.255a2.067,2.067,0,0,1-.554.265c-.363.151-.9.343-1.572.555a31.33,31.33,0,0,1-10.878,1.373c-.7-.039-1.271-.091-1.661-.147a2.013,2.013,0,0,1-.6-.119c.005-.055.872,0,2.271.017a39.472,39.472,0,0,0,10.8-1.364c1.352-.361,2.177-.632,2.2-.58" fill="#455a64"/>
        <path id="Path_182070" data-name="Path 182070" d="M85.27,209.462c-.069.069-3.293-3.036-7.2-6.934s-7.02-7.116-6.952-7.185,3.293,3.035,7.2,6.935,7.02,7.115,6.951,7.184" fill="#455a64"/>
        <path id="Path_182071" data-name="Path 182071" d="M51.006,173.33l6.527-.233.8-3.471-6.415-.088Z" fill="#455a64"/>
        <path id="Path_182072" data-name="Path 182072" d="M60.4,169.654l-.6,3.675H82.722l.065-3.367Z" fill="#455a64"/>
        <path id="Path_182073" data-name="Path 182073" d="M84.753,169.989v3.341h8.191L92.8,170.1Z" fill="#455a64"/>
        <path id="Path_182074" data-name="Path 182074" d="M56.7,246.453c-.093.028-1.272-3.625-2.633-8.158s-2.388-8.232-2.295-8.26,1.272,3.624,2.633,8.159,2.388,8.231,2.295,8.259" fill="#455a64"/>
        <path id="Path_182075" data-name="Path 182075" d="M88.447,243.1a47.716,47.716,0,0,1-3.323-4.76,47.96,47.96,0,0,1-3.029-4.954,47.762,47.762,0,0,1,3.324,4.761,47.766,47.766,0,0,1,3.028,4.953" fill="#455a64"/>
        <path id="Path_182076" data-name="Path 182076" d="M53.7,111.443s-8.852,3.695-9.974,7.609a139.332,139.332,0,0,0-2.518,13.877v25.137s-1.9,8.468-1.544,12.034,4.218,9.894,4.218,9.894l6.24-3.031,1.956-8.85.362-26.984-.713-13.37Z" fill="#ff6b00"/>
        <path id="Path_182077" data-name="Path 182077" d="M53.7,111.443l5.885-4.7.285-4.009,15.158-2.587,1.7,3.43,6.809,1.835,4.558-1.362,1.112,2.6,5.662,17.372-4.278,25.493s2.536,13.53,2.212,20.592l-40.887-.562c-1.058-1.291-1.219-3.6-1.009-6.334l-.551-34.26Z" fill="#ff6b00"/>
        <path id="Path_182078" data-name="Path 182078" d="M87.524,109.723a1.406,1.406,0,0,1-.349.1l-1.013.212-3.729.741c-3.148.629-7.489,1.537-12.256,2.656s-9.06,2.243-12.158,3.082l-3.669,1-1,.261a1.478,1.478,0,0,1-.356.069,1.371,1.371,0,0,1,.336-.137l.982-.325c.855-.277,2.1-.656,3.64-1.106,3.084-.9,7.371-2.062,12.145-3.185s9.128-1.991,12.29-2.558c1.581-.283,2.864-.5,3.752-.631l1.025-.147a1.423,1.423,0,0,1,.361-.027" fill="#263238"/>
        <path id="Path_182079" data-name="Path 182079" d="M60.862,148.85a7.775,7.775,0,0,1,.882-.8l2.461-2.12c2.069-1.8,4.882-4.333,7.861-7.267s5.554-5.714,7.381-7.757c.881-.992,1.607-1.812,2.155-2.429a7.552,7.552,0,0,1,.816-.87,7.659,7.659,0,0,1-.711.958c-.473.605-1.18,1.462-2.072,2.506-1.782,2.088-4.337,4.9-7.321,7.843s-5.834,5.454-7.948,7.206c-1.056.877-1.924,1.571-2.535,2.036a7.759,7.759,0,0,1-.969.7" fill="#263238"/>
        <path id="Path_182080" data-name="Path 182080" d="M88.158,139.582a1.284,1.284,0,0,1-.206.277l-.641.748c-.56.648-1.4,1.56-2.457,2.664a106.086,106.086,0,0,1-18.4,15.221c-1.283.834-2.336,1.486-3.077,1.915l-.855.489a1.3,1.3,0,0,1-.31.151,1.228,1.228,0,0,1,.273-.211l.819-.546c.718-.464,1.749-1.147,3.012-2,2.527-1.715,5.949-4.188,9.542-7.157s6.657-5.87,8.815-8.031c1.08-1.08,1.944-1.965,2.534-2.583l.69-.7a1.276,1.276,0,0,1,.258-.229" fill="#263238"/>
        <path id="Path_182081" data-name="Path 182081" d="M80.083,166.522a41.747,41.747,0,0,0,2.818-4.634,41.784,41.784,0,0,0,1.852-5.1,5.572,5.572,0,0,1-.235,1.591,18.238,18.238,0,0,1-3.341,6.963,5.556,5.556,0,0,1-1.094,1.179" fill="#263238"/>
        <path id="Path_182082" data-name="Path 182082" d="M88.3,105.208l15.3-.625,7.488-3.566.831-10.47-.676-7.41,6.441-1.909s5.348,13.728,5.17,18.719c-.059,1.682-.159,3.339-.267,4.8a8.91,8.91,0,0,1-4.76,7.238L94.869,124.015Z" fill="#ff6b00"/>
        <path id="Path_182083" data-name="Path 182083" d="M51.674,134.464a14.185,14.185,0,0,1-.889-3.033,14.206,14.206,0,0,1-.545-3.116,14.331,14.331,0,0,1,.889,3.034,14.315,14.315,0,0,1,.545,3.115" fill="#263238"/>
        <path id="Path_182084" data-name="Path 182084" d="M51.549,129.433a1.993,1.993,0,0,1,.044.41c.016.307.036.7.06,1.177.039,1.069.091,2.538.156,4.331.1,3.7.232,8.733.379,14.293a48.616,48.616,0,0,1-.2,7.887c-.157,1.213-.5,2.328-.677,3.371a8.888,8.888,0,0,0-.112,1.534q-.051.747-.1,1.435a15.833,15.833,0,0,0,.117,4.29,3.086,3.086,0,0,0,.43,1.067,3.055,3.055,0,0,1,.263.31c0,.005-.032-.014-.087-.058a1.642,1.642,0,0,1-.232-.208,2.91,2.91,0,0,1-.507-1.077,14.789,14.789,0,0,1-.233-4.339l.075-1.431a9.187,9.187,0,0,1,.1-1.569c.171-1.081.5-2.177.643-3.369a50.6,50.6,0,0,0,.167-7.835c-.108-5.561-.2-10.595-.277-14.295-.018-1.795-.032-3.264-.043-4.334,0-.48,0-.871.006-1.178a1.7,1.7,0,0,1,.027-.412" fill="#263238"/>
        <path id="Path_182085" data-name="Path 182085" d="M93.065,118.383a9.121,9.121,0,0,1-.722-1.683c-.4-1.056-.917-2.528-1.446-4.168s-.967-3.138-1.26-4.229a9.049,9.049,0,0,1-.4-1.787,9.685,9.685,0,0,1,.636,1.716c.385,1.188.847,2.614,1.357,4.192s.965,3.006,1.346,4.195a9.705,9.705,0,0,1,.486,1.764" fill="#263238"/>
        <path id="Path_182086" data-name="Path 182086" d="M47.076,162.714a6.426,6.426,0,0,1-3.928-4.79A18.335,18.335,0,0,0,44.77,160.6a18.335,18.335,0,0,0,2.306,2.114" fill="#263238"/>
        <path id="Path_182087" data-name="Path 182087" d="M51.91,173.124a4.023,4.023,0,0,1-.956,1.218,8.958,8.958,0,0,1-6.89,2.463,4.03,4.03,0,0,1-1.512-.335c.014-.06.59.063,1.525.086a9.969,9.969,0,0,0,6.708-2.4c.71-.61,1.077-1.071,1.125-1.033" fill="#263238"/>
        <path id="Path_182088" data-name="Path 182088" d="M118.972,85.184c.014.106-1.679.352-3.662,1.022s-3.488,1.48-3.541,1.387a13.514,13.514,0,0,1,7.2-2.409" fill="#263238"/>
        <path id="Path_182089" data-name="Path 182089" d="M116.973,82.432c.011.05-.14.112-.2.317a.311.311,0,1,0,.523-.089c-.121-.175-.284-.183-.291-.234-.025-.039.2-.155.47.06a.616.616,0,1,1-.929.158c.179-.291.435-.257.424-.212" fill="#263238"/>
        <path id="Path_182090" data-name="Path 182090" d="M76.794,103.569a2.623,2.623,0,0,1-.667.173l-1.835.348-6.06,1.107-6.055,1.142-1.838.333a2.631,2.631,0,0,1-.684.078,2.586,2.586,0,0,1,.655-.212c.427-.115,1.047-.267,1.816-.444,1.538-.354,3.673-.805,6.041-1.244s4.522-.785,6.085-1.006c.781-.111,1.415-.192,1.854-.238a2.585,2.585,0,0,1,.688-.037" fill="#263238"/>
        <path id="Path_182091" data-name="Path 182091" d="M49.344,127.478a1.6,1.6,0,0,1-.154-.524,10.183,10.183,0,0,1-.19-1.472,28.992,28.992,0,0,1,.167-4.88c.2-1.895.453-3.6.62-4.829a14.575,14.575,0,0,1,.315-1.992,9.363,9.363,0,0,1-.067,2.02c-.1,1.243-.318,2.951-.517,4.837a40.577,40.577,0,0,0-.269,4.833c.02,1.237.153,2,.1,2.007" fill="#263238"/>
        <path id="Path_182092" data-name="Path 182092" d="M66.044,140.089c-.086-.045,2.088-4.348,4.856-9.609s5.082-9.49,5.168-9.445-2.087,4.347-4.856,9.61-5.082,9.489-5.168,9.444" fill="#263238"/>
        <path id="Path_182093" data-name="Path 182093" d="M97.914,115.844a8.869,8.869,0,0,1-.582,1.493c-.381.909-.88,2.174-1.343,3.6s-.8,2.747-1.022,3.706a8.915,8.915,0,0,1-.4,1.551,6.122,6.122,0,0,1,.158-1.6,27.474,27.474,0,0,1,2.383-7.363,6.115,6.115,0,0,1,.809-1.389" fill="#263238"/>
        <path id="Path_182094" data-name="Path 182094" d="M48.116,124.033a6.732,6.732,0,0,1-.867.235c-.538.135-1.279.327-2.088.567s-1.536.485-2.059.666a6.654,6.654,0,0,1-.855.277,4.914,4.914,0,0,1,.82-.37c.516-.206,1.24-.466,2.053-.708s1.562-.419,2.107-.529a4.9,4.9,0,0,1,.889-.138" fill="#e0e0e0"/>
        <path id="Path_182095" data-name="Path 182095" d="M73.248,125.4c.011.037-4.807,1.459-10.759,3.175s-10.787,3.076-10.8,3.039,4.8-1.459,10.759-3.175,10.787-3.076,10.8-3.039" fill="#e0e0e0"/>
        <path id="Path_182096" data-name="Path 182096" d="M92.869,119.678c.013.037-4.292,1.628-9.616,3.554s-9.651,3.457-9.665,3.421,4.292-1.628,9.617-3.554,9.651-3.458,9.664-3.421" fill="#e0e0e0"/>
        <path id="Path_182097" data-name="Path 182097" d="M91.077,112.729s-.144.047-.421.124l-1.214.328-4.473,1.179c-3.779.988-9,2.34-14.787,3.774s-11.043,2.662-14.856,3.508l-4.521.978-1.232.253c-.282.056-.432.079-.432.079s.146-.042.426-.107l1.226-.279,4.511-1.022c3.807-.87,9.058-2.113,14.844-3.547l14.8-3.733,4.484-1.136,1.221-.3c.279-.067.428-.1.428-.1" fill="#e0e0e0"/>
        <path id="Path_182098" data-name="Path 182098" d="M82.6,104.9c.009.038-6.431,1.67-14.384,3.645S53.81,112.1,53.8,112.057s6.43-1.67,14.386-3.645S82.6,104.866,82.6,104.9" fill="#e0e0e0"/>
        <path id="Path_182099" data-name="Path 182099" d="M97.123,105.183a.457.457,0,0,1,.025.126c.015.117.029.238.045.365.037.316.076.776.111,1.345a36.074,36.074,0,0,1-.581,8.874c-.108.56-.207,1.011-.285,1.32-.032.124-.062.241-.092.355a.521.521,0,0,1-.041.122.441.441,0,0,1,.013-.128c.021-.116.043-.235.066-.361.072-.4.152-.835.241-1.326a42.321,42.321,0,0,0,.579-8.851c-.024-.5-.046-.943-.066-1.346-.006-.127-.012-.248-.018-.366a.428.428,0,0,1,0-.129" fill="#e0e0e0"/>
        <path id="Path_182100" data-name="Path 182100" d="M107.613,116.908a.464.464,0,0,1-.027-.128c-.017-.119-.034-.241-.051-.37-.04-.322-.105-.786-.2-1.357A34.726,34.726,0,0,0,104.8,106.4c-.233-.53-.429-.955-.57-1.247-.055-.118-.106-.23-.157-.339a.5.5,0,0,1-.046-.122.423.423,0,0,1,.071.109l.181.327c.157.285.367.705.612,1.231a30.654,30.654,0,0,1,2.55,8.678c.078.575.128,1.042.15,1.366.009.13.017.253.025.373a.452.452,0,0,1,0,.131" fill="#e0e0e0"/>
        <path id="Path_182101" data-name="Path 182101" d="M116.313,111.7a3.149,3.149,0,0,1-.175-.442l-.452-1.214c-.389-1.021-.971-2.415-1.714-3.907s-1.51-2.795-2.091-3.72l-.7-1.091a3.058,3.058,0,0,1-.248-.406,3.142,3.142,0,0,1,.294.375c.182.246.435.61.737,1.068a36.248,36.248,0,0,1,3.815,7.646c.184.516.323.937.41,1.231a3.136,3.136,0,0,1,.123.46" fill="#e0e0e0"/>
        <path id="Path_182102" data-name="Path 182102" d="M122.166,97.782a2.361,2.361,0,0,1-.418-.059l-1.132-.2c-.955-.169-2.277-.389-3.743-.59s-2.8-.342-3.765-.435l-1.144-.11a2.432,2.432,0,0,1-.419-.056,2.5,2.5,0,0,1,.423,0c.271.009.664.031,1.148.065.969.068,2.306.195,3.776.395s2.791.437,3.743.632c.476.1.86.181,1.124.245a2.473,2.473,0,0,1,.407.112" fill="#e0e0e0"/>
        <path id="Path_182103" data-name="Path 182103" d="M120.54,88.532a1.565,1.565,0,0,1-.338.006c-.216-.006-.53-.01-.917-.007a19.111,19.111,0,0,0-5.934.99c-.367.122-.662.227-.865.3a1.528,1.528,0,0,1-.321.1,1.551,1.551,0,0,1,.3-.154c.2-.093.488-.212.853-.347a16.408,16.408,0,0,1,5.968-1c.389.009.7.028.919.052a1.47,1.47,0,0,1,.335.048" fill="#e0e0e0"/>
        <path id="Path_182104" data-name="Path 182104" d="M66.972,136.774c.009.038-3.339.822-7.477,1.751s-7.5,1.651-7.508,1.613,3.338-.822,7.477-1.751,7.5-1.651,7.508-1.613" fill="#e0e0e0"/>
        <path id="Path_182105" data-name="Path 182105" d="M71.718,138.477a19.928,19.928,0,0,1-2.375-.081,19.919,19.919,0,0,1-2.366-.223,19.817,19.817,0,0,1,2.375.082,20.344,20.344,0,0,1,2.366.222" fill="#e0e0e0"/>
        <path id="Path_182106" data-name="Path 182106" d="M93.561,130.129c.01.038-3.868,1.074-8.661,2.314s-8.686,2.215-8.7,2.177,3.867-1.073,8.661-2.314,8.686-2.215,8.7-2.177" fill="#e0e0e0"/>
        <path id="Path_182107" data-name="Path 182107" d="M61.092,148.075c.007.038-1.942.417-4.353.846s-4.371.746-4.378.707,1.942-.417,4.353-.846,4.371-.745,4.378-.707" fill="#e0e0e0"/>
        <path id="Path_182108" data-name="Path 182108" d="M84.219,142.873c.006.038-4.414.774-9.871,1.642s-9.887,1.542-9.894,1.5,4.413-.774,9.872-1.643,9.887-1.541,9.893-1.5" fill="#e0e0e0"/>
        <path id="Path_182109" data-name="Path 182109" d="M91.819,143.52a1.248,1.248,0,0,1-.3.044l-.821.074c-.692.061-1.648.154-2.7.286s-2,.279-2.688.39l-.813.131a1.344,1.344,0,0,1-.3.032,1.212,1.212,0,0,1,.291-.086c.19-.047.465-.107.807-.175.683-.137,1.632-.3,2.687-.432s2.015-.21,2.711-.246c.348-.018.63-.028.825-.029a1.241,1.241,0,0,1,.3.011" fill="#e0e0e0"/>
        <path id="Path_182110" data-name="Path 182110" d="M68.605,156.524a.915.915,0,0,1-.162.078l-.477.2c-.413.172-1.02.4-1.776.666a47.1,47.1,0,0,1-12.238,2.511c-.8.053-1.447.081-1.9.086l-.516.005a.9.9,0,0,1-.18-.008.828.828,0,0,1,.179-.02l.515-.032c.447-.021,1.093-.065,1.89-.131a52.109,52.109,0,0,0,12.213-2.505c.758-.253,1.369-.468,1.789-.624l.485-.173a.792.792,0,0,1,.173-.052" fill="#e0e0e0"/>
        <path id="Path_182111" data-name="Path 182111" d="M91.8,152.682s-.083.037-.246.095l-.714.245c-.62.213-1.523.5-2.643.849-2.24.692-5.359,1.571-8.844,2.381s-6.674,1.394-8.99,1.76c-1.158.184-2.1.32-2.747.4l-.749.094c-.171.02-.262.023-.262.023s.088-.022.259-.051l.744-.12,2.739-.447c2.31-.391,5.491-.992,8.974-1.8s6.6-1.673,8.847-2.339l2.656-.806.721-.22c.166-.049.255-.068.255-.068" fill="#e0e0e0"/>
        <path id="Path_182112" data-name="Path 182112" d="M81.338,164.165s-.1.026-.3.061l-.864.147c-.75.127-1.84.29-3.189.472-2.7.366-6.44.768-10.589.995s-7.915.227-10.636.154c-1.361-.035-2.461-.08-3.221-.125l-.875-.053c-.2-.013-.305-.028-.305-.028s.106,0,.306,0l.876.026c.76.028,1.861.058,3.221.081,2.72.047,6.48.026,10.626-.2s7.885-.612,10.584-.953c1.35-.169,2.441-.317,3.194-.428l.868-.12c.2-.026.3-.033.3-.033" fill="#e0e0e0"/>
        <path id="Path_182113" data-name="Path 182113" d="M92.194,162.586a1.928,1.928,0,0,1-.374.012l-1.017-.013c-.859-.012-2.045-.019-3.355,0s-2.5.074-3.353.116l-1.016.049a1.834,1.834,0,0,1-.375,0,1.943,1.943,0,0,1,.37-.057c.239-.027.586-.06,1.014-.094.858-.068,2.045-.133,3.357-.157s2.5,0,3.36.037c.43.019.777.039,1.017.058a1.843,1.843,0,0,1,.372.043" fill="#e0e0e0"/>
        <path id="Path_182114" data-name="Path 182114" d="M51.741,135.518c.007.038-2.42.5-5.419,1.04s-5.438.94-5.445.9,2.419-.5,5.42-1.04,5.437-.939,5.444-.9" fill="#e0e0e0"/>
        <path id="Path_182115" data-name="Path 182115" d="M51.379,146.152c0,.039-2.26.291-5.055.564s-5.065.462-5.069.423,2.26-.291,5.056-.564,5.064-.462,5.068-.423" fill="#e0e0e0"/>
        <path id="Path_182116" data-name="Path 182116" d="M52.291,154.7c0,.039-2.347.142-5.245.231s-5.249.128-5.25.09,2.347-.143,5.246-.231,5.248-.129,5.249-.09" fill="#e0e0e0"/>
        <path id="Path_182117" data-name="Path 182117" d="M50.3,165.229a1.97,1.97,0,0,1-.384,0c-.248,0-.6-.024-1.045-.064a22.066,22.066,0,0,1-6.675-1.694c-.406-.176-.73-.328-.949-.442a2,2,0,0,1-.335-.188,1.99,1.99,0,0,1,.358.138c.226.1.555.237.964.4a25.968,25.968,0,0,0,6.647,1.687c.437.052.792.088,1.038.109a1.95,1.95,0,0,1,.381.049" fill="#e0e0e0"/>
        <path id="Path_182118" data-name="Path 182118" d="M50.867,168.163a2.778,2.778,0,0,1-.346.28c-.229.174-.568.413-.993.7a28,28,0,0,1-7.222,3.412c-.491.148-.89.258-1.169.323a2.661,2.661,0,0,1-.436.09,2.62,2.62,0,0,1,.42-.143c.275-.081.67-.205,1.155-.366a33.481,33.481,0,0,0,3.7-1.479,33.122,33.122,0,0,0,3.493-1.921c.432-.273.779-.5,1.016-.659a2.6,2.6,0,0,1,.379-.235" fill="#e0e0e0"/>
        <path id="Path_182119" data-name="Path 182119" d="M58.025,170.227s0-.186.009-.541q.02-.581.052-1.549c.044-1.383.106-3.321.182-5.7.137-4.813.25-11.464.2-18.81s-.261-14-.465-18.808c-.109-2.378-.2-4.314-.262-5.7q-.047-.969-.074-1.549c-.016-.354-.017-.54-.017-.54s.02.185.045.539q.038.579.1,1.547c.087,1.344.193,3.289.307,5.695.23,4.81.453,11.461.506,18.811s-.079,14-.241,18.814c-.08,2.407-.159,4.354-.227,5.7q-.049.969-.079,1.548c-.02.354-.037.54-.037.54" fill="#e0e0e0"/>
        <path id="Path_182120" data-name="Path 182120" d="M70.013,132.331c-.039.005-.564-3.96-1.174-8.855s-1.072-8.869-1.033-8.874.564,3.959,1.174,8.856,1.072,8.868,1.033,8.873" fill="#e0e0e0"/>
        <path id="Path_182121" data-name="Path 182121" d="M68.925,140.361a25.649,25.649,0,0,1-.459-2.658,26.139,26.139,0,0,1-.32-2.678,51.8,51.8,0,0,1,.779,5.336" fill="#e0e0e0"/>
        <path id="Path_182122" data-name="Path 182122" d="M71.7,154.936c-.039,0-.1-3.425-.136-7.651s-.035-7.652,0-7.653.1,3.425.137,7.652.034,7.652,0,7.652" fill="#e0e0e0"/>
        <path id="Path_182123" data-name="Path 182123" d="M71.483,170.01c-.039.006-.493-3.091-1.014-6.916s-.913-6.931-.874-6.936.492,3.091,1.014,6.917.913,6.931.874,6.935" fill="#e0e0e0"/>
        <path id="Path_182124" data-name="Path 182124" d="M84.861,140.824c-.038.006-1.081-6.346-2.328-14.186s-2.228-14.2-2.189-14.21,1.08,6.345,2.328,14.188,2.227,14.2,2.189,14.208" fill="#e0e0e0"/>
        <path id="Path_182125" data-name="Path 182125" d="M83.195,159.314c-.039,0-.392-2.82-.789-6.308s-.688-6.321-.649-6.325.392,2.82.789,6.309.688,6.32.649,6.324" fill="#e0e0e0"/>
        <path id="Path_182126" data-name="Path 182126" d="M113.148,104.178a25.75,25.75,0,0,1-2.732,2.156,32.051,32.051,0,0,1-3.226,1.971,32.414,32.414,0,0,1-8.689,3.134,31.931,31.931,0,0,1-3.741.544,25.7,25.7,0,0,1-3.479.085,1.508,1.508,0,0,1,.241-.015l.692-.017c.6,0,1.469-.052,2.537-.153a33.627,33.627,0,0,0,3.724-.571,33.438,33.438,0,0,0,8.654-3.122,33.954,33.954,0,0,0,3.23-1.938c.886-.6,1.586-1.123,2.05-1.5l.543-.429a1.539,1.539,0,0,1,.2-.142" fill="#e0e0e0"/>
        <path id="Path_182127" data-name="Path 182127" d="M113.2,104.193a.834.834,0,0,1,.008-.179c.015-.157.032-.324.05-.51q.081-.783.192-1.875c.156-1.584.336-3.775.446-6.2s.126-4.624.113-6.215q-.012-1.1-.022-1.885c0-.187,0-.355,0-.512a.814.814,0,0,1,.008-.18.829.829,0,0,1,.02.179c.01.156.02.325.031.511.025.445.049,1.089.067,1.885.038,1.592.036,3.794-.072,6.224s-.306,4.621-.488,6.2c-.09.791-.171,1.431-.236,1.871-.028.185-.053.352-.077.507a.843.843,0,0,1-.036.176" fill="#e0e0e0"/>
        <path id="Path_182128" data-name="Path 182128" d="M118.894,86.162s.04.163.1.475.164.771.3,1.359c.276,1.179.768,2.859,1.32,4.953a22.779,22.779,0,0,1,.911,7.53,10.428,10.428,0,0,1-4.323,7.967,38.529,38.529,0,0,1-4.034,2.651c-1.336.8-2.632,1.56-3.873,2.273-2.482,1.426-4.742,2.667-6.653,3.683s-3.47,1.815-4.552,2.358l-1.249.618c-.287.14-.441.207-.441.207s.145-.084.428-.232l1.237-.642c1.074-.558,2.626-1.368,4.53-2.4s4.158-2.276,6.635-3.707c1.239-.716,2.533-1.478,3.867-2.28a38.794,38.794,0,0,0,4.017-2.643,10.319,10.319,0,0,0,4.281-7.866,22.866,22.866,0,0,0-.878-7.5c-.539-2.094-1.017-3.782-1.277-4.965s-.353-1.847-.353-1.847" fill="#e0e0e0"/>
        <path id="Path_182129" data-name="Path 182129" d="M43.839,158s0-.145.024-.419c.025-.312.056-.709.1-1.2.088-1.086.209-2.58.358-4.407.3-3.722.669-8.867.99-14.555s.526-10.844.649-14.576c.058-1.832.1-3.331.139-4.42.016-.491.029-.889.039-1.2.011-.274.023-.419.023-.419s.007.145.006.42c0,.312-.008.711-.013,1.2-.023,1.09-.055,2.589-.094,4.422-.1,3.733-.289,8.89-.608,14.581s-.71,10.834-1.032,14.555c-.167,1.826-.3,3.319-.4,4.4-.05.489-.09.886-.122,1.2-.029.273-.052.416-.052.416" fill="#e0e0e0"/>
        <path id="Path_182130" data-name="Path 182130" d="M45.619,177.466a.822.822,0,0,1-.062-.165c-.047-.148-.1-.307-.152-.482-.131-.419-.3-1.031-.495-1.792a48.181,48.181,0,0,1-1.459-12.153c.008-.785.029-1.42.057-1.858.013-.184.024-.35.034-.505a.814.814,0,0,1,.021-.175.833.833,0,0,1,.007.177c0,.155,0,.321-.007.505-.011.438-.017,1.072-.012,1.856A53.7,53.7,0,0,0,45.007,175c.18.762.336,1.378.451,1.8l.126.489a.767.767,0,0,1,.035.173" fill="#e0e0e0"/>
        <path id="Path_182131" data-name="Path 182131" d="M49.951,175.413s-.007-.164-.006-.476c0-.347.005-.8.009-1.363.01-1.225.025-2.928.044-5.014.033-4.234.054-10.084.008-16.544s-.152-12.311-.246-16.544c-.049-2.086-.088-3.788-.117-5.013-.012-.563-.021-1.016-.028-1.363-.005-.311,0-.475,0-.475s.015.163.029.474c.014.347.032.8.055,1.363.04,1.224.094,2.926.161,5.012.12,4.233.241,10.082.288,16.545s.01,12.311-.049,16.546c-.037,2.086-.068,3.789-.089,5.014-.015.563-.027,1.016-.036,1.363-.01.312-.022.475-.022.475" fill="#e0e0e0"/>
        <path id="Path_182132" data-name="Path 182132" d="M58.337,116.613c-.039,0-.168-1.909-.288-4.267s-.186-4.273-.147-4.275.168,1.908.288,4.268.186,4.272.147,4.274" fill="#e0e0e0"/>
        <path id="Path_182133" data-name="Path 182133" d="M68.374,113.795c-.039,0-.229-1.946-.424-4.353s-.322-4.362-.283-4.365.229,1.946.424,4.354.322,4.361.283,4.364" fill="#e0e0e0"/>
        <path id="Path_182134" data-name="Path 182134" d="M79.292,111.306c-.037.011-.586-1.767-1.225-3.971s-1.126-4-1.089-4.01.586,1.767,1.225,3.971,1.126,4,1.089,4.01" fill="#e0e0e0"/>
        <path id="Path_182135" data-name="Path 182135" d="M75.681,101.4a.67.67,0,0,1-.164.041l-.474.087-1.745.306c-1.472.26-3.5.638-5.737,1.105s-4.246.937-5.7,1.289l-1.721.418-.469.112a.734.734,0,0,1-.166.028.879.879,0,0,1,.159-.056c.143-.043.295-.088.462-.136l1.711-.463c1.448-.377,3.459-.862,5.695-1.332s4.272-.828,5.75-1.063l1.753-.262.478-.061a.843.843,0,0,1,.168-.013" fill="#e0e0e0"/>
        <path id="Path_182136" data-name="Path 182136" d="M62.378,106.309a26.854,26.854,0,0,1,.056-3.875,26.471,26.471,0,0,1-.056,3.875" fill="#e0e0e0"/>
        <path id="Path_182137" data-name="Path 182137" d="M72.323,104.552a22.823,22.823,0,0,1-.654-3.515,22.761,22.761,0,0,1,.654,3.515" fill="#e0e0e0"/>
        <path id="Path_182138" data-name="Path 182138" d="M301.375,299.657c0,.1-66.887.176-149.377.176-82.518,0-149.391-.078-149.391-.176s66.873-.176,149.391-.176c82.49,0,149.377.079,149.377.176" fill="#263238"/>
        <path id="Path_182139" data-name="Path 182139" d="M26.191,50.835a1.546,1.546,0,0,0-.309-.007l-.909.023A9.5,9.5,0,0,0,23.5,51c-.289.045-.6.074-.934.143l-1.046.258A17.436,17.436,0,0,0,8.665,67.313a17.349,17.349,0,0,0,2.394,9.846A17.644,17.644,0,0,0,19.492,84.5a17.285,17.285,0,0,0,5.849,1.288,16.76,16.76,0,0,0,6.119-.762l.182-.057H31.5l10.226,3.542.416.144-.131-.42c-.916-2.942-1.8-5.789-2.654-8.518l-.044.205a17.489,17.489,0,0,0,4.1-15.142,17.219,17.219,0,0,0-2.638-6.3,17.712,17.712,0,0,0-4.049-4.224A18.824,18.824,0,0,0,34.6,52.873a19.761,19.761,0,0,0-2.038-.924,13.9,13.9,0,0,0-1.84-.585,11.385,11.385,0,0,0-1.577-.33c-.479-.064-.9-.135-1.268-.167l-.93-.03-.569-.01a.761.761,0,0,0-.192.008.774.774,0,0,0,.192.028l.565.046.924.064c.364.043.781.126,1.254.2a11.543,11.543,0,0,1,1.556.359,14.068,14.068,0,0,1,1.811.608,20.019,20.019,0,0,1,2,.939,18.98,18.98,0,0,1,2.075,1.38,17.531,17.531,0,0,1,3.945,4.19,16.952,16.952,0,0,1,2.547,6.2,17.146,17.146,0,0,1-4.067,14.788l-.08.09.036.116c.844,2.73,1.725,5.579,2.636,8.523l.285-.276-10.223-3.55-.071-.024-.074.023-.177.056a16.328,16.328,0,0,1-5.961.743,16.863,16.863,0,0,1-5.7-1.248,17.26,17.26,0,0,1-8.243-7.14,17.28,17.28,0,0,1,5.2-23.081,17.291,17.291,0,0,1,4.955-2.3l1.031-.276c.325-.075.637-.11.923-.162a10.025,10.025,0,0,1,1.457-.187l.9-.068a1.573,1.573,0,0,0,.308-.039" fill="#263238"/>
        <path id="Path_182140" data-name="Path 182140" d="M32.541,68.081a5.916,5.916,0,1,0-8.354,5.481c.011.7.023,1.492.023,1.492l5.185-.079s.018-.838.018-1.586a5.914,5.914,0,0,0,3.128-5.308" fill="#fafafa"/>
        <path id="Path_182141" data-name="Path 182141" d="M32.541,68.081a1.959,1.959,0,0,1,.027.453,5.842,5.842,0,0,1-.186,1.287,5.911,5.911,0,0,1-.874,1.865A6.068,6.068,0,0,1,29.475,73.5l.068-.114c0,.5,0,1.035-.007,1.589v.135l-.139,0-5.184.1-.166,0,0-.167c-.008-.469-.017-.977-.027-1.492l.1.152a6.11,6.11,0,0,1-3.383-4,6.047,6.047,0,0,1,.351-4.055,6.117,6.117,0,0,1,2.571-2.794,6.627,6.627,0,0,1,1.676-.627,6.44,6.44,0,0,1,1.683-.113,6.029,6.029,0,0,1,2.843.944,5.9,5.9,0,0,1,2.512,3.442,4.531,4.531,0,0,1,.171,1.568,12.8,12.8,0,0,0-.3-1.53A5.835,5.835,0,0,0,27,62.419a6.191,6.191,0,0,0-1.6.124,6.366,6.366,0,0,0-1.583.608A5.811,5.811,0,0,0,21.4,65.8a5.724,5.724,0,0,0-.324,3.823,5.792,5.792,0,0,0,3.182,3.78l.1.044,0,.108c.006.516.012,1.024.018,1.493l-.168-.164,5.184-.055-.139.139c.011-.552.021-1.083.031-1.583V73.31l.067-.035a5.936,5.936,0,0,0,2.891-3.494,9.692,9.692,0,0,0,.3-1.7" fill="#263238"/>
        <path id="Path_182142" data-name="Path 182142" d="M27.52,74.979s0-.025,0-.073l.021-.214c.02-.188.049-.464.1-.82s.111-.79.216-1.289a8.775,8.775,0,0,1,.512-1.655,5.613,5.613,0,0,1,.472-.892,1.086,1.086,0,0,1,.4-.37.61.61,0,0,1,.562.01.4.4,0,0,1,.191.231.411.411,0,0,1-.02.3.841.841,0,0,1-.451.4,1.618,1.618,0,0,1-1.231-.068,1.64,1.64,0,0,1-.85-.975,1.238,1.238,0,0,1-.046-.681.534.534,0,0,1,.532-.42.386.386,0,0,1,.3.2.537.537,0,0,1,.053.364,1.162,1.162,0,0,1-.407.595,1.769,1.769,0,0,1-1.372.421,1.537,1.537,0,0,1-1.157-.835A.89.89,0,0,1,25.3,68.5a.452.452,0,0,1,.255-.266.447.447,0,0,1,.365.028.59.59,0,0,1,.253.256.913.913,0,0,1,.1.339,1.694,1.694,0,0,1-.08.677,1.755,1.755,0,0,1-.818,1,1.794,1.794,0,0,1-1.222.187.94.94,0,0,1-.537-.274.457.457,0,0,1-.041-.569.386.386,0,0,1,.264-.134.558.558,0,0,1,.283.05.859.859,0,0,1,.368.4c.154.318.278.628.4.924.491,1.185.842,2.162,1.077,2.839.118.339.2.6.263.783l.065.2c.014.047.02.071.02.071s-.011-.023-.027-.068l-.072-.2c-.064-.181-.156-.443-.275-.778-.244-.674-.6-1.648-1.1-2.829-.126-.294-.254-.607-.406-.918a.8.8,0,0,0-.343-.374.355.355,0,0,0-.433.56.881.881,0,0,0,.5.252,1.732,1.732,0,0,0,1.176-.183,1.7,1.7,0,0,0,.785-.968,1.633,1.633,0,0,0,.076-.649.642.642,0,0,0-.312-.539.372.372,0,0,0-.307-.024.386.386,0,0,0-.214.225.824.824,0,0,0,.05.658,1.466,1.466,0,0,0,1.1.8,1.7,1.7,0,0,0,1.315-.4,1.093,1.093,0,0,0,.384-.554.464.464,0,0,0-.046-.315.31.31,0,0,0-.248-.168.417.417,0,0,0-.292.1.5.5,0,0,0-.165.267,1.172,1.172,0,0,0,.044.642A1.561,1.561,0,0,0,29.5,70.553a.784.784,0,0,0,.418-.367.349.349,0,0,0-.144-.458.551.551,0,0,0-.506-.009,1.033,1.033,0,0,0-.379.349,5.583,5.583,0,0,0-.471.881,8.812,8.812,0,0,0-.519,1.642c-.109.5-.176.93-.227,1.285s-.084.628-.11.818c-.012.091-.021.162-.028.213s-.012.072-.012.072" fill="#263238"/>
        <path id="Path_182143" data-name="Path 182143" d="M29.01,75.941l-4.451.068a.334.334,0,1,1-.01-.668L29,75.273a.334.334,0,1,1,.01.668" fill="#263238"/>
        <path id="Path_182144" data-name="Path 182144" d="M29.015,76.232l-4.451.068a.334.334,0,0,0,.01.668l.489-.007.667,1.224a.427.427,0,0,0,.383.223l1.591-.024a.428.428,0,0,0,.378-.239l.611-1.24.332,0a.334.334,0,1,0-.01-.668" fill="#263238"/>
        <g id="Group_120734" data-name="Group 120734" opacity="0.2">
          <g id="Group_120733" data-name="Group 120733">
            <g id="Group_120732" data-name="Group 120732" clip-path="url(#clip-path-6)">
              <path id="Path_182145" data-name="Path 182145" d="M22.768,64.461a4.365,4.365,0,0,1,1.172-.806,3.142,3.142,0,0,1,.908-.278c.224-.027.351-.007.363.04.027.107-.419.273-1.017.685a4.866,4.866,0,0,0-2.144,4.811c.093.721.268,1.163.17,1.215-.043.022-.143-.059-.272-.243a3.139,3.139,0,0,1-.4-.862,4.352,4.352,0,0,1-.185-1.41,4.636,4.636,0,0,1,.388-1.717" fill="#fff"/>
            </g>
          </g>
        </g>
        <g id="Group_120737" data-name="Group 120737" opacity="0.2">
          <g id="Group_120736" data-name="Group 120736">
            <g id="Group_120735" data-name="Group 120735" clip-path="url(#clip-path-7)">
              <path id="Path_182146" data-name="Path 182146" d="M26.637,63.65c-.375,0-.707-.1-.749-.293-.018-.1.05-.2.184-.288a1.186,1.186,0,0,1,1.118-.012c.136.082.206.186.19.285" fill="#fff"/>
            </g>
          </g>
        </g>
        <path id="Path_182147" data-name="Path 182147" d="M28,78.252c0,.011-.118-.038-.307-.089a2.509,2.509,0,0,0-.757-.084,2.549,2.549,0,0,0-.746.15,2.985,2.985,0,0,1-.3.116.928.928,0,0,1,.279-.164,2.167,2.167,0,0,1,1.537-.068.916.916,0,0,1,.292.139" fill="#455a64"/>
        <path id="Path_182148" data-name="Path 182148" d="M28.7,76.921c0,.02-.8.049-1.8.064s-1.8.011-1.8-.009.8-.049,1.8-.064,1.8-.011,1.8.009" fill="#455a64"/>
        <path id="Path_182149" data-name="Path 182149" d="M28.432,77.453a2.471,2.471,0,0,1-.438.051c-.271.022-.646.043-1.061.055s-.79.013-1.062.008a2.429,2.429,0,0,1-.44-.026,2.829,2.829,0,0,1,.44-.026l1.06-.029,1.061-.033a2.83,2.83,0,0,1,.44,0" fill="#455a64"/>
        <path id="Path_182150" data-name="Path 182150" d="M22,62.295c-.077.06-.4-.222-.72-.63s-.519-.788-.442-.848.4.222.72.63.519.788.442.848" fill="#263238"/>
        <path id="Path_182151" data-name="Path 182151" d="M26.157,60.624a4.525,4.525,0,0,1-.339-1.733,4.542,4.542,0,0,1,.012-1.767,4.527,4.527,0,0,1,.339,1.734,4.515,4.515,0,0,1-.012,1.766" fill="#263238"/>
        <path id="Path_182152" data-name="Path 182152" d="M30.609,60.136c.081.054-.046.387-.283.743s-.5.6-.577.547.046-.386.283-.743.5-.6.577-.547" fill="#263238"/>
        <path id="Path_182153" data-name="Path 182153" d="M231.893,76.879a4.166,4.166,0,0,0-3.222-.953l-8.409-.121a6.17,6.17,0,0,1-3.7-1.01,5.955,5.955,0,0,1-2.314-2.972l-.341-1.09c-.687-2.2-1.4-4.465-2.251-6.618a34.461,34.461,0,0,0-1.678-3.675c-.31-.588-.659-1.155-1.017-1.727s-.728-1.148-1.085-1.671a48.876,48.876,0,0,0-23.459-18.324,56.889,56.889,0,0,0-26.536-2.792,62.007,62.007,0,0,0-11.763,2.683l-2.691.967c-.569.22-1.128.455-1.682.688-.3.127-.6.253-.9.377a38.555,38.555,0,0,0-4.818,2.481,34.3,34.3,0,0,0-7.724,6.371,33.169,33.169,0,0,0-2.834,3.625c-.714,1.077-1.418,2.246-2.215,3.675-1.01,1.813-1.895,3.531-2.752,5.192q-.414.8-.811,1.569-.3.558-.58,1.1a35.017,35.017,0,0,1-2.567,4.4,13.777,13.777,0,0,1-6.6,5.314,6.8,6.8,0,0,1-.916.267c-.112.026-.219.052-.291.073-.141.02-.272.042-.4.062-.2.033-.371.063-.522.074-.513.031-.775.056-.775.056a.254.254,0,0,0,.023.507h0s.262,0,.779-.026c.172-.008.37-.038.594-.072l.4-.059c.095-.023.195-.046.3-.069a6.949,6.949,0,0,0,.992-.278,14.239,14.239,0,0,0,6.915-5.481,35.446,35.446,0,0,0,2.639-4.476c.189-.357.381-.72.579-1.09q.413-.785.838-1.606c.854-1.643,1.738-3.341,2.74-5.127.793-1.413,1.491-2.565,2.2-3.622a32.545,32.545,0,0,1,2.783-3.54,33.6,33.6,0,0,1,7.578-6.22,37.606,37.606,0,0,1,4.73-2.423q.451-.185.906-.376c.548-.229,1.1-.459,1.654-.673l2.671-.954a61.29,61.29,0,0,1,11.617-2.629,56.152,56.152,0,0,1,26.165,2.784A48.083,48.083,0,0,1,207.19,57.509c.331.487.715,1.054,1.062,1.64.352.563.693,1.116.991,1.683a33.728,33.728,0,0,1,1.636,3.59c.842,2.126,1.514,4.281,2.226,6.562l.347,1.11a6.8,6.8,0,0,0,2.641,3.4,7.009,7.009,0,0,0,4.169,1.155l8.455.124a3.432,3.432,0,0,1,2.592.724,3.253,3.253,0,0,1,.8,2.582c-.016.374-.029.748-.042,1.122-.023.679-.047,1.359-.088,2.033q-.051.57-.1,1.144c-.054.676-.108,1.354-.184,2.032a78.681,78.681,0,0,1-2.5,12.7,91.783,91.783,0,0,1-11.008,24.364,80.467,80.467,0,0,1-9.65,12.446,56.37,56.37,0,0,1-5.7,5.236,57.415,57.415,0,0,1-6.31,4.336,73.393,73.393,0,0,1-13.766,6.093l-.971.318c-.841.277-1.711.564-2.573.813l-1.772.535a6.945,6.945,0,0,0-1.793.79A6.472,6.472,0,0,0,173.138,157a6.235,6.235,0,0,0-.474,1.9c-.033.452-.031.888-.029,1.309,0,.181,0,.363,0,.547,0,13.857-.319,26.925-.63,39.564q-.185,7.465-.337,14.555a13.716,13.716,0,0,0,.318,3.158,5.107,5.107,0,0,0,1.542,2.851,3.075,3.075,0,0,0,3.253.3,3.727,3.727,0,0,0,1.3-1.009,4.908,4.908,0,0,0,.775-1.4,16.259,16.259,0,0,0,.713-5.116l.024-.738c.04-1.829.03-3.644.021-5.4l0-.768c-.01-1.7-.02-3.3.008-4.911l.006-.251a28.244,28.244,0,0,1,.407-4.914,3.022,3.022,0,0,1,.4-1.031,2.462,2.462,0,0,1,.9-.632,2.274,2.274,0,0,1,2.056-.046,2.4,2.4,0,0,1,.864,1.875,14.546,14.546,0,0,1,.03,1.658c0,.242-.009.484-.008.72l-.394,31.533a9.74,9.74,0,0,0-.023,2.24,3.64,3.64,0,0,0,.786,2.07,1.771,1.771,0,0,0,1.04.555c.348.043.66.079.964.089.61.037,1.2.045,1.806.049h.414c1.985,0,3.7-.057,5.1-.1l3.844-.163c.8-.041,1.209-.073,1.209-.073a.257.257,0,0,0,.234-.266A.27.27,0,0,0,199,234.9s-.408.007-1.206.036l-3.976.126c-1.457.038-3.268.087-5.355.066-.619-.008-1.18-.016-1.766-.055-.093-.008-.188-.015-.286-.021a1.721,1.721,0,0,1-1.288-.42,3.018,3.018,0,0,1-.621-1.719,9.275,9.275,0,0,1,.035-2.141l.478-31.555c0-.236.006-.474.011-.712a15.3,15.3,0,0,0-.031-1.745,4.59,4.59,0,0,0-.3-1.3,2.26,2.26,0,0,0-2.317-1.488,3.966,3.966,0,0,0-1.347.345,3.227,3.227,0,0,0-1.18.849,3.65,3.65,0,0,0-.546,1.332,28.381,28.381,0,0,0-.433,5l-.008.317c-.031,1.642-.023,3.272-.016,5l0,.706c.007,1.75.015,3.559-.028,5.369l-.024.695a15.821,15.821,0,0,1-.673,4.911,3.273,3.273,0,0,1-1.678,1.963,2.279,2.279,0,0,1-2.413-.2,4.472,4.472,0,0,1-1.264-2.417,12.966,12.966,0,0,1-.294-2.964q.146-6.921.343-14.219c.327-12.744.664-25.922.667-39.908,0-.183,0-.368,0-.553,0-.413,0-.839.026-1.231a5.412,5.412,0,0,1,.41-1.641,5.63,5.63,0,0,1,2.181-2.565,6.105,6.105,0,0,1,1.581-.692l1.776-.535c.87-.253,1.747-.541,2.6-.82l.973-.318a74.2,74.2,0,0,0,13.932-6.163,58.466,58.466,0,0,0,6.412-4.4,56.9,56.9,0,0,0,5.789-5.314,81.4,81.4,0,0,0,9.754-12.575,92.685,92.685,0,0,0,11.107-24.6,79.413,79.413,0,0,0,2.528-12.839c.076-.69.131-1.38.186-2.068.03-.379.061-.757.094-1.142.043-.685.066-1.371.09-2.055.012-.378.025-.755.041-1.128a4.109,4.109,0,0,0-1.064-3.234" fill="#455a64"/>
      </g>
    </g>
  </g>
</svg>
