<svg id="Group_120716" data-name="Group 120716" xmlns="http://www.w3.org/2000/svg" xmlns:xlink="http://www.w3.org/1999/xlink" width="50" height="50" viewBox="0 0 50 50">
  <defs>
    <clipPath id="clip-path">
      <rect id="Rectangle_37157" data-name="Rectangle 37157" width="50" height="50" fill="#5a189a"/>
    </clipPath>
  </defs>
  <g id="Group_120713" data-name="Group 120713" clip-path="url(#clip-path)">
    <path id="Path_181884" data-name="Path 181884" d="M15.332,50a8.9,8.9,0,0,1,3.09-7.521c.459-.4.982-.732,1.484-1.1-4.716-2-7.056-5.56-7.037-10.728A4.341,4.341,0,0,1,9.011,29.2a3.886,3.886,0,0,1-.936-2.6,3.929,3.929,0,0,1,1.486-3.1,4.571,4.571,0,0,1,3.337-.91c0-.733,0-1.412,0-2.091a2.438,2.438,0,0,1,2.6-2.737c.06,0,.119-.013.239-.026-.1-.133-.155-.221-.219-.305a2.449,2.449,0,0,1-.354-2.527,1.189,1.189,0,0,0-.681-1.7A2.466,2.466,0,0,1,12.9,10.829q-.01-.342,0-.684a2.454,2.454,0,0,1,1.574-2.363,1.186,1.186,0,0,0,.692-1.7,2.441,2.441,0,0,1,.542-2.746c.167-.178.34-.35.517-.518A2.45,2.45,0,0,1,19.01,2.27a1.168,1.168,0,0,0,1.66-.681A2.826,2.826,0,0,1,22.461,0h1.758l1.515.771L27.637,0h1.172c.106.034.212.074.32.1a3.919,3.919,0,0,1,2.6,1.975.862.862,0,0,0,.622.458,3.883,3.883,0,0,1,3.012,2.991,3.908,3.908,0,0,1-.673,3.316,4.089,4.089,0,0,1-2.283,6.4c-.278.869-.537,1.674-.8,2.506.916,0,1.886,0,2.856,0A2.433,2.433,0,0,1,37.1,20.389c0,.711,0,1.422,0,2.184a4.6,4.6,0,0,1,3.337.913,3.939,3.939,0,0,1,1.485,3.106,3.89,3.89,0,0,1-.935,2.6,4.339,4.339,0,0,1-3.857,1.452c.014,5.164-2.322,8.729-7.037,10.73.49.359,1,.68,1.448,1.07A8.916,8.916,0,0,1,34.668,50Zm9.614-19.348q4.733,0,9.465,0c.792,0,1.062-.264,1.064-1.046q0-2.976,0-5.952c0-.818-.262-1.081-1.079-1.081q-9.391,0-18.784,0c-.825,0-1.086.257-1.087,1.072q0,2.927,0,5.854c0,.919.235,1.153,1.152,1.154h9.27M14.572,32.207a1.8,1.8,0,0,0,0,.207,8.731,8.731,0,0,0,7.089,7.7,30.559,30.559,0,0,0,5.059.2A8.806,8.806,0,0,0,35.1,33.962c.172-.58.254-1.186.372-1.755ZM31.467,8.9c.119-.021.215-.036.311-.055a2.443,2.443,0,0,0,2.084-2.634,2.41,2.41,0,0,0-2.7-2.152c-.362.027-.487-.092-.552-.418a2.418,2.418,0,0,0-4.8.461C25.783,6.35,25.8,8.6,25.8,10.84c0,1.5-.02,2.994.009,4.49a2.423,2.423,0,0,0,2.336,2.414,2.419,2.419,0,0,0,.488-4.8c-.125-.025-.25-.048-.368-.07V11.3a4.074,4.074,0,0,1,3.638,2.34,2.329,2.329,0,0,0,1.564-3.605l-2,.524Zm-7.254,7.2a5.7,5.7,0,0,1-6.427-4.95,5.432,5.432,0,0,1,1.03-3.963,5.6,5.6,0,0,1,5.275-2.323c.127-.783.194-1.511.374-2.21.166-.644-.01-.99-.685-1.035-.227-.016-.456,0-.683-.006a.946.946,0,0,0-.967.661,2.748,2.748,0,0,1-3.675,1.51.949.949,0,0,0-1.151.232c-.132.143-.272.28-.412.415A.84.84,0,0,0,16.681,5.5,2.855,2.855,0,0,1,15.1,9.275a.787.787,0,0,0-.572.819q0,.39,0,.781a.783.783,0,0,0,.57.821,2.849,2.849,0,0,1,1.584,3.772.848.848,0,0,0,.21,1.065,12.346,12.346,0,0,0,.944.916,1.279,1.279,0,0,0,.718.287c1.984.023,3.969.014,5.953.012.138,0,.275-.015.418-.023-.242-.553-.468-1.067-.711-1.62m11.225,4.917c.155-1.373-.055-1.692-1.464-1.686-6.066.028-12.132.012-18.2.013a3.287,3.287,0,0,0-.535.014.734.734,0,0,0-.69.65,9.508,9.508,0,0,0-.008,1.009ZM28.2,48.356V42.494c-.57,1.731-1.627,2.614-3.111,2.656-1.531.043-2.574-.778-3.277-2.572v5.778ZM24.179,12.788a2.4,2.4,0,0,1-2.819-1.009A2.247,2.247,0,0,1,21.349,9.2a2.409,2.409,0,0,1,2.825-1.026v-1.6A3.882,3.882,0,0,0,20.1,8.164a4.011,4.011,0,0,0,.01,4.656,3.859,3.859,0,0,0,4.073,1.558Zm-11.3,11.449a2.626,2.626,0,0,0-2.862,1.146,2.371,2.371,0,0,0,.155,2.695,2.546,2.546,0,0,0,2.707.865ZM37.118,28.99a2.6,2.6,0,0,0,2.9-1.223,2.276,2.276,0,0,0-.19-2.607,2.645,2.645,0,0,0-2.725-.918c0,1.482,0,2.939,0,4.4,0,.11.009.22.015.352M32.982,48.352c-.092-1.9-1.658-4.447-3.11-5.069v5.069ZM20.128,43.283c-1.473.63-3.229,3.543-3.07,5.069h3.07Zm3.308-1.3a1.569,1.569,0,0,0,1.629,1.566,1.508,1.508,0,0,0,1.467-1.566Zm.758-31.508a.808.808,0,1,0-.8.814.829.829,0,0,0,.8-.814" fill="#5a189a"/>
    <path id="Path_181885" data-name="Path 181885" d="M43.457,0c.248.065.495.132.743.2A5.638,5.638,0,1,1,41.778.089,1.163,1.163,0,0,0,41.993,0Zm3.182,4.837a3.719,3.719,0,0,0-3.087-3.06c0,.451-.017.906.012,1.357.007.123.142.25.242.352.357.364.724.72,1.089,1.077.1.094.193.255.3.261.48.028.962.013,1.448.013m.015,1.612c-.477,0-.916-.021-1.35.011a.788.788,0,0,0-.4.249c-.381.361-.752.733-1.12,1.107-.091.092-.217.206-.223.316-.025.467-.011.937-.011,1.408a3.821,3.821,0,0,0,3.1-3.091M38.834,4.84c.457,0,.879.028,1.293-.014a.971.971,0,0,0,.477-.289c.362-.336.707-.69,1.056-1.04.094-.094.249-.195.255-.3.027-.477.012-.956.012-1.439A3.826,3.826,0,0,0,38.834,4.84m.013,1.609a3.738,3.738,0,0,0,3.081,3.074c0-.469.015-.938-.011-1.4-.006-.109-.145-.219-.238-.314q-.549-.565-1.11-1.12c-.092-.091-.205-.219-.314-.225-.467-.025-.936-.011-1.408-.011m3.094-.825a.8.8,0,1,0,1.606.019.8.8,0,0,0-1.606-.019" fill="#5a189a"/>
    <path id="Path_181886" data-name="Path 181886" d="M50,48.34a3.353,3.353,0,0,1-.383.044q-6.05,0-12.1,0c-.113,0-.226-.012-.378-.021V43.555H50ZM48.356,45.2H38.732v1.546h9.624Z" fill="#5a189a"/>
    <path id="Path_181887" data-name="Path 181887" d="M50,41.894c-.129.012-.258.034-.386.034q-6.048,0-12.095,0c-.113,0-.226-.011-.378-.019v-4.8H50ZM38.733,40.3h9.652c0-.378-.025-.734.006-1.085.036-.4-.107-.524-.516-.521-2.9.016-5.793.008-8.689.01-.142,0-.284.019-.453.032Z" fill="#5a189a"/>
    <path id="Path_181888" data-name="Path 181888" d="M50,21c-2.717-.006-5.434-.023-8.151-.006-.444,0-.606-.113-.692-.559-.51-2.665-1.056-5.323-1.589-7.984a1.116,1.116,0,0,1,0-.191l1.543-.315c.494,2.458.985,4.9,1.483,7.375h.951V14.56h1.6v4.766H46.77v-3.18h1.61v3.19H50Z" fill="#5a189a"/>
    <rect id="Rectangle_37150" data-name="Rectangle 37150" width="1.58" height="1.66" transform="translate(0 9.668)" fill="#5a189a"/>
    <path id="Path_181889" data-name="Path 181889" d="M27.637,0l-1.9.771L24.219,0Z" fill="#5a189a"/>
    <rect id="Rectangle_37151" data-name="Rectangle 37151" width="11.237" height="1.539" transform="translate(1.634 43.582)" fill="#5a189a"/>
    <rect id="Rectangle_37152" data-name="Rectangle 37152" width="11.22" height="1.544" transform="translate(1.649 40.347)" fill="#5a189a"/>
    <path id="Path_181890" data-name="Path 181890" d="M3.247,4.864H4.814V6.426h6.48c0,.506.024.959-.02,1.4-.009.093-.269.228-.416.23-1.154.02-2.309.011-3.464.011H3.247Z" fill="#5a189a"/>
    <path id="Path_181891" data-name="Path 181891" d="M11.267,12.936v1.577H4.86v1.573H3.252v-3.15Z" fill="#5a189a"/>
    <path id="Path_181892" data-name="Path 181892" d="M3.248,11.3V9.7H11.3v1.331c0,.349-.266.264-.458.264q-2.976.008-5.951,0H3.248" fill="#5a189a"/>
    <rect id="Rectangle_37153" data-name="Rectangle 37153" width="8.014" height="1.538" transform="translate(1.632 46.808)" fill="#5a189a"/>
    <rect id="Rectangle_37154" data-name="Rectangle 37154" width="1.57" height="1.532" transform="translate(3.252 1.657)" fill="#5a189a"/>
    <rect id="Rectangle_37155" data-name="Rectangle 37155" width="1.551" height="1.543" transform="translate(3.247 17.779)" fill="#5a189a"/>
    <rect id="Rectangle_37156" data-name="Rectangle 37156" width="1.539" height="1.553" transform="translate(11.335 46.802)" fill="#5a189a"/>
    <path id="Path_181893" data-name="Path 181893" d="M19.339,29.021a2.408,2.408,0,1,1,2.435-2.393,2.41,2.41,0,0,1-2.435,2.393m.808-2.392a.8.8,0,0,0-.777-.823.807.807,0,0,0-.033,1.614.8.8,0,0,0,.81-.791" fill="#5a189a"/>
    <path id="Path_181894" data-name="Path 181894" d="M30.647,29.02a2.408,2.408,0,1,1,2.418-2.411,2.411,2.411,0,0,1-2.418,2.411m.8-2.387a.817.817,0,0,0-.779-.827.807.807,0,0,0-.041,1.614.82.82,0,0,0,.82-.787" fill="#5a189a"/>
    <path id="Path_181895" data-name="Path 181895" d="M20.975,34.7h1.543c.472,1.686,1.267,2.437,2.54,2.4,1.25-.034,2.059-.836,2.4-2.4H29.02a4.019,4.019,0,0,1-6.066,3.437A3.88,3.88,0,0,1,20.975,34.7" fill="#5a189a"/>
  </g>
</svg>
