<svg id="Group_120696" data-name="Group 120696" xmlns="http://www.w3.org/2000/svg" xmlns:xlink="http://www.w3.org/1999/xlink" width="90.862" height="90" viewBox="0 0 90.862 90">
  <defs>
    <clipPath id="clip-path">
      <rect id="Rectangle_37145" data-name="Rectangle 37145" width="90.862" height="90" fill="#ff6b00"/>
    </clipPath>
  </defs>
  <g id="Group_120695" data-name="Group 120695" clip-path="url(#clip-path)">
    <path id="Path_181820" data-name="Path 181820" d="M33.469,67.9c0-2-.065-3.994.016-5.987A7.379,7.379,0,0,0,30.611,55.6,22.274,22.274,0,0,1,22.437,37.24c.261-10.938,9.374-20.8,20.217-21.989a22.812,22.812,0,0,1,25.451,19.11c1.372,8.342-1.313,15.475-7.665,21.07a8.13,8.13,0,0,0-3.071,6.705c.094,4.143.03,8.289.022,12.434A4.685,4.685,0,0,1,54.228,79.3a1.7,1.7,0,0,0-.776.84A4.7,4.7,0,0,1,48.886,83.2q-3.455.021-6.908,0a4.726,4.726,0,0,1-4.571-3.06,1.869,1.869,0,0,0-.88-.88,4.685,4.685,0,0,1-3.057-4.572q0-3.4,0-6.792m22.185-4.974c-.539-4.214,1.517-6.953,4.4-9.633a19.787,19.787,0,0,0,6.2-19.044c-2.133-11.386-12.275-18.6-23.783-17.163-11.612,1.45-20.2,13.407-17.906,24.862a21.064,21.064,0,0,0,7.508,12.567,8.288,8.288,0,0,1,3.167,5.9c.073.822.011,1.656.011,2.507ZM35.323,66.653c1.556,0,3.008-.026,4.458.007a2.744,2.744,0,1,1-.036,5.481c-.613.02-1.228.005-1.841.005H35.285c0,1.072-.033,1.954.007,2.834a2.7,2.7,0,0,0,2.721,2.709c4.948.036,9.9.028,14.843,0a2.724,2.724,0,0,0,2.557-1.861c-1.45,0-2.737.009-4.023,0-1.907-.016-3.166-1.113-3.168-2.744s1.259-2.732,3.162-2.747c1.368-.011,2.736,0,4.127,0V64.844H35.323ZM51.7,79.592H39.161a2.726,2.726,0,0,0,2.546,1.789q3.732.041,7.462,0A2.71,2.71,0,0,0,51.7,79.592m-16.38-9.26c1.571,0,3.026.057,4.471-.04.362-.024.691-.541,1.035-.832-.3-.33-.589-.923-.913-.945-1.513-.1-3.037-.045-4.593-.045ZM55.532,72.16c-1.572,0-3.1-.049-4.613.041a.885.885,0,0,0-.042,1.76c1.55.091,3.108.043,4.655.043Z" fill="#ff6b00"/>
    <path id="Path_181821" data-name="Path 181821" d="M45.451,83.518c-1.155,0-2.316,0-3.474-.011a5.017,5.017,0,0,1-4.852-3.245,1.571,1.571,0,0,0-.723-.722,5.006,5.006,0,0,1-3.239-4.851q0-2.387,0-4.77V67.895c0-.613-.006-1.226-.012-1.838-.014-1.364-.028-2.773.028-4.16a7.082,7.082,0,0,0-2.765-6.066,22.577,22.577,0,0,1-8.282-18.6c.264-11.083,9.456-21.082,20.49-22.288A23.17,23.17,0,0,1,68.408,34.311c1.383,8.41-1.229,15.593-7.765,21.351a7.8,7.8,0,0,0-2.966,6.467c.069,3.066.052,6.183.035,9.2Q57.7,72.948,57.7,74.57a5.009,5.009,0,0,1-3.347,5.007,1.408,1.408,0,0,0-.617.679,5,5,0,0,1-4.846,3.251c-1.134.007-2.283.011-3.437.011m-.1-68.109a24.565,24.565,0,0,0-2.666.147C31.949,16.73,23,26.461,22.745,37.247A21.99,21.99,0,0,0,30.81,55.362a7.655,7.655,0,0,1,2.982,6.559c-.055,1.372-.041,2.774-.028,4.129.007.616.013,1.23.013,1.845v2.024q0,2.384,0,4.769a4.387,4.387,0,0,0,2.876,4.292,2.167,2.167,0,0,1,1.037,1.039,4.438,4.438,0,0,0,4.29,2.874c2.316.014,4.638.014,6.9,0a4.376,4.376,0,0,0,4.285-2.878,2.007,2.007,0,0,1,.936-1,4.4,4.4,0,0,0,2.979-4.445q0-1.623.014-3.246c.016-3.01.034-6.123-.036-9.18A8.479,8.479,0,0,1,60.237,55.2C66.6,49.593,69.149,42.6,67.8,34.41a22.489,22.489,0,0,0-22.449-19m.115,66.3c-1.211,0-2.461-.007-3.765-.021a3.021,3.021,0,0,1-2.82-1.963.307.307,0,0,1,.277-.44H51.7a.307.307,0,0,1,.277.438,2.993,2.993,0,0,1-2.8,1.963c-1.206.016-2.435.023-3.7.023M39.68,79.9a2.287,2.287,0,0,0,2.031,1.175c2.666.029,5.1.028,7.455,0A2.265,2.265,0,0,0,51.182,79.9ZM45.1,78.02c-2.552,0-4.862-.008-7.089-.024a2.992,2.992,0,0,1-3.026-3c-.027-.6-.021-1.215-.014-1.864,0-.312.007-.638.007-.983a.306.306,0,0,1,.307-.307H37.9l.557,0c.418,0,.852.006,1.274-.007a2.438,2.438,0,1,0,.039-4.867c-.994-.023-1.98-.017-3.023-.012-.468,0-.943,0-1.428,0a.307.307,0,0,1-.307-.307V64.844a.307.307,0,0,1,.307-.307H55.512a.307.307,0,0,1,.307.307v5.493a.308.308,0,0,1-.307.307l-1.288,0c-.951,0-1.894,0-2.837,0-1.737.014-2.858.971-2.857,2.44s1.125,2.422,2.862,2.436c.879.008,1.757,0,2.688,0l1.333,0a.308.308,0,0,1,.279.437A3.023,3.023,0,0,1,52.858,78c-2.87.013-5.416.02-7.758.02m-9.509-5.567c0,.236,0,.463-.006.683-.006.639-.013,1.243.014,1.83a2.4,2.4,0,0,0,2.417,2.416c4.267.031,8.844.032,14.839,0A2.27,2.27,0,0,0,54.9,76.139l-.822,0c-.933,0-1.814,0-2.695,0-2.075-.017-3.47-1.243-3.471-3.051s1.391-3.038,3.466-3.054c.946-.008,1.891-.006,2.844,0H55.2V65.151H35.63v1.195l1.118,0c1.048-.005,2.037-.011,3.04.012a3.05,3.05,0,1,1-.033,6.1c-.434.014-.874.011-1.3.008l-.552,0Zm17.544,1.87c-.756,0-1.519-.011-2.276-.056a1.442,1.442,0,0,1-1.065-1.21A1.478,1.478,0,0,1,50.9,71.894c1.129-.067,2.235-.058,3.406-.048.405,0,.814.007,1.225.007a.306.306,0,0,1,.307.307V74a.306.306,0,0,1-.307.307c-.4,0-.8,0-1.2.007s-.8.006-1.2.006m-.037-1.87c-.729,0-1.442.012-2.161.054a1.013,1.013,0,0,0-.529.567,1.048,1.048,0,0,0,.492.581c1.135.066,2.3.056,3.43.048q.448,0,.895-.006V72.466q-.463,0-.923-.006c-.408,0-.809-.007-1.2-.007m-15.315-1.8c-.394,0-.793,0-1.2-.008s-.835-.009-1.265-.009a.307.307,0,0,1-.307-.307V68.47a.307.307,0,0,1,.307-.307c.41,0,.818,0,1.224-.008,1.114-.011,2.265-.021,3.39.053.366.025.616.372.858.708a3.82,3.82,0,0,0,.26.336.308.308,0,0,1-.028.443,3.724,3.724,0,0,0-.3.295,1.523,1.523,0,0,1-.916.609c-.673.045-1.343.057-2.027.057m-2.157-.63c.325,0,.646,0,.964.007,1.1.012,2.142.022,3.179-.047.127-.009.348-.244.509-.416.042-.046.085-.092.129-.137-.039-.052-.078-.1-.116-.158-.109-.151-.312-.433-.4-.454-1.1-.073-2.188-.062-3.34-.052l-.922.008Zm20.028-6.8h-20.4a.307.307,0,0,1-.307-.307c0-.271.006-.54.013-.808a15.172,15.172,0,0,0-.023-1.672,7.941,7.941,0,0,0-3.055-5.694,21.464,21.464,0,0,1-7.615-12.743,21.178,21.178,0,0,1,3.793-16.43,21.167,21.167,0,0,1,14.376-8.8A21.98,21.98,0,0,1,58.06,20.6a21.442,21.442,0,0,1,8.5,13.583,20.155,20.155,0,0,1-6.291,19.326c-2.954,2.743-4.818,5.386-4.309,9.369a.3.3,0,0,1-.074.242.307.307,0,0,1-.23.1m-20.091-.614H55.31c-.4-4.05,1.531-6.758,4.539-9.551A19.569,19.569,0,0,0,65.955,34.3,20.834,20.834,0,0,0,57.7,21.1a21.368,21.368,0,0,0-15.189-3.717,20.548,20.548,0,0,0-13.954,8.547,20.559,20.559,0,0,0-3.689,15.95,20.865,20.865,0,0,0,7.4,12.388,8.64,8.64,0,0,1,3.279,6.116,15.815,15.815,0,0,1,.025,1.74c0,.162-.008.324-.01.487" fill="#ff6b00"/>
    <path id="Path_181822" data-name="Path 181822" d="M57.362,89.567l-1.751.126c-.1-1.08-.236-2.1-.286-3.119a2.745,2.745,0,0,1,3.4-3.082c2.316.319,4.62.76,6.945.978,3.09.289,6.194.523,9.3.579a6.332,6.332,0,0,0,6.4-6.341c.043-4.029.034-8.06,0-12.089a4.821,4.821,0,0,1,2.944-4.775c.969-.461,1.916-.97,2.89-1.42a1.167,1.167,0,0,0,.639-1.847c-.55-1.049-1.055-2.122-1.641-3.308l1.615-.793c.679,1.406,1.4,2.713,1.949,4.091a2.567,2.567,0,0,1-1.33,3.215c-1.071.595-2.173,1.139-3.286,1.652a3.135,3.135,0,0,0-1.976,3.184c.044,3.838.022,7.676.013,11.514-.012,5.222-3.532,8.94-8.736,8.7-5.122-.237-10.226-.913-15.329-1.475-1.793-.2-2.08-.05-1.967,1.713.051.8.128,1.593.2,2.5" fill="#ff6b00"/>
    <path id="Path_181823" data-name="Path 181823" d="M55.611,90a.308.308,0,0,1-.306-.278c-.032-.339-.067-.672-.1-1-.078-.732-.151-1.424-.185-2.132a3.284,3.284,0,0,1,.95-2.685,3.324,3.324,0,0,1,2.8-.716c.817.113,1.645.242,2.446.368,1.469.23,2.988.468,4.486.608,2.535.237,5.879.517,9.273.578a5.866,5.866,0,0,0,4.236-1.675,6.122,6.122,0,0,0,1.856-4.362c.037-3.525.039-7.252,0-12.084a5.154,5.154,0,0,1,3.119-5.055c.436-.207.868-.424,1.3-.641.519-.261,1.055-.531,1.593-.78a1.126,1.126,0,0,0,.661-.579,1.1,1.1,0,0,0-.165-.846c-.38-.727-.739-1.462-1.117-2.24-.17-.349-.345-.706-.527-1.075a.308.308,0,0,1,.14-.412l1.616-.792a.3.3,0,0,1,.235-.015.308.308,0,0,1,.177.157c.207.429.419.849.628,1.265.486.965.945,1.878,1.329,2.846a2.855,2.855,0,0,1-1.465,3.6c-.984.546-2.066,1.09-3.308,1.663a2.825,2.825,0,0,0-1.8,2.9c.036,3.179.027,6.41.018,9.534l0,1.984a9.241,9.241,0,0,1-2.683,6.783,8.425,8.425,0,0,1-6.375,2.222c-4.079-.189-8.207-.662-12.2-1.12q-1.575-.18-3.148-.356c-.8-.089-1.3-.106-1.484.066s-.18.742-.143,1.321c.035.54.081,1.08.131,1.653.023.272.047.55.071.84a.307.307,0,0,1-.073.225.3.3,0,0,1-.211.106L55.633,90h-.022m2.507-6.244a2.5,2.5,0,0,0-1.734.6,2.7,2.7,0,0,0-.752,2.2c.034.691.106,1.374.182,2.1q.038.351.074.708l1.143-.082c-.015-.18-.03-.355-.045-.528-.05-.578-.1-1.122-.132-1.666-.057-.888-.021-1.468.331-1.805.392-.374,1.066-.332,1.976-.233,1.05.116,2.1.237,3.151.357,3.983.456,8.1.928,12.159,1.116a7.822,7.822,0,0,0,5.923-2.053,8.635,8.635,0,0,0,2.491-6.34l.006-1.984c.009-3.122.018-6.351-.018-9.525a3.45,3.45,0,0,1,2.154-3.466c1.228-.566,2.3-1.1,3.266-1.642a2.264,2.264,0,0,0,1.193-2.834c-.374-.942-.827-1.843-1.307-2.8-.165-.329-.332-.66-.5-1l-1.063.521q.2.409.392.8c.377.774.733,1.505,1.109,2.224a1.663,1.663,0,0,1,.2,1.329,1.69,1.69,0,0,1-.985.939c-.529.244-1.061.512-1.575.771-.435.219-.871.438-1.311.647a4.53,4.53,0,0,0-2.769,4.5c.035,4.836.034,8.566,0,12.094a6.737,6.737,0,0,1-2.042,4.8,6.505,6.505,0,0,1-4.675,1.849c-3.414-.062-6.774-.343-9.319-.581-1.517-.142-3.046-.382-4.524-.613-.8-.125-1.623-.255-2.435-.367a4.15,4.15,0,0,0-.566-.04" fill="#ff6b00"/>
    <path id="Path_181824" data-name="Path 181824" d="M78.213,19.816c-.239.169-.381.289-.541.379-.3.167-.6.316-.9.467C67.9,6.737,55.446.41,38.946,2.572a1.957,1.957,0,0,1-.148-.353c-.068-.371-.119-.745-.2-1.246a35.719,35.719,0,0,1,20.756,2.11A38.137,38.137,0,0,1,78.213,19.816" fill="#ff6b00"/>
    <path id="Path_181825" data-name="Path 181825" d="M76.773,20.97a.31.31,0,0,1-.26-.142C72.089,13.879,66.73,8.844,60.587,5.861c-6.257-3.039-13.525-4.044-21.6-2.985a.309.309,0,0,1-.322-.182c-.02-.045-.039-.085-.057-.122a1.09,1.09,0,0,1-.112-.3c-.049-.267-.089-.535-.137-.85l-.061-.4a.308.308,0,0,1,.246-.349A36.212,36.212,0,0,1,59.476,2.8a38.644,38.644,0,0,1,19,16.864.308.308,0,0,1-.088.4c-.079.056-.148.106-.209.152a3.524,3.524,0,0,1-.36.244c-.214.12-.435.232-.651.341l-.258.132a.307.307,0,0,1-.14.034M45.051,1.854a35.784,35.784,0,0,1,15.8,3.454c6.178,3,11.568,8.031,16.026,14.955l.013-.007c.208-.105.421-.213.628-.329a2.862,2.862,0,0,0,.287-.2A38.011,38.011,0,0,0,59.241,3.366,35.589,35.589,0,0,0,38.95,1.221l.017.112c.046.308.085.57.133.831a.386.386,0,0,0,.028.075,47.052,47.052,0,0,1,5.923-.385" fill="#ff6b00"/>
    <path id="Path_181826" data-name="Path 181826" d="M6.771,35.325c1.19,0,2.381-.03,3.57.008a2.737,2.737,0,1,1-.022,5.471q-3.569.058-7.14,0A2.742,2.742,0,1,1,3.2,35.329c1.19-.028,2.38,0,3.571,0m-.04,3.682c1.108,0,2.217-.009,3.325,0,.688.007,1.35-.191,1.222-.959a1.537,1.537,0,0,0-1.166-.878c-2.251-.086-4.51-.086-6.762,0a1.537,1.537,0,0,0-1.167.879c-.129.768.537.964,1.223.958,1.108-.01,2.217,0,3.325,0" fill="#ff6b00"/>
    <path id="Path_181827" data-name="Path 181827" d="M6.777,41.14c-1.166,0-2.361-.009-3.6-.026A3.053,3.053,0,0,1,0,38.121a3.094,3.094,0,0,1,3.193-3.1c.837-.02,1.686-.014,2.507-.009l1.115.005c.358,0,.716,0,1.074-.006.806-.006,1.639-.012,2.461.014a3.044,3.044,0,1,1-.026,6.086c-1.162.018-2.339.028-3.547.028M4.56,35.622c-.451,0-.9,0-1.353.014A2.436,2.436,0,1,0,3.183,40.5c2.522.036,4.855.035,7.131,0a2.43,2.43,0,1,0,.017-4.857c-.81-.025-1.637-.019-2.437-.013-.375,0-.747.006-1.124.005-.358,0-.716,0-1.074-.005-.374,0-.754,0-1.136,0m5.532,3.7h-.039c-.78-.009-1.559-.007-2.339-.005H5.745c-.779,0-1.558,0-2.337,0a1.642,1.642,0,0,1-1.324-.439A1.033,1.033,0,0,1,1.879,38a1.8,1.8,0,0,1,1.459-1.134c2.252-.087,4.535-.087,6.786,0A1.8,1.8,0,0,1,11.581,38a1.028,1.028,0,0,1-.206.878,1.62,1.62,0,0,1-1.283.439m-1.4-.621q.682,0,1.364.006a1.16,1.16,0,0,0,.85-.223.42.42,0,0,0,.066-.378,1.325,1.325,0,0,0-.875-.621c-2.235-.087-4.5-.087-6.738,0a1.327,1.327,0,0,0-.877.621.414.414,0,0,0,.066.376A1.136,1.136,0,0,0,3.4,38.7c.781-.007,1.562-.006,2.343,0H7.712l.983,0" fill="#ff6b00"/>
    <path id="Path_181828" data-name="Path 181828" d="M84.128,40.814c-1.19,0-2.381.027-3.57-.006a2.766,2.766,0,0,1-2.849-2.715,2.738,2.738,0,0,1,2.8-2.757q3.627-.062,7.255,0A2.739,2.739,0,0,1,90.555,38.1,2.769,2.769,0,0,1,87.7,40.808c-1.19.033-2.38.006-3.571.006m-.054-1.807c1.108,0,2.217-.01,3.325,0,.672.009,1.3-.113,1.32-.912s-.568-.975-1.261-.971q-3.324.017-6.65,0c-.69,0-1.283.178-1.264.969s.649.922,1.319.913c1.071-.012,2.141,0,3.211,0" fill="#ff6b00"/>
    <path id="Path_181829" data-name="Path 181829" d="M81.93,41.132c-.459,0-.921,0-1.38-.017A3.065,3.065,0,0,1,77.4,38.1a3.034,3.034,0,0,1,3.1-3.068c2.443-.04,4.888-.042,7.266,0a3.045,3.045,0,1,1-.062,6.087c-.829.023-1.67.016-2.483.01q-1.1-.006-2.194,0c-.362,0-.73.006-1.1.006m2.212-5.52c-1.2,0-2.417.011-3.629.032a2.43,2.43,0,0,0-2.5,2.446,2.467,2.467,0,0,0,2.551,2.41c.817.024,1.651.019,2.459.013.367,0,.735-.006,1.1-.006s.733,0,1.1.006c.808.006,1.644.011,2.462-.012a2.472,2.472,0,0,0,2.558-2.4,2.426,2.426,0,0,0-2.49-2.453c-1.191-.02-2.4-.032-3.616-.032m3.352,3.707h-.1c-.776-.01-1.553-.008-2.329-.006H83.134c-.755,0-1.51,0-2.267.005-.393,0-1.6.02-1.63-1.213a1.181,1.181,0,0,1,.309-.89,1.716,1.716,0,0,1,1.264-.394c2.335.011,4.509.011,6.647,0h.019a1.664,1.664,0,0,1,1.242.394,1.177,1.177,0,0,1,.308.893c-.03,1.142-1.067,1.211-1.532,1.211M86.055,38.7q.673,0,1.348.008c.84.012,1-.207,1.009-.614a.589.589,0,0,0-.133-.446,1.143,1.143,0,0,0-.8-.208H87.46c-2.14.009-4.316.01-6.653,0h-.015a1.15,1.15,0,0,0-.807.21.584.584,0,0,0-.134.444c.01.4.181.628,1.009.614.758-.01,1.517-.008,2.276,0l.938,0,.99,0c.33,0,.66,0,.991,0" fill="#ff6b00"/>
    <path id="Path_181830" data-name="Path 181830" d="M6.151,23.961a2.813,2.813,0,0,1,1.484-2.726,2.431,2.431,0,0,1,2.907.273c1.951,1.844,3.866,3.732,5.691,5.7a2.558,2.558,0,0,1-.263,3.635,2.552,2.552,0,0,1-3.555.113c-1.935-1.805-3.792-3.7-5.617-5.612a4.154,4.154,0,0,1-.647-1.381m2.7-1.365c-.3.25-.73.443-.749.671a1.7,1.7,0,0,0,.323,1.2c1.582,1.658,3.225,3.258,4.846,4.879.468.468.987.656,1.49.116s.23-1.046-.22-1.495c-1.6-1.592-3.182-3.194-4.788-4.777a6,6,0,0,0-.9-.6" fill="#ff6b00"/>
    <path id="Path_181831" data-name="Path 181831" d="M14.093,31.923a2.746,2.746,0,0,1-1.888-.745c-1.683-1.57-3.42-3.305-5.63-5.624a3.029,3.029,0,0,1-.6-1.179c-.037-.113-.069-.213-.1-.289a.3.3,0,0,1-.027-.137A3.117,3.117,0,0,1,7.5,20.96a2.73,2.73,0,0,1,3.256.324C13,23.4,14.809,25.22,16.459,27a2.846,2.846,0,0,1-.277,4.066,3.036,3.036,0,0,1-2.089.86M6.461,23.907c.031.079.062.174.1.278a2.514,2.514,0,0,0,.463.945c2.2,2.31,3.93,4.037,5.6,5.6a2.24,2.24,0,0,0,3.135-.111,2.246,2.246,0,0,0,.249-3.2c-1.64-1.767-3.444-3.574-5.677-5.684a2.163,2.163,0,0,0-2.558-.222,2.472,2.472,0,0,0-1.312,2.4M14.118,30.1a1.538,1.538,0,0,1-1.059-.534q-.649-.649-1.3-1.3c-1.174-1.165-2.388-2.37-3.549-3.588A1.98,1.98,0,0,1,7.8,23.24c.026-.3.3-.489.572-.671a3.36,3.36,0,0,0,.285-.208.31.31,0,0,1,.366-.023c.112.074.221.137.324.2a3.085,3.085,0,0,1,.625.439c1.076,1.06,2.142,2.128,3.209,3.2q.79.79,1.581,1.581c.694.692.771,1.339.228,1.922a1.193,1.193,0,0,1-.855.426h-.018M8.411,23.315a1.408,1.408,0,0,0,.241.944c1.156,1.212,2.367,2.414,3.538,3.576q.653.648,1.3,1.3a1.042,1.042,0,0,0,.631.354.6.6,0,0,0,.417-.231c.261-.281.311-.546-.213-1.068l-1.582-1.582c-1.065-1.067-2.131-2.135-3.2-3.193a2.611,2.611,0,0,0-.5-.347l-.164-.1q-.078.056-.156.108a1.769,1.769,0,0,0-.307.238" fill="#ff6b00"/>
    <path id="Path_181832" data-name="Path 181832" d="M81.782,20.9a2.808,2.808,0,0,1,2.625,1.539,2.412,2.412,0,0,1-.266,2.811c-1.868,1.981-3.782,3.925-5.777,5.776a2.692,2.692,0,0,1-3.739-3.813c1.83-1.964,3.745-3.851,5.7-5.694a3.92,3.92,0,0,1,1.46-.619m1.23,2.757c-.225-.3-.394-.747-.619-.777a1.639,1.639,0,0,0-1.21.272c-1.636,1.551-3.208,3.169-4.806,4.759-.471.469-.839.983-.263,1.574s1.1.249,1.575-.226c1.566-1.569,3.14-3.13,4.7-4.708a6.919,6.919,0,0,0,.627-.894" fill="#ff6b00"/>
    <path id="Path_181833" data-name="Path 181833" d="M76.8,31.933a3.107,3.107,0,0,1-2.2-.957A2.844,2.844,0,0,1,74.4,27c1.639-1.759,3.507-3.626,5.71-5.708a2.908,2.908,0,0,1,1.268-.594,2.95,2.95,0,0,0,.289-.087.319.319,0,0,1,.14-.021,3.09,3.09,0,0,1,2.876,1.714,2.7,2.7,0,0,1-.32,3.154c-2.142,2.273-3.983,4.113-5.791,5.789a2.582,2.582,0,0,1-1.775.685m5.025-10.724c-.082.028-.177.054-.282.083a2.441,2.441,0,0,0-1.008.448c-2.194,2.072-4.053,3.93-5.683,5.68A2.386,2.386,0,0,0,78.155,30.8c1.8-1.667,3.629-3.5,5.762-5.761a2.142,2.142,0,0,0,.212-2.468,2.478,2.478,0,0,0-2.306-1.36M76.746,30.1h-.005a1.183,1.183,0,0,1-.846-.406c-.862-.883-.043-1.7.266-2.006q.7-.693,1.389-1.391c1.11-1.116,2.258-2.27,3.422-3.373a1.931,1.931,0,0,1,1.462-.354c.3.04.473.329.64.609a2.952,2.952,0,0,0,.184.288.308.308,0,0,1,.007.359c-.077.113-.146.22-.211.323a3.476,3.476,0,0,1-.45.612q-1.56,1.581-3.135,3.147-.782.781-1.562,1.563a1.755,1.755,0,0,1-1.161.629m5.393-6.934a1.2,1.2,0,0,0-.744.2c-1.157,1.1-2.3,2.248-3.41,3.361q-.694.7-1.391,1.394c-.592.589-.555.838-.259,1.141a.6.6,0,0,0,.409.221h0a1.282,1.282,0,0,0,.726-.449l1.563-1.564q1.57-1.568,3.132-3.144a3.038,3.038,0,0,0,.368-.508c.035-.055.07-.111.107-.168-.033-.053-.064-.106-.1-.159a1.833,1.833,0,0,0-.217-.318,1.7,1.7,0,0,0-.19-.01" fill="#ff6b00"/>
    <path id="Path_181834" data-name="Path 181834" d="M9.2,55.233A2.806,2.806,0,0,1,6.48,53.746a2.434,2.434,0,0,1,.279-2.907c1.846-1.949,3.736-3.862,5.7-5.69a2.539,2.539,0,0,1,3.549.189,2.562,2.562,0,0,1,.191,3.638c-1.8,1.935-3.7,3.791-5.614,5.616a4.117,4.117,0,0,1-1.382.641m5.96-7.943c-.246-.314-.424-.755-.65-.781a1.654,1.654,0,0,0-1.2.29C11.676,48.35,10.1,49.968,8.5,51.555c-.481.477-.815,1.011-.247,1.578s1.1.234,1.58-.246c1.561-1.574,3.136-3.133,4.693-4.71a7.386,7.386,0,0,0,.636-.887" fill="#ff6b00"/>
    <path id="Path_181835" data-name="Path 181835" d="M9.2,55.539H9.192A3.11,3.11,0,0,1,6.2,53.882a2.734,2.734,0,0,1,.331-3.255c2.076-2.191,3.946-4.057,5.715-5.7a2.835,2.835,0,0,1,3.974.195,2.875,2.875,0,0,1,.2,4.066c-1.557,1.671-3.292,3.407-5.626,5.629a3,3,0,0,1-1.182.6c-.113.036-.213.067-.288.1a.31.31,0,0,1-.124.026m4.88-10.719a2.057,2.057,0,0,0-1.415.554c-1.76,1.637-3.62,3.494-5.687,5.675a2.171,2.171,0,0,0-.227,2.559,2.465,2.465,0,0,0,2.4,1.314c.079-.03.174-.061.278-.094a2.5,2.5,0,0,0,.946-.459c2.324-2.213,4.051-3.941,5.6-5.6a2.247,2.247,0,0,0-.182-3.211,2.443,2.443,0,0,0-1.709-.736M8.876,53.737a1.173,1.173,0,0,1-.838-.388,1.171,1.171,0,0,1-.388-.839,1.768,1.768,0,0,1,.636-1.174q.765-.757,1.523-1.521c1.069-1.071,2.173-2.179,3.291-3.239a1.952,1.952,0,0,1,1.45-.373c.3.035.47.307.652.6a3.613,3.613,0,0,0,.2.3.308.308,0,0,1,.009.367c-.08.113-.15.221-.217.324a3.743,3.743,0,0,1-.451.6q-1.336,1.353-2.684,2.7-1.006,1-2.01,2.014a1.8,1.8,0,0,1-1.175.635ZM14.3,46.8a1.261,1.261,0,0,0-.778.219c-1.111,1.054-2.213,2.158-3.278,3.227q-.76.763-1.525,1.523a1.216,1.216,0,0,0-.455.74.745.745,0,0,0,.612.611h0a1.215,1.215,0,0,0,.74-.453q1-1.011,2.012-2.017,1.343-1.343,2.68-2.692a3.227,3.227,0,0,0,.374-.506l.106-.162c-.036-.056-.072-.111-.106-.167a1.892,1.892,0,0,0-.227-.315c-.051-.005-.1-.008-.156-.008" fill="#ff6b00"/>
    <path id="Path_181836" data-name="Path 181836" d="M81.591,55.236a6.5,6.5,0,0,1-1.623-.919c-1.735-1.627-3.4-3.324-5.059-5.035A2.724,2.724,0,1,1,78.732,45.4c1.767,1.705,3.493,3.454,5.207,5.213a2.575,2.575,0,0,1,.516,2.985c-.449,1.051-1.315,1.561-2.864,1.635m-4.875-9.022c-.3.262-.731.459-.749.688a1.717,1.717,0,0,0,.332,1.2c1.552,1.634,3.169,3.207,4.757,4.808.486.49,1.1.809,1.543.172a1.545,1.545,0,0,0-.217-1.448c-1.532-1.653-3.155-3.221-4.761-4.8a6.605,6.605,0,0,0-.9-.617" fill="#ff6b00"/>
    <path id="Path_181837" data-name="Path 181837" d="M81.59,55.544a.3.3,0,0,1-.147-.038c-.085-.046-.2-.1-.329-.154a4.769,4.769,0,0,1-1.357-.81c-1.811-1.7-3.579-3.5-5.07-5.046a3.032,3.032,0,1,1,4.258-4.314c1.9,1.832,3.7,3.666,5.214,5.219a2.888,2.888,0,0,1,.578,3.321c-.5,1.18-1.47,1.741-3.132,1.822H81.59M76.73,44.836a2.45,2.45,0,0,0-1.6,4.233c1.56,1.614,3.252,3.339,5.049,5.025a4.273,4.273,0,0,0,1.185.7c.11.049.21.093.294.135a2.511,2.511,0,0,0,2.515-1.445,2.277,2.277,0,0,0-.453-2.651c-1.51-1.549-3.309-3.38-5.2-5.206a2.588,2.588,0,0,0-1.788-.788M82,53.745a1.732,1.732,0,0,1-1.167-.618q-.739-.745-1.484-1.486c-1.084-1.08-2.2-2.2-3.277-3.327a2,2,0,0,1-.415-1.435c.023-.3.285-.483.562-.678.1-.069.2-.14.291-.218a.305.305,0,0,1,.372-.023c.117.078.229.146.334.21a3.27,3.27,0,0,1,.615.443l.726.713c1.347,1.323,2.74,2.69,4.046,4.1a1.817,1.817,0,0,1,.243,1.833,1.031,1.031,0,0,1-.764.484c-.027,0-.054,0-.082,0m-5.732-6.8a1.42,1.42,0,0,0,.249.944c1.067,1.123,2.185,2.238,3.266,3.315.5.495.993.99,1.486,1.488a1.162,1.162,0,0,0,.761.436c.041,0,.166-.015.313-.223a1.319,1.319,0,0,0-.191-1.064c-1.3-1.4-2.684-2.761-4.025-4.079L77.4,47.05a2.842,2.842,0,0,0-.5-.356l-.167-.1c-.053.039-.107.077-.157.112a1.779,1.779,0,0,0-.3.243" fill="#ff6b00"/>
    <path id="Path_181838" data-name="Path 181838" d="M14.013,20.537l-1.564-.851A37.384,37.384,0,0,1,23.032,7.7l1.043,1.43A36.7,36.7,0,0,0,14.013,20.537" fill="#ff6b00"/>
    <path id="Path_181839" data-name="Path 181839" d="M14.013,20.844a.311.311,0,0,1-.147-.037L12.3,19.956a.307.307,0,0,1-.122-.42A37.54,37.54,0,0,1,22.849,7.453a.307.307,0,0,1,.431.066l1.043,1.43a.307.307,0,0,1-.063.426,36.162,36.162,0,0,0-9.979,11.313.307.307,0,0,1-.268.156M12.87,19.565l1.025.558A36.715,36.715,0,0,1,23.649,9.068l-.682-.936a36.867,36.867,0,0,0-10.1,11.433" fill="#ff6b00"/>
    <rect id="Rectangle_37142" data-name="Rectangle 37142" width="1.645" height="14.914" transform="translate(18.807 74.692)" fill="#ff6b00"/>
    <path id="Path_181840" data-name="Path 181840" d="M20.451,89.913H18.807a.307.307,0,0,1-.307-.307V74.692a.306.306,0,0,1,.307-.307h1.644a.307.307,0,0,1,.308.307V89.606a.308.308,0,0,1-.308.307M19.114,89.3h1.03V75h-1.03Z" fill="#ff6b00"/>
    <path id="Path_181841" data-name="Path 181841" d="M15.827,60.386l-1.473.993c-.841-1.425-1.662-2.819-2.552-4.327l1.586-.85c.825,1.414,1.605,2.753,2.439,4.184" fill="#ff6b00"/>
    <path id="Path_181842" data-name="Path 181842" d="M14.354,61.686a.312.312,0,0,1-.264-.151l-2.552-4.328a.305.305,0,0,1-.031-.238.31.31,0,0,1,.151-.189l1.586-.849a.306.306,0,0,1,.41.116l2.439,4.184A.306.306,0,0,1,16,60.64l-1.473.993a.3.3,0,0,1-.172.053M12.23,57.171l2.223,3.771.964-.65-2.144-3.68Z" fill="#ff6b00"/>
    <path id="Path_181844" data-name="Path 181844" d="M10.093,39.318h-.04c-.78-.009-1.559-.007-2.339-.005H5.745c-.779,0-1.558,0-2.336,0a1.642,1.642,0,0,1-1.324-.439A1.03,1.03,0,0,1,1.88,38a1.8,1.8,0,0,1,1.459-1.134c2.251-.087,4.534-.087,6.785,0A1.8,1.8,0,0,1,11.581,38a1.031,1.031,0,0,1-.2.878,1.621,1.621,0,0,1-1.283.439m-1.4-.621q.682,0,1.365.006a1.159,1.159,0,0,0,.849-.223.416.416,0,0,0,.066-.378,1.323,1.323,0,0,0-.874-.621c-2.236-.087-4.5-.087-6.739,0a1.325,1.325,0,0,0-.876.621c-.042.251.039.345.066.376A1.134,1.134,0,0,0,3.4,38.7c.781-.007,1.562-.006,2.344,0H7.713l.982,0" fill="#ff6b00"/>
    <path id="Path_181848" data-name="Path 181848" d="M14.118,30.1a1.538,1.538,0,0,1-1.059-.534q-.649-.649-1.3-1.3c-1.174-1.165-2.388-2.37-3.549-3.588A1.98,1.98,0,0,1,7.8,23.24c.026-.3.3-.489.572-.671a3.36,3.36,0,0,0,.285-.208.31.31,0,0,1,.366-.023c.112.074.221.137.324.2a3.085,3.085,0,0,1,.625.439c1.076,1.06,2.142,2.128,3.209,3.2q.79.79,1.581,1.581c.694.692.771,1.339.228,1.922a1.193,1.193,0,0,1-.855.426h-.018M8.411,23.315a1.408,1.408,0,0,0,.241.944c1.156,1.212,2.367,2.414,3.538,3.576q.653.648,1.3,1.3a1.042,1.042,0,0,0,.631.354.6.6,0,0,0,.417-.231c.261-.281.311-.546-.213-1.068l-1.582-1.582c-1.065-1.067-2.131-2.135-3.2-3.193a2.611,2.611,0,0,0-.5-.347l-.164-.1q-.078.056-.156.108a1.769,1.769,0,0,0-.307.238" fill="#ff6b00"/>
    <path id="Path_181850" data-name="Path 181850" d="M76.746,30.1h-.005a1.183,1.183,0,0,1-.846-.406c-.862-.883-.043-1.7.266-2.006q.7-.693,1.389-1.391c1.11-1.116,2.258-2.27,3.422-3.373a1.931,1.931,0,0,1,1.462-.354c.3.04.473.329.64.609a2.952,2.952,0,0,0,.184.288.308.308,0,0,1,.007.359c-.077.113-.146.22-.211.323a3.476,3.476,0,0,1-.45.612q-1.56,1.581-3.135,3.147-.782.781-1.562,1.563a1.755,1.755,0,0,1-1.161.629m5.393-6.934a1.2,1.2,0,0,0-.744.2c-1.157,1.1-2.3,2.248-3.41,3.361q-.694.7-1.391,1.394c-.592.589-.555.838-.259,1.141a.6.6,0,0,0,.409.221h0a1.282,1.282,0,0,0,.726-.449l1.563-1.564q1.57-1.568,3.132-3.144a3.038,3.038,0,0,0,.368-.508c.035-.055.07-.111.107-.168-.033-.053-.064-.106-.1-.159a1.833,1.833,0,0,0-.217-.318,1.7,1.7,0,0,0-.19-.01" fill="#ff6b00"/>
    <path id="Path_181855" data-name="Path 181855" d="M51.3,52.485l-.632-1.543A13.98,13.98,0,0,0,58.7,41.99a13.4,13.4,0,0,0-.3-8.7,13.815,13.815,0,0,0-26.445,1.664c-1.572,6.335,1.19,11.768,8.22,16.031L39.6,52.416C34.008,51.146,29.279,43.6,29.818,36.9A15.654,15.654,0,0,1,60.8,35.11c1.409,7.286-2.856,15.155-9.5,17.375" fill="#ff6b00"/>
    <path id="Path_181856" data-name="Path 181856" d="M51.3,52.792a.307.307,0,0,1-.285-.191l-.631-1.543a.306.306,0,0,1,.156-.4A13.735,13.735,0,0,0,58.408,41.9a13.138,13.138,0,0,0-.294-8.5,13.508,13.508,0,0,0-25.859,1.631c-1.545,6.225,1.174,11.505,8.081,15.694a.307.307,0,0,1,.125.378l-.581,1.429a.309.309,0,0,1-.353.184c-5.7-1.295-10.565-8.992-10.014-15.838A15.961,15.961,0,0,1,61.1,35.052c1.451,7.5-2.9,15.452-9.705,17.724a.3.3,0,0,1-.1.016m-.237-1.7.411,1c6.365-2.3,10.4-9.822,9.025-16.93a15.347,15.347,0,0,0-30.374,1.758C29.6,43.4,34.089,50.653,39.411,52.055l.383-.941c-7-4.323-9.736-9.783-8.135-16.231a14.122,14.122,0,0,1,27.031-1.7A13.738,13.738,0,0,1,59,42.078,14.266,14.266,0,0,1,51.063,51.1" fill="#ff6b00"/>
    <path id="Path_181857" data-name="Path 181857" d="M40.268,46.651l-.778,1.333c-4.169-1.877-6.647-7.544-5.577-12.588a11.793,11.793,0,0,1,23.018-.126c1.128,5.057-1.325,10.765-5.546,12.721l-.819-1.4a10.186,10.186,0,0,0,4.848-8.449,9.667,9.667,0,0,0-2.9-7.271,10.028,10.028,0,0,0-14.255.064c-3.433,3.427-4.706,10.954,2,15.714" fill="#ff6b00"/>
    <path id="Path_181858" data-name="Path 181858" d="M51.385,48.3a.307.307,0,0,1-.265-.152l-.819-1.4a.307.307,0,0,1,.09-.408,9.836,9.836,0,0,0,4.716-8.2A9.382,9.382,0,0,0,52.3,31.088a9.494,9.494,0,0,0-6.774-2.85A9.633,9.633,0,0,0,35.8,38.79,10.241,10.241,0,0,0,40.445,46.4a.307.307,0,0,1,.088.4l-.778,1.332a.307.307,0,0,1-.391.126c-4.276-1.924-6.856-7.726-5.752-12.932A12.118,12.118,0,0,1,45.427,25.8h.005a12.138,12.138,0,0,1,11.8,9.4c1.162,5.205-1.4,11.067-5.716,13.067a.309.309,0,0,1-.129.028m-.411-1.617.532.91c3.914-1.993,6.2-7.418,5.125-12.254a11.521,11.521,0,0,0-11.2-8.918h-.005a11.5,11.5,0,0,0-11.214,9.04c-1.025,4.837,1.277,10.2,5.154,12.127l.495-.849a10.773,10.773,0,0,1-4.676-7.9A10.247,10.247,0,0,1,45.48,27.623h.048a10.105,10.105,0,0,1,7.209,3.035,9.97,9.97,0,0,1,2.984,7.493,10.474,10.474,0,0,1-4.747,8.53" fill="#ff6b00"/>
    <path id="Path_181859" data-name="Path 181859" d="M45.485,33.481a4.588,4.588,0,1,1-4.64,4.476,4.622,4.622,0,0,1,4.64-4.476M45.4,35.3a2.773,2.773,0,1,0,2.8,2.744A2.79,2.79,0,0,0,45.4,35.3" fill="#ff6b00"/>
    <path id="Path_181860" data-name="Path 181860" d="M45.432,42.964h-.059a4.929,4.929,0,0,1-4.835-5.014,4.92,4.92,0,0,1,4.951-4.775,4.929,4.929,0,0,1,4.835,5.014,4.914,4.914,0,0,1-4.892,4.776m0-9.176a4.3,4.3,0,0,0-4.278,4.176,4.265,4.265,0,1,0,4.33-4.176H45.43m0,7.362a3.065,3.065,0,1,1,.032,0h-.032M45.407,35.6h0a2.457,2.457,0,0,0-1.695,4.221,2.379,2.379,0,0,0,1.744.711A2.5,2.5,0,0,0,47.9,38.043a2.468,2.468,0,0,0-2.466-2.44h-.024" fill="#ff6b00"/>
    <rect id="Rectangle_37143" data-name="Rectangle 37143" width="1.651" height="14.85" transform="translate(42.763 45.29)" fill="#ff6b00"/>
    <path id="Path_181861" data-name="Path 181861" d="M44.414,60.447H42.763a.306.306,0,0,1-.307-.307V45.29a.306.306,0,0,1,.307-.307h1.651a.306.306,0,0,1,.307.307V60.14a.306.306,0,0,1-.307.307m-1.344-.614h1.037V45.6H43.07Z" fill="#ff6b00"/>
    <rect id="Rectangle_37144" data-name="Rectangle 37144" width="1.651" height="14.85" transform="translate(46.449 45.29)" fill="#ff6b00"/>
    <path id="Path_181862" data-name="Path 181862" d="M48.1,60.447H46.449a.306.306,0,0,1-.307-.307V45.29a.307.307,0,0,1,.307-.307H48.1a.307.307,0,0,1,.307.307V60.14a.306.306,0,0,1-.307.307m-1.344-.614h1.037V45.6H46.756Z" fill="#ff6b00"/>
  </g>
</svg>
