<svg id="Group_120694" data-name="Group 120694" xmlns="http://www.w3.org/2000/svg" xmlns:xlink="http://www.w3.org/1999/xlink" width="301.722" height="301.39" viewBox="0 0 301.722 301.39">
  <defs>
    <clipPath id="clip-path">
      <rect id="Rectangle_37141" data-name="Rectangle 37141" width="301.722" height="301.39" fill="none"/>
    </clipPath>
    <clipPath id="clip-path-3">
      <path id="Path_181732" data-name="Path 181732" d="M545.591,199.445c-23.146,12.6-22.339,58.573,8.2,108.849,17.824,38.55,14.873,46.4,4.277,63.987-2.029,3.368-5.566,7.942-9.395,13.246l63.965,9.22c-7.167-19.473-17.265-39.921-2.223-73.751,7.059-15.876,25.83-43.791,18.085-62.395-8.824-21.195-26.248-12.029-30.681-28.44-5.349-19.8-19.593-34.945-36.6-34.946a32.5,32.5,0,0,0-15.628,4.229" transform="translate(-529.417 -195.216)" fill="#ffb600"/>
    </clipPath>
    <clipPath id="clip-path-5">
      <rect id="Rectangle_37070" data-name="Rectangle 37070" width="104.179" height="210.037" fill="none"/>
    </clipPath>
    <clipPath id="clip-path-6">
      <path id="Path_181737" data-name="Path 181737" d="M610.417,321c7.059-15.876,25.829-43.791,18.085-62.395-8.824-21.195-26.248-12.029-30.681-28.44-6.929-25.649-28.777-43.482-52.228-30.717-23.146,12.6-22.339,58.573,8.2,108.849,17.824,38.55,14.873,46.4,4.277,63.987-7.422,12.32,25.806,8.406,52.347-51.284" transform="translate(-529.418 -195.216)" fill="none"/>
    </clipPath>
    <clipPath id="clip-path-7">
      <path id="Path_181738" data-name="Path 181738" d="M77.481,708.221c-13.014,8.411-.117,30.966-9.03,45.035-8.47,13.369-3.482,26.915,11.353,36.083s10.235,17.6,7.516,31.518c-2.4,12.31,8.112,16.73,17.361,18.5l24.554,7.373c25.043-14.241,26.54-34.695,14.6-58.694-12.652-4.784-28.222,2.856-24.33-26.581,3.426-25.912-12.766-56.532-31.555-56.53a19.111,19.111,0,0,0-10.471,3.292" transform="translate(-64.333 -704.929)" fill="none"/>
    </clipPath>
    <linearGradient id="linear-gradient" x1="0.207" y1="1.602" x2="0.207" y2="1.602" gradientUnits="objectBoundingBox">
      <stop offset="0" stop-color="#e38ddd"/>
      <stop offset="0.004" stop-color="#e38ddd"/>
      <stop offset="1" stop-color="#9571f6"/>
    </linearGradient>
    <clipPath id="clip-path-9">
      <rect id="Rectangle_37073" data-name="Rectangle 37073" width="88.502" height="139.427" fill="none"/>
    </clipPath>
    <clipPath id="clip-path-10">
      <path id="Path_181743" data-name="Path 181743" d="M113.488,840.492c-8.854-.747-29.433-2.911-26.167-19.634,2.719-13.922,7.318-22.35-7.516-31.518s-19.822-22.714-11.353-36.083c8.913-14.069-3.985-36.624,9.03-45.035,22.677-14.656,46.078,22.585,42.026,53.238s13,21.1,25.882,27.239c17.589,8.381-24.748,52.4-31.9,51.793" transform="translate(-64.333 -704.93)" fill="none"/>
    </clipPath>
    <clipPath id="clip-path-11">
      <path id="Path_181744" data-name="Path 181744" d="M145.135,2724.925a3.719,3.719,0,0,0,2.772,3.814l76.327,13.823a10.4,10.4,0,0,0,2.739.13l185.156-15.761a3.536,3.536,0,0,0,2.933-3.723v-2.93L145.135,2717.9Z" transform="translate(-145.135 -2717.905)" fill="none"/>
    </clipPath>
    <linearGradient id="linear-gradient-2" x1="-0.076" y1="0.731" x2="-0.075" y2="0.731" gradientUnits="objectBoundingBox">
      <stop offset="0" stop-color="#40447e"/>
      <stop offset="0.996" stop-color="#3c3b6b"/>
      <stop offset="1" stop-color="#3c3b6b"/>
    </linearGradient>
    <clipPath id="clip-path-12">
      <path id="Path_181745" data-name="Path 181745" d="M120.854,1280.756a5.7,5.7,0,0,0-5.65,5.731V1416.4a5.516,5.516,0,0,0,2.779,4.844,5.32,5.32,0,0,0,1.788.565,5.509,5.509,0,0,0,.63.035c.15,0,.3-.029.453-.039l1.27-.146h0l43.73-3.271,38.846-2.9,85.334-6.476a4.588,4.588,0,0,0,3.165-1.76,6.218,6.218,0,0,0,1.358-3.894V1285.926c0-2.934-2.032-5.17-4.526-5.17Z" transform="translate(-115.204 -1280.756)" fill="none"/>
    </clipPath>
    <linearGradient id="linear-gradient-3" x1="0.042" y1="1.044" x2="0.043" y2="1.044" xlink:href="#linear-gradient-2"/>
    <clipPath id="clip-path-13">
      <path id="Path_181746" data-name="Path 181746" d="M149.337,1280.756a5.681,5.681,0,0,0-5.626,5.731V1416.4a5.852,5.852,0,0,0,.286,1.6,5.207,5.207,0,0,0,3.56,3.623,1.223,1.223,0,0,0,.351.037h0c.143,0,.289.1.436.121a5.047,5.047,0,0,0,.99.073l44.72-3.4L318.516,1409a3.861,3.861,0,0,0,.79-.153c.112-.031.221-.126.33-.126h0a5.681,5.681,0,0,0,1.919-1.327,6.152,6.152,0,0,0,1.508-4.036V1285.926c0-2.934-2.056-5.17-4.55-5.17Z" transform="translate(-143.711 -1280.756)" fill="none"/>
    </clipPath>
    <linearGradient id="linear-gradient-4" x1="-0.077" y1="1.269" x2="-0.076" y2="1.269" xlink:href="#linear-gradient-2"/>
    <clipPath id="clip-path-15">
      <rect id="Rectangle_37078" data-name="Rectangle 37078" width="177.712" height="141.317" fill="none"/>
    </clipPath>
    <clipPath id="clip-path-16">
      <path id="Path_181750" data-name="Path 181750" d="M326.547,2617.146l-181.412,13.517,79.1,14.325a10.406,10.406,0,0,0,2.739.13l188.09-16.011-85.629-11.87a13.658,13.658,0,0,0-1.874-.129q-.506,0-1.012.038" transform="translate(-145.135 -2617.108)" fill="none"/>
    </clipPath>
    <linearGradient id="linear-gradient-5" x1="-0.051" y1="1.831" x2="-0.051" y2="1.831" xlink:href="#linear-gradient-2"/>
    <clipPath id="clip-path-18">
      <rect id="Rectangle_37082" data-name="Rectangle 37082" width="197.774" height="18.636" fill="none"/>
    </clipPath>
    <clipPath id="clip-path-19">
      <path id="Path_181751" data-name="Path 181751" d="M422.293,2654.429l151.031-11.421,46.743,6.427-149.73,12.209Z" transform="translate(-422.293 -2643.008)" fill="none"/>
    </clipPath>
    <linearGradient id="linear-gradient-6" x1="-0.204" y1="2.627" x2="-0.203" y2="2.627" xlink:href="#linear-gradient-2"/>
    <clipPath id="clip-path-20">
      <rect id="Rectangle_37083" data-name="Rectangle 37083" width="163.7" height="125.227" fill="none"/>
    </clipPath>
    <clipPath id="clip-path-21">
      <path id="Path_181755" data-name="Path 181755" d="M413.15,895.231v138.631a7.392,7.392,0,0,0,7.928,7.422l185.7-10.723c3.541-.2,6.411-3.536,6.411-7.428V898.965c0-3.892-2.87-7.123-6.411-7.2l-185.7-4.229-.184,0a7.7,7.7,0,0,0-7.745,7.7" transform="translate(-413.15 -887.529)" fill="none"/>
    </clipPath>
    <linearGradient id="linear-gradient-7" x1="-0.197" y1="1.407" x2="-0.197" y2="1.407" gradientUnits="objectBoundingBox">
      <stop offset="0" stop-color="#fff"/>
      <stop offset="0.996" stop-color="#ebeff2"/>
      <stop offset="1" stop-color="#ebeff2"/>
    </linearGradient>
    <clipPath id="clip-path-23">
      <path id="Path_181760" data-name="Path 181760" d="M516.353,1383.161l182.2-9.777v-98.522l-182.2-.627Z" transform="translate(-516.353 -1274.236)" fill="none"/>
    </clipPath>
    <linearGradient id="linear-gradient-8" x1="-0.772" y1="1.184" x2="-0.771" y2="1.184" gradientUnits="objectBoundingBox">
      <stop offset="0" stop-color="#ff9085"/>
      <stop offset="1" stop-color="#fb6fbb"/>
    </linearGradient>
    <clipPath id="clip-path-25">
      <rect id="Rectangle_37088" data-name="Rectangle 37088" width="154.002" height="161.14" fill="none"/>
    </clipPath>
    <clipPath id="clip-path-26">
      <path id="Path_181764" data-name="Path 181764" d="M2671.746,1308.688c-1.306.6-6.419,6.927-6.419,6.927l2.161,1.406a8.35,8.35,0,0,1,5.878-2.692c3.83-.159,9.043-2.547,11.281-2.775.539-.055.807-.217.853-.42.094-.418-2.388-1-4.592-1.055a15.607,15.607,0,0,0-4.008.451c-1.49.347-2.4.695-2.712.232-.59-.881,1.936-3.327,1.473-3.865a.25.25,0,0,0-.2-.077c-.6,0-2.11,1.134-3.715,1.867" transform="translate(-2665.327 -1306.821)" fill="none"/>
    </clipPath>
    <linearGradient id="linear-gradient-9" x1="-11.382" y1="8.882" x2="-11.377" y2="8.882" gradientUnits="objectBoundingBox">
      <stop offset="0" stop-color="#ffc444"/>
      <stop offset="0.996" stop-color="#f36f56"/>
      <stop offset="1" stop-color="#f36f56"/>
    </linearGradient>
    <clipPath id="clip-path-27">
      <path id="Path_181765" data-name="Path 181765" d="M1857.748,1131.045c-6.354,3.715-5.506,15.972-5.227,19.991a47.021,47.021,0,0,0,8.419,23.279,48.063,48.063,0,0,0,7.246,8.43c2.6,2.317,24.2,20.943,45.764,9.936q.758-.387,1.491-.811c11.8-6.8,19.169-20.6,19.482-35.8l-5.922-3.981c-10.519,14.248-17.521,16.247-21.928,15.536-9.835-1.589-10.265-17.23-28.148-29.972-3.395-2.418-10.773-7.676-16.936-7.676a8.269,8.269,0,0,0-4.243,1.071" transform="translate(-1852.323 -1129.974)" fill="none"/>
    </clipPath>
    <linearGradient id="linear-gradient-10" x1="-1.459" y1="1.908" x2="-1.458" y2="1.908" gradientUnits="objectBoundingBox">
      <stop offset="0" stop-color="#aa80f9"/>
      <stop offset="0.996" stop-color="#6165d7"/>
      <stop offset="1" stop-color="#6165d7"/>
    </linearGradient>
    <clipPath id="clip-path-28">
      <path id="Path_181767" data-name="Path 181767" d="M493.988,495.585l-2.772,150.592,48.978,7.705,105.532-6.09,82.865-93.757L675.547,470.2Z" transform="translate(-491.216 -470.197)" fill="none"/>
    </clipPath>
    <clipPath id="clip-path-29">
      <rect id="Rectangle_37093" data-name="Rectangle 37093" width="54.501" height="32.839" fill="none"/>
    </clipPath>
    <clipPath id="clip-path-30">
      <path id="Path_181766" data-name="Path 181766" d="M1997.048,1507.438q-.732.422-1.491.81c-21.56,11.007-43.164-7.619-45.764-9.936a48.064,48.064,0,0,1-7.246-8.429c1.043-4.724,2.462-10.986,2.462-10.986s9.253-1.15,13.642,9.816c1.586,3.962,3.5,7.822,6.744,10.6,3.27,2.808,5.8,2.38,9.924,1.738,3.793-.589,7.757,2.3,11.043,3.7,3.4,1.442,6.93,2.929,10.687,2.688" transform="translate(-1942.546 -1478.862)" fill="none"/>
    </clipPath>
    <linearGradient id="linear-gradient-11" x1="-3.062" y1="2.613" x2="-3.06" y2="2.613" xlink:href="#linear-gradient-10"/>
    <clipPath id="clip-path-31">
      <path id="Path_181768" data-name="Path 181768" d="M997.193,1087.772a241.89,241.89,0,0,1,9.88,25.841c5.532,17.377,9.855,30.953,10.114,48.675.057,3.863.019,14.651.632,30.533.171,4.421.346,8.033.75,10.841l69.485-4.01c1-5.61,1.33-14.917,3.118-31.115,1.9-17.234,2.716-17.409,3.547-29.627a281.292,281.292,0,0,0,.43-30.215c-1.319-7.632-1.2-16.229-2.52-23.858-9.741-2.9-23.462-4.57-37.727-5.291q-3.914-.2-7.668-.194a153.942,153.942,0,0,0-50.043,8.419" transform="translate(-997.193 -1079.353)" fill="none"/>
    </clipPath>
    <linearGradient id="linear-gradient-12" x1="-0.443" y1="1.475" x2="-0.442" y2="1.475" xlink:href="#linear-gradient-10"/>
    <clipPath id="clip-path-32">
      <path id="Path_181769" data-name="Path 181769" d="M1439.893,907.436c-.664,2.743-1.076,3.436-1.585,3.988-.766.83-1.9,1.5-8.146,2.691-3.4.65-3.83.6-3.922.939-.448,1.66,8.407,7.976,17.941,7.2,5.841-.478,11.295-3.567,11.064-5.385s-6.076-1.225-7.634-4.607c-1.083-2.352.429-5.5,2.159-8.076-1.387-3.084-7.054-4.026-8.44-7.108a53.783,53.783,0,0,1-1.437,10.364" transform="translate(-1426.224 -897.072)" fill="#ffb580"/>
    </clipPath>
    <clipPath id="clip-path-33">
      <path id="Path_181770" data-name="Path 181770" d="M1539.623,823.043c-1.069,2.03.788,6.5,1.073,7.3.324.905.977,1.25,1.562,1.956.81.979,2.078,2.535,4.144,5.134a16.057,16.057,0,0,1,.976-2.548,13.881,13.881,0,0,1,1.916-2.946c2.056-2.316,3.585-1.523,4.975-3.225a6.5,6.5,0,0,0,.25-7.25c-1.265-1.87-3.387-2.257-4.657-2.489a10.789,10.789,0,0,0-1.93-.17c-3.266,0-6.806,1.386-8.308,4.235" transform="translate(-1539.294 -818.808)" fill="none"/>
    </clipPath>
    <linearGradient id="linear-gradient-13" x1="-5.916" y1="9.577" x2="-5.912" y2="9.577" gradientUnits="objectBoundingBox">
      <stop offset="0" stop-color="#311944"/>
      <stop offset="1" stop-color="#6b3976"/>
    </linearGradient>
    <clipPath id="clip-path-34">
      <path id="Path_181771" data-name="Path 181771" d="M1561.718,895.329c-.9.2-1.224.567-2.7.868-1.366.278-1.739.1-2.163.429-.531.412-.96,1.475-.263,4.471a2.336,2.336,0,0,0-2.48-1.014,1.485,1.485,0,0,0-.607.547c-.666,1.112.273,2.644,2.54,3.641a8.357,8.357,0,0,0,7.083,4.264c4.357-.019,5.513-10.056,2.85-12.366a5.009,5.009,0,0,0-3.1-.961,5.275,5.275,0,0,0-1.151.122" transform="translate(-1553.29 -895.207)" fill="#ffb580"/>
    </clipPath>
    <clipPath id="clip-path-35">
      <path id="Path_181772" data-name="Path 181772" d="M1557.07,905.7a6.408,6.408,0,0,0,.4.88,10.409,10.409,0,0,0,2.079,2.34c1.144,1.372.049,2.462,1,4.445a6.321,6.321,0,0,0,3.416,2.924c.888.365,3.013,1.236,4.77.13,1.632-1.028,2.4-3.416,1.843-5.894a9.641,9.641,0,0,0-3.15-.386c-2.177.1-2.579.9-3.882.68a5.525,5.525,0,0,1-4.028-5.378c.107-1.141.787-1.909.587-2.083a.133.133,0,0,0-.091-.029c-.442,0-1.853,1.306-2.943,2.373" transform="translate(-1557.07 -903.323)" fill="none"/>
    </clipPath>
    <linearGradient id="linear-gradient-14" x1="-7.815" y1="11.646" x2="-7.81" y2="11.646" xlink:href="#linear-gradient-13"/>
    <clipPath id="clip-path-36">
      <path id="Path_181773" data-name="Path 181773" d="M1655.37,987a5.111,5.111,0,0,1-2.579.252c-.078-.01-.167.009-.179.051a1.976,1.976,0,0,0,1.929.716c.69-.155,1.254-.788,1.171-.964-.023-.049-.1-.066-.194-.066a1.252,1.252,0,0,0-.148.01" transform="translate(-1652.611 -986.988)" fill="#ffb580"/>
    </clipPath>
    <clipPath id="clip-path-37">
      <path id="Path_181774" data-name="Path 181774" d="M1117.668,1908.723l-4.343.2-1.106,4.81,5.837-1.127c.465.854,3.2.016,3.834-1.421s4.161-2.279,5.743-2.08,3.166-1.616,2.77-1.949a18.425,18.425,0,0,0-5.808-2.219,1.729,1.729,0,0,0-.229-.014c-2.256,0-6.7,3.8-6.7,3.8" transform="translate(-1112.22 -1904.919)" fill="#ffb580"/>
    </clipPath>
    <clipPath id="clip-path-38">
      <path id="Path_181775" data-name="Path 181775" d="M599.281,1188.885a40.516,40.516,0,0,0,12.889,29.931c11.548,10.357,31.014,13.737,36.75,6.181,1.295-1.705,2.071-4.207,1.767-7.91-10.009-1.666-17.863-8.056-18.989-15.064-1.512-9.406,8.69-22.451,25.51-22.542l-12.118-37.722c-27.227,6.72-45.482,26.64-45.808,47.126" transform="translate(-599.276 -1141.758)" fill="none"/>
    </clipPath>
    <linearGradient id="linear-gradient-15" x1="-0.309" y1="2.144" x2="-0.309" y2="2.144" xlink:href="#linear-gradient-10"/>
    <clipPath id="clip-path-40">
      <rect id="Rectangle_37103" data-name="Rectangle 37103" width="78.101" height="90.047" fill="none"/>
    </clipPath>
    <clipPath id="clip-path-41">
      <path id="Path_181776" data-name="Path 181776" d="M1197.7,1591.378c-8.914-4.065-8.862-12.2-17.179-15.717-11.854-5.006-24.932,6.058-26.972,2.912-2.123-3.272,13.492-13.009,11.413-22.851-1.652-7.82-12.55-6.572-18.38-17.308-5.528-10.178-.169-19.473-5.064-23.039-1.755-1.279-4.849-1.808-10.713.811,4.088,13.3,7.021,25.026,7.234,39.524.056,3.863.019,14.651.632,30.533.4,10.3.818,16.2,4.113,17.788,3.438,1.651,6.227-3.218,14.568-6.018,6.131-2.058,12.313-1.387,24.44.041,18.118,2.133,19.4,4.8,22.959,2.661,2.316-1.4,3.418-3.531,4.155-7.655a21.662,21.662,0,0,1-11.206-1.683" transform="translate(-1130.801 -1514.318)" fill="none"/>
    </clipPath>
    <linearGradient id="linear-gradient-16" x1="-0.773" y1="1.529" x2="-0.772" y2="1.529" xlink:href="#linear-gradient-10"/>
    <clipPath id="clip-path-43">
      <path id="Path_181781" data-name="Path 181781" d="M1771.776,568.455v28.088l-8.32,6.869,86.911,1.148a3.312,3.312,0,0,0,3.429-3.147V570.943a3.451,3.451,0,0,0-3.381-3.3l-74.938-2.4-.125,0a3.433,3.433,0,0,0-3.577,3.212" transform="translate(-1763.456 -565.243)" fill="none"/>
    </clipPath>
    <linearGradient id="linear-gradient-17" x1="-1.864" y1="6.289" x2="-1.863" y2="6.289" xlink:href="#linear-gradient-10"/>
    <clipPath id="clip-path-44">
      <path id="Path_181782" data-name="Path 181782" d="M1787.292,568.455v28.088l-8.417,6.869,86.774,1.148a3.19,3.19,0,0,0,3.292-3.147V570.943a3.37,3.37,0,0,0-3.292-3.3l-74.8-2.4-.124,0a3.308,3.308,0,0,0-3.436,3.212" transform="translate(-1778.876 -565.243)" fill="none"/>
    </clipPath>
    <linearGradient id="linear-gradient-18" x1="-1.736" y1="3.196" x2="-1.735" y2="3.196" xlink:href="#linear-gradient"/>
    <clipPath id="clip-path-46">
      <path id="Path_181786" data-name="Path 181786" d="M731.163,355c-2.856.834-4.3,9.078-1.79,15.541,2.02,5.208,5.031,5.21,6.849,10.521,2.253,6.583-.688,11.5.842,12.2,1.788.815,8.062-4.884,9.257-12.2,1.214-7.438-3.294-13.632-7.153-18.934-2.395-3.29-5.241-7.2-7.494-7.2a1.809,1.809,0,0,0-.51.072" transform="translate(-728.082 -354.924)" fill="none"/>
    </clipPath>
    <linearGradient id="linear-gradient-19" x1="-3.306" y1="6.832" x2="-3.301" y2="6.832" xlink:href="#linear-gradient-8"/>
    <clipPath id="clip-path-47">
      <path id="Path_181787" data-name="Path 181787" d="M703.38,712.734c-1.182,4.032,5.436,10.13,12.023,12.54,6.605,2.417,13.518,1.248,13.574,2.068.024.347-1.206.636-1.939.905-2.62.963-5.75,4.2-7.631,14.522l2.541,5.926c1.939-1.465,20.137-15.459,16.6-24.714-.622-1.624-1.773-2.738-4.266-4.525A69.446,69.446,0,0,0,709.844,708.6c-5.345,1.273-6.248,3.4-6.464,4.137" transform="translate(-703.243 -708.597)" fill="none"/>
    </clipPath>
    <linearGradient id="linear-gradient-20" x1="-1.658" y1="5.829" x2="-1.655" y2="5.829" gradientUnits="objectBoundingBox">
      <stop offset="0" stop-color="#311944"/>
      <stop offset="1" stop-color="#a03976"/>
    </linearGradient>
    <clipPath id="clip-path-48">
      <path id="Path_181788" data-name="Path 181788" d="M883.183,1416.878s-1.113.4-1.117,1.277,1.127,4.758,2.357,6.135,1.339-.677,1.263-2a23.924,23.924,0,0,0-.7-4.861c-.281-.529-1.58-.549-1.776-.549h-.025" transform="translate(-882.066 -1416.878)" fill="none"/>
    </clipPath>
    <linearGradient id="linear-gradient-21" x1="-8.641" y1="28.923" x2="-8.63" y2="28.923" gradientUnits="objectBoundingBox">
      <stop offset="0" stop-color="#444b8c"/>
      <stop offset="0.996" stop-color="#26264f"/>
      <stop offset="1" stop-color="#26264f"/>
    </linearGradient>
    <clipPath id="clip-path-49">
      <path id="Path_181789" data-name="Path 181789" d="M715.612,775.042c6.605,2.417,13.518,1.248,13.574,2.068.024.347-1.206.636-1.939.905-2.62.963-5.75,4.2-7.631,14.522l1.441,3.361a11.532,11.532,0,0,1,1.923-5.559c2.264-3.27,5.479-3.814,8.791-9.135,1.218-1.957,3.2-5.14,2.069-7.239-1.355-2.516-6.446-2.111-8.618-2.068-5.084.1-12.24-1.456-21.748-8.276.125,3.967,6.134,9.225,12.138,11.422" transform="translate(-703.474 -763.62)" fill="none"/>
    </clipPath>
    <linearGradient id="linear-gradient-22" x1="-2.133" y1="7.078" x2="-2.13" y2="7.078" xlink:href="#linear-gradient-20"/>
    <clipPath id="clip-path-50">
      <path id="Path_181790" data-name="Path 181790" d="M887.314,1381.051a11.081,11.081,0,0,0,.73,3.272c.252.585.883,1.861,1.184,1.773s-.009-1.5-.247-5.437c-.035-.571-.14-2.388-.14-2.388l-1.812-.553c.066,1.357.181,2.491.285,3.333" transform="translate(-887.029 -1377.718)" fill="#ffb580"/>
    </clipPath>
    <clipPath id="clip-path-51">
      <path id="Path_181791" data-name="Path 181791" d="M562.373,715.01a5.074,5.074,0,0,0,.082,3.792c2.189,6.666,8.085,9.837,14.479,15.182,7.783,6.505,11.674,9.758,13.017,15.062,1.55,6.123-1.68,8.867-.591,17.5A34.057,34.057,0,0,0,593.3,778.56l1.589-.638a167.3,167.3,0,0,0,3.261-18.785c.923-7.98,1.367-12.063.466-16.615-1.69-8.539-6.359-14.266-9.429-18.031a53.756,53.756,0,0,0-13.962-12.066,30.093,30.093,0,0,0-4.989-.453c-4.023,0-6.917,1.049-7.865,3.039" transform="translate(-562.033 -711.971)" fill="none"/>
    </clipPath>
    <linearGradient id="linear-gradient-23" x1="-0.459" y1="3.3" x2="-0.457" y2="3.3" xlink:href="#linear-gradient-20"/>
    <clipPath id="clip-path-52">
      <path id="Path_181792" data-name="Path 181792" d="M0,216.326v.01c0,.1,0,.2,0,.3.144,5.856,4.5,12.567,10.073,14.581,3.246,1.174,6.749.8,7.749,2.912.712,1.5-.888,2.66-.737,5.277.194,3.375,3.1,5.743,3.569,6.125,4.355,3.55,14.12,1.757,20.788-3.266,12.024-9.058,10.2-25.776,19.927-27.868,1.788-.385,4.729-.308,7.533-2.516.844-.665,3.834-3.019,3.471-6.388-.32-2.966-3.131-4.56-3.476-4.75-1.99-1.1-3.974-.852-6.174-.551-2.853.39-3.8,1.17-5.783,1.7a10.179,10.179,0,0,1-6.5-.429,13.493,13.493,0,0,0-5-.775c-6.312.3-6.857,4.959-12.168,5.075-5.961.131-7.1-5.7-12.989-6.692a10.638,10.638,0,0,0-1.761-.142c-7.98,0-18.52,8.091-18.525,17.4" transform="translate(0 -198.931)" fill="none"/>
    </clipPath>
    <linearGradient id="linear-gradient-24" x1="0.078" y1="3.443" x2="0.079" y2="3.443" xlink:href="#linear-gradient-13"/>
    <clipPath id="clip-path-53">
      <path id="Path_181793" data-name="Path 181793" d="M331.476,338.2a127.914,127.914,0,0,0-13.912.949,162.437,162.437,0,0,0,.64,16.83c.883,9.725,2.313,15.525-.831,17.947-2.016,1.553-4.075.3-7.037,2.689-2.461,1.983-2.057,3.666-4.185,4.707a7.167,7.167,0,0,1-4.887.177c-1.265-.291-2.241-.583-2.611-.048-.575.832.7,3.107,2.456,4.654,4.7,4.15,13.676,3.819,19.65.388,1.889-1.085,2.643-2,6.722-4.4a58.174,58.174,0,0,1,6.076-3.232c7.8-3.419,13.953-2.437,14.231-4.218.13-.836-1.236-.985-2.458-2.745-1.758-2.533-1.33-5.725-.4-12.008.726-4.913,1.37-6.039.549-8.135-.842-2.15-.43-3.062-.866-5.063-.729-3.346.554-4.308-.195-6.228-.382-.978-1.818-2.283-11.368-2.282q-.752,0-1.572.011" transform="translate(-298.513 -338.189)" fill="none"/>
    </clipPath>
    <linearGradient id="linear-gradient-25" x1="-0.237" y1="3.874" x2="-0.236" y2="3.874" xlink:href="#linear-gradient-8"/>
    <clipPath id="clip-path-54">
      <path id="Path_181794" data-name="Path 181794" d="M582.609,297.681c-1.5.928-3.914,2.141-4.18,2.47s7.326,1.629,12.05-.755c0,0,.732-.407-2.116-.976-.607-.121-.488-1.3-.407-2.522l-.57-1.058s-3.282,1.913-4.778,2.841" transform="translate(-578.422 -294.84)" fill="#ffb580"/>
    </clipPath>
    <clipPath id="clip-path-55">
      <path id="Path_181795" data-name="Path 181795" d="M660.279,258.038c-.231-.506-.644-.771-.921-.688-.352.105-.4.746-.416.891a1.8,1.8,0,0,0,.266,1.065,3.464,3.464,0,0,0,1.605,3.72c1.963,1.1,5.284-3.415,4.664-5.093a2.966,2.966,0,0,0-1.719-1.521,1.945,1.945,0,0,0-.542-.063,3.26,3.26,0,0,0-2.938,1.689" transform="translate(-658.937 -256.349)" fill="#ffb580"/>
    </clipPath>
    <clipPath id="clip-path-57">
      <rect id="Rectangle_37119" data-name="Rectangle 37119" width="47.567" height="44.737" fill="none"/>
    </clipPath>
    <clipPath id="clip-path-58">
      <path id="Path_181796" data-name="Path 181796" d="M336.607,432.115c-2.259.936-2.564,2.959-5.687,4.107-2.979,1.095-3.979-.277-6.95.632-4.463,1.365-6.169,5.672-6.845,5.265-.619-.372-.025-4.492,2.843-7.161,3.294-3.065,6.843-1.662,8.951-4.844.82-1.238,1.453-3.216.737-4.739-.97-2.063-3.5-1.348-4.844-3.054-2.411-3.066,3.231-8.595,1.685-13.269-.617-1.865-2.582-4.2-8.919-5.768.086,4.685.356,8.6.626,11.573.883,9.725,2.313,15.525-.831,17.947-2.016,1.553-4.075.3-7.037,2.689-2.461,1.983-2.057,3.666-4.185,4.707-3.213,1.57-6.715-1-7.5.129-.575.833.7,3.107,2.456,4.654,4.7,4.15,13.676,3.819,19.65.388,1.889-1.085,2.643-2,6.722-4.4a58.19,58.19,0,0,1,6.076-3.232c5.471-2.4,10.132-2.631,12.523-3.172-4.747-3.166-7.639-3.218-9.473-2.458" transform="translate(-298.513 -403.284)" fill="none"/>
    </clipPath>
    <linearGradient id="linear-gradient-26" x1="-0.285" y1="4.125" x2="-0.283" y2="4.125" xlink:href="#linear-gradient-8"/>
    <clipPath id="clip-path-59">
      <path id="Path_181797" data-name="Path 181797" d="M627.059,748.461a1.042,1.042,0,0,0-.834.49l-.686,1.1a.806.806,0,0,0,.715,1.231l26.278-1-.664-3.029Z" transform="translate(-625.416 -747.254)" fill="none"/>
    </clipPath>
    <linearGradient id="linear-gradient-27" x1="-2.177" y1="56.733" x2="-2.174" y2="56.733" xlink:href="#linear-gradient-21"/>
    <clipPath id="clip-path-60">
      <path id="Path_181798" data-name="Path 181798" d="M828.453,602.605l-25.63.5A2.15,2.15,0,0,0,801,604.189L792.121,619.8l27.068-1.078a2.2,2.2,0,0,0,1.8-1.07l8.223-13.737a.868.868,0,0,0-.743-1.313h-.018" transform="translate(-792.121 -602.605)" fill="none"/>
    </clipPath>
    <linearGradient id="linear-gradient-28" x1="-2.021" y1="14.177" x2="-2.018" y2="14.177" xlink:href="#linear-gradient-21"/>
    <clipPath id="clip-path-62">
      <rect id="Rectangle_37124" data-name="Rectangle 37124" width="29.413" height="16.713" fill="none"/>
    </clipPath>
    <clipPath id="clip-path-63">
      <path id="Path_181799" data-name="Path 181799" d="M801,608.791a2.15,2.15,0,0,1,1.828-1.087l.562-.011a3.994,3.994,0,0,0,.844,2.2c1.58,1.908,4.206.731,6.163,2.75,2.15,2.217.164,4.857,2.086,6.921,2.023,2.172,5.295.4,9.055,1.794l-.542.9a2.2,2.2,0,0,1-1.8,1.07l-27.068,1.078Z" transform="translate(-792.12 -607.693)" fill="none"/>
    </clipPath>
    <linearGradient id="linear-gradient-29" x1="-2.267" y1="7.713" x2="-2.265" y2="7.713" xlink:href="#linear-gradient-21"/>
    <clipPath id="clip-path-64">
      <path id="Path_181800" data-name="Path 181800" d="M371.952,382.37c5.467,5.331,15.68,5.95,25.056,1.671l.969-2.558c-3.569-.978-8.5-2.424-13.567-4.233a3.88,3.88,0,0,1-2.043-1.469c-2.6-3.442,4.01-9.515,3.891-17.395-.082-5.462-3.394-11.71-6.311-11.781H379.9c-5.954,0-18.927,25.054-7.943,35.765" transform="translate(-367.681 -346.605)" fill="none"/>
    </clipPath>
    <linearGradient id="linear-gradient-30" x1="-0.342" y1="4.947" x2="-0.341" y2="4.947" xlink:href="#linear-gradient-8"/>
    <clipPath id="clip-path-65">
      <path id="Path_181801" data-name="Path 181801" d="M673.678,706.879a2.021,2.021,0,0,0-1.117,1.116,1.634,1.634,0,0,0,.473,1.7c.658.494,1.489-.078,3.3-.246a10.257,10.257,0,0,1,2.365.058c1.321.822,2.42,1.108,2.7.762.354-.432-.618-1.778-.7-1.89a6.7,6.7,0,0,0-1.933-1.386,7.4,7.4,0,0,0-2.876-.63,4.691,4.691,0,0,0-2.219.519" transform="translate(-672.494 -706.36)" fill="#ffb580"/>
    </clipPath>
    <clipPath id="clip-path-66">
      <path id="Path_181802" data-name="Path 181802" d="M2244.638,1217.761v36.612a10.1,10.1,0,0,0,9.989,9.835l21.845.538,10.194,12.047a1.789,1.789,0,0,0,2.448.269l9.8-11.763,22.527.555a8.906,8.906,0,0,0,9.2-8.93v-34.963a9.8,9.8,0,0,0-9.2-9.653l-66.818-3.6q-.285-.015-.566-.015a9.158,9.158,0,0,0-9.423,9.066" transform="translate(-2244.638 -1208.695)" fill="none"/>
    </clipPath>
    <linearGradient id="linear-gradient-31" x1="-1.852" y1="1.957" x2="-1.851" y2="1.957" gradientUnits="objectBoundingBox">
      <stop offset="0" stop-color="#311944"/>
      <stop offset="1" stop-color="#893976"/>
    </linearGradient>
    <clipPath id="clip-path-67">
      <path id="Path_181803" data-name="Path 181803" d="M2258.563,1206.621v36.612a10.1,10.1,0,0,0,9.989,9.835l21.845.538,9.945,11.753a1.789,1.789,0,0,0,2.714.02l9.787-11.22,22.527.555a8.906,8.906,0,0,0,9.2-8.93v-34.963a9.8,9.8,0,0,0-9.2-9.653l-66.818-3.6c-.19-.01-.379-.015-.566-.015a9.159,9.159,0,0,0-9.423,9.066" transform="translate(-2258.563 -1197.555)" fill="#ff6b00"/>
    </clipPath>
    <clipPath id="clip-path-69">
      <path id="Path_181811" data-name="Path 181811" d="M1628.762,2162.262l-24.057,5.842a2.7,2.7,0,0,0-1.849,3.69l13.133,30.764a2.7,2.7,0,0,0,3.278,1.524l23-7.038a2.7,2.7,0,0,0,1.712-3.609l-12.08-29.568a2.7,2.7,0,0,0-3.142-1.605" transform="translate(-1602.638 -2162.185)" fill="#ffe39f"/>
    </clipPath>
    <clipPath id="clip-path-70">
      <path id="Path_181812" data-name="Path 181812" d="M1624.858,2345.154a4.049,4.049,0,0,0,.464,1.882l2.236,4.263.422,3.881,2.025-.844-.169-2.531c.506-.422-.253-4.556.253-5.062s.59-1.856-.084-1.519a20.337,20.337,0,0,0-2.447,1.94l-2.7-6.243Z" transform="translate(-1624.858 -2340.921)" fill="#ffb580"/>
    </clipPath>
    <clipPath id="clip-path-71">
      <path id="Path_181813" data-name="Path 181813" d="M1903.431,2043.847c-12.7,1.932-16.238,1.271-21.767,4.893-2.337,1.531-6.844,4.484-8.943,9.618-4.023,9.836,5.3,16.643,12.486,41.678,3.09,10.769,4.635,16.153,4.219,22.948-.58,9.465-3.9,14.933-.675,19.236,2.021,2.694,5.875,3.126,13.5,3.881a89.25,89.25,0,0,0,8.993.531h.083a52.811,52.811,0,0,0,21.972-4.58c3.207-1.443,4.81-2.164,6.243-3.543,6.807-6.551,3.974-17.627,2.869-30.373-2.706-31.209,7.834-39.172-1.181-54.839-1.788-3.107-5.691-9.889-13.161-12.486a11.586,11.586,0,0,0-3.951-.722c-3.743,0-8.086,1.842-20.684,3.759" transform="translate(-1871.75 -2040.088)" fill="none"/>
    </clipPath>
    <linearGradient id="linear-gradient-32" x1="-1.123" y1="0.902" x2="-1.122" y2="0.902" xlink:href="#linear-gradient"/>
    <clipPath id="clip-path-72">
      <path id="Path_181814" data-name="Path 181814" d="M2126.807,1882.62c-.05.018-.1.037-.1.037l-.824.508c-.593.4-.911.711-2.154,3a8.143,8.143,0,0,0-.874,5.834c.567,2.022,3.3,3.271,3.772,3.515-.128,1.059,0,2.537-1.556,3.969-1.7,1.564-7.737,3.142-8.04,3.687-.681,1.227,5.659,2.057,13.453,2,5.808-.814,10.511-4.432,10.195-5.539-.169-.59-2.109-.928-6.074-.675-.977.062-2.357.085-2.465-.888q-.169-1.526-.442-3.119-.068-.391-.14-.775c.354-6.721-.888-11.474-2.055-11.724a3.8,3.8,0,0,0-.624-.034,8.829,8.829,0,0,0-2.073.2" transform="translate(-2116.983 -1882.42)" fill="#ffb580"/>
    </clipPath>
    <clipPath id="clip-path-74">
      <path id="Path_181816" data-name="Path 181816" d="M2205.9,1953.081c-.687.944-1.167,2.357-.314,2.536s1.732-.764,1.727-1.671a1.1,1.1,0,0,0-.9-1.159.635.635,0,0,0-.516.294" transform="translate(-2205.128 -1952.787)" fill="#ffb580"/>
    </clipPath>
    <clipPath id="clip-path-76">
      <rect id="Rectangle_37138" data-name="Rectangle 37138" width="59.55" height="79.73" fill="none"/>
    </clipPath>
    <clipPath id="clip-path-77">
      <path id="Path_181818" data-name="Path 181818" d="M1963.706,2391.088c-2.243-4.466,3.253-10.4-.338-17.211-3.05-5.783-8.589-4.487-11.136-9.787-3.077-6.4,3.614-11.185,3.375-20.923-.286-11.642-10.3-23.295-16.2-22.273-3.814.661-4.3,6.351-6.988,12.581a141.474,141.474,0,0,1,7.663,20.492c3.09,10.769,4.635,16.153,4.219,22.948-.58,9.464-3.9,14.933-.675,19.236,2.021,2.694,5.875,3.126,13.5,3.881,6.928.686,18.33,1.673,31.047-4.05,1.61-.724,2.815-1.267,3.8-1.8-19.868,2.984-26.485.451-28.264-3.091" transform="translate(-1932.42 -2320.831)" fill="none"/>
    </clipPath>
    <linearGradient id="linear-gradient-33" x1="-1.637" y1="0.9" x2="-1.636" y2="0.9" xlink:href="#linear-gradient"/>
    <clipPath id="clip-path-78">
      <path id="Path_181819" data-name="Path 181819" d="M1678.683,2133.164c-2.637,1.138-7.872,4.287-12.486,16.536-4.072,10.811-3.236,16.964-6.581,17.97-2.244.675-4.911-1.4-7-3.543l-3.712,1.6c-.675,8.7,3.385,16.463,9.955,19.489,7.691,3.542,15.462-.955,16.874-1.772,9.938-5.751,11.682-17.866,12.571-24.045,1.578-10.967-.281-25.623-5.906-27a3.354,3.354,0,0,0-.8-.1,7.591,7.591,0,0,0-2.911.857" transform="translate(-1648.828 -2132.307)" fill="none"/>
    </clipPath>
    <linearGradient id="linear-gradient-34" x1="-2.053" y1="1.506" x2="-2.052" y2="1.506" xlink:href="#linear-gradient"/>
  </defs>
  <g id="Group_120693" data-name="Group 120693" clip-path="url(#clip-path)">
    <g id="Group_120529" data-name="Group 120529" transform="translate(0 0)">
      <g id="Group_120528" data-name="Group 120528" clip-path="url(#clip-path)">
        <path id="Path_181731" data-name="Path 181731" d="M376.422,101.369c-66.054-2.006-123.27,47.282-131.914,111.955-9.451,70.711,42.568,134.333,106.576,144.523,79.615,12.675,156.836-60.65,149.9-140.2-5.224-59.932-57.419-114.242-124.564-116.281" transform="translate(-220.148 -91.634)" fill="#f4f7fa"/>
      </g>
    </g>
    <g id="Group_120531" data-name="Group 120531" transform="translate(50.564 18.645)">
      <g id="Group_120530" data-name="Group 120530" clip-path="url(#clip-path-3)">
        <rect id="Rectangle_37069" data-name="Rectangle 37069" width="123.715" height="205.016" transform="matrix(0.999, -0.05, 0.05, 0.999, -17.019, 0.507)" fill="#ffb600"/>
      </g>
    </g>
    <g id="Group_120538" data-name="Group 120538" transform="translate(0 0)">
      <g id="Group_120537" data-name="Group 120537" clip-path="url(#clip-path)">
        <g id="Group_120536" data-name="Group 120536" transform="translate(47.308 0)" style="mix-blend-mode: soft-light;isolation: isolate">
          <g id="Group_120535" data-name="Group 120535">
            <g id="Group_120534" data-name="Group 120534" clip-path="url(#clip-path-5)">
              <g id="Group_120533" data-name="Group 120533" transform="translate(3.256 18.645)">
                <g id="Group_120532" data-name="Group 120532" clip-path="url(#clip-path-6)">
                  <path id="Path_181733" data-name="Path 181733" d="M656.241,210.012c.456-8.4.461-16.346.466-24.759l0-2.8c-.247-4.051-.381-8.052-.51-11.921-.292-8.737-.568-16.99-2.052-25.75-.029-.512-.032-1.009-.035-1.535A10.68,10.68,0,0,0,653,137.56l-.025-.077C648.548,91.147,634.49,44.947,611.191.168L611.524,0c23.314,44.808,37.384,91.041,41.818,137.411a11.181,11.181,0,0,1,1.145,5.833c0,.522.006,1.015.032,1.5,1.486,8.764,1.762,17.029,2.055,25.779.129,3.867.263,7.865.51,11.923l0,2.816c0,8.418-.01,16.369-.467,24.779Z" transform="translate(-603.381 -18.64)" fill="#fcfdfe"/>
                  <path id="Path_181734" data-name="Path 181734" d="M1077.987,821.2c-.425-21.914,11.118-47.953,20.875-65.939a311.152,311.152,0,0,1,21.483-34.111l.3.225a310.822,310.822,0,0,0-21.456,34.07c-9.735,17.944-21.25,43.917-20.828,65.748Z" transform="translate(-1025.584 -670.92)" fill="#fcfdfe"/>
                  <path id="Path_181735" data-name="Path 181735" d="M918.859,213.258c-1.746-23.229,1.8-48.012,2.966-56.156.223-1.558.37-2.587.363-2.787l.375-.013c.008.224-.107,1.036-.367,2.853-1.164,8.134-4.706,32.886-2.963,56.075Z" transform="translate(-881.234 -158.21)" fill="#fcfdfe"/>
                  <path id="Path_181736" data-name="Path 181736" d="M544.591,798.238c-7.852-20.009-48.847-37.728-49.26-37.9l.147-.345c.415.177,41.553,17.959,49.461,38.112Z" transform="translate(-498.587 -706.048)" fill="#fcfdfe"/>
                </g>
              </g>
            </g>
          </g>
        </g>
      </g>
    </g>
    <g id="Group_120540" data-name="Group 120540" transform="translate(6.144 67.327)">
      <g id="Group_120539" data-name="Group 120539" clip-path="url(#clip-path-7)">
        <rect id="Rectangle_37072" data-name="Rectangle 37072" width="169.374" height="148" transform="translate(-59.955 114.897) rotate(-64.176)" fill="url(#linear-gradient)"/>
      </g>
    </g>
    <g id="Group_120547" data-name="Group 120547" transform="translate(0 0)">
      <g id="Group_120546" data-name="Group 120546" clip-path="url(#clip-path)">
        <g id="Group_120545" data-name="Group 120545" transform="translate(2.94 63.469)" style="mix-blend-mode: soft-light;isolation: isolate">
          <g id="Group_120544" data-name="Group 120544">
            <g id="Group_120543" data-name="Group 120543" clip-path="url(#clip-path-9)">
              <g id="Group_120542" data-name="Group 120542" transform="translate(3.204 3.859)">
                <g id="Group_120541" data-name="Group 120541" clip-path="url(#clip-path-10)">
                  <path id="Path_181739" data-name="Path 181739" d="M312.981,778.409a194.309,194.309,0,0,1-21.524-41.748,188.25,188.25,0,0,1-10.742-45.635,177.5,177.5,0,0,1-.81-26.495l.383.018a177.181,177.181,0,0,0,.808,26.437,187.845,187.845,0,0,0,10.72,45.542A193.926,193.926,0,0,0,313.3,778.193Z" transform="translate(-259.158 -668.389)" fill="#fcfdfe"/>
                  <path id="Path_181740" data-name="Path 181740" d="M279.466,1959.639l-.123-.363a65.8,65.8,0,0,1,17.135-3.148,64.185,64.185,0,0,1,8.87.06l-.03.382a63.722,63.722,0,0,0-8.817-.059,65.4,65.4,0,0,0-17.035,3.128" transform="translate(-258.807 -1836.515)" fill="#fcfdfe"/>
                  <path id="Path_181741" data-name="Path 181741" d="M69.963,1347.852c-11.152-14.4-38.9-17.234-39.18-17.259l.037-.382c.281.028,28.193,2.871,39.446,17.406Z" transform="translate(-33.987 -1270.491)" fill="#fcfdfe"/>
                  <path id="Path_181742" data-name="Path 181742" d="M322.709,753.205c-1-20.557,17.323-41.506,17.508-41.715l.287.254c-.184.208-18.4,21.043-17.412,41.443Z" transform="translate(-297.996 -710.863)" fill="#fcfdfe"/>
                </g>
              </g>
            </g>
          </g>
        </g>
      </g>
    </g>
    <g id="Group_120549" data-name="Group 120549" transform="translate(13.862 259.583)">
      <g id="Group_120548" data-name="Group 120548" clip-path="url(#clip-path-11)">
        <rect id="Rectangle_37075" data-name="Rectangle 37075" width="258.497" height="127.45" transform="translate(-8.877 3.728) rotate(-22.782)" fill="url(#linear-gradient-2)"/>
      </g>
    </g>
    <g id="Group_120551" data-name="Group 120551" transform="translate(11.003 122.323)">
      <g id="Group_120550" data-name="Group 120550" clip-path="url(#clip-path-12)">
        <rect id="Rectangle_37076" data-name="Rectangle 37076" width="219.996" height="199.532" transform="translate(-50.371 21.156) rotate(-22.782)" fill="url(#linear-gradient-3)"/>
      </g>
    </g>
    <g id="Group_120553" data-name="Group 120553" transform="translate(13.726 122.323)">
      <g id="Group_120552" data-name="Group 120552" clip-path="url(#clip-path-13)">
        <rect id="Rectangle_37077" data-name="Rectangle 37077" width="179.356" height="141.117" fill="url(#linear-gradient-4)"/>
      </g>
    </g>
    <g id="Group_120558" data-name="Group 120558" transform="translate(0 0)">
      <g id="Group_120557" data-name="Group 120557" clip-path="url(#clip-path)">
        <path id="Path_181747" data-name="Path 181747" d="M384.229,1470.847,226.655,1482a4.265,4.265,0,0,1-4.466-4.477V1363.791a4.665,4.665,0,0,1,4.466-4.813l157.574-.7c2.057-.009,3.722,1.938,3.722,4.349v103.592c0,2.411-1.664,4.483-3.722,4.629" transform="translate(-200.968 -1228.55)" fill="#d8dee8"/>
        <path id="Path_181748" data-name="Path 181748" d="M1113.947,1295.825a1.961,1.961,0,1,1-1.946-2.184,2.084,2.084,0,0,1,1.946,2.184" transform="translate(-1004.032 -1170.087)" fill="#fff"/>
        <g id="Group_120556" data-name="Group 120556" transform="translate(13.862 122.185)" opacity="0.48" style="mix-blend-mode: soft-light;isolation: isolate">
          <g id="Group_120555" data-name="Group 120555">
            <g id="Group_120554" data-name="Group 120554" clip-path="url(#clip-path-15)">
              <path id="Path_181749" data-name="Path 181749" d="M279.043,1372.068c-13.042-7.538-23.3,2.013-33.194-7.41-6-5.713-3.054-9.973-10.437-18.511-8.177-9.456-13.5-6.278-21.719-14.788-10.391-10.761-5.194-19.133-14.145-26.859-10.858-9.373-22.569-.7-32.905-9.687-4.458-3.877-6.9-9.513-8.182-15.507H148.347a3.336,3.336,0,0,0-3.212,3.446v134.661a3.047,3.047,0,0,0,3.212,3.2l172.423-13.146a2.756,2.756,0,0,0,2.078-1.364c-12.622-.494-20.376-5.039-25.333-9.737-9.7-9.191-8.015-18.255-18.471-24.3" transform="translate(-145.135 -1279.307)" fill="#fff"/>
            </g>
          </g>
        </g>
      </g>
    </g>
    <g id="Group_120560" data-name="Group 120560" transform="translate(13.862 249.956)">
      <g id="Group_120559" data-name="Group 120559" clip-path="url(#clip-path-16)">
        <rect id="Rectangle_37080" data-name="Rectangle 37080" width="269.927" height="28.088" transform="translate(0)" fill="url(#linear-gradient-5)"/>
      </g>
    </g>
    <g id="Group_120570" data-name="Group 120570" transform="translate(0 0)">
      <g id="Group_120569" data-name="Group 120569" clip-path="url(#clip-path)">
        <g id="Group_120565" data-name="Group 120565" transform="translate(40.333 252.43)" opacity="0.3" style="mix-blend-mode: multiply;isolation: isolate">
          <g id="Group_120564" data-name="Group 120564">
            <g id="Group_120563" data-name="Group 120563" clip-path="url(#clip-path-18)">
              <g id="Group_120562" data-name="Group 120562">
                <g id="Group_120561" data-name="Group 120561" clip-path="url(#clip-path-19)">
                  <rect id="Rectangle_37081" data-name="Rectangle 37081" width="197.774" height="18.636" transform="translate(0)" fill="url(#linear-gradient-6)"/>
                </g>
              </g>
            </g>
          </g>
        </g>
        <g id="Group_120568" data-name="Group 120568" transform="translate(29.381 122.324)" opacity="0.3" style="mix-blend-mode: multiply;isolation: isolate">
          <g id="Group_120567" data-name="Group 120567">
            <g id="Group_120566" data-name="Group 120566" clip-path="url(#clip-path-20)">
              <path id="Path_181752" data-name="Path 181752" d="M471.326,1285.926v110.979l-2.716.163-3.505.208-3.2.191-16.56.987-125.873,7.508a11.412,11.412,0,0,1-2.373-.1,10.809,10.809,0,0,1-8.386-6.344,11.071,11.071,0,0,1-.631-1.586,11.235,11.235,0,0,1-.451-2.876v-114.3h159.15c2.495,0,4.55,2.236,4.55,5.17" transform="translate(-307.626 -1280.756)" fill="#c7ccd3"/>
            </g>
          </g>
        </g>
        <path id="Path_181753" data-name="Path 181753" d="M549.947,864.278a10.5,10.5,0,0,0-7.538-10.329c-.153-.038-.324-.072-.48-.1a8.83,8.83,0,0,0-1.444-.155l-91.9-2.269-93.936-2.32c-.2,0-.4,0-.6,0a11.4,11.4,0,0,0-6.758,2.417l-.1.08q-.4.322-.773.679l-.018.016c-.146.141-.287.287-.426.436a11.24,11.24,0,0,0-3,7.685V999.368a11.264,11.264,0,0,0,.37,2.878,10.772,10.772,0,0,0,8.937,7.929,11.617,11.617,0,0,0,2.372.1l142.429-8.5,43.431-2.59c5.208-.311,9.438-5.2,9.438-10.916V864.278Z" transform="translate(-310.213 -768.003)" fill="#d8dee8"/>
        <path id="Path_181754" data-name="Path 181754" d="M571.345,853.56l-185.7-4.587a11.305,11.305,0,0,0-11.67,11.311v138.9a10.847,10.847,0,0,0,11.67,10.9l185.7-11.08c5.2-.311,9.4-5.2,9.4-10.912V864.143c0-5.717-4.2-10.455-9.4-10.583" transform="translate(-338.256 -767.885)" fill="#fff"/>
      </g>
    </g>
    <g id="Group_120572" data-name="Group 120572" transform="translate(39.459 84.767)">
      <g id="Group_120571" data-name="Group 120571" clip-path="url(#clip-path-21)">
        <rect id="Rectangle_37085" data-name="Rectangle 37085" width="200.04" height="154.007" transform="translate(0 0)" fill="url(#linear-gradient-7)"/>
      </g>
    </g>
    <g id="Group_120574" data-name="Group 120574" transform="translate(0 0)">
      <g id="Group_120573" data-name="Group 120573" clip-path="url(#clip-path)">
        <path id="Path_181756" data-name="Path 181756" d="M571.345,853.56l-185.7-4.587a11.305,11.305,0,0,0-11.67,11.311v8.32l206.773,2.964v-7.425c0-5.717-4.2-10.455-9.4-10.583" transform="translate(-338.256 -767.885)" fill="#d8dee8"/>
        <path id="Path_181757" data-name="Path 181757" d="M519.4,923.517a3.683,3.683,0,0,1-3.768,3.69,3.858,3.858,0,0,1-3.783-3.836,3.682,3.682,0,0,1,3.783-3.69,3.858,3.858,0,0,1,3.768,3.835" transform="translate(-462.962 -831.843)" fill="#fff"/>
        <path id="Path_181758" data-name="Path 181758" d="M657.709,926.416a3.645,3.645,0,0,1-3.716,3.665,3.817,3.817,0,0,1-3.73-3.808,3.644,3.644,0,0,1,3.73-3.665,3.818,3.818,0,0,1,3.716,3.808" transform="translate(-588.157 -834.49)" fill="#fff"/>
        <path id="Path_181759" data-name="Path 181759" d="M794.116,929.276a3.608,3.608,0,0,1-3.665,3.641,3.778,3.778,0,0,1-3.679-3.782,3.607,3.607,0,0,1,3.679-3.64,3.78,3.78,0,0,1,3.665,3.782" transform="translate(-711.628 -837.1)" fill="#fff"/>
      </g>
    </g>
    <g id="Group_120576" data-name="Group 120576" transform="translate(49.316 121.7)">
      <g id="Group_120575" data-name="Group 120575" clip-path="url(#clip-path-23)">
        <rect id="Rectangle_37087" data-name="Rectangle 37087" width="110.364" height="183.055" transform="translate(-0.862 108.918) rotate(-89.547)" fill="url(#linear-gradient-8)"/>
      </g>
    </g>
    <g id="Group_120581" data-name="Group 120581" transform="translate(0 0)">
      <g id="Group_120580" data-name="Group 120580" clip-path="url(#clip-path)">
        <path id="Path_181761" data-name="Path 181761" d="M615.794,1157.059l-99.44-.93v5.884l99.44.623Z" transform="translate(-467.038 -1045.708)" fill="#d8dee8"/>
        <path id="Path_181762" data-name="Path 181762" d="M2318.406,1172.982v5.353l10.086.063v-5.322Z" transform="translate(-2096.978 -1060.951)" fill="#d8dee8"/>
        <g id="Group_120579" data-name="Group 120579" transform="translate(35.718 81.084)" opacity="0.5" style="mix-blend-mode: soft-light;isolation: isolate">
          <g id="Group_120578" data-name="Group 120578">
            <g id="Group_120577" data-name="Group 120577" clip-path="url(#clip-path-25)">
              <path id="Path_181763" data-name="Path 181763" d="M500.508,923.871c-21.615-31.282-59.395-20.554-83.538-55.556a76.5,76.5,0,0,1-9.386-18.8l-21.94-.542a11.306,11.306,0,0,0-11.67,11.311v138.9a10.847,10.847,0,0,0,11.67,10.9l142.331-8.493a113.9,113.9,0,0,1-11.258-20.033c-12.522-28.728-3.243-38.926-16.209-57.691" transform="translate(-373.974 -848.969)" fill="#fff"/>
            </g>
          </g>
        </g>
      </g>
    </g>
    <g id="Group_120583" data-name="Group 120583" transform="translate(254.562 124.813)">
      <g id="Group_120582" data-name="Group 120582" clip-path="url(#clip-path-26)">
        <rect id="Rectangle_37090" data-name="Rectangle 37090" width="22.278" height="20.457" transform="translate(-4.934 3.807) rotate(-37.653)" fill="url(#linear-gradient-9)"/>
      </g>
    </g>
    <g id="Group_120585" data-name="Group 120585" transform="translate(176.913 107.922)">
      <g id="Group_120584" data-name="Group 120584" clip-path="url(#clip-path-27)">
        <rect id="Rectangle_37091" data-name="Rectangle 37091" width="111.164" height="111.212" transform="translate(-37.786 37.116) rotate(-45.201)" fill="url(#linear-gradient-10)"/>
      </g>
    </g>
    <g id="Group_120592" data-name="Group 120592" transform="translate(46.915 44.908)">
      <g id="Group_120591" data-name="Group 120591" clip-path="url(#clip-path-28)">
        <g id="Group_120590" data-name="Group 120590" transform="translate(138.615 96.336)" opacity="0.3" style="mix-blend-mode: multiply;isolation: isolate">
          <g id="Group_120589" data-name="Group 120589">
            <g id="Group_120588" data-name="Group 120588" clip-path="url(#clip-path-29)">
              <g id="Group_120587" data-name="Group 120587" transform="translate(0 0)">
                <g id="Group_120586" data-name="Group 120586" clip-path="url(#clip-path-30)">
                  <rect id="Rectangle_37092" data-name="Rectangle 37092" width="59.74" height="66.504" transform="translate(-15.13 33.844) rotate(-66.598)" fill="url(#linear-gradient-11)"/>
                </g>
              </g>
            </g>
          </g>
        </g>
      </g>
    </g>
    <g id="Group_120594" data-name="Group 120594" transform="translate(95.241 103.087)">
      <g id="Group_120593" data-name="Group 120593" clip-path="url(#clip-path-31)">
        <rect id="Rectangle_37094" data-name="Rectangle 37094" width="153.15" height="139.641" transform="matrix(0.397, -0.918, 0.918, 0.397, -45.312, 104.699)" fill="url(#linear-gradient-12)"/>
      </g>
    </g>
    <g id="Group_120596" data-name="Group 120596" transform="translate(136.217 85.678)">
      <g id="Group_120595" data-name="Group 120595" clip-path="url(#clip-path-32)">
        <rect id="Rectangle_37095" data-name="Rectangle 37095" width="37.026" height="38.504" transform="translate(-11.368 19.968) rotate(-61.29)" fill="#ffb580"/>
      </g>
    </g>
    <g id="Group_120598" data-name="Group 120598" transform="translate(147.016 78.203)">
      <g id="Group_120597" data-name="Group 120597" clip-path="url(#clip-path-33)">
        <rect id="Rectangle_37096" data-name="Rectangle 37096" width="24.156" height="23.561" transform="translate(-7.734 15.464) rotate(-65.666)" fill="url(#linear-gradient-13)"/>
      </g>
    </g>
    <g id="Group_120600" data-name="Group 120600" transform="translate(148.353 85.5)">
      <g id="Group_120599" data-name="Group 120599" clip-path="url(#clip-path-34)">
        <rect id="Rectangle_37097" data-name="Rectangle 37097" width="15.813" height="13.362" transform="translate(-0.461 -0.006)" fill="#ffb580"/>
      </g>
    </g>
    <g id="Group_120602" data-name="Group 120602" transform="translate(148.714 86.275)">
      <g id="Group_120601" data-name="Group 120601" clip-path="url(#clip-path-35)">
        <rect id="Rectangle_37098" data-name="Rectangle 37098" width="18.731" height="18.663" transform="translate(-5.33 11.787) rotate(-65.666)" fill="url(#linear-gradient-14)"/>
      </g>
    </g>
    <g id="Group_120604" data-name="Group 120604" transform="translate(157.839 94.266)">
      <g id="Group_120603" data-name="Group 120603" clip-path="url(#clip-path-36)">
        <rect id="Rectangle_37099" data-name="Rectangle 37099" width="1.75" height="3.387" transform="translate(-0.242 1.216) rotate(-80.757)" fill="#ffb580"/>
      </g>
    </g>
    <g id="Group_120606" data-name="Group 120606" transform="translate(106.227 181.936)">
      <g id="Group_120605" data-name="Group 120605" clip-path="url(#clip-path-37)">
        <rect id="Rectangle_37100" data-name="Rectangle 37100" width="20.4" height="14.158" transform="translate(-2.607 0.854) rotate(-18.141)" fill="#ffb580"/>
      </g>
    </g>
    <g id="Group_120608" data-name="Group 120608" transform="translate(57.236 109.048)">
      <g id="Group_120607" data-name="Group 120607" clip-path="url(#clip-path-38)">
        <rect id="Rectangle_37101" data-name="Rectangle 37101" width="106.4" height="89.377" transform="translate(-33.258 76.472) rotate(-66.598)" fill="url(#linear-gradient-15)"/>
      </g>
    </g>
    <g id="Group_120615" data-name="Group 120615" transform="translate(46.915 44.908)">
      <g id="Group_120614" data-name="Group 120614" clip-path="url(#clip-path-28)">
        <g id="Group_120613" data-name="Group 120613" transform="translate(61.086 99.723)" opacity="0.3" style="mix-blend-mode: multiply;isolation: isolate">
          <g id="Group_120612" data-name="Group 120612">
            <g id="Group_120611" data-name="Group 120611" clip-path="url(#clip-path-40)">
              <g id="Group_120610" data-name="Group 120610" transform="translate(0 0)">
                <g id="Group_120609" data-name="Group 120609" clip-path="url(#clip-path-41)">
                  <rect id="Rectangle_37102" data-name="Rectangle 37102" width="115.558" height="108.263" transform="translate(-33.577 76.833) rotate(-66.598)" fill="url(#linear-gradient-16)"/>
                </g>
              </g>
            </g>
          </g>
        </g>
      </g>
    </g>
    <g id="Group_120617" data-name="Group 120617" transform="translate(0 0)">
      <g id="Group_120616" data-name="Group 120616" clip-path="url(#clip-path)">
        <path id="Path_181778" data-name="Path 181778" d="M1149.412,2141.058a7.708,7.708,0,0,1-7.316,7.585,6.934,6.934,0,0,1-7.377-6.943,7.7,7.7,0,0,1,7.377-7.588,6.935,6.935,0,0,1,7.316,6.946" transform="translate(-1026.344 -1930.281)" fill="#fff"/>
        <path id="Path_181779" data-name="Path 181779" d="M1459.608,2128.733a7.517,7.517,0,0,1-7.077,7.455,6.762,6.762,0,0,1-7.135-6.833,7.513,7.513,0,0,1,7.135-7.458,6.764,6.764,0,0,1,7.077,6.836" transform="translate(-1307.348 -1919.232)" fill="#fff"/>
        <path id="Path_181780" data-name="Path 181780" d="M1759.69,2116.809a7.337,7.337,0,0,1-6.849,7.329,6.6,6.6,0,0,1-6.9-6.728,7.332,7.332,0,0,1,6.9-7.331,6.6,6.6,0,0,1,6.849,6.73" transform="translate(-1579.185 -1908.543)" fill="#fff"/>
      </g>
    </g>
    <g id="Group_120619" data-name="Group 120619" transform="translate(168.425 53.986)">
      <g id="Group_120618" data-name="Group 120618" clip-path="url(#clip-path-43)">
        <rect id="Rectangle_37105" data-name="Rectangle 37105" width="90.34" height="39.341" transform="translate(0 0)" fill="url(#linear-gradient-17)"/>
      </g>
    </g>
    <g id="Group_120621" data-name="Group 120621" transform="translate(169.898 53.986)">
      <g id="Group_120620" data-name="Group 120620" clip-path="url(#clip-path-44)">
        <rect id="Rectangle_37106" data-name="Rectangle 37106" width="96.118" height="84.456" transform="matrix(0.813, -0.583, 0.583, 0.813, -18.631, 13.36)" fill="url(#linear-gradient-18)"/>
      </g>
    </g>
    <g id="Group_120623" data-name="Group 120623" transform="translate(0 0)">
      <g id="Group_120622" data-name="Group 120622" clip-path="url(#clip-path)">
        <path id="Path_181783" data-name="Path 181783" d="M2001.095,656.9l56.895,1.492V654.7l-56.895-1.6Z" transform="translate(-1809.973 -590.726)" fill="#fff"/>
        <path id="Path_181784" data-name="Path 181784" d="M2001.095,736.444l56.895,1.278v-3.692l-56.895-1.385Z" transform="translate(-1809.973 -662.671)" fill="#fff"/>
        <path id="Path_181785" data-name="Path 181785" d="M2001.095,815.988l56.895,1.064v-3.692l-56.895-1.171Z" transform="translate(-1809.973 -734.618)" fill="#fff"/>
      </g>
    </g>
    <g id="Group_120625" data-name="Group 120625" transform="translate(69.538 33.898)">
      <g id="Group_120624" data-name="Group 120624" clip-path="url(#clip-path-46)">
        <rect id="Rectangle_37108" data-name="Rectangle 37108" width="20.668" height="39.152" transform="translate(-1.216 0)" fill="url(#linear-gradient-19)"/>
      </g>
    </g>
    <g id="Group_120627" data-name="Group 120627" transform="translate(67.166 67.677)">
      <g id="Group_120626" data-name="Group 120626" clip-path="url(#clip-path-47)">
        <rect id="Rectangle_37109" data-name="Rectangle 37109" width="39.887" height="40.098" transform="translate(-1.044 0)" fill="url(#linear-gradient-20)"/>
      </g>
    </g>
    <g id="Group_120629" data-name="Group 120629" transform="translate(84.245 135.324)">
      <g id="Group_120628" data-name="Group 120628" clip-path="url(#clip-path-48)">
        <rect id="Rectangle_37110" data-name="Rectangle 37110" width="9.419" height="5.688" transform="translate(-2.038 8.291) rotate(-76.214)" fill="url(#linear-gradient-21)"/>
      </g>
    </g>
    <g id="Group_120631" data-name="Group 120631" transform="translate(67.188 72.932)">
      <g id="Group_120630" data-name="Group 120630" clip-path="url(#clip-path-49)">
        <rect id="Rectangle_37111" data-name="Rectangle 37111" width="31.497" height="32.278" transform="translate(0 0)" fill="url(#linear-gradient-22)"/>
      </g>
    </g>
    <g id="Group_120633" data-name="Group 120633" transform="translate(84.719 131.584)">
      <g id="Group_120632" data-name="Group 120632" clip-path="url(#clip-path-50)">
        <rect id="Rectangle_37112" data-name="Rectangle 37112" width="2.504" height="8.466" transform="translate(0 0)" fill="#ffb580"/>
      </g>
    </g>
    <g id="Group_120635" data-name="Group 120635" transform="translate(53.679 67.999)">
      <g id="Group_120634" data-name="Group 120634" clip-path="url(#clip-path-51)">
        <rect id="Rectangle_37113" data-name="Rectangle 37113" width="75.405" height="71.464" transform="translate(-32.938 39.699) rotate(-50.545)" fill="url(#linear-gradient-23)"/>
      </g>
    </g>
    <g id="Group_120637" data-name="Group 120637" transform="translate(0 19)">
      <g id="Group_120636" data-name="Group 120636" clip-path="url(#clip-path-52)">
        <rect id="Rectangle_37114" data-name="Rectangle 37114" width="86.239" height="87.431" transform="translate(-25.005 26.945) rotate(-47.14)" fill="url(#linear-gradient-24)"/>
      </g>
    </g>
    <g id="Group_120639" data-name="Group 120639" transform="translate(28.511 32.3)">
      <g id="Group_120638" data-name="Group 120638" clip-path="url(#clip-path-53)">
        <rect id="Rectangle_37115" data-name="Rectangle 37115" width="71.874" height="72.041" transform="matrix(0.744, -0.669, 0.669, 0.744, -26.322, 23.274)" fill="url(#linear-gradient-25)"/>
      </g>
    </g>
    <g id="Group_120641" data-name="Group 120641" transform="translate(55.244 28.16)">
      <g id="Group_120640" data-name="Group 120640" clip-path="url(#clip-path-54)">
        <rect id="Rectangle_37116" data-name="Rectangle 37116" width="13.049" height="6.94" transform="translate(-0.259 0)" fill="#ffb580"/>
      </g>
    </g>
    <g id="Group_120643" data-name="Group 120643" transform="translate(62.934 24.484)">
      <g id="Group_120642" data-name="Group 120642" clip-path="url(#clip-path-55)">
        <rect id="Rectangle_37117" data-name="Rectangle 37117" width="9.14" height="8.906" transform="translate(-1.869 7.455) rotate(-78.232)" fill="#ffb580"/>
      </g>
    </g>
    <g id="Group_120650" data-name="Group 120650" transform="translate(0 0)">
      <g id="Group_120649" data-name="Group 120649" clip-path="url(#clip-path)">
        <g id="Group_120648" data-name="Group 120648" transform="translate(28.511 38.517)" opacity="0.3" style="mix-blend-mode: multiply;isolation: isolate">
          <g id="Group_120647" data-name="Group 120647">
            <g id="Group_120646" data-name="Group 120646" clip-path="url(#clip-path-57)">
              <g id="Group_120645" data-name="Group 120645" transform="translate(0 0)">
                <g id="Group_120644" data-name="Group 120644" clip-path="url(#clip-path-58)">
                  <rect id="Rectangle_37118" data-name="Rectangle 37118" width="66.351" height="66.189" transform="matrix(0.744, -0.669, 0.669, 0.744, -23.231, 20.495)" fill="url(#linear-gradient-26)"/>
                </g>
              </g>
            </g>
          </g>
        </g>
      </g>
    </g>
    <g id="Group_120652" data-name="Group 120652" transform="translate(59.733 71.369)">
      <g id="Group_120651" data-name="Group 120651" clip-path="url(#clip-path-59)">
        <rect id="Rectangle_37121" data-name="Rectangle 37121" width="27.334" height="4.054" transform="translate(-0.218 0)" fill="url(#linear-gradient-27)"/>
      </g>
    </g>
    <g id="Group_120654" data-name="Group 120654" transform="translate(75.654 57.554)">
      <g id="Group_120653" data-name="Group 120653" clip-path="url(#clip-path-60)">
        <rect id="Rectangle_37122" data-name="Rectangle 37122" width="37.441" height="17.199" fill="url(#linear-gradient-28)"/>
      </g>
    </g>
    <g id="Group_120661" data-name="Group 120661" transform="translate(0 0)">
      <g id="Group_120660" data-name="Group 120660" clip-path="url(#clip-path)">
        <g id="Group_120659" data-name="Group 120659" transform="translate(75.654 58.04)" opacity="0.3" style="mix-blend-mode: multiply;isolation: isolate">
          <g id="Group_120658" data-name="Group 120658">
            <g id="Group_120657" data-name="Group 120657" clip-path="url(#clip-path-62)">
              <g id="Group_120656" data-name="Group 120656" transform="translate(0 0)">
                <g id="Group_120655" data-name="Group 120655" clip-path="url(#clip-path-63)">
                  <rect id="Rectangle_37123" data-name="Rectangle 37123" width="32.651" height="32.579" transform="translate(-8.356 8.289) rotate(-44.77)" fill="url(#linear-gradient-29)"/>
                </g>
              </g>
            </g>
          </g>
        </g>
      </g>
    </g>
    <g id="Group_120663" data-name="Group 120663" transform="translate(35.117 33.104)">
      <g id="Group_120662" data-name="Group 120662" clip-path="url(#clip-path-64)">
        <rect id="Rectangle_37126" data-name="Rectangle 37126" width="55.692" height="55.639" transform="translate(-27.568 21.193) rotate(-45.462)" fill="url(#linear-gradient-30)"/>
      </g>
    </g>
    <g id="Group_120665" data-name="Group 120665" transform="translate(64.229 67.463)">
      <g id="Group_120664" data-name="Group 120664" clip-path="url(#clip-path-65)">
        <rect id="Rectangle_37127" data-name="Rectangle 37127" width="9.372" height="4.251" transform="translate(-0.106 0)" fill="#ffb580"/>
      </g>
    </g>
    <g id="Group_120667" data-name="Group 120667" transform="translate(214.382 115.441)">
      <g id="Group_120666" data-name="Group 120666" clip-path="url(#clip-path-66)">
        <rect id="Rectangle_37128" data-name="Rectangle 37128" width="109.448" height="103.97" transform="translate(-30.92 19.232) rotate(-31.881)" fill="url(#linear-gradient-31)"/>
      </g>
    </g>
    <g id="Group_120669" data-name="Group 120669" transform="translate(215.712 114.377)">
      <g id="Group_120668" data-name="Group 120668" clip-path="url(#clip-path-67)">
        <rect id="Rectangle_37129" data-name="Rectangle 37129" width="107.026" height="110.041" transform="translate(-33.29 42.692) rotate(-52.054)" fill="#ff6b00"/>
      </g>
    </g>
    <g id="Group_120671" data-name="Group 120671" transform="translate(0 0)">
      <g id="Group_120670" data-name="Group 120670" clip-path="url(#clip-path)">
        <path id="Path_181804" data-name="Path 181804" d="M2550.826,1406.819v24.6h.059c-.085.781-8.413,1.726-18.678,1.726s-18.593-.945-18.678-1.726h.208v-24.6Z" transform="translate(-2273.465 -1272.455)" fill="#fff"/>
        <path id="Path_181805" data-name="Path 181805" d="M2550.826,1470.695v3.943h.059c-.085.781-8.413,1.726-18.678,1.726s-18.593-.945-18.678-1.726h.208v-20.032c2.733,1.069,7.184,3.394,7.972,7.328,1.147,5.734,9.417,7.675,17.765,6.381a17.466,17.466,0,0,1,11.353,2.38" transform="translate(-2273.465 -1315.678)" fill="#fff"/>
        <path id="Path_181806" data-name="Path 181806" d="M2466.505,1292.115l-28.021-13.839-28.021,13.839h-1.035v.533l29.086,14.393,29.086-14.393v-.533Z" transform="translate(-2179.307 -1156.19)" fill="#fff"/>
        <path id="Path_181807" data-name="Path 181807" d="M2437.643,1272.233l-29.145,14.393,29.145,14.394,29.145-14.394Z" transform="translate(-2178.466 -1150.723)" fill="#fff"/>
        <path id="Path_181808" data-name="Path 181808" d="M2738.908,1435.736c-.214,0-.2-.173-.2-.387v-18.867a.8.8,0,0,0-.86-.707h-27.865a.39.39,0,0,1,0-.781h27.865c.854,0,1.25.634,1.25,1.488v18.867c0,.214.019.387-.2.387" transform="translate(-2450.811 -1279.85)" fill="#fff"/>
        <path id="Path_181809" data-name="Path 181809" d="M3008.348,1587.364l-.381-.586a.738.738,0,0,0-.643-.354.717.717,0,0,0-.619.374l-.335.609a1.044,1.044,0,0,0-.133.478v5.133c0,.11.583.2,1.171.2s1.171-.089,1.171-.2v-5.147a1.176,1.176,0,0,0-.232-.507" transform="translate(-2719.116 -1434.907)" fill="#fff"/>
        <path id="Path_181810" data-name="Path 181810" d="M1600.4,2192.157l-14.06-32.935a2.9,2.9,0,0,1,1.979-3.95l25.755-6.255a2.9,2.9,0,0,1,3.364,1.718l12.932,31.655a2.9,2.9,0,0,1-1.833,3.864l-24.627,7.535a2.9,2.9,0,0,1-3.51-1.632" transform="translate(-1434.621 -1943.693)" fill="#26264f"/>
      </g>
    </g>
    <g id="Group_120673" data-name="Group 120673" transform="translate(153.066 206.507)">
      <g id="Group_120672" data-name="Group 120672" clip-path="url(#clip-path-69)">
        <rect id="Rectangle_37131" data-name="Rectangle 37131" width="59.68" height="59.689" transform="matrix(0.647, -0.762, 0.762, 0.647, -21.31, 24.571)" fill="#ffe39f"/>
      </g>
    </g>
    <g id="Group_120675" data-name="Group 120675" transform="translate(155.188 223.578)">
      <g id="Group_120674" data-name="Group 120674" clip-path="url(#clip-path-70)">
        <rect id="Rectangle_37132" data-name="Rectangle 37132" width="15.174" height="8.737" transform="translate(-2.98 13.605) rotate(-77.645)" fill="#ffb580"/>
      </g>
    </g>
    <g id="Group_120677" data-name="Group 120677" transform="translate(178.768 194.846)">
      <g id="Group_120676" data-name="Group 120676" clip-path="url(#clip-path-71)">
        <rect id="Rectangle_37133" data-name="Rectangle 37133" width="133.371" height="132.555" transform="matrix(0.691, -0.723, 0.723, 0.691, -56.267, 55.729)" fill="url(#linear-gradient-32)"/>
      </g>
    </g>
    <g id="Group_120679" data-name="Group 120679" transform="translate(202.19 179.787)">
      <g id="Group_120678" data-name="Group 120678" clip-path="url(#clip-path-72)">
        <rect id="Rectangle_37134" data-name="Rectangle 37134" width="31.707" height="30.759" transform="matrix(0.917, -0.4, 0.4, 0.917, -8.987, 3.642)" fill="#ffb580"/>
      </g>
    </g>
    <g id="Group_120681" data-name="Group 120681" transform="translate(0 0)">
      <g id="Group_120680" data-name="Group 120680" clip-path="url(#clip-path)">
        <path id="Path_181815" data-name="Path 181815" d="M2193.5,1794.916c.007,2.082.988,4.306,1.488,4.663a3.463,3.463,0,0,1,.754.824,1.069,1.069,0,0,1,.119.246c.456,1.312-1.63,2.856-1.228,3.444.292.426,1.71-.144,1.879.224.159.346-1.02,1.064-.839,1.478.136.313.861.027,1.319.506.228.239.161.428.4,1.159a6.606,6.606,0,0,0,.476,1.117c.72,1.223,2.758,1.669,3.15,1.18.109-.136.015-.251.127-.708a3.648,3.648,0,0,1,.4-.915,9.479,9.479,0,0,1,2.466-1.941,6.746,6.746,0,0,0,2.573-2.931c.055-.141.09-.246.115-.323a7.742,7.742,0,0,0-.193-5.175c-1.156-2.322-3.763-1.22-5.9-3.521-2.462-2.655-1-6.283-2.332-6.684-1.473-.442-4.789,3.507-4.776,7.357" transform="translate(-1984 -1616.801)" fill="#26264f"/>
      </g>
    </g>
    <g id="Group_120683" data-name="Group 120683" transform="translate(210.609 186.508)">
      <g id="Group_120682" data-name="Group 120682" clip-path="url(#clip-path-74)">
        <rect id="Rectangle_37136" data-name="Rectangle 37136" width="3.572" height="3.792" transform="translate(-1.499 0.48) rotate(-23.552)" fill="#ffb580"/>
      </g>
    </g>
    <g id="Group_120690" data-name="Group 120690" transform="translate(0 0)">
      <g id="Group_120689" data-name="Group 120689" clip-path="url(#clip-path)">
        <path id="Path_181817" data-name="Path 181817" d="M2168.725,1939.974l-1.184,1.54s-1.276,1.887-2.021.853c-.609-.844-.767-.826-.8-.79-.007.007-.009.017-.011.016s.089-.42.179-.787a6.927,6.927,0,0,0-1.012,2.174,3.848,3.848,0,0,0,.012,2.973,2.955,2.955,0,0,0,1.74,1.361,7.813,7.813,0,0,0,2.287-.225s-2.021-1.467-2.052-1.815c-.083-.948,1.23-1.46,2.206-3.4a7.793,7.793,0,0,0,.66-1.9" transform="translate(-1956.931 -1754.689)" fill="#26264f"/>
        <g id="Group_120688" data-name="Group 120688" transform="translate(184.563 221.66)" opacity="0.3" style="mix-blend-mode: multiply;isolation: isolate">
          <g id="Group_120687" data-name="Group 120687">
            <g id="Group_120686" data-name="Group 120686" clip-path="url(#clip-path-76)">
              <g id="Group_120685" data-name="Group 120685" transform="translate(0 0)">
                <g id="Group_120684" data-name="Group 120684" clip-path="url(#clip-path-77)">
                  <rect id="Rectangle_37137" data-name="Rectangle 37137" width="100.309" height="99.582" transform="matrix(0.691, -0.723, 0.723, 0.691, -40.872, 41.844)" fill="url(#linear-gradient-33)"/>
                </g>
              </g>
            </g>
          </g>
        </g>
      </g>
    </g>
    <g id="Group_120692" data-name="Group 120692" transform="translate(157.477 203.654)">
      <g id="Group_120691" data-name="Group 120691" clip-path="url(#clip-path-78)">
        <rect id="Rectangle_37140" data-name="Rectangle 37140" width="69.595" height="69.112" transform="translate(-28.799 29.529) rotate(-46.322)" fill="url(#linear-gradient-34)"/>
      </g>
    </g>
  </g>
</svg>
