<svg xmlns="http://www.w3.org/2000/svg" width="466.794" height="328.895" viewBox="0 0 466.794 328.895">
  <g id="Group_117229" data-name="Group 117229" transform="translate(-180 -511)">
    <g id="Group_117226" data-name="Group 117226" transform="translate(180 511)">
      <g id="freepik--Table--inject-2" transform="translate(0 328.364)">
        <path id="Path_178450" data-name="Path 178450" d="M2993.582-3099.326c0,.143-113.533.247-232.923.247s-233.871-.1-233.871-.247,114.443-.247,233.871-.247S2993.582-3099.459,2993.582-3099.326Z" transform="translate(-2526.788 3099.573)" fill="#263238"/>
      </g>
      <g id="freepik--Books--inject-2" transform="translate(333.048 253.984)">
        <rect id="Rectangle_36618" data-name="Rectangle 36618" width="18.15" height="34.38" transform="translate(2.624 38.298)" fill="#f5f5f5"/>
        <rect id="Rectangle_36619" data-name="Rectangle 36619" width="85.181" height="37.28" transform="translate(20.784 37.09)" fill="#ff6b00"/>
        <rect id="Rectangle_36620" data-name="Rectangle 36620" width="53.196" height="16.631" transform="translate(36.776 47.415)" fill="#c45200"/>
        <path id="Path_178451" data-name="Path 178451" d="M2886.342-3099.778h19.5v-2.415h-19.5a1.145,1.145,0,0,0-1.085,1.2v.009h0a1.147,1.147,0,0,0,1.077,1.207Z" transform="translate(-2885.257 3174.139)" fill="#c45200"/>
        <path id="Path_178452" data-name="Path 178452" d="M2905.87-3137.294H2886.2a.994.994,0,0,1-.933-1.046h0v-.322a.994.994,0,0,1,.933-1.046h19.671v2.415Z" transform="translate(-2885.258 3176.799)" fill="#c45200"/>
        <path id="Path_178453" data-name="Path 178453" d="M2888.091-3133.475c0,.058,4.06.1,9.071.1s9.071-.047,9.071-.1-4.06-.1-9.071-.1S2888.091-3133.475,2888.091-3133.475Z" transform="translate(-2885.458 3176.365)" fill="#e0e0e0"/>
        <path id="Path_178454" data-name="Path 178454" d="M2888.091-3128.716c0,.057,4.06.1,9.071.1s9.071-.047,9.071-.1-4.06-.1-9.071-.1S2888.091-3128.773,2888.091-3128.716Z" transform="translate(-2885.458 3176.027)" fill="#e0e0e0"/>
        <path id="Path_178455" data-name="Path 178455" d="M2888.091-3123.968c0,.058,4.06.1,9.071.1s9.071,0,9.071-.1-4.06-.1-9.071-.1S2888.091-3124.025,2888.091-3123.968Z" transform="translate(-2885.458 3175.69)" fill="#e0e0e0"/>
        <path id="Path_178456" data-name="Path 178456" d="M2888.091-3119.219c0,.057,4.06.1,9.071.1s9.071-.047,9.071-.1-4.06-.1-9.071-.1S2888.091-3119.277,2888.091-3119.219Z" transform="translate(-2885.458 3175.354)" fill="#e0e0e0"/>
        <path id="Path_178457" data-name="Path 178457" d="M2888.091-3114.471c0,.056,4.06.094,9.071.094s9.071,0,9.071-.094-4.06-.1-9.071-.1S2888.091-3114.538,2888.091-3114.471Z" transform="translate(-2885.458 3175.017)" fill="#e0e0e0"/>
        <path id="Path_178458" data-name="Path 178458" d="M2888.091-3109.733c0,.058,4.06.1,9.071.1s9.071-.047,9.071-.1-4.06-.1-9.071-.1S2888.091-3109.79,2888.091-3109.733Z" transform="translate(-2885.458 3174.681)" fill="#e0e0e0"/>
        <path id="Path_178459" data-name="Path 178459" d="M2888.091-3104.984c0,.057,4.06.1,9.071.1s9.071-.047,9.071-.1-4.06-.1-9.071-.1S2888.091-3105.042,2888.091-3104.984Z" transform="translate(-2885.458 3174.344)" fill="#e0e0e0"/>
        <rect id="Rectangle_36621" data-name="Rectangle 36621" width="17.513" height="20.813" transform="translate(83.298 1.35)" fill="#f5f5f5"/>
        <rect id="Rectangle_36622" data-name="Rectangle 36622" width="79.134" height="23.484" transform="translate(4.772)" fill="#ffb600"/>
        <path id="Path_178460" data-name="Path 178460" d="M2992.843-3177.621h-19.557v-1.968h19.557a.951.951,0,0,1,.952.951h0a.951.951,0,0,1-.882,1.014Z" transform="translate(-2891.5 3179.627)" fill="#ffb600"/>
        <path id="Path_178461" data-name="Path 178461" d="M2992.843-3154.514h-19.557v-1.968h19.557a.951.951,0,0,1,.952.95h0a.952.952,0,0,1-.882,1.016C2992.89-3154.514,2992.866-3154.514,2992.843-3154.514Z" transform="translate(-2891.5 3177.989)" fill="#ffb600"/>
        <g id="Group_117216" data-name="Group 117216" transform="translate(68.333)" opacity="0.4">
          <rect id="Rectangle_36623" data-name="Rectangle 36623" width="9.346" height="23.484"/>
        </g>
        <g id="Group_117217" data-name="Group 117217" transform="translate(11.789)" opacity="0.4">
          <rect id="Rectangle_36624" data-name="Rectangle 36624" width="9.346" height="23.484"/>
        </g>
        <path id="Path_178462" data-name="Path 178462" d="M2992.471-3174.47c0,.057-3.8.094-8.462.094s-8.461,0-8.461-.094,3.8-.1,8.461-.1S2992.471-3174.537,2992.471-3174.47Z" transform="translate(-2891.66 3179.272)" fill="#e0e0e0"/>
        <path id="Path_178463" data-name="Path 178463" d="M2992.471-3171.114c0,.058-3.8.1-8.462.1s-8.461-.047-8.461-.1,3.8-.1,8.461-.1S2992.471-3171.171,2992.471-3171.114Z" transform="translate(-2891.66 3179.034)" fill="#e0e0e0"/>
        <path id="Path_178464" data-name="Path 178464" d="M2992.471-3166.979c0,.057-3.8.1-8.462.1s-8.461-.048-8.461-.1,3.8-.1,8.461-.1S2992.471-3167.037,2992.471-3166.979Z" transform="translate(-2891.66 3178.741)" fill="#e0e0e0"/>
        <path id="Path_178465" data-name="Path 178465" d="M2992.471-3162.845c0,.057-3.8.1-8.462.1s-8.461-.048-8.461-.1,3.8-.1,8.461-.1S2992.471-3162.9,2992.471-3162.845Z" transform="translate(-2891.66 3178.448)" fill="#e0e0e0"/>
        <path id="Path_178466" data-name="Path 178466" d="M2992.471-3158.7c0,.057-3.8.1-8.462.1s-8.461,0-8.461-.1,3.8-.1,8.461-.1S2992.471-3158.758,2992.471-3158.7Z" transform="translate(-2891.66 3178.154)" fill="#e0e0e0"/>
        <g id="Group_117218" data-name="Group 117218" transform="translate(27.706 9.651)" opacity="0.2">
          <rect id="Rectangle_36625" data-name="Rectangle 36625" width="35.597" height="4.231"/>
        </g>
        <rect id="Rectangle_36626" data-name="Rectangle 36626" width="17.78" height="12.683" transform="translate(82.851 23.941)" fill="#fafafa"/>
        <rect id="Rectangle_36627" data-name="Rectangle 36627" width="75.663" height="13.606" transform="translate(7.397 23.475)" fill="#263238"/>
        <path id="Path_178467" data-name="Path 178467" d="M2974.053-3153.441h19.111a.456.456,0,0,0,.466-.447v-.009h0a.466.466,0,0,0-.466-.466h-19.111Z" transform="translate(-2891.554 3177.839)" fill="#263238"/>
        <path id="Path_178468" data-name="Path 178468" d="M2974.053-3140.7h19.168a.4.4,0,0,1,.4.4h0v.124a.4.4,0,0,1-.4.4h-19.168v-.922Z" transform="translate(-2891.554 3176.872)" fill="#263238"/>
        <path id="Path_178469" data-name="Path 178469" d="M2992.227-3151.281c0,.057-3.937.1-8.785.1s-8.795,0-8.795-.1,3.937-.1,8.795-.1S2992.227-3151.338,2992.227-3151.281Z" transform="translate(-2891.596 3177.627)" fill="#e0e0e0"/>
        <path id="Path_178470" data-name="Path 178470" d="M2992.227-3148.692c0,.057-3.937.1-8.785.1s-8.795-.048-8.795-.1,3.937-.1,8.795-.1S2992.227-3148.749,2992.227-3148.692Z" transform="translate(-2891.596 3177.444)" fill="#e0e0e0"/>
        <path id="Path_178471" data-name="Path 178471" d="M2992.227-3146.113c0,.057-3.937.1-8.785.1s-8.795-.048-8.795-.1,3.937-.1,8.795-.1S2992.227-3146.171,2992.227-3146.113Z" transform="translate(-2891.596 3177.261)" fill="#e0e0e0"/>
        <path id="Path_178472" data-name="Path 178472" d="M2992.227-3143.533c0,.066-3.937.1-8.785.1s-8.795,0-8.795-.1,3.937-.1,8.795-.1S2992.227-3143.591,2992.227-3143.533Z" transform="translate(-2891.596 3177.077)" fill="#e0e0e0"/>
      </g>
      <path id="Path_178473" data-name="Path 178473" d="M2961.414-3321.062v26.118h0a8.918,8.918,0,0,1-8.918,8.918H2895c-1.807,3.784-6.189,9.251-16.068,10.839,0,0,4.164-4.782,4.516-10.839h-10.659a8.919,8.919,0,0,1-8.918-8.918v-26.09h0a8.918,8.918,0,0,1,8.918-8.918h79.7A8.918,8.918,0,0,1,2961.414-3321.062Z" transform="translate(-2550.693 3444.274)" fill="#fafafa"/>
      <path id="Path_178474" data-name="Path 178474" d="M2953.085-3329.5a7.339,7.339,0,0,1,1.607.218,8.958,8.958,0,0,1,6.8,7.606,23.54,23.54,0,0,1,.075,2.615v23.988a9.557,9.557,0,0,1-.75,4.146,9.291,9.291,0,0,1-2.681,3.49,8.986,8.986,0,0,1-4.174,1.844,12.972,12.972,0,0,1-2.339.134h-56.629l.219-.134a18.687,18.687,0,0,1-6.6,7.407,22.821,22.821,0,0,1-4.6,2.292,32.483,32.483,0,0,1-5.049,1.283l-.647.114.418-.523a19.677,19.677,0,0,0,4.46-10.7l.247.267h-7.787c-1.237,0-2.434.076-3.7,0a9.165,9.165,0,0,1-8.015-6.751,12.494,12.494,0,0,1-.314-3.594v-24.046a9.506,9.506,0,0,1,1.826-6.284,9.08,9.08,0,0,1,5.381-3.471,14.34,14.34,0,0,1,3.157-.209h36.291l30.882.076h0l-30.882.085h-36.215a13.681,13.681,0,0,0-3.061.209,8.683,8.683,0,0,0-5.116,3.3,9.053,9.053,0,0,0-1.721,6.019v24.046a12.352,12.352,0,0,0,.3,3.47,8.653,8.653,0,0,0,7.606,6.38h11.7v.266a17.7,17.7,0,0,1-1.5,5.933,21.807,21.807,0,0,1-3.081,5.049l-.218-.4a29.953,29.953,0,0,0,4.953-1.265,21.592,21.592,0,0,0,4.507-2.234,18.192,18.192,0,0,0,6.427-7.207l.066-.133h56.791a12.851,12.851,0,0,0,2.282-.124,8.746,8.746,0,0,0,6.579-5.1,9.325,9.325,0,0,0,.742-4.013v-23.988c0-.9.019-1.778-.058-2.6a8.863,8.863,0,0,0-6.655-7.606,14.573,14.573,0,0,0-2.14-.313Z" transform="translate(-2550.674 3444.274)" fill="#263238"/>
      <path id="Path_178475" data-name="Path 178475" d="M2868.061-3452.754h-55.43a14.186,14.186,0,0,0-14.186,14.185v25.054a14.177,14.177,0,0,0,14.177,14.176h35.749c0,7.245-5.115,13.093-5.115,13.093,11.923-1.9,16.667-8.843,18.492-13.093h6.361a14.175,14.175,0,0,0,14.185-14.167v-25.11a14.185,14.185,0,0,0-14.233-14.138Z" transform="translate(-2546.053 3452.983)" fill="#fafafa"/>
      <path id="Path_178476" data-name="Path 178476" d="M2868.044-3452.771a3.43,3.43,0,0,1,.361,0h1.055a14.688,14.688,0,0,1,3.993.951,14.263,14.263,0,0,1,8.843,11.941c0,.419.047.846.066,1.274v22.733c0,1.151,0,2.32-.057,3.528a16.9,16.9,0,0,1-.267,1.806,12.9,12.9,0,0,1-.513,1.769,14.32,14.32,0,0,1-11.572,9.431,28.465,28.465,0,0,1-4.126.152h-4.164l.2-.133a20.784,20.784,0,0,1-7.3,8.871,25.288,25.288,0,0,1-5.372,2.805,35.025,35.025,0,0,1-5.98,1.559l-.627.114.409-.5a24.706,24.706,0,0,0,3.537-5.933,18.861,18.861,0,0,0,1.511-7.007l.247.247h-35.673a9.1,9.1,0,0,1-1.759-.114,14.434,14.434,0,0,1-6.466-2.463,14.9,14.9,0,0,1-4.526-5.1,14.714,14.714,0,0,1-1.664-6.493v-25.178a14.253,14.253,0,0,1,1.217-5.847,14.484,14.484,0,0,1,8.119-7.691,15.1,15.1,0,0,1,5.343-.951h14.937l29.474.076h10.791l-.713.152h-10.079l-29.474.076h-14.937a14.456,14.456,0,0,0-5.2.951,14.029,14.029,0,0,0-7.816,7.53c-1.693,3.527-1.028,7.672-1.16,11.752s0,8.319,0,12.617v6.522a14.16,14.16,0,0,0,1.606,6.266,14.382,14.382,0,0,0,4.374,4.925,14.125,14.125,0,0,0,6.246,2.377c.561.076,1.141.066,1.7.114h35.94v.248a19.275,19.275,0,0,1-1.55,7.178,25.242,25.242,0,0,1-3.622,6.066l-.219-.39a35.76,35.76,0,0,0,5.9-1.531,24.519,24.519,0,0,0,5.267-2.748,20.4,20.4,0,0,0,7.169-8.671l.057-.134h4.336a31.716,31.716,0,0,0,4.069-.142,13.94,13.94,0,0,0,11.267-9.138,13.87,13.87,0,0,0,.5-1.73c.1-.58.209-1.17.266-1.75.086-1.17.057-2.349.066-3.5V-3438.6l-.057-1.255a14.148,14.148,0,0,0-8.642-11.828A15.594,15.594,0,0,0,2868.044-3452.771Z" transform="translate(-2546.035 3453)" fill="#263238"/>
      <g id="Group_117219" data-name="Group 117219" transform="translate(77.314 152.393)">
        <path id="Path_178477" data-name="Path 178477" d="M2669.486-3288.892a8.5,8.5,0,0,1,8.5,8.5v21.412a8.49,8.49,0,0,1-8.5,8.481h-4.1a20.994,20.994,0,0,0,4.4,9.508c-8.737-1.455-13.14-5.876-15.326-9.508h-35.769a8.49,8.49,0,0,1-8.491-8.49v-21.4h0a8.5,8.5,0,0,1,8.5-8.5Z" transform="translate(-2610.017 3288.969)" fill="#fafafa"/>
        <path id="Path_178478" data-name="Path 178478" d="M2670.394-3288.774a8.68,8.68,0,0,1,2.69.732,8.558,8.558,0,0,1,3.433,2.852,8.81,8.81,0,0,1,1.217,2.605,10.845,10.845,0,0,1,.323,3.233c.047,4.563.047,10.106.047,16.458v2.424q.034,1.261-.058,2.52a8.551,8.551,0,0,1-2.129,4.754,8.711,8.711,0,0,1-4.754,2.767,13.839,13.839,0,0,1-2.852.171H2665.4l.209-.247a20.447,20.447,0,0,0,4.335,9.47l.371.465-.58-.095a25.684,25.684,0,0,1-8.624-2.928,18.869,18.869,0,0,1-6.864-6.656l.2.124h-34.923a11.389,11.389,0,0,1-2.767-.228,8.748,8.748,0,0,1-6.732-7.806c-.048-7.074,0-13.824,0-20.289,0-.818-.057-1.6,0-2.425a8.094,8.094,0,0,1,.514-2.377,8.709,8.709,0,0,1,6.959-5.629,14.852,14.852,0,0,1,2.234-.085h18.1l23.142.076,6.294.047h0l-6.323.124-23.142.076H2619.66a16.5,16.5,0,0,0-2.177.1,8.271,8.271,0,0,0-6.6,5.362,12.166,12.166,0,0,0-.5,4.65c.048,6.446-.028,13.263.048,20.251a8.233,8.233,0,0,0,6.36,7.359,10.645,10.645,0,0,0,2.653.219h35.112l.066.114a18.547,18.547,0,0,0,6.655,6.475,25.089,25.089,0,0,0,8.471,2.852l-.209.371a20.8,20.8,0,0,1-4.411-9.574v-.247h3.157a14.971,14.971,0,0,0,2.795-.162,8.33,8.33,0,0,0,6.656-7.2c.066-.818.066-1.654.066-2.472v-2.424c.047-6.351.047-11.894.047-16.458a10.594,10.594,0,0,0-.285-3.176,8.633,8.633,0,0,0-1.159-2.558,8.548,8.548,0,0,0-3.337-2.852,9.807,9.807,0,0,0-3.594-.885A4.148,4.148,0,0,1,2670.394-3288.774Z" transform="translate(-2610.003 3288.975)" fill="#263238"/>
      </g>
      <path id="Path_178479" data-name="Path 178479" d="M2678.577-3423.65h-84.22a16.373,16.373,0,0,0-16.373,16.372h0v26.813a16.381,16.381,0,0,0,16.373,16.381h70.7c1.513,4.489,6.513,14.262,22,16.772,0,0-6.808-7.805-5.81-17.009a16.374,16.374,0,0,0,13.7-16.164V-3407.3A16.373,16.373,0,0,0,2678.577-3423.65Z" transform="translate(-2530.419 3450.919)" fill="#fafafa"/>
      <path id="Path_178480" data-name="Path 178480" d="M2678.556-3423.665h1.369a15.617,15.617,0,0,1,3.908.78,16.005,16.005,0,0,1,5.591,3.2l.722.656c.238.238.456.494.694.752a18.437,18.437,0,0,1,1.332,1.663,17.826,17.826,0,0,1,2.073,4.193,18.212,18.212,0,0,1,.817,5.154v25.766a22.849,22.849,0,0,1-.238,3.755,16.647,16.647,0,0,1-5.942,10.107,17.727,17.727,0,0,1-3.565,2.2,18.221,18.221,0,0,1-4.107,1.254l.171-.18c-.57,5.781,1.816,11.932,5.771,16.848l.361.456-.561-.095a32.2,32.2,0,0,1-13.207-5.087,24.758,24.758,0,0,1-5.381-5.125,23.793,23.793,0,0,1-3.593-6.713l.218.162h-68.675a29.048,29.048,0,0,1-4.535-.219,16.576,16.576,0,0,1-8.167-3.632,17.933,17.933,0,0,1-3-3.3,16.7,16.7,0,0,1-1.986-3.946,17.7,17.7,0,0,1-.6-2.111,18.973,18.973,0,0,1-.275-2.177c-.115-1.464,0-2.852-.057-4.307v-20.774c0-1.341,0-2.681.057-4.042a16.1,16.1,0,0,1,2.425-7.539,16.083,16.083,0,0,1,5.448-5.438,16.4,16.4,0,0,1,7.1-2.377c1.246-.085,2.463-.085,3.67-.076h29.941l38.183.076H2674.9l-10.374.047-38.183.076h-29.9c-1.207,0-2.424,0-3.623.085a15.986,15.986,0,0,0-6.921,2.33,16.792,16.792,0,0,0-2.958,2.31,17.175,17.175,0,0,0-2.348,3,15.687,15.687,0,0,0-2.339,7.331c-.095,1.3,0,2.662-.057,4.012v21c0,2.852-.143,5.7.95,8.433a16.3,16.3,0,0,0,1.9,3.8,16.911,16.911,0,0,0,2.909,3.2,15.962,15.962,0,0,0,7.892,3.575,26.7,26.7,0,0,0,4.459.218H2665.2l.058.162a23.458,23.458,0,0,0,3.508,6.569,24.467,24.467,0,0,0,5.277,5.039,31.673,31.673,0,0,0,13.016,5.03l-.2.351a27.963,27.963,0,0,1-4.64-8.243,20.3,20.3,0,0,1-1.2-8.938v-.142h.152a17.35,17.35,0,0,0,4.012-1.217,17.142,17.142,0,0,0,3.49-2.14,16.275,16.275,0,0,0,4.754-6.228,16.553,16.553,0,0,0,1.083-3.632,22.007,22.007,0,0,0,.238-3.7v-25.766a17.718,17.718,0,0,0-.789-5.076,17.353,17.353,0,0,0-1.958-4.193,17.819,17.819,0,0,0-1.3-1.655c-.229-.247-.447-.5-.675-.741l-.713-.656a15.993,15.993,0,0,0-5.515-3.224,16.886,16.886,0,0,0-3.879-.836Z" transform="translate(-2530.398 3450.934)" fill="#263238"/>
      <g id="freepik--Character--inject-2" transform="translate(135.019 63.576)">
        <path id="Path_178481" data-name="Path 178481" d="M2829.369-3301.905a7.4,7.4,0,0,1-6.932-3.1c1.788.276,3.718.532,5.324-.295s2.529-3.2,1.265-4.489c-.95-1.007-2.615-.836-4.022-.95a8.689,8.689,0,0,1-7.4-5.7c-1.189-3.423-.1-7.16.333-10.762a29.65,29.65,0,0,0-12.417-27.279l-22.552-13.035c-8.186,10.459-10.735,24.587-9.042,37.765s7.292,25.566,14.014,37.081a43.675,43.675,0,0,0,6.807,9.365,17.37,17.37,0,0,0,10.135,5.21,10.461,10.461,0,0,0-1.673-9.442,22.816,22.816,0,0,0,16.762-6.094l-4.84-3.708A17.646,17.646,0,0,0,2829.369-3301.905Z" transform="translate(-2679.298 3383.362)" fill="#565656"/>
        <path id="Path_178482" data-name="Path 178482" d="M2740.119-3338.648c.4-9.432,6.266-17.323,15.336-19.919l28.286-8.082c12.274-1.683,20.917,13.235,22.086,25.566,1.293,13.71,2.254,28.182.951,38.479-2.634,20.7-18.341,23.77-18.341,23.77s.523,18.654.685,24.673l-14.4,30.121-27.877-38.479-6.8-75.882C2740.033-3338.752,2740.1-3338.182,2740.119-3338.648Z" transform="translate(-2676.93 3383.31)" fill="#ffbf9d"/>
        <path id="Path_178483" data-name="Path 178483" d="M2801.338-3319.895a2.653,2.653,0,0,1-2.471,2.748,2.529,2.529,0,0,1-2.789-2.239l-.006-.062a2.662,2.662,0,0,1,2.463-2.747,2.539,2.539,0,0,1,2.8,2.248Z" transform="translate(-2680.903 3380.149)" fill="#263238"/>
        <path id="Path_178484" data-name="Path 178484" d="M2806.971-3330.539c-.314.362-2.358-1.065-5.2-.951s-4.887,1.588-5.2,1.246c-.162-.152.152-.78,1.045-1.473a7.254,7.254,0,0,1,4.146-1.417,6.943,6.943,0,0,1,4.155,1.2C2806.819-3331.309,2807.133-3330.691,2806.971-3330.539Z" transform="translate(-2680.936 3380.923)" fill="#263238"/>
        <path id="Path_178485" data-name="Path 178485" d="M2774.342-3319.895a2.653,2.653,0,0,1-2.471,2.748,2.531,2.531,0,0,1-2.79-2.239l-.006-.062a2.653,2.653,0,0,1,2.462-2.747,2.539,2.539,0,0,1,2.8,2.248Z" transform="translate(-2678.989 3380.149)" fill="#263238"/>
        <path id="Path_178486" data-name="Path 178486" d="M2777.907-3329.709c-.314.361-2.367-1.055-5.2-.951s-4.887,1.588-5.21,1.246c-.152-.152.162-.779,1.055-1.473a7.237,7.237,0,0,1,4.146-1.417,6.973,6.973,0,0,1,4.155,1.2C2777.717-3330.48,2778.069-3329.862,2777.907-3329.709Z" transform="translate(-2678.874 3380.865)" fill="#263238"/>
        <path id="Path_178487" data-name="Path 178487" d="M2788.8-3307.553c0-.152,1.739-.514,4.593-.95.722-.1,1.406-.267,1.511-.761a3.692,3.692,0,0,0-.542-2.14l-2.32-5.457c-3.223-7.787-5.581-14.186-5.267-14.318s3.185,6.076,6.408,13.853c.77,1.9,1.522,3.8,2.225,5.5a4.2,4.2,0,0,1,.465,2.853,1.842,1.842,0,0,1-1.159,1.1,5.473,5.473,0,0,1-1.227.209C2790.608-3307.458,2788.821-3307.391,2788.8-3307.553Z" transform="translate(-2680.242 3380.785)" fill="#263238"/>
        <path id="Path_178488" data-name="Path 178488" d="M2762.484-3279.131s7.1,13.957,27.668,11.409l-.133-4.849A51.98,51.98,0,0,1,2762.484-3279.131Z" transform="translate(-2678.521 3377.094)" fill="#ff9a6c"/>
        <path id="Path_178489" data-name="Path 178489" d="M2776.489-3339.53c-.258.779-3.11.5-6.437,1.007s-5.991,1.493-6.456.818c-.209-.323.238-1.065,1.3-1.9a11.341,11.341,0,0,1,9.821-1.388C2775.918-3340.49,2776.555-3339.9,2776.489-3339.53Z" transform="translate(-2678.597 3381.52)" fill="#263238"/>
        <path id="Path_178490" data-name="Path 178490" d="M2805.769-3339.886c-.485.665-2.462.057-4.82.095s-4.336.57-4.811-.095c-.219-.323.076-.951.95-1.616a6.658,6.658,0,0,1,3.879-1.179,6.766,6.766,0,0,1,3.88,1.179C2805.683-3340.856,2805.978-3340.2,2805.769-3339.886Z" transform="translate(-2680.903 3381.601)" fill="#263238"/>
        <path id="Path_178491" data-name="Path 178491" d="M2777.473-3300a3.7,3.7,0,0,1,3.746-2.918,3.8,3.8,0,0,1,3.042,2.035,4.752,4.752,0,0,1,.276,3.708l-.047.266a4.23,4.23,0,0,1-4.754,1.141A3.936,3.936,0,0,1,2777.473-3300Z" transform="translate(-2679.581 3378.78)" fill="#ff9a6c"/>
        <path id="Path_178492" data-name="Path 178492" d="M2786.64-3297.049c0-.437-2.852-.218-5.115-2.509s-2.149-5.381-2.558-5.372c-.18,0-.5.723-.437,2.025a7.157,7.157,0,0,0,1.977,4.488,6.19,6.19,0,0,0,4.269,1.9C2785.984-3296.478,2786.669-3296.858,2786.64-3297.049Z" transform="translate(-2679.659 3378.923)" fill="#263238"/>
        <path id="Path_178493" data-name="Path 178493" d="M2750.358-3372.731c3.185-5.058,10.7-10.335,16.582-11.409,6.713-1.17,10.753,0,15.166,4,0,0,3.432,3.308,6.655,3.937s5.9.095,9.746,2.063c5.238,2.681,7.54,9.688,9.964,15.051,3.024,6.656,7.321,12.8,9.29,19.844s.95,15.706-5.012,19.966c1.017-5.4,1.9-11.343-.36-16.23a14.133,14.133,0,0,1-.362,5.847c-1.113-3.166-2.281-6.437-4.583-8.889-2.167-2.311-5.172-3.689-7.416-5.933-3.281-3.3-4.754-8.329-8.795-10.715-4.155-2.492-9.4-1.255-14.262-1.228a27.322,27.322,0,0,1-21.23-10.23l1.2-.1A34.149,34.149,0,0,1,2750.358-3372.731Z" transform="translate(-2677.661 3384.571)" fill="#565656"/>
        <path id="Path_178494" data-name="Path 178494" d="M2717.643-3321.549c1.9-6.066,5.1-11.609,7.131-17.609,1.978-5.847,2.8-12.094,5.42-17.675,3.536-7.511,10.145-17.237,20.432-16.705l.7.618a22.135,22.135,0,0,1,10.373,1.236l.162,8.025,1.968,1.739c-.827,1.588-1.606,3.128-2.367,4.64a49.665,49.665,0,0,1-2.586,8.833,22.812,22.812,0,0,1-4.934,7.512c-17.732,42.453-1.655,45.134-9.641,69.464l-5.02-13.929a24.839,24.839,0,0,1-9.935-10.706c-.295,1.464-.6,2.938-.894,4.412a25.612,25.612,0,0,1-6.922-15.812l-2.3,4.231C2715.542-3308.447,2715.8-3315.492,2717.643-3321.549Z" transform="translate(-2675.248 3383.79)" fill="#565656"/>
        <path id="Path_178495" data-name="Path 178495" d="M2749.324-3319.336c-.276-.694-13.093-4.906-12.874,8.557.209,13.1,13.311,10.155,13.369,9.774S2749.324-3319.336,2749.324-3319.336Z" transform="translate(-2676.675 3380.028)" fill="#ffbf9d"/>
        <path id="Path_178496" data-name="Path 178496" d="M2745.933-3305.544c-.057,0-.229.162-.609.351a2.29,2.29,0,0,1-1.7.067c-1.4-.485-2.6-2.662-2.709-5.02a7.6,7.6,0,0,1,.571-3.281,2.643,2.643,0,0,1,1.683-1.788,1.16,1.16,0,0,1,1.359.6c.181.371.1.627.172.656s.285-.229.162-.771a1.488,1.488,0,0,0-.523-.808,1.779,1.779,0,0,0-1.275-.313,3.221,3.221,0,0,0-2.348,2.082,7.776,7.776,0,0,0-.714,3.67c.134,2.634,1.531,5.077,3.433,5.59a2.433,2.433,0,0,0,2.082-.389C2745.915-3305.182,2745.981-3305.525,2745.933-3305.544Z" transform="translate(-2676.926 3379.698)" fill="#ff9a6c"/>
        <path id="Path_178497" data-name="Path 178497" d="M2744.622-3302.22a2.6,2.6,0,0,0-2.976,2.149,2.6,2.6,0,0,0,2.149,2.976,2.6,2.6,0,0,0,2.976-2.149,2.6,2.6,0,0,0-1.531-2.8" transform="translate(-2677.041 3378.733)" fill="#fff"/>
        <path id="Path_178498" data-name="Path 178498" d="M2745.225-3302.047a3.514,3.514,0,0,1,1.226,1.72,2.225,2.225,0,0,1-.447,2.073,2.29,2.29,0,0,1-3.219.365,2.289,2.289,0,0,1-.85-1.534,2.252,2.252,0,0,1,.713-2,3.529,3.529,0,0,1,1.959-.808,1.126,1.126,0,0,0-.618-.124,2.667,2.667,0,0,0-1.617.618,2.6,2.6,0,0,0-.95,2.386,2.853,2.853,0,0,0,3.2,2.46,2.852,2.852,0,0,0,1.832-1.015,2.6,2.6,0,0,0,.438-2.548,2.631,2.631,0,0,0-1.046-1.379C2745.444-3302.056,2745.234-3302.085,2745.225-3302.047Z" transform="translate(-2677.026 3378.74)" fill="#263238"/>
        <path id="Path_178499" data-name="Path 178499" d="M2765.365-3358.62c-.267.1-1.474-4.336-5.125-8.453s-7.825-5.98-7.692-6.219a7.33,7.33,0,0,1,2.767,1.1,21.284,21.284,0,0,1,9.327,10.686A7.459,7.459,0,0,1,2765.365-3358.62Z" transform="translate(-2677.816 3383.771)" fill="#455a64"/>
        <path id="Path_178500" data-name="Path 178500" d="M2814.712-3255.082c-1.246-.323,14.442,73.1,14.442,73.1l25.672,37.081h24.54l7.055-5.458s-13.13-26.127-19.33-35.559S2836.617-3249.454,2814.712-3255.082Z" transform="translate(-2682.22 3375.388)" fill="#5a189a"/>
        <path id="Path_178501" data-name="Path 178501" d="M2806.12-3255.384l-19.891-3.956c-4.754,18.236-30.035,16.63-43.736,0l-10.972,2.976c-14.661,4.318-18.065,5.962-18.065,5.962-10.677,4.174-17.323,15.64-19.966,23.589l26.175,72.584-6.656,43.736,112.821-.124-10.259-37.081,2.244-11.932,3.318-10.335c3.31-10.62-1.15-30.1-4.4-40.75l-3.537-15.441Z" transform="translate(-2673.629 3375.69)" fill="#5a189a"/>
        <g id="Group_117220" data-name="Group 117220" transform="translate(41.796 151.007)" opacity="0.3">
          <path id="Path_178502" data-name="Path 178502" d="M2728.508-3222.038s1.274,15.212,0,22.818-4.326,45.116-4.326,45.116l38.079,11.333,20.917-7.292L2771-3120.732l-22.24,3.186L2723.6-3144.5l-6.5-19.339,3.574-10.458Z" transform="translate(-2717.099 3222.038)" fill="#1a1a1a"/>
        </g>
        <path id="Path_178503" data-name="Path 178503" d="M2808.4-3126.5l-20.271-10.108,3.3-1.9,6.313,2.015c0,.285,5.885,2.852,8.053,2.292a5.706,5.706,0,0,0,3.356-2.492c.3-.589-7.454-4.554-7.454-4.554l-9.774-5-10.459,2.747-18.654,11.638-13.987-4.354c-.352.58-5.353,22.685-5.353,22.685s13.739,4.5,21.631,3.8c5.363-.447,9.965-4.175,12.636-6.827l2.4,1.284s8.766,4.268,12.493,4.44,1.312-3.337,1.312-3.337l-6.513-4.212-2.653-2.339,4.031,1.436s6.836,3.5,8.224,3.889c1.778.494,3.185.1,3.861-2.378s-13.311-10.677-13.311-10.677l13.625,5.7a7.694,7.694,0,0,0,4.022.58,3.251,3.251,0,0,0,2.785-1.739C2809.018-3126.406,2808.4-3126.5,2808.4-3126.5Z" transform="translate(-2677.173 3367.67)" fill="#ffbf9d"/>
        <path id="Path_178504" data-name="Path 178504" d="M2779.155-3134.094a4.549,4.549,0,0,1,1.379-1.188,10.668,10.668,0,0,1,8.557-1.284,4.306,4.306,0,0,1,1.664.732,16.841,16.841,0,0,1-1.749-.389,12.286,12.286,0,0,0-8.253,1.235A16.02,16.02,0,0,1,2779.155-3134.094Z" transform="translate(-2679.703 3367.011)" fill="#ff9a6c"/>
        <path id="Path_178505" data-name="Path 178505" d="M2792.53-3125.953a9.252,9.252,0,0,1-1.8-1.1,18.682,18.682,0,0,0-4.45-2.273,8.318,8.318,0,0,0-4.858-.1,15.317,15.317,0,0,0-1.9.875,3.6,3.6,0,0,1,1.769-1.2,7.92,7.92,0,0,1,5.134-.047,15.212,15.212,0,0,1,4.507,2.462A8.22,8.22,0,0,1,2792.53-3125.953Z" transform="translate(-2679.73 3366.532)" fill="#ff9a6c"/>
        <path id="Path_178506" data-name="Path 178506" d="M2784.173-3122.511a8.885,8.885,0,0,1-1.1-.409,6.249,6.249,0,0,0-2.7-.3,6.1,6.1,0,0,0-2.576.884c-.609.371-.951.694-.951.636a2.416,2.416,0,0,1,.78-.951,5.458,5.458,0,0,1,5.619-.618C2783.887-3122.91,2784.211-3122.549,2784.173-3122.511Z" transform="translate(-2679.54 3366.077)" fill="#ff9a6c"/>
        <path id="Path_178507" data-name="Path 178507" d="M2790.28-3116.263a13.055,13.055,0,0,1-4.545-4.412,14.581,14.581,0,0,1,2.349,2.13A13.988,13.988,0,0,1,2790.28-3116.263Z" transform="translate(-2680.17 3365.857)" fill="#ff9a6c"/>
        <path id="Path_178508" data-name="Path 178508" d="M2727.333-3210.83c5.629-29.941-26.888-38.64-34.674-16.563,0,0-7.788,22.505-11.078,35.037-3.061,11.666-6.655,26.622-9,41.112-1.626,10,1.1,21.868,6.779,24.273,14.823,6.295,73.629,15.707,73.629,15.707l3.65-29.979-43.583-10.306s1.815-4.906-1.541-5.362l10.506-36.387Z" transform="translate(-2672.113 3374.301)" fill="#5a189a"/>
        <path id="Path_178509" data-name="Path 178509" d="M2714.52-3150.587l.389.189a2.116,2.116,0,0,1,.447.285,2.558,2.558,0,0,1,.552.494,2.857,2.857,0,0,1,.732,1.9,4.993,4.993,0,0,1-.846,2.662l-.085-.209c3.546.637,8.424,1.7,14.147,3.081l19.377,4.754c3.633.865,7.15,1.654,10.458,2.291h.229v.219l-2.7,21.469c-.352,2.624-.628,4.754-.828,6.237-.1.694-.189,1.246-.247,1.673a2.44,2.44,0,0,1-.113.571,4.335,4.335,0,0,1,0-.58c.047-.428.095-.95.171-1.683.162-1.5.4-3.622.685-6.256.636-5.372,1.512-12.855,2.529-21.488l.189.267c-3.308-.628-6.845-1.417-10.459-2.273-7.054-1.683-13.644-3.384-19.357-4.8s-10.573-2.529-14.1-3.233h-.19l.1-.171a4.8,4.8,0,0,0,.856-2.51,2.769,2.769,0,0,0-.627-1.816,3.138,3.138,0,0,0-.5-.5,2.491,2.491,0,0,0-.428-.314A1.88,1.88,0,0,1,2714.52-3150.587Z" transform="translate(-2675.12 3367.978)" fill="#263238"/>
        <path id="Path_178510" data-name="Path 178510" d="M2727.839-3198.859a1.437,1.437,0,0,1-.086.465l-.381,1.341-1.359,4.83c-1.159,4.07-2.8,9.688-4.64,15.878s-3.528,11.79-4.754,15.84c-.618,1.958-1.131,3.575-1.5,4.754-.18.513-.323.95-.437,1.293a1.965,1.965,0,0,1-.181.437,1.463,1.463,0,0,1,.086-.466l.343-1.322c.342-1.217.8-2.852,1.35-4.829,1.17-4.07,2.852-9.688,4.64-15.878s3.537-11.79,4.754-15.84c.618-1.959,1.131-3.575,1.5-4.754.171-.514.313-.951.437-1.293S2727.819-3198.868,2727.839-3198.859Z" transform="translate(-2675.118 3371.401)" fill="#263238"/>
        <path id="Path_178511" data-name="Path 178511" d="M2729-3220.573a39.135,39.135,0,0,0-.846-4.754,20.916,20.916,0,0,0-16.163-15.212,37.1,37.1,0,0,0-4.83-.552,5.754,5.754,0,0,1,1.312-.1,18.559,18.559,0,0,1,3.584.313,20.538,20.538,0,0,1,16.42,15.46,18.545,18.545,0,0,1,.523,3.566A6.625,6.625,0,0,1,2729-3220.573Z" transform="translate(-2674.598 3374.404)" fill="#263238"/>
        <path id="Path_178512" data-name="Path 178512" d="M2713.74-3150.222c0,.076-.676-.1-1.74-.162a9.062,9.062,0,0,0-7.359,3.033c-.713.8-1.046,1.379-1.112,1.341a3.8,3.8,0,0,1,.846-1.559,8.236,8.236,0,0,1,3.4-2.605,8.411,8.411,0,0,1,4.26-.561A3.674,3.674,0,0,1,2713.74-3150.222Z" transform="translate(-2674.341 3367.993)" fill="#263238"/>
        <path id="Path_178513" data-name="Path 178513" d="M2715.181-3145.646c0,.152-1.721.3-3.66,1.132s-3.271,1.958-3.366,1.844A8.713,8.713,0,0,1,2715.181-3145.646Z" transform="translate(-2674.668 3367.628)" fill="#263238"/>
        <path id="Path_178514" data-name="Path 178514" d="M2820.847-3220.81a3.005,3.005,0,0,1,.342.571c.238.427.532.95.9,1.673s.865,1.626,1.35,2.7,1.1,2.263,1.645,3.632,1.207,2.853,1.778,4.507c.285.817.619,1.655.951,2.539s.561,1.8.847,2.738a82.381,82.381,0,0,1,2.69,12.446,75.5,75.5,0,0,1,.532,12.721c-.162,1.949-.257,3.8-.552,5.533-.133.865-.228,1.7-.38,2.491s-.333,1.55-.485,2.282c-.267,1.455-.694,2.729-1,3.86-.171.57-.3,1.094-.465,1.579s-.333.894-.476,1.293l-.675,1.777a3.418,3.418,0,0,1-.257.609,2.687,2.687,0,0,1,.172-.636c.142-.467.333-1.066.58-1.816.133-.39.276-.827.427-1.3s.276-1.008.428-1.579c.285-1.132.676-2.406.95-3.86.143-.722.3-1.483.447-2.272s.229-1.616.352-2.481c.276-1.711.352-3.557.5-5.5a77.716,77.716,0,0,0-.571-12.646,87.006,87.006,0,0,0-2.633-12.361c-.276-.95-.561-1.835-.828-2.719s-.589-1.721-.874-2.539c-.552-1.645-1.17-3.137-1.711-4.507s-1.113-2.585-1.579-3.66-.9-1.987-1.264-2.729-.609-1.274-.818-1.711A4.31,4.31,0,0,1,2820.847-3220.81Z" transform="translate(-2682.66 3372.958)" fill="#263238"/>
        <path id="Path_178515" data-name="Path 178515" d="M2822.036-3227.882c.124.076-.542,1.417-.884,3.214s-.247,3.29-.39,3.3a5.834,5.834,0,0,1-.094-3.394A5.927,5.927,0,0,1,2822.036-3227.882Z" transform="translate(-2682.633 3373.459)" fill="#263238"/>
        <g id="Group_117221" data-name="Group 117221" transform="translate(137.205 147.057)" opacity="0.3">
          <path id="Path_178516" data-name="Path 178516" d="M2834.672-3200.224c-1.226-4.83-3.528-9.289-5.81-13.71q-2.8-5.391-5.6-10.734c-.362-.685-.808-1.446-1.569-1.6a1.8,1.8,0,0,0-1.9,1.664,5.177,5.177,0,0,0,.675,2.7,197.477,197.477,0,0,1,8.5,21.954c2.329,7.3,4,17.057,2.7,24.606C2836.051-3182.711,2836.764-3191.876,2834.672-3200.224Z" transform="translate(-2819.79 3226.29)" fill="#1a1a1a"/>
        </g>
        <path id="Path_178517" data-name="Path 178517" d="M2796.206-3176.959a1.274,1.274,0,0,1-.058.437c-.057.276-.113.694-.256,1.227a29.541,29.541,0,0,1-1.445,4.392,33.071,33.071,0,0,1-22.278,19.435,30.56,30.56,0,0,1-4.544.836c-.542.067-.951.067-1.255.086a1.506,1.506,0,0,1-.447,0,15.688,15.688,0,0,1,1.673-.267,36.4,36.4,0,0,0,4.487-.951,33.971,33.971,0,0,0,22.04-19.225,35.952,35.952,0,0,0,1.55-4.355A14.324,14.324,0,0,1,2796.206-3176.959Z" transform="translate(-2678.765 3369.848)" fill="#263238"/>
        <path id="Path_178518" data-name="Path 178518" d="M2921.773-3161.429l-2.492-2.738s-18.226,8.186-24.426,11.656c-8.946,5-10.087,7.549-10.087,7.549l-1.179,5.706,4.212,2.852Z" transform="translate(-2687.11 3368.941)" fill="#fff"/>
        <path id="Path_178519" data-name="Path 178519" d="M2887.8-3136.437h0l-4.222-2.852h0l1.179-5.7a6.941,6.941,0,0,1,1.693-1.9,47.632,47.632,0,0,1,8.4-5.657c6.133-3.432,24.245-11.58,24.435-11.666h0l2.52,2.8h0Zm-4.184-2.852,4.175,2.852,33.943-24.949-2.463-2.785c-.627.275-18.36,8.262-24.406,11.647a47.5,47.5,0,0,0-8.386,5.647,7.484,7.484,0,0,0-1.684,1.9Z" transform="translate(-2687.109 3368.945)" fill="#263238"/>
        <path id="Path_178520" data-name="Path 178520" d="M2880.318-3136.163s-1.245-12.123-9.136-15.555-31.965,8.89-32.479,9.061-49.355,31.785-49.355,31.785l2.709,3.328,44.393-5.391Z" transform="translate(-2680.427 3368.101)" fill="#fff"/>
        <path id="Path_178521" data-name="Path 178521" d="M2791.1-3109.383l48.233-31.375s25.577-12.922,32.7-8.776,6.351,12.094,6.351,12.094l-46.493,26.669-38.517,4.669Z" transform="translate(-2680.55 3367.961)" fill="#e0e0e0"/>
        <path id="Path_178522" data-name="Path 178522" d="M2878.115-3141.268s-3.955-6.5-20.965-3.584a106.591,106.591,0,0,0-18.834,5.172l-46.122,31.461,1.6,1.9,73.21-27.268,11.5-2.282.95-2.016Z" transform="translate(-2680.628 3367.625)" fill="#fff"/>
        <path id="Path_178523" data-name="Path 178523" d="M2788.181-3105.754l42.4-28.552,42.966-6.5,6.494,3.109,35.873-25.433,1.721,1.978-57,46.037-12.227-2.938-13.321,9.375-45.818,4.849Z" transform="translate(-2680.344 3368.867)" fill="#ffb600"/>
        <path id="Path_178524" data-name="Path 178524" d="M2789.262-3103.855l-.285-.447c-.181-.333-.457-.808-.837-1.455h0c4.678-3.214,20.109-13.672,42.32-28.675h0l42.956-6.542h.133l6.5,3.109h-.238l35.864-25.452.181-.123.152.171.466.532,1.255,1.446.18.2-.219.162-36.425,26.8-.123.086-.133-.066-7.141-3.8h.143l-42.167,6.865h.076l-31.224,19.966-8.558,5.429-2.224,1.407-.77.457s.247-.181.732-.5l2.206-1.445,8.471-5.515,31.138-20.128h0l42.329-7.065h.152l7.149,3.8h-.256l36.415-26.822v.361l-1.264-1.446-.466-.532h.333l-35.911,25.586-.114.086-.094-.086-6.5-3.119h.133l-42.965,6.466h.076c-22.249,14.937-37.747,25.3-42.481,28.419v-.057c.371.665.628,1.15.808,1.473Z" transform="translate(-2680.341 3368.889)" fill="#263238"/>
        <path id="Path_178525" data-name="Path 178525" d="M2833.289-3131.359c.113-.075.542.381.95,1.008s.656,1.208.542,1.284-.542-.381-.95-1.008S2833.175-3131.283,2833.289-3131.359Z" transform="translate(-2683.541 3366.615)" fill="#263238"/>
        <path id="Path_178526" data-name="Path 178526" d="M2877.844-3135.892a2,2,0,0,1-.361.342c-.3.237-.665.542-1.1.9l-4.117,3.232c-3.48,2.719-8.32,6.456-13.682,10.544-2.691,2.035-5.2,4.041-7.606,5.7l-6.38,4.431-4.326,2.947-1.189.78a1.554,1.554,0,0,1-.437.248,2.237,2.237,0,0,1,.38-.324l1.132-.855,4.24-3.081,6.313-4.516c2.378-1.692,4.878-3.708,7.606-5.7,5.363-4.088,10.23-7.768,13.767-10.458l4.2-3.109,1.16-.828A1.953,1.953,0,0,1,2877.844-3135.892Z" transform="translate(-2683.922 3366.936)" fill="#263238"/>
        <path id="Path_178527" data-name="Path 178527" d="M2893.1-3134.356c-1.16,1.588-4.431,6.789-4.431,6.789a57.183,57.183,0,0,1-2.567,9.289,16.665,16.665,0,0,1-12.9,9.792c-6.531.818-17.428-3.365-17.428-3.365l-13.948-5.21s-3.137-2.691-.532-4.316c0,0-2.311-2.605,2.263-3.756s17.114,4.754,17.114,4.754-5.219-4.4-8.328-5.543-1.788-3.8.817-4.088,4.554.646,8.957,2.11,8.348,4.422,10.145,4.422.674-2.909-.95-4.05c-6.609-4.554-4.412-6.066-4.412-6.066s.656-2.283,4.079-.819a87.988,87.988,0,0,1,9.356,5.268c3.8-.247,5.01-1.188,5.866-3.432a8.059,8.059,0,0,1,2.491-3.309l1.664-1.35a2.016,2.016,0,0,1,2.836.286,2.016,2.016,0,0,1,.1,2.414Z" transform="translate(-2684.037 3367.063)" fill="#ffbf9d"/>
        <path id="Path_178528" data-name="Path 178528" d="M2858.258-3112.314a92.655,92.655,0,0,1-8.776-3.8,91.083,91.083,0,0,1-8.557-4.24,94.134,94.134,0,0,1,8.775,3.8A91.065,91.065,0,0,1,2858.258-3112.314Z" transform="translate(-2684.084 3365.834)" fill="#ff9a6c"/>
        <path id="Path_178529" data-name="Path 178529" d="M2866.441-3115.285a10.57,10.57,0,0,1-2.71-1.835,10.862,10.862,0,0,1-2.338-2.224,11.13,11.13,0,0,1,2.7,1.835A11.053,11.053,0,0,1,2866.441-3115.285Z" transform="translate(-2685.535 3365.762)" fill="#ff9a6c"/>
        <path id="Path_178530" data-name="Path 178530" d="M2884.633-3122.547c.058,0,.219.313.171.894a2.71,2.71,0,0,1-2.97,2.42,2.6,2.6,0,0,1-.281-.044c-.56-.133-.827-.38-.8-.428s.342.058.846.076a2.855,2.855,0,0,0,1.815-.513,2.857,2.857,0,0,0,1.037-1.578C2884.547-3122.234,2884.518-3122.538,2884.633-3122.547Z" transform="translate(-2686.908 3365.989)" fill="#ff9a6c"/>
        <path id="Path_178531" data-name="Path 178531" d="M2874.982-3113.9c.047,0,0,.3-.247.666a2.55,2.55,0,0,1-1.417.951,2.591,2.591,0,0,1-1.693-.114c-.4-.19-.571-.418-.532-.456a5.152,5.152,0,0,0,2.1.095C2874.344-3113.064,2874.858-3113.967,2874.982-3113.9Z" transform="translate(-2686.223 3365.376)" fill="#ff9a6c"/>
        <path id="Path_178532" data-name="Path 178532" d="M2866.275-3109.423c.076.1-.637.6-1.626.447s-1.531-.818-1.426-.9.674.3,1.492.418S2866.208-3109.546,2866.275-3109.423Z" transform="translate(-2685.664 3365.092)" fill="#ff9a6c"/>
        <path id="Path_178533" data-name="Path 178533" d="M2888.816-3131.42c.047,0,0,.465-.4,1.065a4.364,4.364,0,0,1-2.244,1.54,5.026,5.026,0,0,1-2.719.133c-.694-.19-1.027-.523-.95-.561s.409.133,1.055.218a5.791,5.791,0,0,0,2.5-.267,4.894,4.894,0,0,0,2.12-1.283C2888.56-3131.03,2888.731-3131.42,2888.816-3131.42Z" transform="translate(-2687.032 3366.619)" fill="#ff9a6c"/>
        <path id="Path_178534" data-name="Path 178534" d="M2877.808-3142.117a.81.81,0,0,1-.115-.2c-.066-.162-.161-.352-.276-.6a19.692,19.692,0,0,0-1.169-2.243,11,11,0,0,0-2.625-3,9.334,9.334,0,0,0-2.177-1.207,12.4,12.4,0,0,0-2.729-.637,19.6,19.6,0,0,0-3.119-.114,16.523,16.523,0,0,0-1.645.171c-.552.114-1.122.191-1.7.323a58.489,58.489,0,0,0-7.207,2.254,169.885,169.885,0,0,0-16.068,7.073h0l-5.305,3.318c-11.9,7.473-22.61,14.329-30.311,19.368l-9.1,6.009-2.444,1.645-.647.418-.229.124a1.225,1.225,0,0,1,.2-.171l.618-.456,2.415-1.722c2.111-1.473,5.182-3.584,9.014-6.132,7.606-5.125,18.34-12.028,30.235-19.5l5.314-3.319h0a163.581,163.581,0,0,1,16.163-7.045,58.043,58.043,0,0,1,7.274-2.225c.589-.133,1.17-.209,1.73-.323s1.142-.095,1.693-.152a19.12,19.12,0,0,1,3.166.152,11.6,11.6,0,0,1,2.8.694,9.425,9.425,0,0,1,2.233,1.264,11.018,11.018,0,0,1,2.616,3.11A15.838,15.838,0,0,1,2877.808-3142.117Z" transform="translate(-2680.54 3367.969)" fill="#263238"/>
        <path id="Path_178535" data-name="Path 178535" d="M2881.133-3140.434a1.844,1.844,0,0,1-.285-.343,5.837,5.837,0,0,0-.789-.95,11.418,11.418,0,0,0-3.8-2.539,21.1,21.1,0,0,0-6.607-1.568,48.575,48.575,0,0,0-8.386.427,69.529,69.529,0,0,0-14.757,3.908c-1.824.7-3.289,1.331-4.288,1.778l-1.159.514a2.522,2.522,0,0,1-.409.162,7.862,7.862,0,0,1,1.483-.856c.95-.494,2.425-1.169,4.25-1.9a62.911,62.911,0,0,1,14.813-4.07,45.81,45.81,0,0,1,8.471-.4,20.623,20.623,0,0,1,6.732,1.7,11.164,11.164,0,0,1,3.8,2.729,5.612,5.612,0,0,1,.732,1.046C2881.076-3140.587,2881.152-3140.445,2881.133-3140.434Z" transform="translate(-2684.064 3367.675)" fill="#263238"/>
        <path id="Path_178536" data-name="Path 178536" d="M2842.8-3133.948c-.114.1-.951-.789-1.512-2.082a4.455,4.455,0,0,1-.675-2.481Q2841.765-3136.256,2842.8-3133.948Z" transform="translate(-2684.062 3367.121)" fill="#263238"/>
      </g>
      <g id="freepik--Device--inject-2" transform="translate(40.368 255.292)">
        <path id="Path_178537" data-name="Path 178537" d="M2570.3-3174.925l14.319,70.31h124.315a2.482,2.482,0,0,0,2.482-2.481h0a2.482,2.482,0,0,0-2.482-2.482h-25.025l-13.311-65.385a2.7,2.7,0,0,0-2.624-2.178l-95.012-1.036a2.711,2.711,0,0,0-2.718,2.7A2.721,2.721,0,0,0,2570.3-3174.925Z" transform="translate(-2570.238 3178.219)" fill="#e0e0e0"/>
        <path id="Path_178538" data-name="Path 178538" d="M2570.3-3174.928a1.5,1.5,0,0,1,0-.209,2.7,2.7,0,0,1,0-.637,2.768,2.768,0,0,1,2.129-2.387,4.812,4.812,0,0,1,.951-.057h7.834l35.921.342,25.043.247,14.034.143,7.359.076h4.753a3.02,3.02,0,0,1,.951.276,2.849,2.849,0,0,1,1.368,1.435,3.93,3.93,0,0,1,.258.951l.2.95c.124.628.257,1.265.38,1.9.256,1.275.523,2.558.779,3.8q.788,3.869,1.6,7.825,1.607,7.91,3.29,16.163c2.244,11.029,4.573,22.5,6.979,34.3l-.172-.134h24.607a4.23,4.23,0,0,1,.95.058,2.662,2.662,0,0,1,2.033,3.169,2.659,2.659,0,0,1-1.319,1.766,2.787,2.787,0,0,1-1.17.314H2584.508v-.1c-4.373-21.611-7.939-39.191-10.459-51.342-1.217-6.095-2.177-10.829-2.852-14.052-.314-1.607-.561-2.852-.723-3.66s-.237-1.255-.237-1.255.1.427.275,1.245l.761,3.661c.665,3.214,1.645,7.949,2.9,14.034,2.491,12.17,6.095,29.75,10.516,51.342l-.134-.113h124.4a2.561,2.561,0,0,0,1.017-.276,2.321,2.321,0,0,0,.914-3.152,2.322,2.322,0,0,0-1.532-1.146,4.676,4.676,0,0,0-.9-.048h-24.72v-.133c-2.406-11.818-4.754-23.285-6.96-34.314-1.122-5.5-2.216-10.915-3.29-16.163q-.8-3.945-1.578-7.815c-.266-1.293-.523-2.567-.78-3.8-.133-.636-.256-1.274-.39-1.9l-.19-.951a4.455,4.455,0,0,0-.238-.894,2.63,2.63,0,0,0-1.217-1.283,2.565,2.565,0,0,0-.865-.247h-.951l-3.8-.048-7.359-.085-14.023-.162-25.044-.3-35.864-.437-5.6-.076h-2.235a4.437,4.437,0,0,0-.95.057,3.021,3.021,0,0,0-.809.3,2.718,2.718,0,0,0-1.312,2.006A3.585,3.585,0,0,0,2570.3-3174.928Z" transform="translate(-2570.237 3178.222)" fill="#263238"/>
        <path id="Path_178539" data-name="Path 178539" d="M2631.338-3140.351a4.107,4.107,0,0,1-4.107,4.107,4.107,4.107,0,0,1-4.107-4.107,4.108,4.108,0,0,1,4.107-4.107,4.1,4.1,0,0,1,4.107,4.089Z" transform="translate(-2573.988 3175.828)" fill="#fff"/>
        <path id="Path_178540" data-name="Path 178540" d="M2570.431-3174.063h6.522l17.771.085,58.644.409,8.482.066h2.082a5.116,5.116,0,0,1,1.065.067,2.764,2.764,0,0,1,1.008.409,2.95,2.95,0,0,1,1.264,1.711c.153.685.266,1.341.409,2.006,1.046,5.3,2.063,10.4,3.023,15.271,1.9,9.736,3.661,18.492,5.116,25.861s2.605,13.311,3.413,17.447c.4,2.044.7,3.641.95,4.753.1.532.181.951.229,1.237a3.315,3.315,0,0,1,.066.418,1.437,1.437,0,0,0-.095-.409c-.095-.276-.152-.7-.266-1.236-.228-1.094-.551-2.681-.951-4.754-.836-4.117-2.044-10.07-3.528-17.418l-5.182-25.852c-.95-4.859-2-9.974-3.052-15.213-.133-.656-.256-1.341-.409-1.987a2.586,2.586,0,0,0-1.112-1.512,2.862,2.862,0,0,0-.894-.361,5.612,5.612,0,0,0-.952-.057h-2.082l-8.48-.067-58.645-.513-17.77-.19-4.84-.076h-1.255Z" transform="translate(-2570.251 3177.927)" fill="#263238"/>
      </g>
      <g id="Group_117222" data-name="Group 117222" transform="translate(281.933 13.113)">
        <path id="Path_178541" data-name="Path 178541" d="M2837.983-3427.73a6.972,6.972,0,0,1-.771,2.476,8,8,0,0,1-1.711,2.011q-1.147,1.011-1.433,1.283a6.281,6.281,0,0,0-2.155,3.854,3.458,3.458,0,0,0,.573,2.589,2.728,2.728,0,0,0,2.237.991,3.606,3.606,0,0,0,2.579-.876,4.671,4.671,0,0,0,1.445-2.657l1.6-.014a5.783,5.783,0,0,1-1.9,3.67,5.431,5.431,0,0,1-3.833,1.3,4.3,4.3,0,0,1-3.383-1.459,4.553,4.553,0,0,1-.955-3.533,7.885,7.885,0,0,1,2.851-5.007l1.883-1.637a5.314,5.314,0,0,0,1.4-2.974Zm1.064-4.557a1.13,1.13,0,0,1-.382.792,1.122,1.122,0,0,1-.778.328.968.968,0,0,1-.777-.314,1.056,1.056,0,0,1-.273-.806,1.151,1.151,0,0,1,.383-.763,1.188,1.188,0,0,1,.791-.327.99.99,0,0,1,.771.3A.957.957,0,0,1,2839.047-3432.287Z" transform="translate(-2830.241 3438.496)" fill="#ffb600"/>
        <path id="Path_178542" data-name="Path 178542" d="M2848.781-3424.22a7.02,7.02,0,0,1,.832-2.66,8.767,8.767,0,0,1,2-2.306,17.848,17.848,0,0,0,1.9-1.793,6.542,6.542,0,0,0,.9-1.351,4.414,4.414,0,0,0,.43-1.549,3.514,3.514,0,0,0-.525-2.523,2.608,2.608,0,0,0-2.163-1.037,3.849,3.849,0,0,0-2.653.894,4.5,4.5,0,0,0-1.439,2.585l-1.568.014a5.659,5.659,0,0,1,1.923-3.629,5.521,5.521,0,0,1,3.861-1.309,4.2,4.2,0,0,1,3.253,1.419,4.617,4.617,0,0,1,.963,3.574,7.61,7.61,0,0,1-2.811,4.856l-1.541,1.3a6.071,6.071,0,0,0-1.869,3.492Zm-1.133,4.529a1.214,1.214,0,0,1,.369-.784,1.155,1.155,0,0,1,.8-.334.965.965,0,0,1,.778.314,1.054,1.054,0,0,1,.273.8,1.124,1.124,0,0,1-.383.758,1.2,1.2,0,0,1-.791.32,1,1,0,0,1-.778-.294A.99.99,0,0,1,2847.649-3419.69Z" transform="translate(-2831.395 3438.886)" fill="#ffb600"/>
      </g>
      <g id="Group_117223" data-name="Group 117223" transform="translate(98.8 158.195)">
        <path id="Path_178543" data-name="Path 178543" d="M2640.871-3271.574a6.96,6.96,0,0,1-.77,2.476,8,8,0,0,1-1.712,2.012q-1.146,1.01-1.433,1.282a6.288,6.288,0,0,0-2.156,3.854,3.462,3.462,0,0,0,.573,2.59,2.731,2.731,0,0,0,2.237.991,3.6,3.6,0,0,0,2.578-.877,4.672,4.672,0,0,0,1.446-2.656l1.6-.014a5.781,5.781,0,0,1-1.9,3.67,5.429,5.429,0,0,1-3.833,1.3,4.307,4.307,0,0,1-3.383-1.459,4.557,4.557,0,0,1-.955-3.533,7.883,7.883,0,0,1,2.852-5.007l1.882-1.637a5.3,5.3,0,0,0,1.406-2.974Zm1.064-4.556a1.131,1.131,0,0,1-.382.792,1.121,1.121,0,0,1-.778.327.97.97,0,0,1-.777-.313,1.052,1.052,0,0,1-.272-.806,1.144,1.144,0,0,1,.382-.764,1.188,1.188,0,0,1,.792-.327.986.986,0,0,1,.77.3A.957.957,0,0,1,2641.935-3276.13Z" transform="translate(-2633.129 3282.339)" fill="#ff6b00"/>
        <path id="Path_178544" data-name="Path 178544" d="M2651.669-3268.063a7.016,7.016,0,0,1,.833-2.66,8.757,8.757,0,0,1,2-2.306,17.964,17.964,0,0,0,1.9-1.794,6.622,6.622,0,0,0,.9-1.35,4.408,4.408,0,0,0,.429-1.549,3.507,3.507,0,0,0-.525-2.523,2.607,2.607,0,0,0-2.162-1.037,3.847,3.847,0,0,0-2.654.894,4.489,4.489,0,0,0-1.439,2.585l-1.569.014a5.658,5.658,0,0,1,1.923-3.629,5.528,5.528,0,0,1,3.861-1.31,4.207,4.207,0,0,1,3.254,1.419,4.615,4.615,0,0,1,.962,3.574,7.606,7.606,0,0,1-2.811,4.857l-1.541,1.3a6.064,6.064,0,0,0-1.869,3.491Zm-1.132,4.529a1.21,1.21,0,0,1,.368-.785,1.152,1.152,0,0,1,.8-.333.964.964,0,0,1,.778.313,1.055,1.055,0,0,1,.273.805,1.127,1.127,0,0,1-.382.757,1.206,1.206,0,0,1-.792.321,1,1,0,0,1-.778-.294A.987.987,0,0,1,2650.538-3263.533Z" transform="translate(-2634.283 3282.73)" fill="#ff6b00"/>
      </g>
      <g id="Group_117224" data-name="Group 117224" transform="translate(344.912 119.849)">
        <path id="Path_178545" data-name="Path 178545" d="M2909.713-3309.53a10.593,10.593,0,0,1-.721,3.6,6.656,6.656,0,0,1-1.83,2.443l-1.458,1.193q-2.286,1.971-2.1,4.009a1.311,1.311,0,0,0,1.375,1.358q2.154.051,2.684-2.75l5.467-.032a7.168,7.168,0,0,1-2.51,5.194,8.519,8.519,0,0,1-5.84,1.83,7.326,7.326,0,0,1-5.079-1.747,5.445,5.445,0,0,1-1.648-4.664q.149-2.75,3.214-5.251l2.121-1.69a5.557,5.557,0,0,0,1.822-3.463Zm1.972-5.1a2.659,2.659,0,0,1-.846,2.063,3.012,3.012,0,0,1-2.186.853,3.043,3.043,0,0,1-2.1-.77,2.606,2.606,0,0,1-.895-1.947,2.614,2.614,0,0,1,.87-2.079,3.069,3.069,0,0,1,2.162-.837,3.047,3.047,0,0,1,2.1.77A2.607,2.607,0,0,1,2911.685-3314.633Z" transform="translate(-2898.027 3323.531)" fill="#5a189a"/>
        <path id="Path_178546" data-name="Path 178546" d="M2922.187-3307.135a8.141,8.141,0,0,1,2.535-6l1.375-1.094a7.492,7.492,0,0,0,1.7-1.84,3.749,3.749,0,0,0,.521-2.17,1.4,1.4,0,0,0-1.54-1.507,1.984,1.984,0,0,0-1.616.7,4.275,4.275,0,0,0-.919,2.054l-5.451.032a7.146,7.146,0,0,1,2.535-5.21,8.535,8.535,0,0,1,5.815-1.83,8.765,8.765,0,0,1,3.737.844,5.28,5.28,0,0,1,2.376,2.237,6.061,6.061,0,0,1,.647,3.363,7.494,7.494,0,0,1-3.148,5.2l-1.939,1.541a5.89,5.89,0,0,0-2.071,3.645Zm-1.723,5.119a2.643,2.643,0,0,1,.861-2.1,3.06,3.06,0,0,1,2.154-.828,3.007,3.007,0,0,1,2.121.779,2.637,2.637,0,0,1,.878,1.938,2.628,2.628,0,0,1-.853,2.1,3.066,3.066,0,0,1-2.162.82,3.134,3.134,0,0,1-2.1-.738A2.541,2.541,0,0,1,2920.463-3302.016Z" transform="translate(-2899.499 3324.003)" fill="#5a189a"/>
      </g>
      <g id="Group_117225" data-name="Group 117225" transform="translate(88.752 39.983)">
        <path id="Path_178547" data-name="Path 178547" d="M2634-3395.492a10.6,10.6,0,0,1-.721,3.6,6.641,6.641,0,0,1-1.831,2.445l-1.458,1.193q-2.285,1.97-2.1,4.009a1.312,1.312,0,0,0,1.375,1.358q2.154.051,2.684-2.75l5.468-.033a7.167,7.167,0,0,1-2.51,5.194,8.517,8.517,0,0,1-5.841,1.83,7.317,7.317,0,0,1-5.077-1.748,5.441,5.441,0,0,1-1.648-4.664q.149-2.75,3.214-5.252l2.121-1.689a5.563,5.563,0,0,0,1.822-3.463Zm1.971-5.1a2.667,2.667,0,0,1-.845,2.063,3.016,3.016,0,0,1-2.187.853,3.039,3.039,0,0,1-2.1-.77,2.6,2.6,0,0,1-.895-1.946,2.615,2.615,0,0,1,.87-2.079,3.067,3.067,0,0,1,2.162-.837,3.047,3.047,0,0,1,2.1.771A2.607,2.607,0,0,1,2635.972-3400.594Z" transform="translate(-2622.315 3409.493)" fill="#5a189a"/>
        <path id="Path_178548" data-name="Path 178548" d="M2646.474-3393.1a8.141,8.141,0,0,1,2.536-6l1.375-1.094a7.5,7.5,0,0,0,1.7-1.84,3.748,3.748,0,0,0,.522-2.17,1.4,1.4,0,0,0-1.541-1.507,1.982,1.982,0,0,0-1.615.7,4.276,4.276,0,0,0-.92,2.054l-5.45.032a7.144,7.144,0,0,1,2.535-5.21,8.535,8.535,0,0,1,5.815-1.83,8.741,8.741,0,0,1,3.736.844,5.294,5.294,0,0,1,2.377,2.236,6.063,6.063,0,0,1,.647,3.363,7.49,7.49,0,0,1-3.149,5.2l-1.938,1.541a5.89,5.89,0,0,0-2.071,3.645Zm-1.722,5.119a2.643,2.643,0,0,1,.861-2.1,3.06,3.06,0,0,1,2.154-.828,3.011,3.011,0,0,1,2.121.779,2.639,2.639,0,0,1,.878,1.938,2.629,2.629,0,0,1-.854,2.1,3.065,3.065,0,0,1-2.162.82,3.136,3.136,0,0,1-2.1-.738A2.538,2.538,0,0,1,2644.751-3387.978Z" transform="translate(-2623.787 3409.965)" fill="#5a189a"/>
      </g>
    </g>
  </g>
</svg>
