<svg id="Group_123833" data-name="Group 123833" xmlns="http://www.w3.org/2000/svg" xmlns:xlink="http://www.w3.org/1999/xlink" width="462.01" height="262.703" viewBox="0 0 462.01 262.703">
  <defs>
    <clipPath id="clip-path">
      <rect id="Rectangle_38132" data-name="Rectangle 38132" width="462.01" height="262.703" fill="none"/>
    </clipPath>
    <clipPath id="clip-path-5">
      <rect id="Rectangle_38117" data-name="Rectangle 38117" width="30.034" height="36.593" fill="none"/>
    </clipPath>
    <clipPath id="clip-path-8">
      <rect id="Rectangle_38124" data-name="Rectangle 38124" width="15.003" height="31.828" fill="none"/>
    </clipPath>
    <clipPath id="clip-path-9">
      <rect id="Rectangle_38125" data-name="Rectangle 38125" width="20.599" height="36.381" fill="none"/>
    </clipPath>
    <clipPath id="clip-path-10">
      <rect id="Rectangle_38126" data-name="Rectangle 38126" width="14.988" height="24.33" fill="none"/>
    </clipPath>
    <clipPath id="clip-path-11">
      <rect id="Rectangle_38127" data-name="Rectangle 38127" width="15.521" height="27.961" fill="none"/>
    </clipPath>
    <clipPath id="clip-path-12">
      <rect id="Rectangle_38128" data-name="Rectangle 38128" width="22.895" height="10.146" fill="none"/>
    </clipPath>
    <clipPath id="clip-path-13">
      <rect id="Rectangle_38129" data-name="Rectangle 38129" width="21.752" height="10.804" fill="none"/>
    </clipPath>
  </defs>
  <g id="Group_123832" data-name="Group 123832" clip-path="url(#clip-path)">
    <g id="Group_123800" data-name="Group 123800">
      <g id="Group_123799" data-name="Group 123799" clip-path="url(#clip-path)">
        <path id="Path_185967" data-name="Path 185967" d="M420.387,117.516h93.326l-15.2,10.97V150.07A4.507,4.507,0,0,1,494,154.577H420.387a4.508,4.508,0,0,1-4.507-4.507V122.023a4.507,4.507,0,0,1,4.507-4.507" transform="translate(-51.703 -14.61)" fill="#f5f5f5"/>
        <path id="Path_185968" data-name="Path 185968" d="M425.472,134.912c0,.09,14.076.163,31.435.163s31.438-.073,31.438-.163-14.073-.163-31.438-.163-31.435.073-31.435.163" transform="translate(-52.896 -16.752)" fill="#e0e0e0"/>
        <path id="Path_185969" data-name="Path 185969" d="M425.472,144.375c0,.09,14.076.163,31.435.163s31.438-.073,31.438-.163-14.073-.163-31.438-.163-31.435.073-31.435.163" transform="translate(-52.896 -17.929)" fill="#e0e0e0"/>
        <rect id="Rectangle_38094" data-name="Rectangle 38094" width="4.367" height="14.629" transform="translate(222.577 23.264)" fill="#e0e0e0"/>
        <rect id="Rectangle_38095" data-name="Rectangle 38095" width="4.367" height="16.749" transform="translate(186.098 21.144)" fill="#e0e0e0"/>
        <rect id="Rectangle_38096" data-name="Rectangle 38096" width="4.367" height="20.24" transform="translate(195.217 17.654)" fill="#e0e0e0"/>
        <rect id="Rectangle_38097" data-name="Rectangle 38097" width="4.367" height="19.13" transform="translate(204.338 18.763)" fill="#e0e0e0"/>
        <rect id="Rectangle_38098" data-name="Rectangle 38098" width="4.367" height="25.601" transform="translate(213.458 12.292)" fill="#e0e0e0"/>
        <rect id="Rectangle_38099" data-name="Rectangle 38099" width="4.367" height="25.477" transform="translate(231.697 12.416)" fill="#e0e0e0"/>
        <rect id="Rectangle_38100" data-name="Rectangle 38100" width="4.367" height="17.109" transform="translate(240.816 20.784)" fill="#e0e0e0"/>
        <rect id="Rectangle_38101" data-name="Rectangle 38101" width="4.367" height="24.354" transform="translate(249.937 13.539)" fill="#e0e0e0"/>
        <rect id="Rectangle_38102" data-name="Rectangle 38102" width="4.367" height="29.841" transform="translate(259.056 8.053)" fill="#e0e0e0"/>
        <rect id="Rectangle_38103" data-name="Rectangle 38103" width="4.367" height="24.48" transform="translate(268.176 13.414)" fill="#e0e0e0"/>
        <path id="Path_185970" data-name="Path 185970" d="M437.463,36.537l36.117-5.519A36.534,36.534,0,1,1,441.475.221Z" transform="translate(-49.845 0)" fill="#ebebeb"/>
        <path id="Path_185971" data-name="Path 185971" d="M455.409.384l-4.385,28,27.482-5.16S474.466,7.53,455.409.384" transform="translate(-56.073 -0.048)" fill="#e0e0e0"/>
        <path id="Path_185972" data-name="Path 185972" d="M21.5,116.69a17.909,17.909,0,1,1,18.194,17.7A17.974,17.974,0,0,1,21.5,116.69m26.468-.427A8.563,8.563,0,1,0,39.545,125a8.59,8.59,0,0,0,8.424-8.739" transform="translate(-2.673 -12.235)" fill="#f5f5f5"/>
        <path id="Path_185973" data-name="Path 185973" d="M21.5,116.69A17.974,17.974,0,0,1,39.119,98.412l.15,9.388a8.6,8.6,0,0,0,.275,17.2l.151,9.388A17.968,17.968,0,0,1,21.5,116.69" transform="translate(-2.673 -12.235)" fill="#e0e0e0"/>
        <path id="Path_185974" data-name="Path 185974" d="M39.785,96.763a20.462,20.462,0,0,1,20.951,20.383l-10.932.176c-.089-5.548-4.311-9.042-9.834-8.953Z" transform="translate(-4.946 -12.029)" fill="#ebebeb"/>
        <rect id="Rectangle_38104" data-name="Rectangle 38104" width="22.763" height="27.061" transform="translate(112.411 167.619)" fill="#f5f5f5"/>
        <rect id="Rectangle_38105" data-name="Rectangle 38105" width="102.871" height="30.527" transform="translate(10.324 165.855)" fill="#e0e0e0"/>
        <path id="Path_185975" data-name="Path 185975" d="M151.542,191.969H126.116V189.4h25.426a1.284,1.284,0,0,1,0,2.567" transform="translate(-15.679 -23.547)" fill="#e0e0e0"/>
        <path id="Path_185976" data-name="Path 185976" d="M151.542,223.9H126.116v-2.567h25.426a1.284,1.284,0,0,1,0,2.567" transform="translate(-15.679 -27.517)" fill="#e0e0e0"/>
        <rect id="Rectangle_38106" data-name="Rectangle 38106" width="12.154" height="30.527" transform="translate(92.953 165.855)" fill="#ebebeb"/>
        <rect id="Rectangle_38107" data-name="Rectangle 38107" width="12.154" height="30.527" transform="translate(20.107 166.193)" fill="#ebebeb"/>
        <path id="Path_185977" data-name="Path 185977" d="M151.241,196.509c0,.074-4.927.135-11,.135s-11-.06-11-.135,4.925-.135,11-.135,11,.06,11,.135" transform="translate(-16.067 -24.414)" fill="#e0e0e0"/>
        <path id="Path_185978" data-name="Path 185978" d="M151.241,201.143c0,.074-4.927.135-11,.135s-11-.06-11-.135,4.925-.135,11-.135,11,.06,11,.135" transform="translate(-16.067 -24.99)" fill="#e0e0e0"/>
        <path id="Path_185979" data-name="Path 185979" d="M151.241,206.849c0,.074-4.927.135-11,.135s-11-.06-11-.135,4.925-.136,11-.136,11,.061,11,.136" transform="translate(-16.067 -25.699)" fill="#e0e0e0"/>
        <path id="Path_185980" data-name="Path 185980" d="M151.241,212.555c0,.074-4.927.135-11,.135s-11-.06-11-.135,4.925-.135,11-.135,11,.06,11,.135" transform="translate(-16.067 -26.409)" fill="#e0e0e0"/>
        <path id="Path_185981" data-name="Path 185981" d="M151.241,218.261c0,.074-4.927.135-11,.135s-11-.06-11-.135,4.925-.135,11-.135,11,.06,11,.135" transform="translate(-16.067 -27.118)" fill="#e0e0e0"/>
        <rect id="Rectangle_38108" data-name="Rectangle 38108" width="46.28" height="5.497" transform="translate(40.138 178.402)" fill="#ebebeb"/>
        <rect id="Rectangle_38109" data-name="Rectangle 38109" width="23.112" height="16.489" transform="translate(111.83 196.98)" fill="#fafafa"/>
        <rect id="Rectangle_38110" data-name="Rectangle 38110" width="98.359" height="17.685" transform="translate(13.73 196.382)" fill="#f5f5f5"/>
        <path id="Path_185982" data-name="Path 185982" d="M127.186,225.46h24.841a.6.6,0,1,0,0-1.2H127.186Z" transform="translate(-15.812 -27.881)" fill="#f5f5f5"/>
        <path id="Path_185983" data-name="Path 185983" d="M127.186,244.289h25.072a.367.367,0,0,0,.368-.366v-.462a.367.367,0,0,0-.368-.367H127.186Z" transform="translate(-15.812 -30.222)" fill="#f5f5f5"/>
        <path id="Path_185984" data-name="Path 185984" d="M150.855,228.5c0,.075-5.117.137-11.426.137S128,228.579,128,228.5s5.115-.135,11.428-.135,11.426.06,11.426.135" transform="translate(-15.914 -28.392)" fill="#e0e0e0"/>
        <path id="Path_185985" data-name="Path 185985" d="M150.855,232.067c0,.074-5.117.136-11.426.136S128,232.141,128,232.067s5.115-.135,11.428-.135,11.426.06,11.426.135" transform="translate(-15.914 -28.834)" fill="#e0e0e0"/>
        <path id="Path_185986" data-name="Path 185986" d="M150.855,235.629c0,.074-5.117.135-11.426.135S128,235.7,128,235.629s5.115-.135,11.428-.135,11.426.06,11.426.135" transform="translate(-15.914 -29.277)" fill="#e0e0e0"/>
        <path id="Path_185987" data-name="Path 185987" d="M150.855,239.192c0,.074-5.117.135-11.426.135S128,239.266,128,239.192s5.115-.135,11.428-.135,11.426.06,11.426.135" transform="translate(-15.914 -29.72)" fill="#e0e0e0"/>
        <rect id="Rectangle_38111" data-name="Rectangle 38111" width="23.59" height="44.699" transform="translate(114.858 215.639)" fill="#ebebeb"/>
        <rect id="Rectangle_38112" data-name="Rectangle 38112" width="110.733" height="48.465" transform="translate(4.124 214.067)" fill="#e0e0e0"/>
        <path id="Path_185988" data-name="Path 185988" d="M156.171,299.359H127.707v-3.143h28.464a1.571,1.571,0,1,1,0,3.143" transform="translate(-15.877 -36.826)" fill="#e0e0e0"/>
        <path id="Path_185989" data-name="Path 185989" d="M156.779,247.6H127.707V244.46h29.072a.964.964,0,0,1,.964.964v1.215a.964.964,0,0,1-.964.964" transform="translate(-15.877 -30.392)" fill="#e0e0e0"/>
        <path id="Path_185990" data-name="Path 185990" d="M154.755,253.078c0,.074-5.281.135-11.794.135s-11.8-.06-11.8-.135,5.28-.135,11.8-.135,11.794.06,11.794.135" transform="translate(-16.307 -31.447)" fill="#e0e0e0"/>
        <path id="Path_185991" data-name="Path 185991" d="M154.755,259.625c0,.074-5.281.135-11.794.135s-11.8-.06-11.8-.135,5.28-.135,11.8-.135,11.794.06,11.794.135" transform="translate(-16.307 -32.261)" fill="#e0e0e0"/>
        <path id="Path_185992" data-name="Path 185992" d="M154.755,266.171c0,.074-5.281.135-11.794.135s-11.8-.06-11.8-.135,5.28-.135,11.8-.135,11.794.06,11.794.135" transform="translate(-16.307 -33.074)" fill="#e0e0e0"/>
        <path id="Path_185993" data-name="Path 185993" d="M154.755,272.718c0,.074-5.281.136-11.794.136s-11.8-.061-11.8-.136,5.28-.135,11.8-.135,11.794.06,11.794.135" transform="translate(-16.307 -33.888)" fill="#e0e0e0"/>
        <path id="Path_185994" data-name="Path 185994" d="M154.755,279.265c0,.074-5.281.135-11.794.135s-11.8-.06-11.8-.135,5.28-.135,11.8-.135,11.794.06,11.794.135" transform="translate(-16.307 -34.702)" fill="#e0e0e0"/>
        <path id="Path_185995" data-name="Path 185995" d="M154.755,285.812c0,.074-5.281.135-11.794.135s-11.8-.06-11.8-.135,5.28-.135,11.8-.135,11.794.06,11.794.135" transform="translate(-16.307 -35.516)" fill="#e0e0e0"/>
        <path id="Path_185996" data-name="Path 185996" d="M154.755,292.359c0,.074-5.281.135-11.794.135s-11.8-.06-11.8-.135,5.28-.135,11.8-.135,11.794.06,11.794.135" transform="translate(-16.307 -36.33)" fill="#e0e0e0"/>
        <path id="Path_185997" data-name="Path 185997" d="M46.631,273.321v2.7c0,3.247-1.624,5.1-4.756,5.1s-4.755-1.856-4.755-5.1V265.462c0-3.247,1.624-5.1,4.755-5.1s4.756,1.856,4.756,5.1v1.972H43.615V265.26c0-1.45-.637-2-1.652-2s-1.653.551-1.653,2v10.96c0,1.45.638,1.972,1.653,1.972s1.652-.522,1.652-1.972v-2.9Z" transform="translate(-4.615 -32.369)" fill="#ebebeb"/>
        <path id="Path_185998" data-name="Path 185998" d="M49.9,265.463c0-3.248,1.71-5.1,4.842-5.1s4.842,1.856,4.842,5.1v10.555c0,3.248-1.71,5.1-4.842,5.1s-4.842-1.856-4.842-5.1Zm3.189,10.757c0,1.45.637,2,1.652,2s1.653-.552,1.653-2V265.26c0-1.451-.638-2-1.653-2s-1.652.55-1.652,2Z" transform="translate(-6.204 -32.369)" fill="#ebebeb"/>
        <path id="Path_185999" data-name="Path 185999" d="M63.307,260.625H66.5v17.4h5.249v2.9H63.307Z" transform="translate(-7.87 -32.402)" fill="#ebebeb"/>
        <path id="Path_186000" data-name="Path 186000" d="M74.232,265.463c0-3.248,1.71-5.1,4.842-5.1s4.842,1.856,4.842,5.1v10.555c0,3.248-1.71,5.1-4.842,5.1s-4.842-1.856-4.842-5.1Zm3.189,10.757c0,1.45.638,2,1.652,2s1.653-.552,1.653-2V265.26c0-1.451-.638-2-1.653-2s-1.652.55-1.652,2Z" transform="translate(-9.229 -32.369)" fill="#ebebeb"/>
        <path id="Path_186001" data-name="Path 186001" d="M90.664,260.625v15.658c0,1.45.638,1.971,1.652,1.971s1.653-.521,1.653-1.971V260.625h3.016V276.08c0,3.248-1.624,5.1-4.756,5.1s-4.755-1.855-4.755-5.1V260.625Z" transform="translate(-10.875 -32.402)" fill="#ebebeb"/>
        <path id="Path_186002" data-name="Path 186002" d="M107.486,280.922a6.23,6.23,0,0,1-.291-2.494v-3.189c0-1.885-.637-2.581-2.088-2.581h-1.1v8.264h-3.19v-20.3h4.814c3.306,0,4.727,1.537,4.727,4.668v1.595c0,2.088-.667,3.451-2.088,4.117,1.595.667,2.117,2.2,2.117,4.321v3.131a5.983,5.983,0,0,0,.348,2.465Zm-3.48-17.4v6.234h1.247c1.188,0,1.913-.522,1.913-2.145v-2c0-1.45-.493-2.088-1.624-2.088Z" transform="translate(-12.534 -32.402)" fill="#ebebeb"/>
        <path id="Path_186003" data-name="Path 186003" d="M46.863,232.132H44.538l.122-.6H50l-.132.6H47.551l-1.2,5.989h-.687Z" transform="translate(-5.537 -28.784)" fill="#e0e0e0"/>
        <path id="Path_186004" data-name="Path 186004" d="M54.955,233.4l-3.616,5.594c-.612.941-1.074,1.233-1.789,1.233a1.606,1.606,0,0,1-1.177-.442l.357-.49a1.155,1.155,0,0,0,.876.358c.425,0,.753-.2,1.14-.8l.349-.527L49.861,233.4h.678l1.026,4.218,2.7-4.218Z" transform="translate(-6.014 -29.017)" fill="#e0e0e0"/>
        <path id="Path_186005" data-name="Path 186005" d="M61.336,235.448a2.79,2.79,0,0,1-2.806,2.946,1.852,1.852,0,0,1-1.884-1.082l-.565,2.863h-.669l1.347-6.779h.64l-.16.792a2.508,2.508,0,0,1,1.931-.828,2,2,0,0,1,2.166,2.09m-.678.038a1.45,1.45,0,0,0-1.63-1.545,2.162,2.162,0,0,0-2.137,2.325,1.444,1.444,0,0,0,1.629,1.536,2.159,2.159,0,0,0,2.138-2.316" transform="translate(-6.889 -29.012)" fill="#e0e0e0"/>
        <path id="Path_186006" data-name="Path 186006" d="M63.065,236.3a2.81,2.81,0,0,1,2.863-2.937,2.028,2.028,0,0,1,2.25,2.09,2.812,2.812,0,0,1-2.863,2.946,2.04,2.04,0,0,1-2.25-2.1m4.445-.809a1.45,1.45,0,0,0-1.629-1.545,2.174,2.174,0,0,0-2.147,2.325,1.444,1.444,0,0,0,1.629,1.536,2.166,2.166,0,0,0,2.147-2.316" transform="translate(-7.84 -29.012)" fill="#e0e0e0"/>
        <path id="Path_186007" data-name="Path 186007" d="M75.379,233.395l-.866,4.35a2.639,2.639,0,0,1-2.882,2.476,3.144,3.144,0,0,1-2.2-.743l.395-.509a2.587,2.587,0,0,0,1.855.659,1.939,1.939,0,0,0,2.147-1.77l.113-.547a2.563,2.563,0,0,1-1.977.849,1.963,1.963,0,0,1-2.185-2,2.736,2.736,0,0,1,2.825-2.806,1.9,1.9,0,0,1,1.93,1.13l.208-1.093Zm-1.13,1.987c0-.9-.612-1.44-1.639-1.44a2.1,2.1,0,0,0-2.156,2.183c0,.9.6,1.441,1.638,1.441a2.106,2.106,0,0,0,2.157-2.185" transform="translate(-8.632 -29.012)" fill="#e0e0e0"/>
        <path id="Path_186008" data-name="Path 186008" d="M80.715,233.358l-.123.649c-.066,0-.113-.01-.188-.01a1.96,1.96,0,0,0-2.005,1.836l-.5,2.514H77.23l.981-4.953h.639l-.17.9a2.242,2.242,0,0,1,2.035-.94" transform="translate(-9.601 -29.012)" fill="#e0e0e0"/>
        <path id="Path_186009" data-name="Path 186009" d="M86.9,233.395l-.988,4.953h-.641l.16-.782a2.536,2.536,0,0,1-1.93.828,2,2,0,0,1-2.157-2.1,2.785,2.785,0,0,1,2.8-2.937,1.858,1.858,0,0,1,1.883,1.073l.208-1.036Zm-1.11,2.091a1.45,1.45,0,0,0-1.629-1.545,2.174,2.174,0,0,0-2.147,2.325,1.444,1.444,0,0,0,1.629,1.536,2.166,2.166,0,0,0,2.147-2.316" transform="translate(-10.113 -29.012)" fill="#e0e0e0"/>
        <path id="Path_186010" data-name="Path 186010" d="M94.191,235.448a2.79,2.79,0,0,1-2.806,2.946,1.852,1.852,0,0,1-1.884-1.082l-.565,2.863h-.668l1.346-6.779h.64l-.16.792a2.508,2.508,0,0,1,1.931-.828,2,2,0,0,1,2.166,2.09m-.678.038a1.45,1.45,0,0,0-1.629-1.545,2.162,2.162,0,0,0-2.138,2.325,1.444,1.444,0,0,0,1.629,1.536,2.159,2.159,0,0,0,2.138-2.316" transform="translate(-10.974 -29.012)" fill="#e0e0e0"/>
        <path id="Path_186011" data-name="Path 186011" d="M101.144,234.684a3.027,3.027,0,0,1-.057.565l-.565,2.815h-.669l.566-2.826a2.637,2.637,0,0,0,.046-.451c0-.706-.423-1.11-1.28-1.11a1.929,1.929,0,0,0-2.015,1.732l-.527,2.655h-.669l1.394-6.987h.668l-.555,2.778a2.415,2.415,0,0,1,1.893-.78,1.552,1.552,0,0,1,1.77,1.609" transform="translate(-11.932 -28.728)" fill="#e0e0e0"/>
        <path id="Path_186012" data-name="Path 186012" d="M108.091,233.4l-3.616,5.594c-.612.941-1.074,1.233-1.789,1.233a1.606,1.606,0,0,1-1.177-.442l.357-.49a1.155,1.155,0,0,0,.876.358c.425,0,.753-.2,1.14-.8l.349-.527L103,233.4h.678l1.026,4.218,2.7-4.218Z" transform="translate(-12.62 -29.017)" fill="#e0e0e0"/>
        <path id="Path_186013" data-name="Path 186013" d="M111.8.956H11.338L27.7,12.765V36a4.852,4.852,0,0,0,4.852,4.852H111.8A4.852,4.852,0,0,0,116.651,36V5.807A4.851,4.851,0,0,0,111.8.956" transform="translate(-1.41 -0.119)" fill="#f5f5f5"/>
        <path id="Path_186014" data-name="Path 186014" d="M111.668,19.681c0,.1-15.152.175-33.838.175s-33.841-.078-33.841-.175,15.148-.175,33.841-.175,33.838.078,33.838.175" transform="translate(-5.469 -2.425)" fill="#e0e0e0"/>
        <path id="Path_186015" data-name="Path 186015" d="M111.668,29.868c0,.1-15.152.175-33.838.175s-33.841-.078-33.841-.175,15.148-.175,33.841-.175,33.838.078,33.838.175" transform="translate(-5.469 -3.692)" fill="#e0e0e0"/>
      </g>
    </g>
    <g id="Group_123802" data-name="Group 123802">
      <g id="Group_123801" data-name="Group 123801" clip-path="url(#clip-path)">
        <path id="Path_186016" data-name="Path 186016" d="M458.817,299.781c0,.095-102.718.171-229.4.171C102.7,299.952,0,299.875,0,299.781s102.7-.171,229.42-.171c126.68,0,229.4.076,229.4.171" transform="translate(0 -37.248)" fill="#263238"/>
      </g>
    </g>
    <g id="Group_123807" data-name="Group 123807">
      <g id="Group_123806" data-name="Group 123806" clip-path="url(#clip-path)">
        <path id="Path_186017" data-name="Path 186017" d="M470.741,253.435s-17.361-19.982-23.913-39.963-3.439-17.689-3.439-17.689,8.844,19.41,15.559,28.786S477.62,247.7,477.62,247.7Z" transform="translate(-55.032 -24.33)" fill="#455a64"/>
        <path id="Path_186018" data-name="Path 186018" d="M478.411,199.274a1.011,1.011,0,0,0-1.883.644c1.058,7.019,3.346,23.49,3.257,34.172-.117,13.878,0,19.242,0,19.242h7.226s-1.283-28.689-2.916-37.435a60.042,60.042,0,0,0-5.688-16.623" transform="translate(-59.242 -24.71)" fill="#455a64"/>
        <path id="Path_186019" data-name="Path 186019" d="M483.178,250.648a76.511,76.511,0,0,0,5.948-21.574c.6-5.109-.467-12.013-2.046-21.225a57.075,57.075,0,0,1-.913-10.213,1.723,1.723,0,0,1,3.237-.808,45.828,45.828,0,0,1,4.037,10.2c1.75,9.1,3.732,13.645,2.216,22.275s-7.114,21.924-7.114,21.924Z" transform="translate(-60.07 -24.359)" fill="#455a64"/>
        <path id="Path_186020" data-name="Path 186020" d="M490.611,249.661s19.062-40.964,20.383-47.041,5.813-20.082,6.342-19.289,1.32,8.191-2.114,16.647-18.1,50.932-18.1,50.932h-6.509" transform="translate(-60.994 -22.788)" fill="#455a64"/>
        <path id="Path_186021" data-name="Path 186021" d="M476.086,249.447a3.856,3.856,0,0,1-.534-.367c-.338-.257-.852-.616-1.476-1.127a67.488,67.488,0,0,1-5.124-4.523,85.968,85.968,0,0,1-13.829-17.749,116.289,116.289,0,0,1-9.44-20.449c-.959-2.721-1.659-4.948-2.112-6.495-.233-.771-.393-1.377-.506-1.786a3.808,3.808,0,0,1-.147-.63,3.841,3.841,0,0,1,.226.607q.215.658.579,1.763c.5,1.532,1.24,3.742,2.231,6.445a123.635,123.635,0,0,0,9.52,20.338,89.671,89.671,0,0,0,13.681,17.753c2.04,2.028,3.786,3.573,5.021,4.605.608.528,1.105.908,1.426,1.185a3.844,3.844,0,0,1,.484.432" transform="translate(-55.065 -24.407)" fill="#263238"/>
        <path id="Path_186022" data-name="Path 186022" d="M482.482,230.232a6.929,6.929,0,0,1-.171-1.2c-.091-.848-.21-1.953-.351-3.284-.3-2.771-.773-6.593-1.448-10.791s-1.427-7.977-2.01-10.7c-.282-1.308-.516-2.394-.694-3.229a6.844,6.844,0,0,1-.215-1.194,6.987,6.987,0,0,1,.369,1.157c.213.751.5,1.845.821,3.2.655,2.715,1.453,6.493,2.131,10.7s1.1,8.046,1.331,10.829c.115,1.391.19,2.518.222,3.3a7,7,0,0,1,.014,1.215" transform="translate(-59.375 -24.843)" fill="#263238"/>
        <path id="Path_186023" data-name="Path 186023" d="M488,196.589a3.022,3.022,0,0,1,.225.52c.145.386.334.891.571,1.522.252.66.541,1.474.817,2.439s.651,2.046.927,3.28q.226.922.472,1.926c.161.671.274,1.38.419,2.109.312,1.454.5,3.032.735,4.687a69.9,69.9,0,0,1-.776,21.654c-.349,1.635-.654,3.194-1.068,4.623-.2.716-.361,1.416-.57,2.074s-.413,1.285-.609,1.887c-.363,1.211-.807,2.266-1.159,3.206s-.691,1.733-.99,2.373q-.423.918-.679,1.477a2.954,2.954,0,0,1-.261.5,2.8,2.8,0,0,1,.186-.537c.155-.381.356-.881.608-1.5.276-.648.6-1.446.924-2.393s.753-2,1.1-3.213q.278-.9.581-1.887c.2-.657.355-1.356.545-2.07.4-1.425.688-2.979,1.026-4.607a72.338,72.338,0,0,0,.771-21.542c-.22-1.647-.4-3.218-.694-4.668-.138-.727-.243-1.434-.394-2.1s-.3-1.31-.445-1.924c-.257-1.233-.6-2.319-.865-3.284s-.521-1.786-.75-2.453c-.207-.64-.371-1.153-.5-1.545a2.875,2.875,0,0,1-.147-.549" transform="translate(-60.428 -24.441)" fill="#263238"/>
        <path id="Path_186024" data-name="Path 186024" d="M517.559,184.276a.62.62,0,0,1-.015.184l-.085.532c-.084.466-.189,1.158-.376,2.039-.368,1.763-.981,4.3-1.935,7.375s-2.251,6.686-3.8,10.649-3.325,8.287-5.018,12.886c-1.718,4.592-3.042,9.074-4.286,13.14s-2.4,7.723-3.532,10.74a68.618,68.618,0,0,1-3.01,7.005c-.391.811-.742,1.417-.968,1.833l-.266.468a.612.612,0,0,1-.1.152.658.658,0,0,1,.067-.173l.231-.487c.2-.427.531-1.044.9-1.863.768-1.624,1.8-4.011,2.882-7.035s2.231-6.674,3.443-10.749,2.54-8.569,4.264-13.174c1.7-4.61,3.495-8.928,5.05-12.882s2.889-7.541,3.871-10.6,1.64-5.575,2.055-7.322c.209-.874.34-1.56.449-2.02.05-.21.091-.383.124-.525a.655.655,0,0,1,.056-.176" transform="translate(-61.437 -22.91)" fill="#263238"/>
        <path id="Path_186025" data-name="Path 186025" d="M453.362,173.876a1.641,1.641,0,0,0-2.7,1.673,46.993,46.993,0,0,0,2.395,6.16c2.62,5.568,10.318,25.551,13.922,36.524s8.681,31.447,8.681,31.447l7.695-1.249s-7.04-33.637-13.918-45.758c-5.527-9.738-11.055-23.812-16.071-28.8" transform="translate(-56.018 -21.558)" fill="#455a64"/>
        <path id="Path_186026" data-name="Path 186026" d="M471.708,232.435a4.723,4.723,0,0,1,.4.922c.228.6.538,1.484.887,2.583.708,2.2,1.575,5.261,2.449,8.667s1.6,6.507,2.1,8.755c.231,1.063.425,1.956.579,2.666a4.749,4.749,0,0,1,.159.991,4.767,4.767,0,0,1-.313-.954c-.188-.7-.424-1.585-.7-2.636l-2.218-8.721c-.873-3.4-1.694-6.474-2.331-8.684-.3-1.044-.559-1.92-.762-2.617a4.8,4.8,0,0,1-.246-.972" transform="translate(-58.644 -28.897)" fill="#263238"/>
        <path id="Path_186027" data-name="Path 186027" d="M479.649,249.1a.8.8,0,0,1-.044-.2c-.023-.16-.052-.36-.087-.606-.081-.532-.153-1.322-.315-2.33-.283-2.021-.787-4.934-1.614-8.488a121.558,121.558,0,0,0-3.6-12.293c-1.578-4.559-3.558-9.484-5.8-14.582-4.527-10.183-9.049-19.216-12.02-25.895-1.5-3.332-2.666-6.053-3.431-7.947-.391-.944-.67-1.687-.865-2.188-.087-.235-.158-.422-.214-.574a.842.842,0,0,1-.06-.2.758.758,0,0,1,.1.184l.251.559q.339.784.935,2.159c.81,1.875,2.011,4.575,3.546,7.888,3.036,6.643,7.6,15.652,12.131,25.851,2.247,5.105,4.221,10.046,5.783,14.624a115.577,115.577,0,0,1,3.528,12.351,86.191,86.191,0,0,1,1.49,8.531c.138,1.013.186,1.807.24,2.342.019.249.034.449.046.61a.793.793,0,0,1,0,.209" transform="translate(-56.144 -21.607)" fill="#263238"/>
        <path id="Path_186028" data-name="Path 186028" d="M486.809,254.493a8.107,8.107,0,0,1-.259-1.293c-.153-.9-.355-2.1-.6-3.537-.531-2.982-1.34-7.088-2.5-11.556S481,229.653,480,226.794l-1.2-3.379a8.128,8.128,0,0,1-.409-1.253,8.246,8.246,0,0,1,.556,1.2c.332.781.8,1.918,1.327,3.339A111.811,111.811,0,0,1,483.84,238a117.539,117.539,0,0,1,2.394,11.611c.219,1.5.387,2.718.472,3.562a8.091,8.091,0,0,1,.1,1.315" transform="translate(-59.474 -27.62)" fill="#263238"/>
        <rect id="Rectangle_38115" data-name="Rectangle 38115" width="30.034" height="36.594" transform="translate(413.094 225.767)" fill="#a757f7"/>
        <g id="Group_123805" data-name="Group 123805" transform="translate(413.094 225.768)" opacity="0.3">
          <g id="Group_123804" data-name="Group 123804">
            <g id="Group_123803" data-name="Group 123803" clip-path="url(#clip-path-5)">
              <rect id="Rectangle_38116" data-name="Rectangle 38116" width="30.034" height="36.594" transform="translate(0 -0.001)"/>
            </g>
          </g>
        </g>
        <rect id="Rectangle_38118" data-name="Rectangle 38118" width="26.647" height="36.594" transform="translate(406.9 225.767)" fill="#a757f7"/>
        <path id="Path_186029" data-name="Path 186029" d="M45.785,242.942a15.835,15.835,0,0,0-17.186.142c-4.727,3.3-7.127,9.318-6.919,15.082s3,12.807,8.224,15.835l15.328-.06a20.6,20.6,0,0,0,8.435-15.468,17.892,17.892,0,0,0-7.882-15.53" transform="translate(-2.694 -29.897)" fill="#455a64"/>
        <path id="Path_186030" data-name="Path 186030" d="M40.379,274.636a6.788,6.788,0,0,1-.1-1.319c-.027-.943-.061-2.15-.1-3.6-.077-3.035-.2-7.226-.4-11.853s-.454-8.815-.643-11.844c-.086-1.444-.158-2.649-.215-3.59a6.951,6.951,0,0,1-.019-1.322,6.774,6.774,0,0,1,.209,1.307c.1.843.231,2.067.37,3.58.278,3.026.582,7.215.786,11.85s.268,8.831.257,11.871c0,1.519-.024,2.749-.053,3.6a6.783,6.783,0,0,1-.094,1.32" transform="translate(-4.834 -29.976)" fill="#263238"/>
        <path id="Path_186031" data-name="Path 186031" d="M22.924,259.125c-.011.135-.844.176-1.86.093s-1.831-.26-1.82-.395.843-.176,1.86-.093,1.831.26,1.82.395" transform="translate(-2.392 -32.161)" fill="#263238"/>
        <path id="Path_186032" data-name="Path 186032" d="M23.344,253.086c-.055.123-.773-.075-1.6-.444s-1.462-.768-1.406-.891.773.075,1.6.444,1.462.768,1.406.891" transform="translate(-2.528 -31.294)" fill="#263238"/>
        <path id="Path_186033" data-name="Path 186033" d="M26.385,248.545c-.07.112-.877-.268-1.717-.965s-1.366-1.417-1.269-1.506.766.457,1.581,1.13,1.478,1.225,1.4,1.342" transform="translate(-2.908 -30.591)" fill="#263238"/>
        <path id="Path_186034" data-name="Path 186034" d="M29.681,244.349c-.124.054-.511-.55-.865-1.351s-.539-1.494-.417-1.548.511.55.864,1.351.54,1.494.418,1.548" transform="translate(-3.526 -30.017)" fill="#263238"/>
        <path id="Path_186035" data-name="Path 186035" d="M34.511,241.377c-.12.056-.538-.588-.814-1.48s-.3-1.659-.17-1.68.369.677.637,1.535.471,1.568.346,1.625" transform="translate(-4.159 -29.616)" fill="#263238"/>
        <path id="Path_186036" data-name="Path 186036" d="M42.539,238.518c.128.045.05.595-.174,1.228s-.507,1.11-.635,1.065-.05-.595.174-1.228.508-1.109.635-1.065" transform="translate(-5.18 -29.653)" fill="#263238"/>
        <path id="Path_186037" data-name="Path 186037" d="M48.337,241.062c.092.1-.242.557-.744,1.022s-.985.763-1.077.663.242-.556.744-1.022.985-.762,1.077-.663" transform="translate(-5.781 -29.967)" fill="#263238"/>
        <path id="Path_186038" data-name="Path 186038" d="M53.525,244.434c.076.113-.331.52-.908.912s-1.107.617-1.182.505.33-.519.908-.911,1.107-.617,1.182-.506" transform="translate(-6.393 -30.385)" fill="#263238"/>
        <path id="Path_186039" data-name="Path 186039" d="M57.1,249.465c.053.124-.588.517-1.431.877s-1.57.55-1.624.426.588-.517,1.432-.877,1.569-.551,1.623-.426" transform="translate(-6.718 -31.009)" fill="#263238"/>
        <path id="Path_186040" data-name="Path 186040" d="M58.571,254.939c.017.134-.635.325-1.455.427s-1.5.075-1.516-.06.635-.325,1.455-.426,1.5-.075,1.516.059" transform="translate(-6.912 -31.68)" fill="#263238"/>
        <path id="Path_186041" data-name="Path 186041" d="M59.34,261.525c-.053.124-.749-.059-1.551-.407s-1.41-.733-1.356-.856.749.058,1.552.407,1.409.733,1.356.856" transform="translate(-7.015 -32.352)" fill="#263238"/>
        <path id="Path_186042" data-name="Path 186042" d="M58.627,267.206c-.043.123-.921-.086-1.838-.688s-1.465-1.319-1.369-1.408.766.434,1.636,1,1.621.968,1.571,1.1" transform="translate(-6.889 -32.958)" fill="#263238"/>
        <path id="Path_186043" data-name="Path 186043" d="M55.728,272.418c-.081.105-.779-.306-1.45-1.031s-1.032-1.449-.921-1.522.635.5,1.279,1.189,1.178,1.256,1.092,1.363" transform="translate(-6.631 -33.55)" fill="#263238"/>
        <path id="Path_186044" data-name="Path 186044" d="M26.917,273.4c.062.121-.672.626-1.639,1.131s-1.8.815-1.865.7.672-.626,1.639-1.13,1.8-.814,1.865-.7" transform="translate(-2.91 -33.986)" fill="#263238"/>
        <path id="Path_186045" data-name="Path 186045" d="M24.4,268.623c.056.123-.533.511-1.314.864s-1.461.542-1.517.419.532-.51,1.314-.865,1.461-.541,1.517-.419" transform="translate(-2.681 -33.391)" fill="#263238"/>
        <path id="Path_186046" data-name="Path 186046" d="M22.4,264.387c.019.134-.706.347-1.617.476s-1.668.126-1.687-.008.706-.347,1.618-.476,1.667-.126,1.687.008" transform="translate(-2.375 -32.857)" fill="#263238"/>
        <path id="Path_186047" data-name="Path 186047" d="M28.715,262.063c.04.125-.666.456-1.609.56s-1.7-.056-1.694-.187.747-.2,1.639-.3,1.624-.207,1.664-.074" transform="translate(-3.159 -32.573)" fill="#263238"/>
        <path id="Path_186048" data-name="Path 186048" d="M34.052,256.845c.04.126-.523.411-1.281.484s-1.365-.094-1.351-.225.6-.191,1.3-.262,1.29-.13,1.329,0" transform="translate(-3.906 -31.922)" fill="#263238"/>
        <path id="Path_186049" data-name="Path 186049" d="M35.064,252.544c-.044.128-.653.033-1.36-.211s-1.244-.546-1.2-.673.652-.033,1.36.211,1.243.546,1.2.673" transform="translate(-4.041 -31.28)" fill="#263238"/>
        <path id="Path_186050" data-name="Path 186050" d="M37.2,248.2c-.094.094-.512-.182-.81-.7s-.329-1.018-.2-1.053.357.349.625.807.485.85.386.946" transform="translate(-4.49 -30.639)" fill="#263238"/>
        <path id="Path_186051" data-name="Path 186051" d="M34.712,265.74c.032.131-.495.373-1.178.539a4.5,4.5,0,0,1-.989.146l-.1-.285c.177-.032.291-.025.313.027s-.049.141-.192.25l-.1-.285a4.491,4.491,0,0,1,.945-.328c.682-.166,1.261-.2,1.293-.064" transform="translate(-4.034 -33.027)" fill="#263238"/>
        <path id="Path_186052" data-name="Path 186052" d="M35.661,273.154c.049.126-.623.508-1.5.853s-1.631.523-1.68.4.623-.508,1.5-.853,1.631-.523,1.68-.4" transform="translate(-4.038 -33.954)" fill="#263238"/>
        <path id="Path_186053" data-name="Path 186053" d="M29.884,269.859c.044.128-.4.4-1,.6s-1.116.264-1.159.136.4-.4,1-.6,1.115-.264,1.159-.136" transform="translate(-3.446 -33.541)" fill="#263238"/>
        <path id="Path_186054" data-name="Path 186054" d="M30.187,254.623c-.031.13-.812.053-1.714-.269s-1.557-.75-1.5-.87.787.1,1.664.409,1.582.6,1.55.729" transform="translate(-3.353 -31.51)" fill="#263238"/>
        <path id="Path_186055" data-name="Path 186055" d="M44.656,253.147c.074.113-.365.534-.982.94s-1.177.644-1.251.532.365-.533.983-.94,1.176-.644,1.25-.532" transform="translate(-5.273 -31.469)" fill="#263238"/>
        <path id="Path_186056" data-name="Path 186056" d="M45.446,260.575c.027.132-.434.34-1.032.464s-1.1.117-1.131-.015.434-.341,1.032-.464,1.1-.117,1.131.015" transform="translate(-5.381 -32.383)" fill="#263238"/>
        <path id="Path_186057" data-name="Path 186057" d="M46.266,268.768c-.057.123-.722-.065-1.485-.418s-1.336-.74-1.28-.863.722.065,1.486.418,1.336.74,1.279.863" transform="translate(-5.408 -33.25)" fill="#263238"/>
        <path id="Path_186058" data-name="Path 186058" d="M44.519,276.829c-.1.086-.536-.267-.964-.789s-.691-1.013-.587-1.1.536.267.964.789.691,1.013.587,1.1" transform="translate(-5.339 -34.18)" fill="#263238"/>
        <path id="Path_186059" data-name="Path 186059" d="M44.113,247.668c.082.1-.2.464-.692.708s-.947.26-.982.131.321-.346.762-.569.828-.379.912-.271" transform="translate(-5.276 -30.786)" fill="#263238"/>
        <path id="Path_186060" data-name="Path 186060" d="M50.989,255.168c.045.124-.524.438-1.3.544s-1.412-.036-1.4-.168.609-.213,1.335-.316,1.325-.19,1.37-.06" transform="translate(-6.003 -31.715)" fill="#263238"/>
        <path id="Path_186061" data-name="Path 186061" d="M49.572,248.436c.06.118-.505.522-1.308.777s-1.5.257-1.516.126.6-.346,1.367-.592,1.4-.434,1.457-.311" transform="translate(-5.812 -30.881)" fill="#263238"/>
        <path id="Path_186062" data-name="Path 186062" d="M52.32,265.5a3.732,3.732,0,0,1-2.133,0,3.73,3.73,0,0,1-2-.752,6.569,6.569,0,0,1,2.083.271,6.561,6.561,0,0,1,2.046.478" transform="translate(-5.991 -32.909)" fill="#263238"/>
        <path id="Path_186063" data-name="Path 186063" d="M49.935,275.032c-.081.105-.792-.313-1.5-1.029s-1.128-1.426-1.022-1.507.68.473,1.369,1.162,1.24,1.266,1.155,1.374" transform="translate(-5.892 -33.876)" fill="#263238"/>
        <path id="Path_186064" data-name="Path 186064" d="M37.368,240.479a22.174,22.174,0,0,0-4.29,3.39,20.936,20.936,0,0,0-5.343,11.81,26.515,26.515,0,0,0,.322,7.237,55.146,55.146,0,0,0,1.356,5.807c.469,1.635.9,2.944,1.19,3.852A9.087,9.087,0,0,1,31.016,274a8.12,8.12,0,0,1-.592-1.362c-.345-.89-.828-2.186-1.342-3.816a48.987,48.987,0,0,1-1.469-5.83,25.956,25.956,0,0,1-.364-7.371,20.593,20.593,0,0,1,5.58-11.993,15.333,15.333,0,0,1,3.2-2.5,9.73,9.73,0,0,1,.98-.509,1.149,1.149,0,0,1,.359-.14" transform="translate(-3.372 -29.897)" fill="#263238"/>
        <path id="Path_186065" data-name="Path 186065" d="M45.442,274.344a53.475,53.475,0,0,0,2.2-5.255,29.737,29.737,0,0,0,1.315-13.513,25.438,25.438,0,0,0-2.083-7.206,17.021,17.021,0,0,0-3.553-4.948,12.927,12.927,0,0,0-3.482-2.2c-.9-.377-1.447-.466-1.439-.507a1.164,1.164,0,0,1,.4.031,7.3,7.3,0,0,1,1.109.3,12.053,12.053,0,0,1,3.641,2.117,16.748,16.748,0,0,1,3.731,5.014,25.019,25.019,0,0,1,2.161,7.332A28.736,28.736,0,0,1,47.968,269.2c-.277.845-.632,1.569-.9,2.222-.315.631-.575,1.18-.814,1.614a9.291,9.291,0,0,1-.815,1.306" transform="translate(-4.774 -29.925)" fill="#263238"/>
        <path id="Path_186066" data-name="Path 186066" d="M24.8,277.8H51.77l.166,5.4H24.8Z" transform="translate(-3.083 -34.537)" fill="#a757f7"/>
        <path id="Path_186067" data-name="Path 186067" d="M27.415,280.88l1.549,16.479H48.682l1.584-16.3Z" transform="translate(-3.408 -34.92)" fill="#a757f7"/>
        <path id="Path_186068" data-name="Path 186068" d="M51.937,284c0,.135-6.074.244-13.565.244s-13.566-.109-13.566-.244,6.073-.244,13.566-.244,13.565.109,13.565.244" transform="translate(-3.084 -35.277)" fill="#263238"/>
        <path id="Path_186069" data-name="Path 186069" d="M49.7,289.537a4.081,4.081,0,0,1-.578,1.03,14.857,14.857,0,0,1-2.092,2.47l-.123.118-.123-.128A38.775,38.775,0,0,0,41.5,288.4l.3-.013-2.343,2.057-2.771,2.412-.153.134-.153-.13-4.5-3.786.262-.028-2.33,2.842a6.7,6.7,0,0,1-.914,1,6.581,6.581,0,0,1,.752-1.128l2.2-2.944.112-.15.15.122,4.571,3.705-.306,0,2.76-2.424,2.351-2.048.144-.126.153.113a34.5,34.5,0,0,1,5.261,4.777l-.247-.01a27.361,27.361,0,0,0,2.906-3.243" transform="translate(-3.592 -35.793)" fill="#263238"/>
      </g>
    </g>
    <g id="Group_123809" data-name="Group 123809">
      <g id="Group_123808" data-name="Group 123808" clip-path="url(#clip-path)">
        <path id="Path_186070" data-name="Path 186070" d="M377.645,265.937H98.568a12.756,12.756,0,0,1-12.756-12.756V77.272A12.756,12.756,0,0,1,98.568,64.515H377.645A12.756,12.756,0,0,1,390.4,77.272v175.91a12.756,12.756,0,0,1-12.756,12.756" transform="translate(-10.668 -8.021)" fill="#455a64"/>
        <path id="Path_186071" data-name="Path 186071" d="M388.84,297.3H90.009a15.585,15.585,0,0,1-15.584-15.585v-2.039h330v2.039A15.585,15.585,0,0,1,388.84,297.3" transform="translate(-9.253 -34.771)" fill="#455a64"/>
        <path id="Path_186072" data-name="Path 186072" d="M225.44,277.522l4.095,6.513h57.622l3.8-6.513Z" transform="translate(-28.027 -34.502)" fill="#263238"/>
        <path id="Path_186073" data-name="Path 186073" d="M387.784,277.494c0,.109-67.6.2-150.979.2-83.4,0-150.993-.088-150.993-.2s67.59-.2,150.993-.2c83.375,0,150.979.088,150.979.2" transform="translate(-10.668 -34.474)" fill="#263238"/>
        <path id="Path_186074" data-name="Path 186074" d="M378.86,247.359H98.639a2.867,2.867,0,0,1-2.866-2.866V80.608a2.866,2.866,0,0,1,2.866-2.866H378.86a2.865,2.865,0,0,1,2.865,2.866V244.493a2.865,2.865,0,0,1-2.865,2.866" transform="translate(-11.907 -9.665)" fill="#ebebeb"/>
        <path id="Path_186075" data-name="Path 186075" d="M381.376,249.407H95.423l.306-157.189H381.376Z" transform="translate(-11.863 -11.465)" fill="#fff"/>
        <path id="Path_186076" data-name="Path 186076" d="M121.907,84.9a2.284,2.284,0,1,1-2.284-2.284,2.284,2.284,0,0,1,2.284,2.284" transform="translate(-14.588 -10.271)" fill="#263238"/>
        <path id="Path_186077" data-name="Path 186077" d="M106.1,84.9a2.284,2.284,0,1,1-2.284-2.284A2.284,2.284,0,0,1,106.1,84.9" transform="translate(-12.623 -10.271)" fill="#263238"/>
        <path id="Path_186078" data-name="Path 186078" d="M113.688,84.9a2.284,2.284,0,1,1-2.284-2.284,2.284,2.284,0,0,1,2.284,2.284" transform="translate(-13.566 -10.271)" fill="#263238"/>
        <rect id="Rectangle_38120" data-name="Rectangle 38120" width="286.259" height="15.179" transform="translate(83.56 222.763)" fill="#263238"/>
        <path id="Path_186079" data-name="Path 186079" d="M107.433,264.687v.486h-2.279v-.384l1.229-1.166c.3-.287.353-.468.353-.64,0-.283-.194-.447-.574-.447a.87.87,0,0,0-.724.323l-.4-.31a1.428,1.428,0,0,1,1.175-.512c.671,0,1.1.34,1.1.888a1.238,1.238,0,0,1-.512.976l-.826.786Z" transform="translate(-13.058 -32.577)" fill="#fff"/>
        <path id="Path_186080" data-name="Path 186080" d="M108.129,263.261a.362.362,0,1,1,.723,0,.362.362,0,1,1-.723,0m0,1.683a.362.362,0,1,1,.723,0,.362.362,0,1,1-.723,0" transform="translate(-13.443 -32.684)" fill="#fff"/>
        <path id="Path_186081" data-name="Path 186081" d="M110.424,262.086v3.093h-.574v-2.611H109.2v-.482Z" transform="translate(-13.576 -32.583)" fill="#fff"/>
        <path id="Path_186082" data-name="Path 186082" d="M114.049,264.477H113.5v.7h-.556v-.7h-1.7v-.4l1.524-1.992h.615l-1.436,1.9h1.011v-.624h.539v.624h.548Z" transform="translate(-13.831 -32.583)" fill="#fff"/>
        <rect id="Rectangle_38121" data-name="Rectangle 38121" width="234.629" height="1.07" transform="translate(105.27 230.656)" fill="#fff"/>
        <rect id="Rectangle_38122" data-name="Rectangle 38122" width="73.322" height="2.853" transform="translate(105.094 229.504)" fill="#ff6b00"/>
        <path id="Path_186083" data-name="Path 186083" d="M205.436,263.508a3.57,3.57,0,1,1-3.57-3.57,3.57,3.57,0,0,1,3.57,3.57" transform="translate(-24.653 -32.316)" fill="#ff6b00"/>
        <path id="Path_186084" data-name="Path 186084" d="M394.554,263.667a1.032,1.032,0,0,1-1.131,1c-.843,0-1.339-.543-1.339-1.538a1.465,1.465,0,0,1,1.516-1.644,1.552,1.552,0,0,1,.813.2l-.212.433a1.052,1.052,0,0,0-.588-.151c-.583,0-.95.363-.95,1.065v.005a1.059,1.059,0,0,1,.826-.322.966.966,0,0,1,1.066.949m-.557.026c0-.322-.243-.525-.618-.525a.563.563,0,0,0-.628.531c0,.291.23.52.641.52a.536.536,0,0,0,.605-.525" transform="translate(-48.745 -32.509)" fill="#fff"/>
        <path id="Path_186085" data-name="Path 186085" d="M395.223,262.713a.362.362,0,1,1,.724,0,.362.362,0,1,1-.724,0m0,1.683a.362.362,0,1,1,.724,0,.362.362,0,1,1-.724,0" transform="translate(-49.135 -32.616)" fill="#fff"/>
        <path id="Path_186086" data-name="Path 186086" d="M396.473,263.079c0-1.016.556-1.591,1.289-1.591s1.3.575,1.3,1.591-.557,1.59-1.3,1.59-1.289-.574-1.289-1.59m2.005,0c0-.747-.291-1.091-.716-1.091s-.711.344-.711,1.091.292,1.091.711,1.091.716-.344.716-1.091" transform="translate(-49.291 -32.509)" fill="#fff"/>
        <path id="Path_186087" data-name="Path 186087" d="M399.864,263.079c0-1.016.557-1.591,1.29-1.591s1.3.575,1.3,1.591-.557,1.59-1.3,1.59-1.29-.574-1.29-1.59m2.006,0c0-.747-.291-1.091-.716-1.091s-.711.344-.711,1.091.293,1.091.711,1.091.716-.344.716-1.091" transform="translate(-49.712 -32.509)" fill="#fff"/>
        <path id="Path_186088" data-name="Path 186088" d="M408.369,262.648H407.3v-3.084h3.078v1.07h-2.008Z" transform="translate(-50.637 -32.27)" fill="#fff"/>
        <path id="Path_186089" data-name="Path 186089" d="M410.379,267.245H407.3v-3.078h1.07v2.008h2.014Z" transform="translate(-50.636 -32.842)" fill="#fff"/>
        <path id="Path_186090" data-name="Path 186090" d="M415.989,267.244h-3.078v-1.07h2.008V264.16h1.07Z" transform="translate(-51.334 -32.841)" fill="#fff"/>
        <path id="Path_186091" data-name="Path 186091" d="M415.991,262.642h-1.07v-2.008h-2.014v-1.069h3.084Z" transform="translate(-51.334 -32.27)" fill="#fff"/>
        <path id="Path_186092" data-name="Path 186092" d="M136.615,102.891H119.761l-8.428,14.6,8.428,14.6h16.854l8.428-14.6Z" transform="translate(-13.841 -12.792)" fill="#ebebeb"/>
        <path id="Path_186093" data-name="Path 186093" d="M122.129,120.525a15.078,15.078,0,0,1-2.062-2.657,5.064,5.064,0,0,1-.694-3.233c.107-.648.382-1.266.426-1.921.06-.9-.319-1.845,0-2.69.5-1.322,2.279-1.526,3.357-2.439.84-.711,1.249-1.865,2.173-2.463a4.076,4.076,0,0,1,2.8-.377,10.563,10.563,0,0,0,2.863.247,18.789,18.789,0,0,0,1.984-.531,2.709,2.709,0,0,1,2,.136,1.3,1.3,0,0,1,.537,1.75,2.177,2.177,0,0,1,2.809,1.529,3.309,3.309,0,0,1-1.238,3.227,7.249,7.249,0,0,1-3.341,1.363,13.978,13.978,0,0,1-9.967-1.553" transform="translate(-14.834 -12.971)" fill="#263238"/>
        <path id="Path_186094" data-name="Path 186094" d="M138.078,124.5c-.114-2.089-.7-6.372-1.272-10.243a8.076,8.076,0,0,0-8.526-6.873l-.417.028c-4.481.564-6.5,4.684-5.818,9.147l1.315,16.077H134.3s-.259-2.821-.26-2.849c0,0,4.279-.961,4.043-5.288" transform="translate(-15.157 -13.349)" fill="#ffbe9d"/>
        <path id="Path_186095" data-name="Path 186095" d="M134.944,132.73a10.072,10.072,0,0,1-5.744-1.225s1.54,3.023,5.829,2.345Z" transform="translate(-16.063 -16.349)" fill="#eb996e"/>
        <path id="Path_186096" data-name="Path 186096" d="M137.155,119.4a.619.619,0,0,1-.553.663.593.593,0,0,1-.674-.513.62.62,0,0,1,.553-.665.6.6,0,0,1,.674.515" transform="translate(-16.899 -14.78)" fill="#263238"/>
        <path id="Path_186097" data-name="Path 186097" d="M137.673,117.643c-.072.086-.563-.229-1.228-.183s-1.129.411-1.206.335c-.038-.034.031-.184.233-.353a1.7,1.7,0,0,1,.959-.368,1.63,1.63,0,0,1,.983.247c.215.143.293.284.259.322" transform="translate(-16.812 -14.555)" fill="#263238"/>
        <path id="Path_186098" data-name="Path 186098" d="M129.988,119.914a.619.619,0,0,1-.553.663.593.593,0,0,1-.674-.514.62.62,0,0,1,.553-.664.593.593,0,0,1,.674.515" transform="translate(-16.008 -14.844)" fill="#263238"/>
        <path id="Path_186099" data-name="Path 186099" d="M130.224,118.283c-.071.086-.563-.229-1.227-.183s-1.129.411-1.206.335c-.038-.033.03-.184.232-.353a1.7,1.7,0,0,1,.959-.368,1.632,1.632,0,0,1,.983.247c.214.143.293.284.258.322" transform="translate(-15.886 -14.634)" fill="#263238"/>
        <path id="Path_186100" data-name="Path 186100" d="M133.6,123.024a4.414,4.414,0,0,1,1.066-.267c.169-.029.328-.074.348-.191a.861.861,0,0,0-.146-.5q-.281-.6-.588-1.257a22.277,22.277,0,0,1-1.353-3.3,22.243,22.243,0,0,1,1.616,3.187l.567,1.268a.98.98,0,0,1,.132.659.424.424,0,0,1-.262.267,1.163,1.163,0,0,1-.285.06,4.363,4.363,0,0,1-1.094.074" transform="translate(-16.526 -14.609)" fill="#263238"/>
        <path id="Path_186101" data-name="Path 186101" d="M130.14,115.319c-.053.185-.722.144-1.5.29-.777.13-1.39.4-1.5.246-.052-.074.046-.252.289-.444a2.65,2.65,0,0,1,2.286-.408c.293.1.447.229.425.316" transform="translate(-15.805 -14.285)" fill="#263238"/>
        <path id="Path_186102" data-name="Path 186102" d="M137.272,115.46c-.107.158-.575.032-1.126.062-.552.01-1.009.169-1.127.018-.053-.074.011-.229.2-.386a1.634,1.634,0,0,1,1.816-.065c.2.142.278.293.232.37" transform="translate(-16.784 -14.278)" fill="#263238"/>
        <path id="Path_186103" data-name="Path 186103" d="M122.319,121.486c-.076-.027-3.029-.68-2.737,2.27s3.489,1.988,3.485,1.9-.748-4.173-.748-4.173" transform="translate(-14.864 -15.094)" fill="#ffbe9d"/>
        <path id="Path_186104" data-name="Path 186104" d="M121.869,124.832c-.015-.008-.048.041-.13.089a.521.521,0,0,1-.384.046,1.279,1.279,0,0,1-.7-1.082,1.716,1.716,0,0,1,.07-.75.6.6,0,0,1,.348-.433.262.262,0,0,1,.317.111c.048.078.035.139.051.143s.059-.056.023-.175a.323.323,0,0,0-.134-.173.388.388,0,0,0-.292-.047.725.725,0,0,0-.49.511,1.733,1.733,0,0,0-.1.84,1.34,1.34,0,0,0,.876,1.2.558.558,0,0,0,.462-.124c.084-.082.092-.15.082-.154" transform="translate(-14.973 -15.236)" fill="#eb996e"/>
        <path id="Path_186105" data-name="Path 186105" d="M136.519,110.116c-.2,1.174-2.584,2.25-4.558,2.192-1.821-.053-2.719-.955-4.041-1.6-.837-.406-.837-.406-1.973-.222-.919.149-1.395,1.233-1.911,2.007.982,2.141.585,4.631.169,6.95a1.182,1.182,0,0,1-.3.7.94.94,0,0,1-1.2-.181,3.657,3.657,0,0,1-.931-1.874,12.2,12.2,0,0,1-.292-4.8,8.3,8.3,0,0,1,2-4.33,7.856,7.856,0,0,1,5.362-2.447,9.648,9.648,0,0,1,5.718,1.624,5.651,5.651,0,0,1,1.955,1.969" transform="translate(-15.089 -13.242)" fill="#263238"/>
        <path id="Path_186106" data-name="Path 186106" d="M133.862,125.4l-1.5-.7a.5.5,0,0,0-.273-.068.435.435,0,0,0-.26.176,1.4,1.4,0,0,0-.166,1.537,1.174,1.174,0,0,0,1.411.518,1.6,1.6,0,0,0,.834-1.415Z" transform="translate(-16.348 -15.495)" fill="#eb996e"/>
        <path id="Path_186107" data-name="Path 186107" d="M133.083,126.936c.024.03-.313.242-.881.079a1.379,1.379,0,0,1-.78-.633,1.434,1.434,0,0,1-.1-1.233,1.482,1.482,0,0,1,.363-.546,1.356,1.356,0,0,1,.256-.192.432.432,0,0,1,.4-.024c.344.192.575.355.807.5.44.292.7.493.677.534s-.327-.087-.8-.326l-.8-.419c-.063-.017-.057-.017-.116.014a1.142,1.142,0,0,0-.186.15,1.223,1.223,0,0,0-.278.428,1.171,1.171,0,0,0,.056.96,1.214,1.214,0,0,0,.588.558,3.185,3.185,0,0,0,.8.147" transform="translate(-16.315 -15.46)" fill="#263238"/>
        <path id="Path_186108" data-name="Path 186108" d="M131.905,119.1c-.033,0-.029-.274-.161-.736a3.069,3.069,0,0,0-1.129-1.617,2.933,2.933,0,1,0,0,4.7,3.067,3.067,0,0,0,1.129-1.617c.132-.461.128-.737.161-.736.011,0,.02.067.025.2a2.3,2.3,0,0,1-.056.569,3.069,3.069,0,0,1-1.112,1.776,3.188,3.188,0,0,1-3.039.5,3.226,3.226,0,0,1,0-6.081,3.188,3.188,0,0,1,3.039.5,3.074,3.074,0,0,1,1.112,1.777,2.3,2.3,0,0,1,.056.569c0,.131-.013.2-.025.2" transform="translate(-15.612 -14.406)" fill="#263238"/>
        <path id="Path_186109" data-name="Path 186109" d="M140.328,118.783c-.032,0-.03-.267-.159-.716a3,3,0,0,0-1.1-1.574,2.855,2.855,0,1,0,0,4.58,2.993,2.993,0,0,0,1.1-1.574c.129-.449.126-.718.159-.716.011,0,.02.066.025.194a2.216,2.216,0,0,1-.054.555,2.986,2.986,0,0,1-1.082,1.733,3.113,3.113,0,0,1-2.965.485,3.147,3.147,0,0,1,0-5.934,3.113,3.113,0,0,1,2.965.485,2.991,2.991,0,0,1,1.082,1.733,2.216,2.216,0,0,1,.054.555c0,.128-.013.194-.025.194" transform="translate(-16.678 -14.376)" fill="#263238"/>
        <path id="Path_186110" data-name="Path 186110" d="M134.134,118.389c-.067.063-.359-.126-.753-.113s-.677.2-.747.14c-.09-.047.185-.472.742-.482s.845.4.758.454" transform="translate(-16.487 -14.662)" fill="#263238"/>
        <path id="Path_186111" data-name="Path 186111" d="M125.589,119.059c.056.075-.516.6-1.278,1.166a4.472,4.472,0,0,1-1.482.893c-.056-.075.516-.6,1.278-1.166a4.508,4.508,0,0,1,1.482-.893" transform="translate(-15.27 -14.801)" fill="#263238"/>
        <path id="Path_186112" data-name="Path 186112" d="M190.6,119.366c0,.095-7.576.171-16.921.171s-16.923-.076-16.923-.171,7.575-.171,16.923-.171,16.921.076,16.921.171" transform="translate(-19.488 -14.819)" fill="#263238"/>
        <path id="Path_186113" data-name="Path 186113" d="M174.977,123.411c0,.095-4.024.171-8.985.171s-8.986-.076-8.986-.171,4.023-.171,8.986-.171,8.985.076,8.985.171" transform="translate(-19.519 -15.322)" fill="#263238"/>
      </g>
    </g>
    <g id="Group_123829" data-name="Group 123829">
      <g id="Group_123828" data-name="Group 123828" clip-path="url(#clip-path)">
        <path id="Path_186114" data-name="Path 186114" d="M310.053,149.274a25.807,25.807,0,0,1,12.154,15.7c3.159,11.316,12.833,40.789,12.833,40.789s5.529,6.5,6.121,11.32-.592,16.465-2.37,18.637a5,5,0,0,1-4.311,1.812l-23.269-2.207-9.162-61.353Z" transform="translate(-37.552 -18.558)" fill="#ff6b00"/>
        <path id="Path_186115" data-name="Path 186115" d="M220.364,146.885s-16.638,5.218-20.784,9.759L213.2,220.023l-.218,20h78.881c0-.988.708-66.4.708-66.4l4.739-25.668-28.037-4.935-5.528-4.344-31.2,1.58L227.814,145Z" transform="translate(-24.812 -17.241)" fill="#ff6b00"/>
        <g id="Group_123812" data-name="Group 123812" transform="translate(188.23 183.368)" opacity="0.3">
          <g id="Group_123811" data-name="Group 123811">
            <g id="Group_123810" data-name="Group 123810" clip-path="url(#clip-path-8)">
              <path id="Path_186116" data-name="Path 186116" d="M228.6,210.661c-.243-.538-.59-1.118-1.168-1.238-.95-.2-1.586.927-1.909,1.842A83.325,83.325,0,0,1,215.155,231.5l-.2,9.731c4.6-3.87,9.133-8.015,12.064-13.262s4.053-11.83,1.578-17.306" transform="translate(-214.954 -209.401)"/>
            </g>
          </g>
        </g>
        <path id="Path_186117" data-name="Path 186117" d="M195.116,159.2s-5.482,7.474-7.758,12.352-21.14,45.856-22.278,50.083-4.065,17.562,4.554,20.652h17.725l17.79-35.975.91-41.753Z" transform="translate(-20.348 -19.792)" fill="#ff6b00"/>
        <path id="Path_186118" data-name="Path 186118" d="M188.951,224c-.024.026-.395-.349-1.211-.813a13.615,13.615,0,0,0-3.721-1.348,17.846,17.846,0,0,0-2.711-.381,10.8,10.8,0,0,0-3.109.2,11.588,11.588,0,0,0-5.968,3.746,16.166,16.166,0,0,0-3.378,6.281,31.4,31.4,0,0,0-1.067,5.8c-.166,1.677-.228,3.042-.285,3.984-.028.44-.05.8-.068,1.085a1.589,1.589,0,0,1-.046.378,1.61,1.61,0,0,1-.022-.38c0-.286,0-.646,0-1.088.018-.944.043-2.313.179-4a29.9,29.9,0,0,1,1.005-5.865,16.221,16.221,0,0,1,3.425-6.42,11.779,11.779,0,0,1,6.153-3.826,10.916,10.916,0,0,1,3.2-.178,17.344,17.344,0,0,1,2.747.428,12.779,12.779,0,0,1,3.734,1.468,6.4,6.4,0,0,1,.879.652,1.579,1.579,0,0,1,.264.275" transform="translate(-20.807 -27.492)" fill="#263238"/>
        <path id="Path_186119" data-name="Path 186119" d="M182.418,216.2a2.051,2.051,0,0,1,.6-.1,10.125,10.125,0,0,1,1.645-.023,13.5,13.5,0,0,1,2.418.357,14.4,14.4,0,0,1,5.378,2.565,13.6,13.6,0,0,1,1.8,1.654,10.075,10.075,0,0,1,1.017,1.292,2,2,0,0,1,.3.524c-.052.037-.532-.673-1.492-1.65a15.571,15.571,0,0,0-1.813-1.568A15.419,15.419,0,0,0,187,216.748a15.549,15.549,0,0,0-2.36-.422c-1.363-.131-2.216-.058-2.221-.122" transform="translate(-22.679 -26.862)" fill="#263238"/>
        <path id="Path_186120" data-name="Path 186120" d="M197.818,213.874a3.835,3.835,0,0,1-.82-.062c-.523-.067-1.282-.144-2.221-.214a37.824,37.824,0,0,0-14.5,1.735c-.9.289-1.616.542-2.107.73a3.938,3.938,0,0,1-.782.255,3.727,3.727,0,0,1,.731-.377c.478-.227,1.188-.517,2.08-.836a33.527,33.527,0,0,1,14.6-1.746c.941.1,1.7.214,2.219.322a3.8,3.8,0,0,1,.8.194" transform="translate(-22.054 -26.504)" fill="#263238"/>
        <path id="Path_186121" data-name="Path 186121" d="M255.069,170.5a1.179,1.179,0,0,1-.18-.214l-.483-.647-1.782-2.469-6.174-8.711.275-.039c-.954,2.8-2.009,5.9-3.118,9.156l-.07.206-.179-.115-.368-.237a18.9,18.9,0,0,1-3.859-3.258,22.961,22.961,0,0,1-2.756-3.81,31.818,31.818,0,0,1-3.032-7.331,49.632,49.632,0,0,1-1.148-5.222q-.155-.892-.248-1.429c-.03-.163-.063-.283-.083-.365a.4.4,0,0,1-.041-.121,5.984,5.984,0,0,1,.5,1.891c.255,1.234.61,3.023,1.25,5.179a32.517,32.517,0,0,0,3.072,7.239,22.968,22.968,0,0,0,2.731,3.744,18.726,18.726,0,0,0,3.8,3.2l.36.233-.249.09c1.119-3.253,2.182-6.344,3.146-9.146l.1-.292.175.253,6.072,8.782c.718,1.057,1.293,1.9,1.709,2.518l.444.676a1.162,1.162,0,0,1,.138.243" transform="translate(-28.821 -18.138)" fill="#263238"/>
        <g id="Group_123815" data-name="Group 123815" transform="translate(246.613 182.615)" opacity="0.3">
          <g id="Group_123814" data-name="Group 123814">
            <g id="Group_123813" data-name="Group 123813" clip-path="url(#clip-path-9)">
              <path id="Path_186122" data-name="Path 186122" d="M281.8,208.542a35.829,35.829,0,0,0,4.558,21.254c3.671,6.384,9.048,12.073,15.749,15.126.216-6.5-.1-14.166.121-20.67Z" transform="translate(-281.626 -208.542)"/>
            </g>
          </g>
        </g>
        <path id="Path_186123" data-name="Path 186123" d="M280.76,196.559s-2.865.8-.716,6.666,2.865,5.515,4.3,11.006,3.1,10.5,5.611,13.607,11.819,9.431,11.819,9.431l8.357-7.879s-1.377-5.872-1.046-9.86,1.166-13.778,1.046-15.45-1.91-5.73-1.91-5.73v-2.777l-4.3-13.221s-2.388-1.074-3.223,2.746l-1.433-4.055s-2.269-.362-2.865,4.294a46.823,46.823,0,0,0,.477,11.1l-1.194,8.118-1.791,5.492-1.553.238s-2.335-.637-3.615-5.034-4.742-9.65-7.965-8.695" transform="translate(-34.716 -22.507)" fill="#ffbe9d"/>
        <path id="Path_186124" data-name="Path 186124" d="M310,220.114a1.351,1.351,0,0,1-.039-.3c-.016-.228-.036-.517-.06-.875-.043-.8-.1-1.908-.177-3.287-.129-2.851-.307-6.818-.517-11.449l.038.1a1.674,1.674,0,0,0-1.691-.44A2.468,2.468,0,0,0,306,204.993c-.73,1.175-.77,2.7-1,4.183-.454,3.346-.885,6.532-1.278,9.436-.2,1.45-.408,2.83-.691,4.108A26.968,26.968,0,0,1,302,226.2a28.9,28.9,0,0,0-.9,2.835,8.693,8.693,0,0,0-.27,2.211,6.911,6.911,0,0,0,.33,1.872,2.722,2.722,0,0,1-.2-.458,5.2,5.2,0,0,1-.263-1.409,8.444,8.444,0,0,1,.217-2.259,27.584,27.584,0,0,1,.856-2.871,27.474,27.474,0,0,0,.988-3.463c.268-1.267.467-2.64.657-4.089.384-2.906.807-6.093,1.251-9.44.105-.746.186-1.483.315-2.218a5.831,5.831,0,0,1,.737-2.1,2.8,2.8,0,0,1,1.757-1.276,2,2,0,0,1,2.011.555l.036.043,0,.053c.159,4.633.3,8.6.393,11.454.036,1.381.065,2.49.085,3.292,0,.358.007.648.01.877a1.327,1.327,0,0,1-.015.3" transform="translate(-37.382 -25.296)" fill="#eb996e"/>
        <path id="Path_186125" data-name="Path 186125" d="M305.855,203.678a3.379,3.379,0,0,1-.352-.747,18.755,18.755,0,0,1-.7-2.14,21.592,21.592,0,0,1-.6-3.29,9.568,9.568,0,0,1-.035-1.993,4.252,4.252,0,0,1,.721-2.047,2.91,2.91,0,0,1,1.528-1.146l.128-.038.066.115c1.21,2.136,2.261,4.02,3,5.376l.856,1.6a2.757,2.757,0,0,1,.274.6,2.752,2.752,0,0,1-.378-.542q-.382-.631-.944-1.553c-.791-1.327-1.878-3.19-3.1-5.319l.194.078a2.607,2.607,0,0,0-1.345,1.022,3.966,3.966,0,0,0-.667,1.886,9.551,9.551,0,0,0,.017,1.927,23.992,23.992,0,0,0,.521,3.261c.211.919.434,1.65.591,2.154a4.377,4.377,0,0,1,.227.792" transform="translate(-37.81 -23.904)" fill="#eb996e"/>
        <path id="Path_186126" data-name="Path 186126" d="M303.769,203.782a3.288,3.288,0,0,1-.077-.761c-.024-.563-.052-1.257-.085-2.078-.056-1.755-.11-4.18-.149-6.858a58.985,58.985,0,0,1,.106-6.871,10.574,10.574,0,0,1,.447-2.045,2.563,2.563,0,0,1,.306-.7,19.388,19.388,0,0,0-.514,2.774c-.166,1.734-.025,4.161-.005,6.841.039,2.678.055,5.1.05,6.859-.01.821-.018,1.516-.025,2.079a3.292,3.292,0,0,1-.055.764" transform="translate(-37.722 -22.933)" fill="#eb996e"/>
        <path id="Path_186127" data-name="Path 186127" d="M295.749,229.743c-.049-.04.475-.656,1.121-1.771a14.755,14.755,0,0,0,.973-2.039,14.634,14.634,0,0,0,.976-5.409,14.759,14.759,0,0,0-.2-2.25c-.215-1.271-.49-2.032-.43-2.052a1.849,1.849,0,0,1,.237.518,9.486,9.486,0,0,1,.43,1.49,12.816,12.816,0,0,1,.276,2.288,13.572,13.572,0,0,1-1,5.531,12.8,12.8,0,0,1-1.058,2.047,9.531,9.531,0,0,1-.924,1.246c-.243.273-.386.417-.4.4" transform="translate(-36.768 -26.881)" fill="#eb996e"/>
        <path id="Path_186128" data-name="Path 186128" d="M311.565,226.973l7.252,2.518s6.925-3.582,11.7,0,8.923,13.02,7.61,16.841c0,0-3.3,4.068-5.8,4.666s-12.254-1.764-16.309-2.617-11.048-5.4-11.048-5.4Z" transform="translate(-37.915 -28.218)" fill="#ffbe9d"/>
        <path id="Path_186129" data-name="Path 186129" d="M313.464,236.851a2.366,2.366,0,0,1-.077-.642q-.043-.737-.1-1.752c-.077-1.48-.177-3.525-.208-5.79a57.746,57.746,0,0,1,.167-5.8c.064-.741.145-1.338.22-1.747a2.382,2.382,0,0,1,.15-.63c.053.008-.06.917-.129,2.393s-.1,3.519-.067,5.778c.041,2.214.078,4.215.107,5.786.009.742.006,1.342-.005,1.757a2.357,2.357,0,0,1-.055.644" transform="translate(-38.921 -27.412)" fill="#eb996e"/>
        <path id="Path_186130" data-name="Path 186130" d="M338.025,228.789a22.863,22.863,0,0,0-2.412-2.174,13.267,13.267,0,0,0-14.7-.81,22.719,22.719,0,0,0-2.636,1.9,3.622,3.622,0,0,1,.6-.647,11.859,11.859,0,0,1,1.915-1.456,13.038,13.038,0,0,1,14.97.825,11.837,11.837,0,0,1,1.743,1.658,3.665,3.665,0,0,1,.523.709" transform="translate(-39.569 -27.802)" fill="#263238"/>
        <path id="Path_186131" data-name="Path 186131" d="M336.781,222.227a14.209,14.209,0,0,0-3.018-1.664,13.341,13.341,0,0,0-8.164-.245,18.929,18.929,0,0,0-4.223,1.757,20.063,20.063,0,0,0-3.059,2.16c-.814.694-1.436,1.3-1.863,1.723a5.473,5.473,0,0,1-.682.639,4.5,4.5,0,0,1,.586-.731,22.932,22.932,0,0,1,1.8-1.813,18.771,18.771,0,0,1,3.06-2.251,18.373,18.373,0,0,1,4.288-1.814,13.1,13.1,0,0,1,8.344.349,9.62,9.62,0,0,1,2.232,1.26,6.168,6.168,0,0,1,.531.451c.116.108.174.169.166.178" transform="translate(-39.258 -27.286)" fill="#263238"/>
        <path id="Path_186132" data-name="Path 186132" d="M336.646,216.468c-.018.067-1.286-.32-3.392-.605a27.124,27.124,0,0,0-3.717-.236,27,27,0,0,0-8.943,1.574,27.237,27.237,0,0,0-3.414,1.49c-1.882.988-2.941,1.785-2.982,1.727a4.877,4.877,0,0,1,.727-.58,9.995,9.995,0,0,1,.9-.616c.362-.223.763-.5,1.24-.743a24.581,24.581,0,0,1,3.421-1.574,25.556,25.556,0,0,1,9.051-1.593,24.611,24.611,0,0,1,3.752.311c.532.067,1,.188,1.419.275a10.21,10.21,0,0,1,1.057.271,4.824,4.824,0,0,1,.881.3" transform="translate(-39.062 -26.768)" fill="#263238"/>
        <path id="Path_186133" data-name="Path 186133" d="M273.848,143.391a6.065,6.065,0,0,1,.5,1.928,18.85,18.85,0,0,1-.275,5.625,33.349,33.349,0,0,1-.938,3.921,29.745,29.745,0,0,1-1.9,4.357c-1.562,3.012-3.528,6.3-5.8,9.8l-.266.41v-.49c0-2.315-.007-4.744-.01-7.267l.254.122-6.116,4.937.053-.078a64.372,64.372,0,0,0-2.721,14.7,171.029,171.029,0,0,0,.26,22.51c.322,6.926.532,13.163.749,18.4s.4,9.474.555,12.4c.086,1.45.152,2.582.2,3.369.025.373.045.663.059.876s.008.3.008.3-.02-.1-.043-.3c-.022-.212-.053-.5-.092-.874-.072-.768-.166-1.9-.264-3.365-.2-2.926-.425-7.161-.663-12.4s-.512-11.474-.822-18.394a168.529,168.529,0,0,1-.286-22.552,64.324,64.324,0,0,1,2.748-14.778l.015-.046.039-.032,6.126-4.925.256-.2v.328c0,2.523-.007,4.952-.01,7.267l-.267-.081c4.5-6.978,8.159-13.041,8.722-17.946a19.371,19.371,0,0,0,.354-5.585,9.494,9.494,0,0,0-.269-1.452c-.1-.318-.145-.487-.145-.487" transform="translate(-31.827 -17.827)" fill="#263238"/>
        <path id="Path_186134" data-name="Path 186134" d="M262.679,239.87l-.234-.008a1.846,1.846,0,1,0,.234.008" transform="translate(-32.405 -29.82)" fill="#fff"/>
        <path id="Path_186135" data-name="Path 186135" d="M262.679,211.044l-.234-.008a1.846,1.846,0,1,0,.234.008" transform="translate(-32.405 -26.237)" fill="#fff"/>
        <path id="Path_186136" data-name="Path 186136" d="M262.434,184.731a1.848,1.848,0,0,0,.245-3.686l-.234-.008a1.848,1.848,0,0,0-.011,3.694" transform="translate(-32.405 -22.507)" fill="#fff"/>
        <path id="Path_186137" data-name="Path 186137" d="M229.181,102.606a45.918,45.918,0,0,1-6.286-8.1,15.418,15.418,0,0,1-2.118-9.858c.324-1.976,1.165-3.86,1.3-5.858.184-2.751-.973-5.624,0-8.2,1.525-4.03,6.949-4.652,10.237-7.436,2.561-2.168,3.808-5.688,6.625-7.511,2.461-1.592,5.623-1.558,8.526-1.147s5.823,1.143,8.728.752a57.49,57.49,0,0,0,6.051-1.618,8.258,8.258,0,0,1,6.1.415c1.807,1.05,2.821,3.615,1.637,5.336,3.367-1.553,7.643,1.072,8.565,4.663s-.924,7.47-3.777,9.838-6.541,3.47-10.185,4.157c-10.315,1.944-21.5.847-30.391-4.735" transform="translate(-27.428 -6.62)" fill="#263238"/>
        <path id="Path_186138" data-name="Path 186138" d="M266.423,138.432c-.5-3.9-.916-7.162-.941-7.567,0,0,13.048-2.932,12.329-16.126-.348-6.375-2.132-19.449-3.884-31.258a24.611,24.611,0,0,0-25.994-20.93l-1.271.085C233,64.356,226.828,76.918,228.923,90.527l7.371,45.631s3.145,10.094,9.874,11.842l8.491,12.13,1.4-5.222,6.329-5.51a24.923,24.923,0,0,0,3.12-4.645,10.166,10.166,0,0,0,.911-6.321" transform="translate(-28.411 -7.77)" fill="#ffbe9d"/>
        <path id="Path_186139" data-name="Path 186139" d="M268.253,139.824a30.726,30.726,0,0,1-17.513-3.735s4.7,9.216,17.772,7.148Z" transform="translate(-31.173 -16.919)" fill="#eb996e"/>
        <path id="Path_186140" data-name="Path 186140" d="M275,99.183a1.888,1.888,0,0,1-1.688,2.021,1.8,1.8,0,0,1-2.053-1.568,1.886,1.886,0,0,1,1.686-2.021A1.8,1.8,0,0,1,275,99.183" transform="translate(-33.722 -12.134)" fill="#263238"/>
        <path id="Path_186141" data-name="Path 186141" d="M276.576,93.818c-.217.261-1.714-.7-3.739-.558-2.025.111-3.442,1.253-3.679,1.019-.115-.1.093-.561.708-1.076a5.179,5.179,0,0,1,2.925-1.12,4.975,4.975,0,0,1,3,.75c.655.437.9.866.788.984" transform="translate(-33.459 -11.447)" fill="#263238"/>
        <path id="Path_186142" data-name="Path 186142" d="M253.144,100.745a1.885,1.885,0,0,1-1.688,2.02A1.8,1.8,0,0,1,249.4,101.2a1.887,1.887,0,0,1,1.687-2.021,1.806,1.806,0,0,1,2.055,1.568" transform="translate(-31.005 -12.328)" fill="#263238"/>
        <path id="Path_186143" data-name="Path 186143" d="M253.864,95.771c-.217.261-1.716-.7-3.74-.558-2.025.112-3.442,1.253-3.679,1.019-.115-.1.091-.56.709-1.075a5.179,5.179,0,0,1,2.924-1.121,4.974,4.974,0,0,1,3,.751c.653.436.895.866.788.983" transform="translate(-30.635 -11.69)" fill="#263238"/>
        <path id="Path_186144" data-name="Path 186144" d="M264.171,110.226a13.391,13.391,0,0,1,3.251-.814c.514-.088,1-.224,1.06-.582a2.637,2.637,0,0,0-.447-1.511q-.855-1.828-1.793-3.837c-2.5-5.466-4.346-9.974-4.124-10.073s2.426,4.251,4.926,9.717q.906,2.024,1.73,3.865a3,3,0,0,1,.4,2.012,1.3,1.3,0,0,1-.8.813,3.515,3.515,0,0,1-.87.181,13.205,13.205,0,0,1-3.335.228" transform="translate(-32.585 -11.613)" fill="#263238"/>
        <path id="Path_186145" data-name="Path 186145" d="M253.609,86.732c-.163.564-2.2.439-4.561.884-2.367.4-4.237,1.222-4.585.75-.157-.227.143-.768.883-1.353a8.075,8.075,0,0,1,6.967-1.243c.9.292,1.364.7,1.3.963" transform="translate(-30.387 -10.624)" fill="#263238"/>
        <path id="Path_186146" data-name="Path 186146" d="M275.351,87.162c-.326.484-1.753.1-3.433.189-1.682.031-3.078.517-3.438.057-.159-.223.034-.7.626-1.177a4.981,4.981,0,0,1,5.536-.2c.624.433.85.894.708,1.129" transform="translate(-33.372 -10.603)" fill="#263238"/>
        <path id="Path_186147" data-name="Path 186147" d="M229.761,105.537c-.231-.082-9.237-2.074-8.346,6.92s10.637,6.062,10.627,5.8-2.281-12.722-2.281-12.722" transform="translate(-27.519 -13.091)" fill="#ffbe9d"/>
        <path id="Path_186148" data-name="Path 186148" d="M228.387,115.741c-.043-.025-.146.125-.4.273a1.574,1.574,0,0,1-1.169.139c-.984-.254-1.934-1.683-2.138-3.3a5.21,5.21,0,0,1,.216-2.286,1.819,1.819,0,0,1,1.06-1.32.8.8,0,0,1,.967.338c.146.24.107.425.156.435.027.02.178-.17.069-.534a1.006,1.006,0,0,0-.41-.528,1.194,1.194,0,0,0-.89-.144,2.215,2.215,0,0,0-1.5,1.557,5.337,5.337,0,0,0-.294,2.56c.236,1.806,1.333,3.41,2.67,3.657a1.683,1.683,0,0,0,1.409-.38c.257-.25.284-.455.251-.468" transform="translate(-27.85 -13.525)" fill="#eb996e"/>
        <path id="Path_186149" data-name="Path 186149" d="M273.057,70.87c-.617,3.58-7.878,6.86-13.9,6.684-5.55-.161-8.291-2.915-12.323-4.871-2.552-1.239-2.552-1.239-6.015-.676-2.8.455-4.254,3.759-5.826,6.121,2.995,6.528,1.785,14.121.515,21.191a3.6,3.6,0,0,1-.91,2.15c-1.011.891-2.651.357-3.645-.553a11.154,11.154,0,0,1-2.839-5.713,37.17,37.17,0,0,1-.891-14.624,25.3,25.3,0,0,1,6.084-13.2,23.966,23.966,0,0,1,16.348-7.46,29.424,29.424,0,0,1,17.438,4.95,17.239,17.239,0,0,1,5.961,6.005" transform="translate(-28.204 -7.444)" fill="#263238"/>
        <path id="Path_186150" data-name="Path 186150" d="M264.956,117.482l-4.584-2.138a1.542,1.542,0,0,0-.834-.211,1.331,1.331,0,0,0-.792.539,4.262,4.262,0,0,0-.509,4.684,3.582,3.582,0,0,0,4.3,1.581c1.624-.673,2.414-2.56,2.541-4.314Z" transform="translate(-32.045 -14.313)" fill="#eb996e"/>
        <path id="Path_186151" data-name="Path 186151" d="M262.6,122.179c.013.04-.212.173-.671.268a3.972,3.972,0,0,1-1.972-.145,4.113,4.113,0,0,1-2.277-1.891,4.228,4.228,0,0,1-.278-3.615,4.413,4.413,0,0,1,1.063-1.6,4.055,4.055,0,0,1,.743-.562,1.213,1.213,0,0,1,.529-.168,1.2,1.2,0,0,1,.532.1,6.666,6.666,0,0,1,.714.405l.625.384,1.116.7a10.028,10.028,0,0,1,2.129,1.519,10.03,10.03,0,0,1-2.371-1.1l-1.159-.627-.642-.355c-.22-.116-.457-.266-.648-.342a.487.487,0,0,0-.5.049,3.654,3.654,0,0,0-.6.477,3.891,3.891,0,0,0-.891,1.367,3.7,3.7,0,0,0,.194,3.07,3.783,3.783,0,0,0,1.894,1.742,4.506,4.506,0,0,0,1.775.333c.437-.011.685-.053.7,0" transform="translate(-31.966 -14.23)" fill="#263238"/>
        <path id="Path_186152" data-name="Path 186152" d="M259.039,98.313a16.319,16.319,0,0,0-.358-2.277,9.358,9.358,0,0,0-3.425-5.093,9.246,9.246,0,0,0-8.755-1.3,9.27,9.27,0,0,0-4.283,3.221,9.189,9.189,0,0,0,0,10.9,9.264,9.264,0,0,0,4.283,3.222,9.314,9.314,0,0,0,12.18-6.4,16.34,16.34,0,0,0,.358-2.277.513.513,0,0,1,.01.152c0,.122,0,.269-.005.448a4.379,4.379,0,0,1-.058.727,6.57,6.57,0,0,1-.176.982,8.869,8.869,0,0,1-1.016,2.535,9.486,9.486,0,0,1-6.387,4.52,9.546,9.546,0,0,1-5.012-.4,9.541,9.541,0,0,1-4.446-3.319,9.5,9.5,0,0,1,0-11.3,9.55,9.55,0,0,1,4.445-3.318,9.545,9.545,0,0,1,5.012-.4,9.483,9.483,0,0,1,6.386,4.519A8.863,8.863,0,0,1,258.81,96a6.55,6.55,0,0,1,.176.982,4.372,4.372,0,0,1,.058.727c0,.18,0,.327.005.448a.513.513,0,0,1-.01.152" transform="translate(-29.848 -11.038)" fill="#263238"/>
        <path id="Path_186153" data-name="Path 186153" d="M284.721,97.34a16.209,16.209,0,0,0-.35-2.218,9.127,9.127,0,0,0-3.337-4.961,9,9,0,0,0-8.528-1.269,9.012,9.012,0,0,0-4.171,3.137,8.951,8.951,0,0,0,0,10.621,9.03,9.03,0,0,0,4.172,3.138,9.074,9.074,0,0,0,11.865-6.23,16.209,16.209,0,0,0,.35-2.218,3.808,3.808,0,0,1,.005.585,4.241,4.241,0,0,1-.056.709,6.539,6.539,0,0,1-.171.956,9.215,9.215,0,0,1-7.215,6.878,9.294,9.294,0,0,1-4.886-.385,9.3,9.3,0,0,1-4.335-3.236,9.255,9.255,0,0,1,0-11.016A9.3,9.3,0,0,1,272.4,88.6a9.3,9.3,0,0,1,4.885-.386A9.214,9.214,0,0,1,284.5,95.09a6.5,6.5,0,0,1,.171.956,4.231,4.231,0,0,1,.056.708,3.817,3.817,0,0,1-.005.586" transform="translate(-33.101 -10.947)" fill="#263238"/>
        <path id="Path_186154" data-name="Path 186154" d="M265.792,96.146c-.037.038-.253-.144-.651-.333a3.749,3.749,0,0,0-1.65-.362,3.705,3.705,0,0,0-1.635.419c-.391.2-.6.4-.637.359s.121-.287.511-.565a3.235,3.235,0,0,1,3.529-.061c.4.262.564.516.533.543" transform="translate(-32.475 -11.824)" fill="#263238"/>
        <path id="Path_186155" data-name="Path 186155" d="M239.732,98.142a40.534,40.534,0,0,1-4.1,3.277,40.387,40.387,0,0,1-4.308,3,40.554,40.554,0,0,1,4.1-3.277,40.7,40.7,0,0,1,4.308-3" transform="translate(-28.758 -12.201)" fill="#263238"/>
        <g id="Group_123818" data-name="Group 123818" transform="translate(203.078 128.568)" opacity="0.3">
          <g id="Group_123817" data-name="Group 123817">
            <g id="Group_123816" data-name="Group 123816" clip-path="url(#clip-path-10)">
              <path id="Path_186156" data-name="Path 186156" d="M232.056,146.821c-.912,8.889,2.469,18.271,9.6,23.657a2.167,2.167,0,0,0,1.921.6,2.113,2.113,0,0,0,.995-1.026,17.357,17.357,0,0,0,2.125-11.421c-1.129,2.973-2.1,5.891-3.237,9-6.212-3.772-10.084-11.792-11.4-20.814" transform="translate(-231.91 -146.821)"/>
            </g>
          </g>
        </g>
        <g id="Group_123821" data-name="Group 123821" transform="translate(227.359 127.754)" opacity="0.3">
          <g id="Group_123820" data-name="Group 123820">
            <g id="Group_123819" data-name="Group 123819" clip-path="url(#clip-path-11)">
              <path id="Path_186157" data-name="Path 186157" d="M259.638,166.916l5.23-1.911.867,8.848s5.645-10.288,7.981-14.983,1.134-12.978,1.134-12.978.836,7.216-4.821,16.421l-4.27,6.94v-7.267Z" transform="translate(-259.638 -145.892)"/>
            </g>
          </g>
        </g>
        <g id="Group_123824" data-name="Group 123824" transform="translate(148.053 192.661)" opacity="0.3">
          <g id="Group_123823" data-name="Group 123823">
            <g id="Group_123822" data-name="Group 123822" clip-path="url(#clip-path-12)">
              <path id="Path_186158" data-name="Path 186158" d="M187.523,221.1a13.984,13.984,0,0,0-7.58-.951A14.619,14.619,0,0,0,172.4,223a8.419,8.419,0,0,0-3.294,7.12l.262.037c1.825-4.94,5.456-8.535,10.138-8.97a15.376,15.376,0,0,1,12.464,5.081c-.313-2.561-2.113-4.07-4.446-5.172" transform="translate(-169.073 -220.013)"/>
            </g>
          </g>
        </g>
        <g id="Group_123827" data-name="Group 123827" transform="translate(279.431 195.103)" opacity="0.3">
          <g id="Group_123826" data-name="Group 123826">
            <g id="Group_123825" data-name="Group 123825" clip-path="url(#clip-path-13)">
              <path id="Path_186159" data-name="Path 186159" d="M338.465,226.5a11.991,11.991,0,0,0-6.757-3.482,15.184,15.184,0,0,0-12.605,3.65l1-.81a15.894,15.894,0,0,1,8.394-2.281,12.154,12.154,0,0,1,8,3.2,21.328,21.328,0,0,1,4.252,6.836,8.568,8.568,0,0,0-2.285-7.11" transform="translate(-319.103 -222.803)"/>
            </g>
          </g>
        </g>
        <path id="Path_186160" data-name="Path 186160" d="M302.7,177.559a3.175,3.175,0,0,1,.235-.715c.2-.517.451-1.153.743-1.9.634-1.6,1.5-3.823,2.421-6.289s1.709-4.714,2.279-6.343q.4-1.14.681-1.927a3.231,3.231,0,0,1,.289-.694,3.185,3.185,0,0,1-.163.735c-.125.467-.323,1.138-.579,1.962-.511,1.65-1.269,3.914-2.187,6.386s-1.827,4.68-2.518,6.263c-.346.792-.635,1.428-.845,1.863a3.173,3.173,0,0,1-.356.663" transform="translate(-37.633 -19.853)" fill="#263238"/>
        <path id="Path_186161" data-name="Path 186161" d="M208.006,178.844c-.092.018-.8-3.1-1.589-6.961s-1.349-7.011-1.256-7.03.8,3.1,1.589,6.962,1.348,7.011,1.256,7.029" transform="translate(-25.505 -20.495)" fill="#263238"/>
        <path id="Path_186162" data-name="Path 186162" d="M206.659,219.264c.207.1-2.4-20.409-2.4-20.409s1.645-15.568,2.57-16.288l.024-5.492s2.546-1.542,3.229.947c0,0,2.258-1.96,2.652,2.707s.477,9.435.477,9.435l5.026,12.564.828.419s1.079-9.843,1.708-11.292,1.058-4.971,3.44-4.442,2.581,2.5,2.152,5.71-.962,6.527-.763,8.6,1.141,6.639.851,10.266a20.476,20.476,0,0,1-4.361,10.14c-2.084,2.686-6.067,8.242-8.232,9.915-.756.585-7.2-12.781-7.2-12.781" transform="translate(-25.394 -21.956)" fill="#ffbe9d"/>
        <path id="Path_186163" data-name="Path 186163" d="M209.577,203.456a4.294,4.294,0,0,1,.014-.878c.043-.63.1-1.429.164-2.383.153-2.011.388-4.787.669-7.85.145-1.528.283-2.983.409-4.319a7.7,7.7,0,0,0,.023-1.851,2.625,2.625,0,0,0-.626-1.416,2.823,2.823,0,0,0-2.052-.9,5.255,5.255,0,0,0-.855.11c0-.011.065-.047.2-.108a2.209,2.209,0,0,1,.646-.135,2.884,2.884,0,0,1,2.233.869,2.848,2.848,0,0,1,.729,1.536,7.794,7.794,0,0,1,.011,1.924c-.118,1.336-.248,2.793-.383,4.321-.281,3.064-.554,5.836-.769,7.842l-.271,2.373a4.321,4.321,0,0,1-.146.866" transform="translate(-25.775 -22.84)" fill="#eb996e"/>
        <path id="Path_186164" data-name="Path 186164" d="M212.571,196.676a7.113,7.113,0,0,0-.89,1.62,27.449,27.449,0,0,0-.835,4.428c-.271,1.754-.534,3.339-.742,4.483a10.433,10.433,0,0,1-.406,1.842,10.379,10.379,0,0,1,.167-1.878c.147-1.154.373-2.744.644-4.5a21.228,21.228,0,0,1,.947-4.464,4.232,4.232,0,0,1,.727-1.2c.22-.249.377-.349.388-.336" transform="translate(-26.068 -24.451)" fill="#eb996e"/>
        <path id="Path_186165" data-name="Path 186165" d="M210.87,177.915a2.562,2.562,0,0,1,.175.645c.092.419.2,1.03.33,1.786.25,1.513.525,3.617.7,5.953s.21,4.459.185,5.992c-.012.767-.036,1.388-.065,1.816a2.534,2.534,0,0,1-.078.664,21.563,21.563,0,0,1-.1-2.478c-.036-1.53-.112-3.641-.283-5.969s-.408-4.426-.6-5.944a21.6,21.6,0,0,1-.266-2.466" transform="translate(-26.215 -22.119)" fill="#eb996e"/>
        <path id="Path_186166" data-name="Path 186166" d="M227,199.748a1.828,1.828,0,0,1-1.693.144c-.962-.287-1.408-1.026-1.324-1.063a4.43,4.43,0,0,0,3.017.919" transform="translate(-27.844 -24.718)" fill="#eb996e"/>
        <path id="Path_186167" data-name="Path 186167" d="M202.922,222.408l-13.275,5.579h-7.909s-7.823,2.441-9.026,9.774-1.376,11.108,2.063,12.015,13.154,1.007,17.968-.59,17.424-11.774,17.424-11.774l1.216-7.362Z" transform="translate(-21.374 -27.65)" fill="#ffbe9d"/>
        <path id="Path_186168" data-name="Path 186168" d="M210.305,229.952c-.018.016-.151-.108-.377-.346a8.255,8.255,0,0,1-.863-1.1,15.005,15.005,0,0,1-1.854-4.2,24.854,24.854,0,0,1-.818-4.511,8.471,8.471,0,0,1-.052-1.9,13.577,13.577,0,0,1,.292,1.869,33.626,33.626,0,0,0,.906,4.446,17.555,17.555,0,0,0,1.729,4.163c.6.991,1.083,1.529,1.036,1.572" transform="translate(-25.649 -27.09)" fill="#eb996e"/>
        <path id="Path_186169" data-name="Path 186169" d="M216.62,231.739a13.745,13.745,0,0,0,.757-2.846,9.17,9.17,0,0,0-1.784-6.661c-.807-1.13-1.714-2.115-2.478-3.067a14.281,14.281,0,0,1-1.794-2.713,7.146,7.146,0,0,1-.666-2.094,2.468,2.468,0,0,1-.023-.8,9.115,9.115,0,0,0,.9,2.79,15.157,15.157,0,0,0,1.822,2.622c.771.933,1.687,1.913,2.512,3.068a9.564,9.564,0,0,1,1.656,3.631,9.233,9.233,0,0,1,.088,3.26,8.4,8.4,0,0,1-.608,2.109,4.778,4.778,0,0,1-.268.532c-.067.118-.109.177-.118.172" transform="translate(-26.184 -26.55)" fill="#eb996e"/>
        <path id="Path_186170" data-name="Path 186170" d="M193.226,196.125a66.046,66.046,0,0,1-3.235-5.885,65.938,65.938,0,0,1-2.932-6.043,66.521,66.521,0,0,1,3.235,5.886,66.265,66.265,0,0,1,2.932,6.042" transform="translate(-23.255 -22.9)" fill="#fff"/>
        <path id="Path_186171" data-name="Path 186171" d="M218.618,169.153a41.3,41.3,0,0,1,2-4.907,41.474,41.474,0,0,1,2.311-4.769,40.99,40.99,0,0,1-2,4.908,41.244,41.244,0,0,1-2.311,4.768" transform="translate(-27.179 -19.827)" fill="#fff"/>
        <path id="Path_186172" data-name="Path 186172" d="M241.81,187.252a29.976,29.976,0,0,1-3.009-3.367,29.862,29.862,0,0,1-2.745-3.584,59.927,59.927,0,0,1,5.754,6.951" transform="translate(-29.347 -22.415)" fill="#fff"/>
        <path id="Path_186173" data-name="Path 186173" d="M237.1,211.659a49.205,49.205,0,0,1,4.811-6.633,49.412,49.412,0,0,1-4.811,6.633" transform="translate(-29.477 -25.489)" fill="#fff"/>
        <path id="Path_186174" data-name="Path 186174" d="M229.093,245.657a6.367,6.367,0,0,1-.769-1.316c-.43-.835-.988-2.009-1.549-3.328s-1.018-2.536-1.321-3.425a6.405,6.405,0,0,1-.413-1.467,7.175,7.175,0,0,1,.639,1.381c.411.985.885,2.122,1.41,3.377l1.453,3.359a7.263,7.263,0,0,1,.551,1.419" transform="translate(-27.977 -29.355)" fill="#fff"/>
        <path id="Path_186175" data-name="Path 186175" d="M249.672,232.164a47.327,47.327,0,0,1-7.888-1.526,47.331,47.331,0,0,1,7.888,1.526" transform="translate(-30.059 -28.671)" fill="#fff"/>
        <path id="Path_186176" data-name="Path 186176" d="M267.173,199.03a97.44,97.44,0,0,1,7.833-8.448,48.671,48.671,0,0,1-3.792,4.34,48.785,48.785,0,0,1-4.041,4.108" transform="translate(-33.215 -23.694)" fill="#fff"/>
        <path id="Path_186177" data-name="Path 186177" d="M282.349,241.527c-.073.06-2.191-2.391-4.73-5.474s-4.54-5.631-4.467-5.691,2.19,2.391,4.73,5.474,4.54,5.631,4.467,5.691" transform="translate(-33.959 -28.639)" fill="#fff"/>
        <path id="Path_186178" data-name="Path 186178" d="M180.262,224.834c.048.094-1.887,1.075-3.995,2.694s-3.576,3.213-3.654,3.142a4.924,4.924,0,0,1,.891-1.113,21.189,21.189,0,0,1,5.45-4.157,4.936,4.936,0,0,1,1.308-.566" transform="translate(-21.459 -27.951)" fill="#fff"/>
        <path id="Path_186179" data-name="Path 186179" d="M187.032,208.308a27.128,27.128,0,0,1-3.361,5.054,27.128,27.128,0,0,1,3.361-5.054" transform="translate(-22.834 -25.897)" fill="#fff"/>
        <path id="Path_186180" data-name="Path 186180" d="M201.2,223.742a8.668,8.668,0,0,1-1.272-5.6c.1,0,.136,1.293.491,2.832s.873,2.722.781,2.766" transform="translate(-24.844 -27.12)" fill="#fff"/>
        <path id="Path_186181" data-name="Path 186181" d="M202.73,172.983a19.519,19.519,0,0,1-5.095.724,19.53,19.53,0,0,1,5.095-.724" transform="translate(-24.571 -21.501)" fill="#fff"/>
        <path id="Path_186182" data-name="Path 186182" d="M213.23,154.494a20.23,20.23,0,0,1-4.582,2.539,20.229,20.229,0,0,1,4.582-2.539" transform="translate(-25.939 -19.206)" fill="#fff"/>
        <path id="Path_186183" data-name="Path 186183" d="M242.528,161.415A22.964,22.964,0,0,1,240,158.379a22.919,22.919,0,0,1-2.255-3.243,45.722,45.722,0,0,1,4.781,6.279" transform="translate(-29.557 -19.287)" fill="#fff"/>
        <path id="Path_186184" data-name="Path 186184" d="M279.87,180a16.041,16.041,0,0,1-3.963-6.369c.093-.039.8,1.488,1.893,3.239s2.146,3.064,2.07,3.13" transform="translate(-34.301 -21.586)" fill="#fff"/>
        <path id="Path_186185" data-name="Path 186185" d="M294.213,185.588a39.057,39.057,0,0,1-3.011,6.635,39.057,39.057,0,0,1,3.011-6.635" transform="translate(-36.202 -23.073)" fill="#fff"/>
        <path id="Path_186186" data-name="Path 186186" d="M295.725,165.109a36.255,36.255,0,0,1-3.309-3.709,36.5,36.5,0,0,1-3.046-3.928,36.376,36.376,0,0,1,3.309,3.709,36.3,36.3,0,0,1,3.046,3.928" transform="translate(-35.975 -19.577)" fill="#fff"/>
        <path id="Path_186187" data-name="Path 186187" d="M274.879,149.537a14.957,14.957,0,0,1-.3-3.173,14.878,14.878,0,0,1,.046-3.187,15.182,15.182,0,0,1,.3,3.173,15.055,15.055,0,0,1-.045,3.187" transform="translate(-34.132 -17.8)" fill="#fff"/>
        <path id="Path_186188" data-name="Path 186188" d="M291.465,149.454a49.44,49.44,0,0,1-8.133,1.088,49.473,49.473,0,0,1,8.133-1.088" transform="translate(-35.225 -18.577)" fill="#fff"/>
        <path id="Path_186189" data-name="Path 186189" d="M319.841,168.591a40.343,40.343,0,0,1-2.434-4.638,40.28,40.28,0,0,1-2.126-4.787,40.413,40.413,0,0,1,2.434,4.638,40.245,40.245,0,0,1,2.126,4.786" transform="translate(-39.196 -19.788)" fill="#fff"/>
        <path id="Path_186190" data-name="Path 186190" d="M315.793,186.568a41.6,41.6,0,0,1,1.476-7.389,20.956,20.956,0,0,1-.571,3.728,21,21,0,0,1-.9,3.661" transform="translate(-39.258 -22.276)" fill="#fff"/>
        <path id="Path_186191" data-name="Path 186191" d="M328.216,200.117a42.6,42.6,0,0,1-1.942-5.033,42.532,42.532,0,0,1-1.62-5.145,42.957,42.957,0,0,1,1.942,5.033,42.7,42.7,0,0,1,1.62,5.145" transform="translate(-40.361 -23.614)" fill="#fff"/>
        <path id="Path_186192" data-name="Path 186192" d="M326.056,209.248a11.516,11.516,0,0,1-6.107-3.307c.067-.079,1.274.919,2.961,1.825s3.176,1.384,3.146,1.483" transform="translate(-39.777 -25.603)" fill="#fff"/>
        <path id="Path_186193" data-name="Path 186193" d="M343.19,227.667a18.524,18.524,0,0,1-2.038-4.579,18.433,18.433,0,0,1,2.038,4.579" transform="translate(-42.412 -27.735)" fill="#fff"/>
        <path id="Path_186194" data-name="Path 186194" d="M245.58,253.424a25.462,25.462,0,0,1-.68-5.839,25.335,25.335,0,0,1,.68,5.839" transform="translate(-30.442 -30.78)" fill="#fff"/>
        <path id="Path_186195" data-name="Path 186195" d="M296.485,252.175a24.068,24.068,0,0,1,1.191-5.6,24.164,24.164,0,0,1-1.191,5.6" transform="translate(-36.857 -30.655)" fill="#fff"/>
      </g>
    </g>
    <g id="Group_123831" data-name="Group 123831">
      <g id="Group_123830" data-name="Group 123830" clip-path="url(#clip-path)">
        <path id="Path_186196" data-name="Path 186196" d="M306.23,97.354l5.753-10.139a27.164,27.164,0,1,1,6.506,7.237l.009.012Z" transform="translate(-38.071 -5.706)" fill="#fafafa"/>
        <path id="Path_186197" data-name="Path 186197" d="M306.23,97.335l12.288-2.807.126-.029-.079-.1-.01-.012-.117.116a27.74,27.74,0,0,0,5.579,3.363,27.188,27.188,0,0,0,7.438,2.124,24.452,24.452,0,0,0,4.3.217c.739-.042,1.491-.06,2.25-.123l2.292-.346a27.377,27.377,0,0,0,16.953-10.883,27.049,27.049,0,0,0,4.584-10.48,27.661,27.661,0,0,0-.32-12.069A26.774,26.774,0,0,0,355.7,55.147l-1.109-1.219c-.364-.41-.8-.748-1.193-1.123-.413-.356-.786-.758-1.23-1.074l-1.3-.973a11.422,11.422,0,0,0-1.348-.891l-1.377-.836-1.441-.7a12.792,12.792,0,0,0-1.454-.646,27.7,27.7,0,0,0-12.161-1.869,26.758,26.758,0,0,0-11.161,3.3A27.527,27.527,0,0,0,309.044,64.96a29.317,29.317,0,0,0-1.179,8.823,26.986,26.986,0,0,0,1.328,7.618,27.478,27.478,0,0,0,2.722,5.837l0-.081L306.23,97.335l5.822-10.1.024-.04-.025-.041a27.546,27.546,0,0,1-2.67-5.814,26.874,26.874,0,0,1-1.285-7.563,29.153,29.153,0,0,1,1.2-8.74,27.279,27.279,0,0,1,12.774-15.654,26.494,26.494,0,0,1,11.037-3.246,27.385,27.385,0,0,1,12.013,1.855,12.432,12.432,0,0,1,1.437.64l1.423.691,1.359.827a11.149,11.149,0,0,1,1.331.881l1.286.961c.439.311.806.709,1.215,1.06.39.371.819.7,1.179,1.11l1.094,1.2a26.448,26.448,0,0,1,5.746,11.019,27.364,27.364,0,0,1,.326,11.923,26.775,26.775,0,0,1-4.519,10.365,27.127,27.127,0,0,1-16.752,10.8l-2.27.35c-.751.065-1.5.085-2.229.129a24.22,24.22,0,0,1-4.258-.2,27.082,27.082,0,0,1-7.387-2.076,27.78,27.78,0,0,1-5.559-3.309l-.505-.386.388.5.01.012.046-.132-12.249,2.97" transform="translate(-38.071 -5.687)" fill="#263238"/>
        <path id="Path_186198" data-name="Path 186198" d="M347.544,75.195a2.65,2.65,0,1,0,2.65-2.65,2.649,2.649,0,0,0-2.65,2.65" transform="translate(-43.208 -9.019)" fill="#263238"/>
        <path id="Path_186199" data-name="Path 186199" d="M335.432,75.195a2.65,2.65,0,1,0,2.65-2.65,2.649,2.649,0,0,0-2.65,2.65" transform="translate(-41.702 -9.019)" fill="#263238"/>
        <path id="Path_186200" data-name="Path 186200" d="M323.3,73.87a2.65,2.65,0,1,0,3.62-.97,2.649,2.649,0,0,0-3.62.97" transform="translate(-40.15 -9.019)" fill="#263238"/>
      </g>
    </g>
  </g>
</svg>
