<svg id="Group_120722" data-name="Group 120722" xmlns="http://www.w3.org/2000/svg" xmlns:xlink="http://www.w3.org/1999/xlink" width="50.017" height="50" viewBox="0 0 50.017 50">
  <defs>
    <clipPath id="clip-path">
      <rect id="Rectangle_37162" data-name="Rectangle 37162" width="50.017" height="50" fill="#5a189a"/>
    </clipPath>
  </defs>
  <g id="Group_120718" data-name="Group 120718" clip-path="url(#clip-path)">
    <path id="Path_181917" data-name="Path 181917" d="M29.413,39.995c.423,1.694.832,3.335,1.249,5,.376,0,.722-.009,1.067,0a2.5,2.5,0,0,1,2.444,2.424c.016.5.007,1.007,0,1.51,0,.779-.288,1.063-1.073,1.063q-6.484,0-12.97,0c-1.094,0-2.188,0-3.281,0-.714,0-1.006-.3-1.013-1.017-.005-.5-.01-1.008,0-1.511A2.5,2.5,0,0,1,18.294,45c.345-.009.691,0,1.062,0,.416-1.671.825-3.311,1.247-5H2.835A2.538,2.538,0,0,1,0,37.172Q0,24.15,0,11.128A2.53,2.53,0,0,1,2.8,8.319q2.5,0,5,0h.526a17.919,17.919,0,0,1,.636-1.742A5.791,5.791,0,0,1,12.6,3.523a1.071,1.071,0,0,0,.578-.428,5.841,5.841,0,0,1,11,2.759c.008.8,0,1.594,0,2.428h1.67c0-.847-.012-1.692,0-2.537A5.809,5.809,0,0,1,31.758,0a5.637,5.637,0,0,1,5.016,3.016,1.084,1.084,0,0,0,.693.54,5.873,5.873,0,0,1,4.167,4.761h.539c1.736,0,3.473,0,5.209,0a2.488,2.488,0,0,1,2.632,2.605q.006,13.23,0,26.461a2.488,2.488,0,0,1-2.63,2.608q-8.646.006-17.293,0h-.678M19.173,24.931c0,.757,0,1.5,0,2.244,0,.888-.261,1.149-1.144,1.15-2.848,0-5.7,0-8.544-.006a.6.6,0,0,0-.645.361A2.431,2.431,0,0,1,6.014,29.9a2.494,2.494,0,0,1,.016-4.822,2.43,2.43,0,0,1,2.818,1.239.567.567,0,0,0,.6.346c2.536-.009,5.071,0,7.607,0h.415V24.942a5.857,5.857,0,0,1-4.824-4.581.56.56,0,0,0-.511-.509,5.763,5.763,0,0,1-3.883-8.484,1.34,1.34,0,0,0,.092-1.382H2.9c-1,0-1.229.229-1.229,1.219V31.627H48.314a1.193,1.193,0,0,0,.032-.18q0-10.263,0-20.526c0-.632-.329-.931-.991-.933q-2.683-.008-5.366,0c-.118,0-.236.017-.5.038a3.381,3.381,0,0,0,.183,1.122,5.81,5.81,0,0,1-3.82,8.711.518.518,0,0,0-.48.478,5.757,5.757,0,0,1-4.413,4.5l-.418.109v1.689c.1.01.168.021.235.021,2.623,0,5.245-.006,7.867.011.313,0,.4-.153.527-.378a2.493,2.493,0,1,1,2.8,3.617,2.427,2.427,0,0,1-2.787-1.2.641.641,0,0,0-.684-.383q-4.3.015-8.6,0c-.781,0-1.061-.286-1.065-1.07s0-1.554,0-2.315a5.874,5.874,0,0,1-5-6.169V10.019H24.175v.6q0,4.22,0,8.44a5.792,5.792,0,0,1-1.685,4.185,5.9,5.9,0,0,1-3.316,1.689M1.668,33.351c0,1.255,0,2.483,0,3.711,0,1.054.215,1.266,1.286,1.266H47.065a3.912,3.912,0,0,0,.52-.01.762.762,0,0,0,.746-.74c.028-1.4.011-2.8.011-4.227Zm38.88-20.732a5.985,5.985,0,0,1-4.676,2.37V13.361c2.61-.4,4.128-1.969,4.138-4.218.008-1.885-1.465-3.56-2.48-3.695-.222,3.722-3,6.648-5.815,6.135V10.006c2.8-.29,4.8-2.807,3.974-5a4.022,4.022,0,0,0-2.347.83,4.281,4.281,0,0,0-1.69,3.3H30.02a5.563,5.563,0,0,1,.832-2.975,5.922,5.922,0,0,1,4.177-2.79c-.162-.191-.264-.328-.382-.45a4.153,4.153,0,0,0-7.132,2.825q-.019,6.719,0,13.438a4.148,4.148,0,0,0,5.072,4.042A3.988,3.988,0,0,0,35.7,19.936c-3.15-.982-5.144-3.368-4.8-5.75h1.578a4.13,4.13,0,0,0,2.933,3.93,3.913,3.913,0,0,0,4.389-1.222,4.053,4.053,0,0,0,.742-4.275M14.284,19.951a1.721,1.721,0,0,0,.028.244,4.19,4.19,0,0,0,4.422,3.114,4.127,4.127,0,0,0,3.759-3.989c.033-4.549.024-9.1,0-13.646a4.09,4.09,0,0,0-2.68-3.752,4.147,4.147,0,0,0-4.457,1c-.123.129-.223.28-.355.447,3.042.65,5.291,3.3,4.938,5.751H18.361C18.1,6.663,16.337,4.9,14.27,5.04A3.789,3.789,0,0,0,14.7,7.833a4.2,4.2,0,0,0,3.6,2.176v1.622a5.619,5.619,0,0,1-3.511-1.194,5.917,5.917,0,0,1-2.3-5.039,4.077,4.077,0,0,0-2.475,4.069c.169,2.115,1.58,3.454,4.124,3.9v1.61a4.812,4.812,0,0,1-2.569-.629c-.753-.457-1.43-1.038-2.132-1.559a4.092,4.092,0,0,0,2.564,5.317,4,4,0,0,0,3.321-.291,4.206,4.206,0,0,0,2.2-3.622h1.623c.051,2.7-1.613,4.662-4.869,5.756M27.695,40.013H22.321c-.411,1.649-.821,3.29-1.239,4.963h7.853l-1.24-4.963m4.78,8.3c.128-1.427-.071-1.65-1.429-1.65H21.21c-.919,0-1.839-.007-2.758,0a.843.843,0,0,0-.944.925c-.008.235,0,.471,0,.722ZM6.663,28.321a.83.83,0,1,0-.824-.823.838.838,0,0,0,.824.823m37.514-.846a.83.83,0,1,0-.8.846.839.839,0,0,0,.8-.846" fill="#5a189a"/>
    <path id="Path_181918" data-name="Path 181918" d="M24.212,24.181h1.6a.912.912,0,0,1,.027.215.929.929,0,0,0,.557,1.057,2.363,2.363,0,0,1,1.014,2.719,2.5,2.5,0,1,1-3.945-2.635c.667-.532.667-.532.748-1.356m1.626,3.333a.83.83,0,1,0-.84.807.837.837,0,0,0,.84-.807" fill="#5a189a"/>
  </g>
</svg>
