<svg id="Group_120721" data-name="Group 120721" xmlns="http://www.w3.org/2000/svg" xmlns:xlink="http://www.w3.org/1999/xlink" width="45.956" height="50" viewBox="0 0 45.956 50">
  <defs>
    <clipPath id="clip-path">
      <rect id="Rectangle_37163" data-name="Rectangle 37163" width="45.956" height="50" fill="#5a189a"/>
    </clipPath>
  </defs>
  <g id="Group_120720" data-name="Group 120720" clip-path="url(#clip-path)">
    <path id="Path_181919" data-name="Path 181919" d="M23.467,50c-.691-.089-1.383-.168-2.072-.269-.593-.088-.773-.323-.739-.926.06-1.023.118-2.047.189-3.069.018-.258-.055-.373-.322-.43a20.306,20.306,0,0,1-6.8-2.828c-.067-.043-.139-.076-.243-.132-.73.823-1.451,1.635-2.172,2.449-.526.594-.759.617-1.4.137A24.727,24.727,0,0,1,5,40c-.4-.54-.381-.8.116-1.246.838-.746,1.676-1.49,2.541-2.258A20.835,20.835,0,0,1,4.6,29.128c-1.11.062-2.194.125-3.279.182-.836.044-.994-.107-1.1-.921a26.231,26.231,0,0,1,0-6.811c.1-.77.27-.934,1.03-.893,1.1.059,2.2.122,3.345.186A20.8,20.8,0,0,1,7.659,13.5l-2.49-2.217c-.57-.507-.591-.735-.123-1.354A24.918,24.918,0,0,1,9.971,5.018c.553-.416.822-.389,1.288.134q1.071,1.2,2.14,2.407a.768.768,0,0,0,.122.083,21.074,21.074,0,0,1,7.473-3.054c-.09-1.146-.187-2.245-.261-3.345-.049-.726.092-.9.8-1,.642-.093,1.287-.161,1.93-.24h3.027c.676.084,1.354.156,2.027.257.623.093.776.292.729.921-.1,1.3-.2,2.594-.311,3.891-.04.486-.323.767-.728.738a.693.693,0,0,1-.62-.834c.069-.908.152-1.816.228-2.723.018-.225.03-.45.047-.719a23.577,23.577,0,0,0-5.755,0c.077.985.152,1.936.228,2.888.012.146.034.291.043.437.04.663-.135.887-.78,1A18.41,18.41,0,0,0,16.129,7.7c-.761.4-1.486.87-2.218,1.323-.5.309-.756.3-1.147-.138-.751-.834-1.492-1.676-2.271-2.554a23.471,23.471,0,0,0-4.237,4.243,2.068,2.068,0,0,1,.377.214q1.14,1,2.264,2.008a.689.689,0,0,1,.147,1.069,19.265,19.265,0,0,0-3.193,7.682c-.1.566-.335.742-.914.711-1.119-.061-2.237-.136-3.4-.208a23.54,23.54,0,0,0-.018,5.847c.357,0,.707.015,1.056,0,.8-.041,1.591-.108,2.387-.147.553-.028.784.142.882.687A19.329,19.329,0,0,0,9.03,36.116c.313.452.269.729-.151,1.106-.834.75-1.676,1.492-2.556,2.274a23.176,23.176,0,0,0,4.165,4.18l1.318-1.486c.313-.353.623-.709.941-1.057.418-.459.666-.492,1.181-.137a19.06,19.06,0,0,0,6.032,2.787c.5.131,1.011.243,1.52.347.634.131.8.331.757.964-.065,1.1-.126,2.2-.192,3.36a23.1,23.1,0,0,0,5.892.006c-.041-.725-.08-1.419-.118-2.112-.027-.488-.066-.975-.075-1.462a.647.647,0,0,1,.629-.723.632.632,0,0,1,.688.618c.1,1.412.188,2.825.259,4.238.021.423-.239.651-.655.7q-1.086.136-2.171.277Z" fill="#5a189a"/>
    <path id="Path_181920" data-name="Path 181920" d="M27.362,24.334h.545q6.883,0,13.767.005a.67.67,0,0,0,.7-.364,1.873,1.873,0,0,1,2.2-.833,1.956,1.956,0,1,1-2.217,2.906c-.132-.214-.23-.371-.541-.37q-7.053.02-14.108.01c-.095,0-.19.009-.34.017V26.3c0,3.743.009,7.486,0,11.229a4.433,4.433,0,0,1-3.9,4.511,4.378,4.378,0,0,1-4.412-2.252.671.671,0,0,0-.591-.4,4.4,4.4,0,0,1-4.122-4.344c-.013-.262-.025-.418-.349-.516A5.572,5.572,0,0,1,11.59,25.11.83.83,0,0,0,11.668,25c-.2-.234-.427-.465-.623-.717a5.568,5.568,0,0,1,2.733-8.754.661.661,0,0,0,.571-.708,4.366,4.366,0,0,1,4.084-4.22.619.619,0,0,0,.577-.335A4.435,4.435,0,0,1,27.356,12.4c.019,3.759.006,7.518.006,11.278v.652M15.708,34.791A3.053,3.053,0,0,0,20.5,37.509c.1-.068.14-.275.156-.423a5.7,5.7,0,0,1,.1-1.195,1.917,1.917,0,0,1,2.473-1.134,1.956,1.956,0,0,1-1.171,3.73c-.163-.043-.375-.113-.5-.048-.438.23-.849.515-1.487.914.383.289.711.557,1.06.794A3.089,3.089,0,0,0,26,37.614C26.014,33.741,26,29.868,26,26c0-.092-.016-.185-.026-.3-.106-.008-.185-.019-.263-.019q-6.2,0-12.4.01a1.018,1.018,0,0,0-.6.243,3.989,3.989,0,0,0-1.421,4.022,4.133,4.133,0,0,0,2.974,3.25,3.449,3.449,0,0,0,2.794-.339c0-.076,0-.108,0-.14a1.963,1.963,0,1,1,1.014,1.39.6.6,0,0,0-.4-.024c-.643.214-1.278.45-1.97.7m1.4-17.635a3.575,3.575,0,0,0-2.021-.516,4.278,4.278,0,0,0-3.676,2.922,4.119,4.119,0,0,0,1.229,4.426,1.469,1.469,0,0,0,.865.318c3.986.021,7.971.014,11.956.014H26V18.942c0-2.212.013-4.424-.007-6.636a3.053,3.053,0,0,0-2.347-2.937,3,3,0,0,0-3.378,1.455c.777.28,1.37,1.131,2.362.717a.317.317,0,0,1,.145.009,1.964,1.964,0,1,1-.614,3.875,1.929,1.929,0,0,1-1.5-2.355.524.524,0,0,0-.306-.691,3.085,3.085,0,0,0-4.569,1.833,6.661,6.661,0,0,0-.122.992c.7.24,1.314.412,1.891.661a.9.9,0,0,0,.77.026,1.915,1.915,0,0,1,2.4.93,1.959,1.959,0,0,1-.631,2.511,1.969,1.969,0,0,1-3-2.176m2.486.572a.6.6,0,0,0-.614-.616.582.582,0,0,0-.587.6.6.6,0,0,0,.616.617.582.582,0,0,0,.585-.6m3.579-4.219a.606.606,0,0,0-.625-.61.568.568,0,0,0-.579.6.559.559,0,0,0,.567.607.6.6,0,0,0,.637-.6m21.439,11.53a.593.593,0,0,0-.553-.622.6.6,0,0,0-.66.568.594.594,0,0,0,.6.628.581.581,0,0,0,.613-.574M19.592,32.4a.581.581,0,0,0-.573-.617.6.6,0,0,0-.631.6.612.612,0,0,0,.626.611.584.584,0,0,0,.578-.594m3.579,4.168a.6.6,0,1,0-.647.635.614.614,0,0,0,.647-.635" fill="#5a189a"/>
    <path id="Path_181921" data-name="Path 181921" d="M32.9,15.133c-1.171,0-2.343,0-3.514,0-.573,0-.884-.247-.885-.68s.31-.678.884-.678c2.147,0,4.3-.008,6.443.006a.7.7,0,0,0,.672-.353c.652-.973,1.325-1.932,2-2.885a.559.559,0,0,0,.066-.691,1.884,1.884,0,0,1,.419-2.312,1.949,1.949,0,0,1,2.351-.217,1.979,1.979,0,0,1,.856,2.207,1.911,1.911,0,0,1-1.893,1.4.72.72,0,0,0-.7.382c-.75,1.1-1.526,2.187-2.272,3.292a1.082,1.082,0,0,1-1.011.536c-1.139-.022-2.278-.007-3.417-.007M40.37,9.584A.567.567,0,0,0,40.907,9a.582.582,0,0,0-.621-.605.571.571,0,0,0-.59.587.6.6,0,0,0,.674.606" fill="#5a189a"/>
    <path id="Path_181922" data-name="Path 181922" d="M35.575,20.11c1.4,0,2.8-.014,4.2.009a.939.939,0,0,0,.84-.37c.139-.178.315-.328.472-.493.409-.429.811-.742.6-1.544a1.852,1.852,0,0,1,1.881-2.163,1.976,1.976,0,0,1,1.977,2.085,1.918,1.918,0,0,1-2.21,1.8.805.805,0,0,0-.833.292,15.656,15.656,0,0,1-1.326,1.363,1.362,1.362,0,0,1-.8.351c-3.008.025-6.017.018-9.026.014-.537,0-.837-.255-.84-.676s.291-.669.832-.671c1.415,0,2.83,0,4.245,0m8.6-2.52a.605.605,0,0,0-.6-.679.568.568,0,0,0-.588.588.578.578,0,0,0,.6.622.569.569,0,0,0,.591-.531" fill="#5a189a"/>
    <path id="Path_181923" data-name="Path 181923" d="M35.82,28.589c1.432,0,2.864.018,4.3-.01a1.393,1.393,0,0,1,1.236.521c.243.3.544.561.805.851a1.953,1.953,0,0,0,1.522.818,1.865,1.865,0,0,1,1.65,2.351,1.979,1.979,0,0,1-2.5,1.424,1.923,1.923,0,0,1-1.218-2.582c.161-.369.047-.541-.162-.827a2.989,2.989,0,0,0-2.839-1.227c-2.322.1-4.652.03-6.979.03-.146,0-.293,0-.439-.008a.656.656,0,0,1-.694-.667c-.017-.4.264-.666.731-.669,1.529-.009,3.059,0,4.588,0Zm6.989,4.064a.618.618,0,0,0,.616.625.609.609,0,0,0,.033-1.215.615.615,0,0,0-.649.59" fill="#5a189a"/>
    <path id="Path_181924" data-name="Path 181924" d="M38.717,39.629c-.782-1.124-1.533-2.226-2.316-3.3a.79.79,0,0,0-.564-.247c-2.034-.017-4.068-.01-6.1-.011-.13,0-.26,0-.39,0-.541-.013-.845-.25-.851-.661s.3-.672.832-.68c.586-.008,1.172,0,1.757,0,1.741,0,3.482.01,5.223-.007a1.09,1.09,0,0,1,1.015.525q1.187,1.76,2.426,3.482a.841.841,0,0,0,.525.322,2,2,0,0,1,1.8,1.652A1.96,1.96,0,1,1,38.5,39.94c.06-.095.128-.185.216-.311m2.03,1.378a.592.592,0,0,0-.634-.592.6.6,0,0,0,.008,1.193.594.594,0,0,0,.626-.6" fill="#5a189a"/>
  </g>
</svg>
