<svg id="Group_120710" data-name="Group 120710" xmlns="http://www.w3.org/2000/svg" xmlns:xlink="http://www.w3.org/1999/xlink" width="39.082" height="50" viewBox="0 0 39.082 50">
  <defs>
    <clipPath id="clip-path">
      <rect id="Rectangle_37148" data-name="Rectangle 37148" width="39.083" height="50" fill="#5a189a"/>
    </clipPath>
  </defs>
  <g id="Group_120709" data-name="Group 120709" clip-path="url(#clip-path)">
    <path id="Path_181869" data-name="Path 181869" d="M.5,49.227A1.2,1.2,0,0,1,0,48.1c.029-1.106.006-2.213.01-3.319a3.9,3.9,0,0,1,3.176-3.949q4.935-1.153,9.866-2.327c.062-.015.124-.033.236-.062,0-1.243.006-2.493-.01-3.741,0-.115-.131-.25-.235-.338A10.125,10.125,0,0,1,10,30.016c-.086-.239-.195-.341-.452-.324-.307.02-.618.009-.926,0a2.337,2.337,0,0,1-2.361-2.351c-.011-.747-.008-1.5,0-2.245a2.34,2.34,0,0,1,2.428-2.433c.209,0,.419,0,.7,0v-.835c0-1.139.041-2.28-.012-3.416a2.6,2.6,0,0,1,1.309-2.445c.336-.221.694-.409,1.071-.63a8.559,8.559,0,0,1-.28-6.6A8.339,8.339,0,0,1,14.6,4.666a8.558,8.558,0,0,1,9.92.023,8.419,8.419,0,0,1,3.331,4.84,8.538,8.538,0,0,1-.519,5.792c.47.3.925.545,1.339.851a2.4,2.4,0,0,1,1.034,2.092c-.03,1.445-.008,2.891-.008,4.4.3,0,.569-.007.839,0a2.332,2.332,0,0,1,2.28,2.281c.02.83.022,1.66,0,2.49a2.229,2.229,0,0,1-2.255,2.225A1.593,1.593,0,0,0,28.676,30.9a8.122,8.122,0,0,1-2.57,3.384.8.8,0,0,0-.323.7c.017,1.138.007,2.275.007,3.455l4.316,1.019c1.929.456,3.86.9,5.786,1.368a3.885,3.885,0,0,1,3.178,4.044c0,1.074-.019,2.149.01,3.221a1.207,1.207,0,0,1-.5,1.132H38a1.2,1.2,0,0,1-.5-1.13c.03-1.04.01-2.081.01-3.121A2.417,2.417,0,0,0,35.356,42.3c-1.471-.335-2.94-.684-4.409-1.029-1.7-.4-3.407-.8-5.156-1.215v.577c0,2.487-.011,4.975.009,7.463a1.224,1.224,0,0,1-.5,1.13h-.586a1.213,1.213,0,0,1-.5-1.129c.024-1.721.01-3.444.009-5.166,0-.134-.019-.268-.034-.464a6.285,6.285,0,0,1-9.34-.022v.584c0,1.689-.015,3.379.009,5.068a1.22,1.22,0,0,1-.5,1.13h-.586a1.217,1.217,0,0,1-.5-1.13c.022-2,.01-4,.01-6V40.079c-.15.027-.261.041-.369.067Q8.23,41.253,3.539,42.362a2.319,2.319,0,0,0-1.966,2.515c0,1.074-.02,2.147.009,3.219a1.206,1.206,0,0,1-.5,1.131Zm10.531-25a26.749,26.749,0,0,0,.024,3.46,8.134,8.134,0,0,0,5.273,6.831,8.173,8.173,0,0,0,8.51-1.2c2.99-2.307,3.584-5.524,3.241-9.094-.476,0-.961.006-1.445,0a1.566,1.566,0,0,1-1.62-1.638c-.006-.416,0-.834,0-1.281a26.224,26.224,0,0,1-10.937,0c0,.41,0,.782,0,1.155a1.586,1.586,0,0,1-1.741,1.763c-.437,0-.876,0-1.3,0m12.419-4.216c0-.562.031-1.084-.009-1.6a1.445,1.445,0,0,1,.625-1.329,7.012,7.012,0,0,0-6.927-11.95,6.719,6.719,0,0,0-4.5,5.384,6.757,6.757,0,0,0,2.489,6.655,1.243,1.243,0,0,1,.521,1.083c-.027.581-.006,1.165-.006,1.769l1.524.189V14.067c-.3,0-.559.01-.818,0a2.34,2.34,0,1,1,2.413-2.408c.012.27,0,.542,0,.816h1.538c.174-2.15.9-3.087,2.37-3.087A2.352,2.352,0,0,1,25,11.563a2.3,2.3,0,0,1-.519,1.635,2.755,2.755,0,0,1-2.566.869V20.2c.341-.033.649-.057.955-.094.176-.02.351-.06.576-.1m.7,15.616a10.205,10.205,0,0,1-9.29-.033c0,1.011-.02,1.938,0,2.864a4.7,4.7,0,0,0,4.314,4.507,4.6,4.6,0,0,0,4.948-3.885,26.662,26.662,0,0,0,.025-3.454M18.786,20.279H20.3V14.1h-1.51ZM9.425,24.232c-.349,0-.608-.02-.861,0A.736.736,0,0,0,7.83,25c-.02.8-.021,1.594,0,2.389a.722.722,0,0,0,.706.736,8.426,8.426,0,0,0,.886.006Zm20.241,3.9h.264c.179,0,.357.009.536,0a.771.771,0,0,0,.788-.814c.015-.764.017-1.528,0-2.291a.767.767,0,0,0-.806-.8c-.236-.011-.475,0-.781,0Zm-3.045-11.4c.032.074.066.148.1.221-.531.43-1.066.855-1.589,1.3a.446.446,0,0,0-.118.3c-.014.367-.005.736-.005,1.149a7.091,7.091,0,0,0,2.719-1.153c.53-.411.534-.706,0-1.119a12.657,12.657,0,0,0-1.108-.691m-14.239.218L12.5,16.7a14.787,14.787,0,0,0-1.276.85c-.385.315-.369.556.011.885a6.592,6.592,0,0,0,2.839,1.256c0-.335.017-.611-.006-.884-.017-.2-.026-.459-.149-.572-.487-.453-1.02-.859-1.535-1.283m-1.4,3.279v2.411h1.524c0-.541.009-1.057-.007-1.574a.346.346,0,0,0-.169-.247c-.436-.205-.882-.389-1.347-.59m17.137-.013c-.49.214-.924.391-1.344.595a.4.4,0,0,0-.195.276c-.02.514-.01,1.029-.01,1.542h1.549ZM17.19,12.5a8.551,8.551,0,0,0-.005-.864.772.772,0,0,0-.806-.691.79.79,0,0,0-.741.763.77.77,0,0,0,.709.787c.258.025.518.005.844.005m4.7,0c.319,0,.594.023.862,0a.772.772,0,0,0,.691-.805.79.79,0,0,0-.761-.744.771.771,0,0,0-.787.709c-.025.257-.005.517-.005.845" transform="translate(0 0.773)" fill="#5a189a"/>
    <path id="Path_181870" data-name="Path 181870" d="M5.5,40.781a1.171,1.171,0,0,1-.5-1.13c.034-.631,0-1.266.01-1.9a.784.784,0,1,1,1.557,0,19.1,19.1,0,0,1-.02,2.141,2.729,2.729,0,0,1-.465.889Z" transform="translate(1.25 9.219)" fill="#5a189a"/>
    <path id="Path_181871" data-name="Path 181871" d="M25.5,40.781a1.173,1.173,0,0,1-.5-1.13c.034-.631,0-1.266.01-1.9a.784.784,0,1,1,1.557,0,19.1,19.1,0,0,1-.02,2.141,2.729,2.729,0,0,1-.465.889Z" transform="translate(6.25 9.219)" fill="#5a189a"/>
    <path id="Path_181872" data-name="Path 181872" d="M16.086,0a1.147,1.147,0,0,1,.5,1.13c-.033.386,0,.779-.011,1.168a.778.778,0,1,1-1.554,0A7.648,7.648,0,0,1,15.034.84,2.881,2.881,0,0,1,15.5,0Z" transform="translate(3.747)" fill="#5a189a"/>
    <path id="Path_181873" data-name="Path 181873" d="M8.964,2.733c.665,0,2.109,1.422,2.045,1.906a.928.928,0,0,1-.4.649.915.915,0,0,1-.8-.05,7.6,7.6,0,0,1-1.3-1.3.954.954,0,0,1-.035-.8c.088-.207.385-.329.484-.4" transform="translate(2.103 0.683)" fill="#5a189a"/>
    <path id="Path_181874" data-name="Path 181874" d="M22.771,2.686c.175.144.47.271.551.481a.955.955,0,0,1-.054.8,9.25,9.25,0,0,1-1.294,1.305A.687.687,0,0,1,21,5.2a.678.678,0,0,1-.1-.966,17.474,17.474,0,0,1,1.368-1.371c.1-.089.266-.1.5-.175" transform="translate(5.186 0.672)" fill="#5a189a"/>
    <path id="Path_181875" data-name="Path 181875" d="M7.161,10.936c-.26,0-.522.016-.78,0a.772.772,0,0,1-.745-.76A.762.762,0,0,1,6.4,9.384c.534-.021,1.074-.023,1.61,0a.76.76,0,0,1,.742.756.774.774,0,0,1-.762.791c-.275.019-.554,0-.829,0" transform="translate(1.409 2.342)" fill="#5a189a"/>
    <path id="Path_181876" data-name="Path 181876" d="M24.674,10.933c-.276,0-.555.021-.829,0a.756.756,0,0,1-.706-.79.718.718,0,0,1,.7-.745,14.681,14.681,0,0,1,1.708,0,.771.771,0,0,1,.009,1.536,7.082,7.082,0,0,1-.877.007" transform="translate(5.784 2.342)" fill="#5a189a"/>
    <rect id="Rectangle_37147" data-name="Rectangle 37147" width="1.51" height="6.176" transform="translate(18.786 14.875)" fill="#5a189a"/>
    <path id="Path_181877" data-name="Path 181877" d="M16.368,26.6a5.124,5.124,0,0,1-3.5-1.395A.787.787,0,1,1,13.9,24.033a3.61,3.61,0,0,0,5.028-.009.783.783,0,0,1,1.169-.008.775.775,0,0,1-.118,1.161A5.134,5.134,0,0,1,16.368,26.6" transform="translate(3.128 5.94)" fill="#5a189a"/>
  </g>
</svg>
