<svg xmlns="http://www.w3.org/2000/svg" xmlns:xlink="http://www.w3.org/1999/xlink" width="97" height="142" viewBox="0 0 97 142">
  <defs>
    <clipPath id="clip-path">
      <rect id="Rectangle_36960" data-name="Rectangle 36960" width="50.025" height="50" fill="#f6f6f6"/>
    </clipPath>
  </defs>
  <g id="Group_124193" data-name="Group 124193" transform="translate(-1277 -1976)">
    <line id="Line_167" data-name="Line 167" y2="34.452" transform="translate(1325.5 2082.548)" fill="none" stroke="#fc6b21" stroke-linecap="round" stroke-linejoin="round" stroke-width="2" stroke-dasharray="0 4.053"/>
    <circle id="Ellipse_4987" data-name="Ellipse 4987" cx="48.5" cy="48.5" r="48.5" transform="translate(1277 1976)" fill="#ff6b00"/>
    <g id="Group_120495" data-name="Group 120495" transform="translate(1301 2000)">
      <g id="Group_120494" data-name="Group 120494" clip-path="url(#clip-path)">
        <path id="Path_181677" data-name="Path 181677" d="M13.88,34.444a10.544,10.544,0,0,1,6.835,7.65,5.749,5.749,0,0,1,.2,1.29c.021,2.195.01,4.391.01,6.617H.013c0-.57-.006-1.119,0-1.669a48.572,48.572,0,0,1,.11-5.181,10.137,10.137,0,0,1,6.435-8.463c.18-.079.362-.152.6-.25a5.655,5.655,0,0,1-2.285-4.985,5.377,5.377,0,0,1,1.761-3.68,5.637,5.637,0,0,1,7.829.082,5.722,5.722,0,0,1-.582,8.589m5.4,13.954c0-1.764.144-3.488-.028-5.18a8.78,8.78,0,0,0-8.278-7.694,8.876,8.876,0,0,0-9.139,7,11.236,11.236,0,0,0-.2,1.947c-.03,1.3-.009,2.606-.009,3.937,2.091,0,4.119.016,6.147-.011a1.17,1.17,0,0,0,1.106-1.213,1.2,1.2,0,0,0-1.2-1.181C6.773,45.985,5.866,46,4.959,46H3.278V44.367H4.864v-4.78H12.93v8.8h1.617v-7.2h1.6V48.4ZM6.465,29.85a4.03,4.03,0,1,0,4.064-4.008A4.042,4.042,0,0,0,6.465,29.85m.008,14.541c1.165-.034,2.308-.1,3.182.814a2.865,2.865,0,0,1,.608,3.177h1V41.2H6.473Z" fill="#f6f6f6"/>
        <path id="Path_181678" data-name="Path 181678" d="M42.889,34.447a10.355,10.355,0,0,1,6.532,6.576,11.881,11.881,0,0,1,.558,3.2C50.066,46.134,50,48.049,50,50H29.041v-.845q0-2.267,0-4.534a10.46,10.46,0,0,1,6.813-10.038c.091-.037.181-.078.326-.14a5.651,5.651,0,0,1-2.274-5.074,5.482,5.482,0,0,1,1.967-3.788,5.658,5.658,0,1,1,7.016,8.87M30.635,48.417h2.217c1.276,0,2.552.011,3.828-.006a1.2,1.2,0,0,0,1.226-1.2A1.214,1.214,0,0,0,36.677,46c-.252-.01-.5,0-.756,0H32.3V44.363h1.6V39.579h8.066v8.813h1.6V41.2H45.2v7.191H48.45a49.672,49.672,0,0,0-.215-5.5,8.771,8.771,0,0,0-8.165-7.363,8.9,8.9,0,0,0-9.082,6.439c-.6,2.109-.228,4.265-.353,6.451M39.5,33.9a4.031,4.031,0,1,0-4.01-4.063A4.042,4.042,0,0,0,39.5,33.9m.791,14.489V41.2H35.516V44.39c1.144-.032,2.288-.1,3.162.811a2.866,2.866,0,0,1,.608,3.19Z" fill="#f6f6f6"/>
        <path id="Path_181679" data-name="Path 181679" d="M25.029,0a8.17,8.17,0,0,1,7.523,5.234,7.958,7.958,0,0,1-2.227,8.891,3.377,3.377,0,0,0-1.305,2.832A3.981,3.981,0,0,1,25.008,21a4.04,4.04,0,0,1-4.03-4.044c0-.169,0-.337,0-.5a2.448,2.448,0,0,0-.971-2.049A7.676,7.676,0,0,1,17.2,6.218,7.825,7.825,0,0,1,23.484.19,14.68,14.68,0,0,1,25.029,0m.786,14.55c.653,0,1.254.007,1.854-.008a.457.457,0,0,0,.277-.16c.481-.509.935-1.046,1.431-1.539A6.222,6.222,0,0,0,31.1,6.023,6.144,6.144,0,0,0,25.517,1.68a6.448,6.448,0,0,0-4.612,11.4,14.888,14.888,0,0,1,1.16,1.243.626.626,0,0,0,.342.222c.582.022,1.166.009,1.8.009,0-.952-.017-1.855.008-2.756a.669.669,0,0,0-.488-.773,3.127,3.127,0,0,1-1.875-3.526A3.216,3.216,0,0,1,28.17,7.5a3.184,3.184,0,0,1-1.921,3.557c-.225.1-.458.125-.445.491.033.973.011,1.948.011,3m-3.2,1.633a2.637,2.637,0,0,0,1.165,2.859,2.268,2.268,0,0,0,2.6-.095,2.648,2.648,0,0,0,1.01-2.764Zm2.349-6.472A1.611,1.611,0,1,0,23.4,8.071a1.625,1.625,0,0,0,1.569,1.64" fill="#f6f6f6"/>
        <path id="Path_181680" data-name="Path 181680" d="M16.947,26.643a2.411,2.411,0,0,1,1.8-2.329,2.342,2.342,0,0,1,2.7,1.155.62.62,0,0,0,.657.377q2.92-.02,5.841,0a.588.588,0,0,0,.616-.361,2.345,2.345,0,0,1,2.688-1.177,2.409,2.409,0,0,1,0,4.674A2.34,2.34,0,0,1,28.559,27.8a.583.583,0,0,0-.62-.354q-2.92.018-5.841,0a.621.621,0,0,0-.655.381,2.345,2.345,0,0,1-2.7,1.15,2.415,2.415,0,0,1-1.8-2.333m3.22.023a.8.8,0,1,0-.823.782.811.811,0,0,0,.823-.782m10.491.782a.8.8,0,1,0-.807-.8.812.812,0,0,0,.807.8" fill="#f6f6f6"/>
        <path id="Path_181681" data-name="Path 181681" d="M12.644,8.005l1.037,1.156c-.552.591-1.108,1.147-1.618,1.743a16.757,16.757,0,0,0-3.281,6.064.618.618,0,0,0,.188.736,2.338,2.338,0,0,1,.381,2.911,2.418,2.418,0,0,1-4.5-1.265A2.361,2.361,0,0,1,6.7,17.068a.654.654,0,0,0,.551-.537,18.153,18.153,0,0,1,4.826-8.014c.177-.174.37-.334.566-.512M7.265,18.587a.8.8,0,1,0,.806.8.811.811,0,0,0-.806-.8" fill="#f6f6f6"/>
        <path id="Path_181682" data-name="Path 181682" d="M36.28,9.222l1.1-1.217a17.5,17.5,0,0,1,3.076,3.542,17.628,17.628,0,0,1,2.3,4.952.687.687,0,0,0,.576.573,2.356,2.356,0,0,1,1.833,2.3A2.419,2.419,0,0,1,40.656,20.6a2.34,2.34,0,0,1,.4-2.908.61.61,0,0,0,.171-.74,16.893,16.893,0,0,0-4.524-7.384c-.12-.115-.258-.211-.426-.347m6.47,10.969a.8.8,0,1,0-.8-.8.811.811,0,0,0,.8.8" fill="#f6f6f6"/>
        <path id="Path_181683" data-name="Path 181683" d="M15.8,7.582l-1.176.849-.991-1.27,1.293-.925c.3.461.577.888.874,1.346" fill="#f6f6f6"/>
        <path id="Path_181684" data-name="Path 181684" d="M35.4,8.427l-1.184-.846c.289-.444.565-.87.874-1.344l1.3.917L35.4,8.427" fill="#f6f6f6"/>
      </g>
    </g>
  </g>
</svg>
