<svg id="Group_122761" data-name="Group 122761" xmlns="http://www.w3.org/2000/svg" xmlns:xlink="http://www.w3.org/1999/xlink" width="298.491" height="300" viewBox="0 0 298.491 300">
  <defs>
    <clipPath id="clip-path">
      <rect id="Rectangle_37892" data-name="Rectangle 37892" width="298.491" height="300" fill="none"/>
    </clipPath>
    <clipPath id="clip-path-3">
      <rect id="Rectangle_37885" data-name="Rectangle 37885" width="68.291" height="68.291" transform="translate(120.25 66.04)" fill="none"/>
    </clipPath>
    <clipPath id="clip-path-4">
      <rect id="Rectangle_37886" data-name="Rectangle 37886" width="6.348" height="10.423" transform="translate(155.229 85.381)" fill="none"/>
    </clipPath>
    <clipPath id="clip-path-5">
      <rect id="Rectangle_37887" data-name="Rectangle 37887" width="25.409" height="77.331" transform="translate(133.353 210.635)" fill="none"/>
    </clipPath>
    <clipPath id="clip-path-6">
      <rect id="Rectangle_37888" data-name="Rectangle 37888" width="10.937" height="0.606" transform="translate(113.065 284.613)" fill="none"/>
    </clipPath>
    <clipPath id="clip-path-7">
      <rect id="Rectangle_37889" data-name="Rectangle 37889" width="24.744" height="15.45" transform="translate(0 238.241)" fill="none"/>
    </clipPath>
    <clipPath id="clip-path-8">
      <rect id="Rectangle_37890" data-name="Rectangle 37890" width="24.292" height="16.702" transform="translate(59.198 226.186)" fill="none"/>
    </clipPath>
  </defs>
  <g id="Group_122782" data-name="Group 122782" clip-path="url(#clip-path)">
    <path id="Path_183929" data-name="Path 183929" d="M65.41,269.529V298.72h89.771V269.529Z" fill="#f5f5f5"/>
    <path id="Path_183930" data-name="Path 183930" d="M61.643,261.368v8.161H158.32v-8.161H61.643Z" fill="#e0e0e0"/>
    <path id="Path_183931" data-name="Path 183931" d="M109.981,298.72h45.2V269.529h3.139v-8.161H108.1v7.406Z" fill="#e0e0e0"/>
    <rect id="Rectangle_37881" data-name="Rectangle 37881" width="18.205" height="4.394" transform="translate(77.965 274.237)" fill="#e0e0e0"/>
    <rect id="Rectangle_37882" data-name="Rectangle 37882" width="23.377" height="9.279" transform="translate(75.622 284.124)" fill="#fff"/>
    <path id="Path_183932" data-name="Path 183932" d="M75.717,238.945v22.424h68.959V238.945Z" fill="#f5f5f5"/>
    <path id="Path_183933" data-name="Path 183933" d="M72.823,232.675v6.269h74.263v-6.269H72.823Z" fill="#e0e0e0"/>
    <path id="Path_183934" data-name="Path 183934" d="M109.955,261.368h34.72V238.944h2.412v-6.269H108.508v5.689Z" fill="#ebebeb"/>
    <rect id="Rectangle_37883" data-name="Rectangle 37883" width="13.985" height="3.375" transform="translate(85.361 242.561)" fill="#e0e0e0"/>
    <rect id="Rectangle_37884" data-name="Rectangle 37884" width="17.957" height="7.128" transform="translate(83.562 250.155)" fill="#fff"/>
    <g id="Group_122781" data-name="Group 122781">
      <g id="Group_122780" data-name="Group 122780" clip-path="url(#clip-path)">
        <path id="Path_183935" data-name="Path 183935" d="M212.191,297.981c-15.1-10.314-18.7-29.712-18.285-47.187.068-2.917-.284-5.988,1.076-8.561s4.579-4.355,7.2-3.153c2.176,1,3.146,3.506,4.379,5.576a17.057,17.057,0,0,0,6.907,6.461c1.867.944,4.17,1.51,5.993.48,2.5-1.414,2.761-4.892,2.713-7.793q-.137-8.107-.27-16.214a27,27,0,0,1,.786-8.623c.873-2.761,2.839-5.339,5.59-6.141s6.179.754,6.791,3.587a26.76,26.76,0,0,1,.12,3.61,3.052,3.052,0,0,0,1.815,2.853c1.161.328,2.313-.506,3.171-1.364,2.963-2.959,4.955-6.753,6.815-10.524s3.662-7.631,6.344-10.853,6.414-5.792,10.565-6.071,8.6,2.24,9.7,6.306-1.247,8.251-3.809,11.588a64.755,64.755,0,0,1-13.345,12.988,5.324,5.324,0,0,0-2.229,2.448c-.61,1.94,1.242,3.841,3.158,4.456,2.169.7,4.512.449,6.776.692s4.724,1.215,5.6,3.343c1.219,2.952-1.228,6.085-3.646,8.145a55.479,55.479,0,0,1-16.314,9.645c-2.126.8-4.364,1.511-6.068,3.028s-2.716,4.134-1.656,6.166,3.736,2.66,5.966,2.222,4.218-1.672,6.339-2.5c3.97-1.546,9.12-1.325,11.709,2.093a9.183,9.183,0,0,1,1.061,8.106,21.16,21.16,0,0,1-4.322,7.213,55.766,55.766,0,0,1-23.638,16.981c-9.211,3.3-17.769,4.259-26.992.994" fill="#f5f5f5"/>
        <path id="Path_183936" data-name="Path 183936" d="M216.587,286.983A259.375,259.375,0,0,1,226.611,258.9q1.523-3.658,3.006-7.227c.992-2.369,1.975-4.72,3.08-6.958a129.824,129.824,0,0,1,7.081-12.5c2.445-3.869,4.906-7.45,7.232-10.782s4.567-6.389,6.722-9.092a102.9,102.9,0,0,1,11.107-11.987c1.418-1.308,2.55-2.286,3.328-2.939l.886-.737a2.148,2.148,0,0,1,.314-.236,2.046,2.046,0,0,1-.278.278c-.211.194-.495.45-.853.777-.753.679-1.863,1.682-3.257,3.011a108.941,108.941,0,0,0-10.953,12.071c-2.13,2.711-4.34,5.777-6.655,9.112s-4.752,6.926-7.18,10.791a131.489,131.489,0,0,0-7.026,12.47c-1.095,2.228-2.067,4.558-3.06,6.934l-3,7.224a266.139,266.139,0,0,0-10.047,28.016" fill="#e0e0e0"/>
        <path id="Path_183937" data-name="Path 183937" d="M232.849,244.689a5.9,5.9,0,0,1-.3-1.234c-.161-.8-.355-1.964-.574-3.407-.44-2.883-.912-6.886-1.415-11.3s-1.031-8.4-1.514-11.27c-.237-1.435-.441-2.6-.592-3.4a5.767,5.767,0,0,1-.175-1.257,5.8,5.8,0,0,1,.377,1.212c.214.787.475,1.939.76,3.37.58,2.862,1.169,6.855,1.673,11.276.486,4.358.925,8.3,1.26,11.313.16,1.36.3,2.505.4,3.425a5.771,5.771,0,0,1,.091,1.267" fill="#e0e0e0"/>
        <path id="Path_183938" data-name="Path 183938" d="M270.064,237.333a8.071,8.071,0,0,1-1.485.194c-.956.1-2.34.225-4.044.441-3.412.4-8.1,1.127-13.247,2.151s-9.756,2.168-13.069,3.085c-1.661.446-2.994.844-3.918,1.113a8,8,0,0,1-1.451.372,7.9,7.9,0,0,1,1.387-.572c.906-.331,2.227-.785,3.879-1.281,3.3-1.013,7.912-2.209,13.069-3.247a131.334,131.334,0,0,1,13.31-2c1.715-.168,3.108-.241,4.071-.271a7.875,7.875,0,0,1,1.5.016" fill="#e0e0e0"/>
        <path id="Path_183939" data-name="Path 183939" d="M217.038,286.292a1.889,1.889,0,0,1-.26-.452c-.177-.363-.392-.806-.652-1.342-.561-1.168-1.328-2.88-2.248-5.007-1.843-4.253-4.205-10.207-6.722-16.813s-4.821-12.578-6.573-16.863c-.858-2.083-1.565-3.8-2.09-5.069l-.561-1.383a1.928,1.928,0,0,1-.162-.5,1.932,1.932,0,0,1,.261.453c.176.363.39.805.651,1.341.561,1.168,1.328,2.88,2.248,5.007,1.844,4.253,4.205,10.207,6.723,16.816s4.82,12.575,6.572,16.861c.859,2.082,1.565,3.8,2.089,5.068.225.553.41,1.01.562,1.384a1.942,1.942,0,0,1,.162.5" fill="#e0e0e0"/>
        <path id="Path_183940" data-name="Path 183940" d="M266.42,269.808a2,2,0,0,1-.49.208l-1.434.5-5.288,1.775c-4.465,1.5-10.607,3.641-17.392,6.017s-12.955,4.464-17.452,5.871c-2.248.705-4.073,1.256-5.342,1.611l-1.463.4a1.948,1.948,0,0,1-.521.1,2.02,2.02,0,0,1,.489-.209c.385-.132.859-.3,1.434-.5l5.287-1.774c4.465-1.5,10.609-3.642,17.4-6.018s12.953-4.464,17.45-5.871c2.248-.705,4.073-1.256,5.343-1.611l1.463-.4a1.933,1.933,0,0,1,.521-.1" fill="#e0e0e0"/>
        <path id="Path_183941" data-name="Path 183941" d="M281.8,40.914a6.993,6.993,0,0,0,4.167-6.47,6.573,6.573,0,1,0-13.118-.061,6.983,6.983,0,0,0,4.18,6.531c-10.1,1.521-9.637,12.491-9.637,12.491l23.87.11s.544-11.09-9.462-12.6" fill="#e0e0e0"/>
        <path id="Path_183942" data-name="Path 183942" d="M278.3,125.363a10.8,10.8,0,0,1,2.636-1.146l.543-2.609,4.408-.077.635,2.588a10.775,10.775,0,0,1,2.674,1.052l2.228-1.46,3.172,3.062-1.381,2.278a10.785,10.785,0,0,1,1.146,2.636l2.609.543.077,4.408-2.588.635a10.83,10.83,0,0,1-1.052,2.674l1.46,2.228-3.062,3.172-2.278-1.381a10.8,10.8,0,0,1-2.636,1.146l-.543,2.609-4.409.077-.634-2.588a10.824,10.824,0,0,1-2.675-1.053l-2.228,1.461-3.171-3.063,1.381-2.277a10.793,10.793,0,0,1-1.146-2.637l-2.609-.542-.078-4.409,2.589-.634a10.781,10.781,0,0,1,1.052-2.675l-1.46-2.228,3.062-3.172Zm2.35,5.872a4.73,4.73,0,1,0,6.688-.118,4.73,4.73,0,0,0-6.688.118" fill="#e0e0e0"/>
        <path id="Path_183943" data-name="Path 183943" d="M280.654,131.235a3.557,3.557,0,0,1,.881-.773,4.7,4.7,0,0,1,3.085-.729,4.754,4.754,0,0,1,2.1.745,4.83,4.83,0,0,1,1.7,1.91,4.858,4.858,0,0,1,.457,2.784,4.826,4.826,0,0,1-3.992,4.136,4.861,4.861,0,0,1-2.8-.359,4.85,4.85,0,0,1-1.969-1.628,4.769,4.769,0,0,1-.818-2.07,4.707,4.707,0,0,1,.621-3.109,3.552,3.552,0,0,1,.741-.907c.026.022-.285.31-.65.96a4.717,4.717,0,0,0-.523,3.027,4.621,4.621,0,0,0,2.7,3.5,4.617,4.617,0,0,0,2.652.325,4.583,4.583,0,0,0,3.774-3.909,4.63,4.63,0,0,0-.418-2.639,4.619,4.619,0,0,0-3.591-2.575,4.715,4.715,0,0,0-3.008.629c-.636.387-.914.708-.936.683" fill="#e0e0e0"/>
        <path id="Path_183944" data-name="Path 183944" d="M278.3,125.363a.96.96,0,0,1-.147-.078l-.437-.252L276,124.019l.053-.007c-.779.817-1.8,1.891-3.044,3.189l.008-.085c.446.673.94,1.422,1.47,2.222l.026.04-.023.043a10.806,10.806,0,0,0-1.036,2.656l-.012.053-.053.013-2.586.642.073-.1c.028,1.388.057,2.861.088,4.408l-.085-.1,2.61.537.066.014.019.065a10.74,10.74,0,0,0,1.138,2.607l.036.06-.036.061-1.378,2.28-.019-.15,3.175,3.059-.157-.015,2.227-1.463.065-.043.068.038a10.723,10.723,0,0,0,2.643,1.038l.077.019.019.077c.2.811.417,1.695.636,2.588l-.131-.1,4.408-.079-.129.107.542-2.609.017-.081.079-.022a10.7,10.7,0,0,0,2.6-1.13h0l.071-.042.069.042,2.278,1.381-.168.022q1.553-1.608,3.063-3.172l-.015.167-1.46-2.228-.044-.068.039-.07a10.624,10.624,0,0,0,1.041-2.641l.02-.077.077-.019,2.588-.633-.1.128q-.037-2.258-.073-4.408l.1.12-2.608-.546-.072-.016-.02-.07a10.713,10.713,0,0,0-1.129-2.609l-.037-.061.037-.061,1.385-2.275.018.14-3.166-3.069.129.012-2.231,1.455-.05.032-.051-.029a10.779,10.779,0,0,0-2.648-1.05l-.053-.014-.013-.052c-.227-.941-.432-1.789-.626-2.59l.08.061-4.409.058.059-.048c-.224,1.04-.407,1.894-.56,2.6l-.006.026-.025.007a11.206,11.206,0,0,0-2.016.776l-.474.248a1.089,1.089,0,0,1-.158.08,1.411,1.411,0,0,1,.147-.1c.1-.062.254-.155.465-.268a10.475,10.475,0,0,1,2.012-.82l-.03.033c.143-.712.315-1.569.526-2.612l.009-.047.049,0,4.408-.1.064,0,.015.063c.2.8.409,1.646.643,2.586l-.065-.065a10.884,10.884,0,0,1,2.7,1.053l-.1,0,2.225-1.466.069-.045.06.058,3.178,3.055.064.063-.046.077-1.377,2.28v-.121a10.956,10.956,0,0,1,1.162,2.663l-.092-.085,2.609.539.1.021,0,.1q.039,2.151.081,4.408l0,.1-.1.025-2.588.637.1-.1a10.917,10.917,0,0,1-1.063,2.707l-.005-.137,1.461,2.227.059.09-.074.077-3.062,3.173-.075.078-.092-.057-2.278-1.38h.138a10.931,10.931,0,0,1-2.667,1.158l.1-.1c-.186.9-.372,1.785-.543,2.609l-.022.105-.108,0-4.408.075-.106,0-.026-.1-.632-2.589.1.1a10.932,10.932,0,0,1-2.706-1.066l.133,0-2.229,1.458-.085.055-.072-.07-3.168-3.066-.07-.067.05-.083,1.385-2.275v.121a10.975,10.975,0,0,1-1.153-2.666l.085.079-2.608-.548-.083-.018,0-.085c-.023-1.547-.046-3.02-.067-4.408v-.078l.075-.018,2.59-.627-.065.065a10.892,10.892,0,0,1,1.069-2.692l0,.082-1.452-2.233-.03-.047.038-.039,3.081-3.154.024-.025.03.018,1.677,1.044.432.274a1.308,1.308,0,0,1,.146.1" fill="#e0e0e0"/>
        <path id="Path_183945" data-name="Path 183945" d="M45.678,28.721a5.16,5.16,0,0,0,4.865-1.048c.846,1.214,1.917,2.66,3.129,4.2q1,1.272,1.926,2.374a5.259,5.259,0,0,0-2.709,6.2c-1.141.356-2.429.79-3.808,1.3-1.218.447-2.345.892-3.353,1.313a5.7,5.7,0,1,0,.2,1.3c1.1-.347,2.336-.764,3.653-1.248,1.411-.518,2.7-1.033,3.819-1.51a5.288,5.288,0,1,0,3.562-7.8c-.644-.881-1.369-1.836-2.15-2.828-1.253-1.593-2.44-3.011-3.442-4.136a6.162,6.162,0,0,0,1.068-2,5.3,5.3,0,1,0-10.066-3.176,5.525,5.525,0,0,0,3.305,7.064" fill="#e0e0e0"/>
        <path id="Path_183946" data-name="Path 183946" d="M14.544,152.794l5.331,6.569a.967.967,0,0,0,.832.358l8.434-.666a.972.972,0,0,1,.893,1.5l-4.6,7.1a.971.971,0,0,0-.083.9l3.241,7.815a.973.973,0,0,1-1.15,1.313L19.268,175.5a.977.977,0,0,0-.884.2l-6.431,5.5a.973.973,0,0,1-1.6-.688L9.9,172.063a.971.971,0,0,0-.464-.778l-7.215-4.417a.975.975,0,0,1,.159-1.74l7.895-3.038a.976.976,0,0,0,.6-.682l1.972-8.228a.974.974,0,0,1,1.7-.386" fill="#e0e0e0"/>
        <path id="Path_183947" data-name="Path 183947" d="M214.255,177.966a9.543,9.543,0,1,0-17.769,4.821h0l.027.036c.366.617.825,1.058,1.288,1.706l5.541,7.339a1.722,1.722,0,0,0,2.75,0l5.449-7.218a20.542,20.542,0,0,0,1.386-1.837l.019-.026h0a9.483,9.483,0,0,0,1.317-4.821m-9.543,4.155a4.2,4.2,0,1,1,4.2-4.2,4.2,4.2,0,0,1-4.2,4.2" fill="#e0e0e0"/>
        <path id="Path_183948" data-name="Path 183948" d="M141.916,132.02a2.529,2.529,0,0,1-.252.417c-.2.292-.458.675-.782,1.152-.687,1-1.692,2.428-2.95,4.187-2.514,3.519-6.034,8.347-10.033,13.6s-7.729,9.925-10.538,13.216c-1.413,1.638-2.559,2.962-3.395,3.837l-.957,1.012a2.528,2.528,0,0,1-.352.337,2.435,2.435,0,0,1,.3-.385l.906-1.057c.8-.9,1.92-2.249,3.306-3.906,2.756-3.328,6.453-8.019,10.448-13.269s7.547-10.049,10.112-13.529l3.041-4.119.837-1.114a2.523,2.523,0,0,1,.31-.375" fill="#ff6b00"/>
        <path id="Path_183949" data-name="Path 183949" d="M161.38,50.055c.1.014-.334,3.676-.963,8.178s-1.218,8.144-1.316,8.13.334-3.675.963-8.179,1.219-8.143,1.316-8.129" fill="#ff6b00"/>
        <path id="Path_183950" data-name="Path 183950" d="M229.815,45.306a3.94,3.94,0,0,1-.456.4l-1.346,1.09-4.989,3.953L206.488,63.682l-16.6,12.851L184.831,80.4l-1.386,1.036a3.962,3.962,0,0,1-.5.342,3.729,3.729,0,0,1,.454-.4l1.345-1.089,4.988-3.952L206.276,63.4l16.6-12.852,5.056-3.862,1.384-1.035a3.858,3.858,0,0,1,.5-.341" fill="#ff6b00"/>
        <path id="Path_183951" data-name="Path 183951" d="M262.885,90.3c.008.1-16.738,1.488-37.4,3.1s-37.421,2.847-37.429,2.75,16.735-1.487,37.4-3.1,37.418-2.847,37.426-2.75" fill="#ff6b00"/>
        <path id="Path_183952" data-name="Path 183952" d="M216.622,131.435c-.045.088-7.146-3.447-15.86-7.895s-15.744-8.125-15.7-8.212,7.145,3.446,15.861,7.895,15.743,8.125,15.7,8.212" fill="#ff6b00"/>
        <path id="Path_183953" data-name="Path 183953" d="M131.917,74.581a3.038,3.038,0,0,1-.351-.421l-.949-1.248c-.818-1.088-1.987-2.674-3.417-4.643-2.863-3.937-6.759-9.42-10.957-15.548s-7.9-11.746-10.535-15.839c-1.319-2.046-2.375-3.709-3.093-4.865-.343-.558-.616-1-.82-1.336a2.969,2.969,0,0,1-.266-.479,3.551,3.551,0,0,1,.325.44c.22.325.512.757.877,1.3.773,1.164,1.857,2.8,3.187,4.8,2.688,4.057,6.423,9.647,10.619,15.776s8.057,11.629,10.868,15.6l3.324,4.707c.375.538.671.966.895,1.288a3.215,3.215,0,0,1,.293.463" fill="#ff6b00"/>
        <path id="Path_183954" data-name="Path 183954" d="M122.9,87.5c-.042.089-4.695-2.015-10.391-4.7s-10.283-4.933-10.241-5.022,4.694,2.014,10.392,4.7,10.282,4.933,10.24,5.021" fill="#ff6b00"/>
        <path id="Path_183955" data-name="Path 183955" d="M120.249,100.185c-.009.1-15.7-1.229-35.039-2.963S50.19,94,50.2,93.9s15.695,1.228,35.042,2.963,35.017,3.219,35.008,3.317" fill="#ff6b00"/>
        <path id="Path_183956" data-name="Path 183956" d="M125.853,118.93c.039.09-9.276,4.145-20.8,9.056s-20.906,8.82-20.944,8.73,9.274-4.145,20.8-9.057,20.9-8.819,20.942-8.729" fill="#ff6b00"/>
        <path id="Path_183957" data-name="Path 183957" d="M188.541,100.186A34.146,34.146,0,1,1,154.4,66.04a34.146,34.146,0,0,1,34.145,34.146" fill="#ff6b00"/>
        <g id="Group_122764" data-name="Group 122764" opacity="0.8">
          <g id="Group_122763" data-name="Group 122763">
            <g id="Group_122762" data-name="Group 122762" clip-path="url(#clip-path-3)">
              <path id="Path_183958" data-name="Path 183958" d="M188.541,100.186A34.146,34.146,0,1,1,154.4,66.04a34.146,34.146,0,0,1,34.145,34.146" fill="#fff"/>
            </g>
          </g>
        </g>
        <path id="Path_183959" data-name="Path 183959" d="M177.277,90.216a1.256,1.256,0,0,0-.447.153.593.593,0,0,1-.22.042l-.182.011V88.294a.265.265,0,0,0-.232-.267h-2.087l.009.175a.591.591,0,0,0,.04.22,1.268,1.268,0,0,1,.15.449A1.037,1.037,0,0,1,173.192,90a1.115,1.115,0,0,1-1.108-1.059,1.173,1.173,0,0,1,.131-.582.643.643,0,0,0,.066-.264v-.073h-2.013a.28.28,0,0,0-.31.267v2.113l-.058,0a.662.662,0,0,1-.265-.064,1.167,1.167,0,0,0-.583-.127A1.117,1.117,0,0,0,168,91.335a1.037,1.037,0,0,0,1.144,1.106,1.256,1.256,0,0,0,.447-.153.593.593,0,0,1,.22-.042l.146-.009v1.811a.33.33,0,0,0,.333.327h1.928l-.013-.277a.609.609,0,0,0-.041-.22,1.246,1.246,0,0,1-.149-.449,1.037,1.037,0,0,1,1.115-1.135,1.117,1.117,0,0,1,1.108,1.06,1.165,1.165,0,0,1-.131.582.656.656,0,0,0-.066.264l0,.175H176.1a.33.33,0,0,0,.333-.327v-1.8l.094,0a.658.658,0,0,1,.265.064,1.156,1.156,0,0,0,.583.127,1.117,1.117,0,0,0,1.051-1.117,1.037,1.037,0,0,0-1.144-1.106" fill="#ff6b00"/>
        <path id="Path_183960" data-name="Path 183960" d="M176.1,84.235a.87.87,0,0,0-.214-.242.416.416,0,0,1-.085-.127l-.055-.112,1.342-.561a.18.18,0,0,0,.107-.216l-.549-1.316-.108.051a.406.406,0,0,0-.128.084.887.887,0,0,1-.244.212.708.708,0,0,1-1.009-.4.762.762,0,0,1,.376-.978.8.8,0,0,1,.4-.071.446.446,0,0,0,.184-.028l.045-.019-.531-1.27a.192.192,0,0,0-.249-.126l-1.333.557-.016-.036a.443.443,0,0,1-.03-.184.788.788,0,0,0-.074-.4.763.763,0,0,0-.981-.368.708.708,0,0,0-.4,1.012.859.859,0,0,0,.215.242.424.424,0,0,1,.084.128l.044.089-1.142.477a.226.226,0,0,0-.119.3l.509,1.217.171-.082a.39.39,0,0,0,.128-.084.883.883,0,0,1,.243-.212.71.71,0,0,1,1.01.4.764.764,0,0,1-.376.978.8.8,0,0,1-.4.071.441.441,0,0,0-.184.028l-.11.048.541,1.293a.225.225,0,0,0,.294.124l1.133-.474.027.06a.457.457,0,0,1,.029.183.8.8,0,0,0,.074.4.763.763,0,0,0,.981.369.709.709,0,0,0,.4-1.013" fill="#ff6b00"/>
        <path id="Path_183961" data-name="Path 183961" d="M194.658,90.745a.866.866,0,0,0,.1-.307.394.394,0,0,1,.067-.138l.069-.1,1.163.873a.181.181,0,0,0,.241-.017l.856-1.141-.1-.067a.419.419,0,0,0-.137-.068.883.883,0,0,1-.307-.1.71.71,0,0,1-.163-1.076.764.764,0,0,1,1.034-.171.8.8,0,0,1,.265.311.44.44,0,0,0,.117.144l.04.029.826-1.1a.19.19,0,0,0-.019-.278l-1.155-.867.023-.033a.455.455,0,0,1,.143-.118.806.806,0,0,0,.309-.267.764.764,0,0,0-.18-1.033.709.709,0,0,0-1.074.172.864.864,0,0,0-.1.308.414.414,0,0,1-.066.137l-.056.083-.99-.742a.225.225,0,0,0-.315.047l-.791,1.055.157.106a.418.418,0,0,0,.137.068.883.883,0,0,1,.307.1.709.709,0,0,1,.163,1.075.763.763,0,0,1-1.034.172.8.8,0,0,1-.265-.311.44.44,0,0,0-.117-.144l-.1-.071-.841,1.122a.226.226,0,0,0,.042.316l.983.737-.038.053a.429.429,0,0,1-.143.118.8.8,0,0,0-.308.267.763.763,0,0,0,.179,1.033.709.709,0,0,0,1.074-.172" fill="#ff6b00"/>
        <path id="Path_183962" data-name="Path 183962" d="M186.75,81.542a1.125,1.125,0,0,0,.029.421.557.557,0,0,1-.014.2l-.033.16-1.835-.491a.235.235,0,0,0-.283.138l-.481,1.8.152.033a.514.514,0,0,0,.2.015,1.147,1.147,0,0,1,.421-.025.925.925,0,0,1,.721,1.223,1,1,0,0,1-1.169.711,1.056,1.056,0,0,1-.472-.247.575.575,0,0,0-.212-.118l-.062-.016-.465,1.736a.25.25,0,0,0,.158.328l1.822.488-.012.05a.59.59,0,0,1-.117.214,1.043,1.043,0,0,0-.243.473,1,1,0,0,0,.72,1.164.926.926,0,0,0,1.217-.731,1.1,1.1,0,0,0-.028-.421.514.514,0,0,1,.014-.2l.026-.128,1.561.418a.3.3,0,0,0,.359-.211l.445-1.663-.242-.052a.536.536,0,0,0-.2-.016,1.109,1.109,0,0,1-.422.025.925.925,0,0,1-.72-1.223,1,1,0,0,1,1.169-.711,1.039,1.039,0,0,1,.471.248.592.592,0,0,0,.212.118l.152.038.473-1.769a.294.294,0,0,0-.205-.362l-1.549-.415.02-.082a.577.577,0,0,1,.116-.213,1.043,1.043,0,0,0,.243-.473,1,1,0,0,0-.72-1.164.925.925,0,0,0-1.217.731" fill="#ff6b00"/>
        <path id="Path_183963" data-name="Path 183963" d="M161.919,87.281h2.1l0,.075a.673.673,0,0,1-.069.275,1.2,1.2,0,0,0-.136.607,1.162,1.162,0,0,0,1.154,1.1,1.081,1.081,0,0,0,1.163-1.182,1.329,1.329,0,0,0-.157-.468.619.619,0,0,1-.042-.229l-.008-.182h1.123a10.6,10.6,0,0,0-5.291-5.775v1.888l.19-.011a.618.618,0,0,0,.229-.044,1.315,1.315,0,0,1,.466-.159,1.081,1.081,0,0,1,1.192,1.152,1.164,1.164,0,0,1-1.1,1.164,1.214,1.214,0,0,1-.607-.132.7.7,0,0,0-.276-.066l-.1,0v1.873a.333.333,0,0,1-.05.173.356.356,0,0,1,.214-.065" fill="#ff6b00"/>
        <path id="Path_183964" data-name="Path 183964" d="M163.4,104.772c.633-1.538,4.521-4.92,4.766-10.923a.356.356,0,0,1-.172.046h-2.138l0-.182a.689.689,0,0,1,.069-.275,1.23,1.23,0,0,0,.137-.607,1.163,1.163,0,0,0-1.155-1.1,1.079,1.079,0,0,0-1.162,1.182,1.306,1.306,0,0,0,.155.468.642.642,0,0,1,.043.229l.014.289h-2.01a.343.343,0,0,1-.347-.341V91.667l-.152.009a.622.622,0,0,0-.229.044,1.3,1.3,0,0,1-.466.16,1.081,1.081,0,0,1-1.192-1.153,1.164,1.164,0,0,1,1.1-1.164,1.22,1.22,0,0,1,.608.132.679.679,0,0,0,.275.067l.061,0v-2.2a.256.256,0,0,1,.032-.123.348.348,0,0,1-.219.078H159.27l0-.182a.657.657,0,0,1,.069-.275,1.218,1.218,0,0,0,.136-.607,1.163,1.163,0,0,0-1.155-1.1,1.08,1.08,0,0,0-1.162,1.182,1.327,1.327,0,0,0,.156.468.616.616,0,0,1,.042.229l.014.289h-2.01a.344.344,0,0,1-.346-.341V85.285l-.152.009a.618.618,0,0,0-.229.044,1.323,1.323,0,0,1-.466.16,1.08,1.08,0,0,1-1.192-1.153,1.163,1.163,0,0,1,1.095-1.164,1.216,1.216,0,0,1,.607.132.679.679,0,0,0,.276.067l.061,0v-2.2a.292.292,0,0,1,.323-.278h2.1v.075a.682.682,0,0,1-.069.276,1.212,1.212,0,0,0-.136.606,1.162,1.162,0,0,0,1.154,1.1,1.08,1.08,0,0,0,1.163-1.182,1.327,1.327,0,0,0-.156-.468.616.616,0,0,1-.042-.229l-.009-.182h.982a20.512,20.512,0,0,0-11.982-.117,10.822,10.822,0,0,0-7.182,7.955,14.507,14.507,0,0,0,0,4.943,4.418,4.418,0,0,1-1.19,3.058c-.851,1.121-2.2,1.927-2.2,3.23,0,.948,2.1,1.335,2.2,1.895s-.649.7-.649,1.43,1,.957,1,.957a2.175,2.175,0,0,0-.781.88c-.29.6.135.624.5,1.107s.271.11.271,2.159,5.7,2.242,6.548,2.513a32.973,32.973,0,0,1,3.437,8.277l15.2.276c-.68-4.836-2.643-13.348-2.091-14.689" fill="#ff6b00"/>
        <g id="Group_122767" data-name="Group 122767" style="mix-blend-mode: color-dodge;isolation: isolate">
          <g id="Group_122766" data-name="Group 122766">
            <g id="Group_122765" data-name="Group 122765" clip-path="url(#clip-path-4)">
              <path id="Path_183965" data-name="Path 183965" d="M159.388,94.659a1.256,1.256,0,0,0-.153-.447.593.593,0,0,1-.042-.22l-.011-.182h2.128a.265.265,0,0,0,.267-.232V91.491l-.175.009a.591.591,0,0,0-.22.04,1.268,1.268,0,0,1-.449.15,1.037,1.037,0,0,1-1.134-1.116,1.115,1.115,0,0,1,1.059-1.108,1.173,1.173,0,0,1,.582.131.661.661,0,0,0,.264.067l.073,0V87.649a.28.28,0,0,0-.267-.31H159.2l0-.058a.662.662,0,0,1,.064-.265,1.167,1.167,0,0,0,.127-.583,1.117,1.117,0,0,0-1.117-1.051,1.037,1.037,0,0,0-1.106,1.144,1.256,1.256,0,0,0,.153.447.593.593,0,0,1,.042.22l.009.146h-1.811a.33.33,0,0,0-.327.333V89.6l.277-.014a.609.609,0,0,0,.22-.041,1.246,1.246,0,0,1,.449-.149,1.037,1.037,0,0,1,1.135,1.115,1.117,1.117,0,0,1-1.06,1.108,1.165,1.165,0,0,1-.582-.131.655.655,0,0,0-.264-.066l-.175,0v2.052a.33.33,0,0,0,.327.333h1.8l0,.094a.658.658,0,0,1-.064.265,1.156,1.156,0,0,0-.127.583,1.117,1.117,0,0,0,1.117,1.051,1.037,1.037,0,0,0,1.106-1.144" fill="#ff6b00"/>
            </g>
          </g>
        </g>
        <path id="Path_183966" data-name="Path 183966" d="M108.82,16.916a1.566,1.566,0,0,1-.032-.271c-.014-.2-.033-.46-.058-.8q-.017-.266-.038-.586c-.024-.215-.071-.447-.109-.7a12.3,12.3,0,0,0-.355-1.728A16.016,16.016,0,0,0,106.362,8.4,16.637,16.637,0,0,0,86.377,1.308a17.4,17.4,0,0,0-2.167.953,17.327,17.327,0,0,0-2.036,1.31,18.691,18.691,0,0,0-1.884,1.6A18.747,18.747,0,0,0,78.663,7.1a16.09,16.09,0,0,0-2.374,4.576,17.749,17.749,0,0,0-.856,5.238,17.762,17.762,0,0,0,.855,5.241,16.07,16.07,0,0,0,2.374,4.577,18.759,18.759,0,0,0,1.627,1.927,18.672,18.672,0,0,0,1.884,1.6,17.265,17.265,0,0,0,2.037,1.311,17.4,17.4,0,0,0,2.167.953,16.682,16.682,0,0,0,19.986-7.09A16.041,16.041,0,0,0,108.228,21a12.284,12.284,0,0,0,.355-1.727c.038-.253.085-.486.109-.7s.027-.409.038-.586c.025-.336.044-.6.058-.8a1.57,1.57,0,0,1,.032-.272,1.475,1.475,0,0,1,0,.272c0,.2-.013.462-.022.8-.007.177-.014.374-.021.589s-.06.451-.094.706a11.746,11.746,0,0,1-.325,1.747,15.875,15.875,0,0,1-1.828,4.506,16.9,16.9,0,0,1-11.371,8.01,16.956,16.956,0,0,1-8.9-.714,17.565,17.565,0,0,1-2.213-.967,17.474,17.474,0,0,1-2.081-1.331A19.083,19.083,0,0,1,80.045,28.9a18.967,18.967,0,0,1-1.664-1.963,16.427,16.427,0,0,1-2.429-4.672,18.085,18.085,0,0,1-.875-5.353,18.039,18.039,0,0,1,.877-5.35,16.4,16.4,0,0,1,2.428-4.67A18.966,18.966,0,0,1,80.046,4.93,19.042,19.042,0,0,1,81.971,3.3,15.568,15.568,0,0,1,86.265,1a16.952,16.952,0,0,1,8.9-.714A16.89,16.89,0,0,1,106.533,8.3a15.881,15.881,0,0,1,1.829,4.506,11.878,11.878,0,0,1,.325,1.747c.034.256.075.49.094.706s.014.412.021.59c.009.338.017.6.022.8a1.475,1.475,0,0,1,0,.272" fill="#ff6b00"/>
        <path id="Path_183967" data-name="Path 183967" d="M95.658,15.161a8.431,8.431,0,0,0-.195-1.275,5,5,0,0,0-.586-1.385,5.225,5.225,0,0,0-1.328-1.47,5.18,5.18,0,0,0-4.908-.734,4.859,4.859,0,0,0-1.31.706,5.728,5.728,0,0,0-.586.5,5.876,5.876,0,0,0-.507.6,5.151,5.151,0,0,0,0,6.116,5.855,5.855,0,0,0,.506.6,5.993,5.993,0,0,0,.587.5,4.859,4.859,0,0,0,1.31.706,5.208,5.208,0,0,0,6.236-2.2,5,5,0,0,0,.586-1.384,8.431,8.431,0,0,0,.195-1.275.326.326,0,0,1,0,.085c0,.066,0,.148-.005.251a2.394,2.394,0,0,1-.033.406,3.7,3.7,0,0,1-.1.548,4.961,4.961,0,0,1-.57,1.415,5.295,5.295,0,0,1-3.567,2.521,5.329,5.329,0,0,1-2.8-.223,4.969,4.969,0,0,1-1.35-.722,4.857,4.857,0,0,1-1.129-1.13,5.295,5.295,0,0,1,0-6.3,4.909,4.909,0,0,1,1.129-1.13,4.993,4.993,0,0,1,1.35-.721,5.329,5.329,0,0,1,2.8-.223,5.3,5.3,0,0,1,3.567,2.52,4.977,4.977,0,0,1,.57,1.416,3.7,3.7,0,0,1,.1.548,2.394,2.394,0,0,1,.033.406c0,.1,0,.185.005.251a.326.326,0,0,1,0,.085" fill="#263238"/>
        <path id="Path_183968" data-name="Path 183968" d="M94,18.988c.031-.031,1.176,1.062,2.556,2.443S99.034,23.956,99,23.987s-1.176-1.062-2.556-2.443S93.972,19.019,94,18.988" fill="#263238"/>
        <path id="Path_183969" data-name="Path 183969" d="M50.2,91.2A22.443,22.443,0,1,1,27.757,68.757,22.443,22.443,0,0,1,50.2,91.2" fill="#fff"/>
        <path id="Path_183970" data-name="Path 183970" d="M50.2,91.2s-.018-.123-.037-.363-.04-.608-.071-1.065c-.015-.235-.031-.5-.048-.784s-.093-.6-.144-.937a16.28,16.28,0,0,0-.469-2.314,21.414,21.414,0,0,0-2.489-5.947A22.414,22.414,0,0,0,31.872,69.3a20.8,20.8,0,0,0-2.819-.325c-.48-.016-.965-.063-1.453-.055L26.126,69c-.248.018-.5.016-.745.049l-.743.114c-.5.083-1,.141-1.5.244a23.569,23.569,0,0,0-2.97.873,23.24,23.24,0,0,0-2.905,1.277c-.471.255-.922.553-1.387.829a11.418,11.418,0,0,0-1.344.926,25.132,25.132,0,0,0-2.526,2.148,25.261,25.261,0,0,0-2.182,2.582,21.534,21.534,0,0,0-3.183,6.134,22.074,22.074,0,0,0,0,14.052,21.571,21.571,0,0,0,3.183,6.136,25.155,25.155,0,0,0,2.183,2.583,25.263,25.263,0,0,0,2.526,2.148,11.464,11.464,0,0,0,1.344.926c.466.277.917.574,1.387.829a23.115,23.115,0,0,0,2.906,1.278A23.536,23.536,0,0,0,23.14,113c.5.1,1,.161,1.5.244l.743.114c.247.033.5.031.744.049l1.475.076c.489.008.973-.039,1.453-.055a20.619,20.619,0,0,0,2.819-.326,22.411,22.411,0,0,0,15.07-10.491,21.391,21.391,0,0,0,2.488-5.946,16.253,16.253,0,0,0,.469-2.314c.051-.338.113-.649.144-.936s.033-.549.048-.784c.031-.457.054-.811.071-1.065s.037-.363.037-.363.006.123,0,.364-.021.61-.036,1.068c-.01.237-.02.5-.032.788s-.081.6-.127.943a15.881,15.881,0,0,1-.44,2.333,21.267,21.267,0,0,1-2.451,6.014,22.565,22.565,0,0,1-15.186,10.68,21.181,21.181,0,0,1-2.856.339c-.487.018-.978.066-1.473.06l-1.5-.073c-.251-.017-.5-.015-.755-.048l-.754-.114c-.5-.082-1.015-.14-1.522-.243a23.973,23.973,0,0,1-3.016-.879,23.567,23.567,0,0,1-2.952-1.291c-.477-.258-.936-.559-1.409-.839a11.525,11.525,0,0,1-1.366-.938,25.291,25.291,0,0,1-2.568-2.178,25.467,25.467,0,0,1-2.22-2.619A21.928,21.928,0,0,1,6.3,98.336a22.4,22.4,0,0,1,0-14.276,21.891,21.891,0,0,1,3.238-6.229,25.566,25.566,0,0,1,2.219-2.619,25.411,25.411,0,0,1,2.568-2.177A11.523,11.523,0,0,1,15.7,72.1c.473-.28.931-.58,1.409-.838a23.346,23.346,0,0,1,2.951-1.291,23.973,23.973,0,0,1,3.016-.879c.506-.1,1.018-.161,1.521-.243l.754-.114c.251-.033.5-.031.755-.048l1.495-.073c.5-.006.986.042,1.473.06a20.989,20.989,0,0,1,2.855.339A22.568,22.568,0,0,1,47.113,79.688,21.29,21.29,0,0,1,49.565,85.7a15.881,15.881,0,0,1,.44,2.333c.046.341.1.654.127.943s.022.552.032.788c.015.459.027.814.036,1.069s0,.364,0,.364" fill="#ff6b00"/>
        <path id="Path_183971" data-name="Path 183971" d="M39.791,91.753A11.968,11.968,0,1,1,27.823,79.785,11.968,11.968,0,0,1,39.791,91.753" fill="#f5f5f5"/>
        <path id="Path_183972" data-name="Path 183972" d="M39.791,91.753s-.023-.263-.053-.762a5.911,5.911,0,0,0-.1-.918,8.8,8.8,0,0,0-.248-1.235,11.423,11.423,0,0,0-1.325-3.176,11.9,11.9,0,0,0-14.3-5.087,11.164,11.164,0,0,0-3.011,1.619,13.362,13.362,0,0,0-1.35,1.147,13.586,13.586,0,0,0-1.166,1.379,11.841,11.841,0,0,0,0,14.065,13.588,13.588,0,0,0,1.166,1.379,13.483,13.483,0,0,0,1.35,1.148,11.211,11.211,0,0,0,3.012,1.619,11.926,11.926,0,0,0,14.3-5.088,11.425,11.425,0,0,0,1.324-3.175,8.659,8.659,0,0,0,.248-1.235,5.911,5.911,0,0,0,.1-.918c.03-.5.053-.762.053-.762s0,.263-.024.763a5.653,5.653,0,0,1-.087.923,8.457,8.457,0,0,1-.236,1.242,11.352,11.352,0,0,1-1.31,3.2,11.983,11.983,0,0,1-14.41,5.171,11.316,11.316,0,0,1-3.047-1.634,13.443,13.443,0,0,1-1.367-1.16,13.558,13.558,0,0,1-1.181-1.394,11.967,11.967,0,0,1,0-14.229,13.433,13.433,0,0,1,1.181-1.394,13.3,13.3,0,0,1,1.366-1.159,11.3,11.3,0,0,1,3.047-1.634,12.05,12.05,0,0,1,6.319-.511,12.02,12.02,0,0,1,8.091,5.681,11.382,11.382,0,0,1,1.31,3.2,8.493,8.493,0,0,1,.236,1.243,5.642,5.642,0,0,1,.087.922c.02.5.024.764.024.764" fill="#263238"/>
        <path id="Path_183973" data-name="Path 183973" d="M27.823,83.936a6.093,6.093,0,0,1,1.925.178,7.9,7.9,0,0,1,5.9,6.17,7.95,7.95,0,0,1-.329,4.187,7.991,7.991,0,0,1-2.773,3.716,7.917,7.917,0,0,1-9.443,0,7.971,7.971,0,0,1-2.774-3.716A7.939,7.939,0,0,1,20,90.284a7.892,7.892,0,0,1,5.9-6.17,6.093,6.093,0,0,1,1.925-.178,15.608,15.608,0,0,0-1.891.312,7.806,7.806,0,0,0-4.22,2.854,7.653,7.653,0,0,0-1.076,7.257,7.685,7.685,0,0,0,2.672,3.547,7.6,7.6,0,0,0,9.03,0,7.685,7.685,0,0,0,2.672-3.547A7.653,7.653,0,0,0,33.934,87.1a7.8,7.8,0,0,0-4.22-2.854,15.608,15.608,0,0,0-1.891-.312" fill="#ff6b00"/>
        <path id="Path_183974" data-name="Path 183974" d="M27.823,89.272a1.218,1.218,0,0,1,.623.011,2.477,2.477,0,0,1,1.449.893,2.6,2.6,0,0,1,.412,2.479,2.634,2.634,0,0,1-4.968,0,2.592,2.592,0,0,1,.412-2.479,2.479,2.479,0,0,1,1.449-.893,1.216,1.216,0,0,1,.623-.011c0,.032-.221.035-.589.145a2.485,2.485,0,0,0-1.283.912,2.328,2.328,0,1,0,3.744,0,2.487,2.487,0,0,0-1.283-.912c-.368-.11-.59-.113-.589-.145" fill="#ff6b00"/>
        <path id="Path_183975" data-name="Path 183975" d="M15.072,100.377c4.134-2.883,8.617-5.741,12.751-8.624" fill="#f5f5f5"/>
        <path id="Path_183976" data-name="Path 183976" d="M27.822,91.754c.022.033-2.815,1.99-6.335,4.371s-6.394,4.286-6.416,4.253,2.814-1.989,6.336-4.371,6.393-4.286,6.415-4.253" fill="#263238"/>
        <path id="Path_183977" data-name="Path 183977" d="M16.475,99.543A7.741,7.741,0,0,1,15,99.56a7.731,7.731,0,0,1-1.473-.124A7.688,7.688,0,0,1,15,99.418a7.777,7.777,0,0,1,1.473.125" fill="#263238"/>
        <path id="Path_183978" data-name="Path 183978" d="M15.973,101.485a7.3,7.3,0,0,1,.43-1.994,7.3,7.3,0,0,1-.43,1.994" fill="#263238"/>
        <path id="Path_183979" data-name="Path 183979" d="M16.7,101.257a7.994,7.994,0,0,1,.375-2.087,7.885,7.885,0,0,1-.375,2.087" fill="#263238"/>
        <path id="Path_183980" data-name="Path 183980" d="M15,98.692a3.89,3.89,0,0,1,1.027.169,3.85,3.85,0,0,1,.994.308A3.9,3.9,0,0,1,15.993,99,3.868,3.868,0,0,1,15,98.692" fill="#263238"/>
        <path id="Path_183981" data-name="Path 183981" d="M105.528,69.239a13.009,13.009,0,1,1-13.01-13.01,13.01,13.01,0,0,1,13.01,13.01" fill="#fff"/>
        <path id="Path_183982" data-name="Path 183982" d="M105.528,69.239a.946.946,0,0,1-.029-.21c-.012-.159-.028-.362-.049-.617a6.432,6.432,0,0,0-.118-1,9.49,9.49,0,0,0-.278-1.338,12.479,12.479,0,0,0-1.45-3.433,12.877,12.877,0,0,0-15.461-5.472,12.071,12.071,0,0,0-3.248,1.751,14.371,14.371,0,0,0-1.456,1.239,14.659,14.659,0,0,0-1.257,1.488,12.782,12.782,0,0,0,0,15.172,11.717,11.717,0,0,0,2.713,2.729A12.091,12.091,0,0,0,88.143,81.3,12.913,12.913,0,0,0,103.6,75.831a12.435,12.435,0,0,0,1.45-3.433,9.479,9.479,0,0,0,.278-1.337,6.446,6.446,0,0,0,.118-.995c.021-.255.037-.458.049-.617a.946.946,0,0,1,.029-.21.915.915,0,0,1,.008.211c0,.159-.008.364-.014.62a5.963,5.963,0,0,1-.085,1.006,9.083,9.083,0,0,1-.249,1.356,12.282,12.282,0,0,1-1.413,3.5,13.115,13.115,0,0,1-8.828,6.23,13.168,13.168,0,0,1-6.916-.551,12.388,12.388,0,0,1-3.339-1.786A12.1,12.1,0,0,1,81.9,77.031a13.1,13.1,0,0,1,0-15.585,14.994,14.994,0,0,1,1.294-1.526,14.651,14.651,0,0,1,1.5-1.268,12.368,12.368,0,0,1,3.338-1.786,13.165,13.165,0,0,1,6.915-.551,13.113,13.113,0,0,1,8.829,6.23,12.3,12.3,0,0,1,1.413,3.5,9.189,9.189,0,0,1,.249,1.356,5.955,5.955,0,0,1,.085,1.006c.006.256.01.461.014.62a.915.915,0,0,1-.008.211" fill="#ff6b00"/>
        <path id="Path_183983" data-name="Path 183983" d="M93.592,69.434A3.039,3.039,0,0,0,95.4,66.622a2.857,2.857,0,1,0-5.7-.027,3.037,3.037,0,0,0,1.817,2.839c-4.387.661-4.188,5.429-4.188,5.429l10.375.048s.236-4.82-4.113-5.477" fill="#f5f5f5"/>
        <path id="Path_183984" data-name="Path 183984" d="M93.592,69.434a5.064,5.064,0,0,1,1.916.669,4.528,4.528,0,0,1,1.575,1.764,6.755,6.755,0,0,1,.676,3.047v.052H97.7l-10.375-.032H87.26v-.068a6.745,6.745,0,0,1,.649-2.934,4.472,4.472,0,0,1,1.5-1.77,5.419,5.419,0,0,1,2.1-.8l-.017.133a3.1,3.1,0,0,1-1.85-2.721,3.185,3.185,0,0,1,1.306-2.755,2.772,2.772,0,0,1,2.707-.275,3.015,3.015,0,0,1,1.6,1.754,3.259,3.259,0,0,1,.072,1.953,3.079,3.079,0,0,1-.712,1.284,2.843,2.843,0,0,1-.729.565,2.407,2.407,0,0,1-.292.131,3.2,3.2,0,0,0,.985-.729,3.061,3.061,0,0,0,.68-1.269,3.2,3.2,0,0,0-.088-1.9,2.931,2.931,0,0,0-1.558-1.687,2.664,2.664,0,0,0-2.594.277,3.058,3.058,0,0,0-1.244,2.649,2.966,2.966,0,0,0,1.772,2.6l.218.089-.235.044a5.269,5.269,0,0,0-2.036.775A4.334,4.334,0,0,0,88.036,72,6.617,6.617,0,0,0,87.4,74.86l-.07-.067,10.375.064-.055.051a6.708,6.708,0,0,0-.645-3,4.5,4.5,0,0,0-1.53-1.751,3.927,3.927,0,0,0-.768-.391,2.994,2.994,0,0,0-.609-.2l-.506-.128" fill="#263238"/>
        <path id="Path_183985" data-name="Path 183985" d="M85.659,144.969A22.668,22.668,0,1,1,62.99,122.3a22.669,22.669,0,0,1,22.669,22.669" fill="#fff"/>
        <path id="Path_183986" data-name="Path 183986" d="M85.659,144.969s-.019-.124-.037-.367-.041-.614-.072-1.075c-.014-.238-.031-.5-.048-.792s-.094-.6-.145-.947a16.526,16.526,0,0,0-.474-2.337,21.609,21.609,0,0,0-2.514-6.007,22.641,22.641,0,0,0-15.222-10.6,20.886,20.886,0,0,0-2.848-.328c-.485-.017-.974-.064-1.467-.056l-1.49.077c-.25.018-.5.016-.752.049l-.751.116c-.5.083-1.01.142-1.514.246a23.938,23.938,0,0,0-3,.881,23.631,23.631,0,0,0-2.934,1.291c-.475.258-.931.558-1.4.837a11.407,11.407,0,0,0-1.357.936,20.556,20.556,0,0,0-4.756,4.777,21.8,21.8,0,0,0-3.216,6.2,22.3,22.3,0,0,0,0,14.194,21.778,21.778,0,0,0,3.215,6.2,25.436,25.436,0,0,0,2.2,2.608,25.176,25.176,0,0,0,2.552,2.171,11.6,11.6,0,0,0,1.357.935c.471.28.926.58,1.4.838a23.411,23.411,0,0,0,2.934,1.29,23.741,23.741,0,0,0,3,.882c.5.1,1.013.163,1.514.246l.751.116c.249.033.5.031.752.049l1.49.077c.493.008.982-.039,1.468-.056a21.05,21.05,0,0,0,2.847-.328,22.64,22.64,0,0,0,15.222-10.6,21.628,21.628,0,0,0,2.513-6.007,16.5,16.5,0,0,0,.474-2.337c.051-.342.114-.656.145-.946s.034-.554.048-.792q.046-.691.072-1.075c.018-.243.037-.367.037-.367s.006.124,0,.367-.021.616-.037,1.08c-.01.239-.02.5-.032.8s-.082.608-.128.952a16.256,16.256,0,0,1-.445,2.356,21.492,21.492,0,0,1-2.476,6.075A22.794,22.794,0,0,1,67.2,167.381a21.256,21.256,0,0,1-2.884.342c-.492.018-.988.067-1.487.061l-1.511-.074c-.253-.017-.509-.015-.763-.048l-.761-.115c-.508-.083-1.025-.142-1.537-.246a24.227,24.227,0,0,1-3.046-.887,23.822,23.822,0,0,1-2.981-1.3c-.483-.261-.946-.565-1.424-.848a11.635,11.635,0,0,1-1.38-.947,20.929,20.929,0,0,1-4.835-4.846,22.091,22.091,0,0,1-3.27-6.293,22.62,22.62,0,0,1,0-14.418,22.127,22.127,0,0,1,3.271-6.292,25.838,25.838,0,0,1,2.241-2.645,25.643,25.643,0,0,1,2.593-2.2,11.643,11.643,0,0,1,1.38-.948c.478-.283.941-.586,1.423-.847a23.82,23.82,0,0,1,2.981-1.3,24.062,24.062,0,0,1,3.046-.887c.511-.1,1.028-.163,1.536-.246l.762-.115c.253-.033.509-.031.762-.048l1.511-.074c.5-.006.995.042,1.487.061a21.257,21.257,0,0,1,2.884.342A22.789,22.789,0,0,1,82.54,133.342a21.468,21.468,0,0,1,2.477,6.075,16.242,16.242,0,0,1,.445,2.357c.046.344.1.66.128.952s.022.557.032.8c.016.463.028.822.037,1.079s0,.368,0,.368" fill="#ff6b00"/>
        <path id="Path_183987" data-name="Path 183987" d="M50.917,144.064a12.046,12.046,0,1,1,11.231,12.81,12.046,12.046,0,0,1-11.231-12.81" fill="#f5f5f5"/>
        <path id="Path_183988" data-name="Path 183988" d="M50.917,144.064a.956.956,0,0,1,.011.2c0,.143,0,.333.006.573v.421c.007.155.03.323.046.506a8.925,8.925,0,0,0,.174,1.254,11.522,11.522,0,0,0,1.13,3.264,11.937,11.937,0,0,0,13.971,6.009,10.972,10.972,0,0,0,3.113-1.423,10.9,10.9,0,0,0,2.677-2.359,11.576,11.576,0,0,0,1.913-3.162,11.8,11.8,0,0,0,.493-7.5,11.561,11.561,0,0,0-1.483-3.386,10.961,10.961,0,0,0-2.346-2.69,10.96,10.96,0,0,0-2.9-1.817,11.967,11.967,0,0,0-14.637,4.131,11.486,11.486,0,0,0-1.546,3.088,8.7,8.7,0,0,0-.336,1.22c-.04.179-.085.343-.112.5s-.039.291-.056.417c-.033.238-.06.425-.08.567a1.046,1.046,0,0,1-.037.193.988.988,0,0,1,.008-.195c.013-.143.031-.332.053-.572.012-.127.027-.268.042-.422s.063-.32.1-.5a8.64,8.64,0,0,1,.314-1.237,11.39,11.39,0,0,1,1.521-3.144,12.127,12.127,0,0,1,8.526-5.209,12.182,12.182,0,0,1,6.346.929,11.163,11.163,0,0,1,2.971,1.85A11.148,11.148,0,0,1,73.2,138.31a11.793,11.793,0,0,1,1.521,3.464,12.063,12.063,0,0,1-.5,7.675,11.8,11.8,0,0,1-1.962,3.234,11.08,11.08,0,0,1-2.743,2.409,11.2,11.2,0,0,1-3.187,1.445,12.181,12.181,0,0,1-6.412.092,12.133,12.133,0,0,1-7.772-6.279,11.4,11.4,0,0,1-1.1-3.316,8.535,8.535,0,0,1-.15-1.268c-.011-.184-.03-.354-.032-.51s.009-.295.013-.423c.009-.241.017-.431.023-.574a.95.95,0,0,1,.017-.2" fill="#263238"/>
        <path id="Path_183989" data-name="Path 183989" d="M68.407,145.224a2.457,2.457,0,0,1-.426.028l-1.17.024c-.994.014-2.378.023-3.941.025h-.077v-.077c0-.25,0-.514,0-.781,0-1.745.009-3.325.023-4.468.01-.551.019-1.008.025-1.354a3.138,3.138,0,0,1,.03-.5,3.044,3.044,0,0,1,.031.5c.006.346.014.8.024,1.354.015,1.143.023,2.723.023,4.468v.781l-.078-.077c1.563,0,2.947.011,3.941.025l1.17.024a2.457,2.457,0,0,1,.426.028" fill="#263238"/>
        <path id="Path_183990" data-name="Path 183990" d="M62.907,134.786a6.6,6.6,0,0,1,0,2.024,6.6,6.6,0,0,1,0-2.024" fill="#263238"/>
        <path id="Path_183991" data-name="Path 183991" d="M68.4,136.411a6.438,6.438,0,0,1-1.411,1.411,6.438,6.438,0,0,1,1.411-1.411" fill="#263238"/>
        <path id="Path_183992" data-name="Path 183992" d="M71.605,139.917a4.192,4.192,0,0,1-.83.554,4.252,4.252,0,0,1-.874.482,4.435,4.435,0,0,1,1.7-1.036" fill="#263238"/>
        <path id="Path_183993" data-name="Path 183993" d="M73.486,145.119a12.246,12.246,0,0,1-2.76,0,12.246,12.246,0,0,1,2.76,0" fill="#263238"/>
        <path id="Path_183994" data-name="Path 183994" d="M54.352,144.935a5.519,5.519,0,0,1-1.3.078,5.524,5.524,0,0,1-1.3-.078,5.524,5.524,0,0,1,1.3-.078,5.519,5.519,0,0,1,1.3.078" fill="#263238"/>
        <path id="Path_183995" data-name="Path 183995" d="M55.705,148.809a5.759,5.759,0,0,1-.985.893,5.694,5.694,0,0,1-1.082.772,5.759,5.759,0,0,1,.985-.893,5.7,5.7,0,0,1,1.082-.772" fill="#263238"/>
        <path id="Path_183996" data-name="Path 183996" d="M59.044,151.8a36.81,36.81,0,0,1-1.382,2.3,6.873,6.873,0,0,1,1.382-2.3" fill="#263238"/>
        <path id="Path_183997" data-name="Path 183997" d="M62.907,155.668a12.246,12.246,0,0,1,0-2.76,12.247,12.247,0,0,1,0,2.76" fill="#263238"/>
        <path id="Path_183998" data-name="Path 183998" d="M68.855,153.829a5.923,5.923,0,0,1-2.065-1.8,12.6,12.6,0,0,1,1.03.9,12.726,12.726,0,0,1,1.035.9" fill="#263238"/>
        <path id="Path_183999" data-name="Path 183999" d="M71.646,150.823a9.429,9.429,0,0,1-1.717-1.717,9.429,9.429,0,0,1,1.717,1.717" fill="#263238"/>
        <path id="Path_184000" data-name="Path 184000" d="M55.578,141.225a3.688,3.688,0,0,1-.806-.7,3.737,3.737,0,0,1-.7-.806,3.646,3.646,0,0,1,.807.7,3.714,3.714,0,0,1,.7.806" fill="#263238"/>
        <path id="Path_184001" data-name="Path 184001" d="M59.023,137.6a3.564,3.564,0,0,1-.793-.679,3.516,3.516,0,0,1-.682-.79,7.067,7.067,0,0,1,1.475,1.469" fill="#263238"/>
        <path id="Path_184002" data-name="Path 184002" d="M117.17,178.254a17.308,17.308,0,0,0-.387-2.479,9.782,9.782,0,0,0-1.143-2.69,10.153,10.153,0,0,0-2.583-2.856,10.065,10.065,0,0,0-9.534-1.421,10.087,10.087,0,0,0-4.665,3.508,10.01,10.01,0,0,0,0,11.876,10.083,10.083,0,0,0,4.666,3.508,10.124,10.124,0,0,0,12.117-4.278,9.769,9.769,0,0,0,1.143-2.69,17.308,17.308,0,0,0,.387-2.478.6.6,0,0,1,.01.166c0,.131,0,.291-.007.488a4.713,4.713,0,0,1-.063.791,7.223,7.223,0,0,1-.193,1.067,9.646,9.646,0,0,1-1.106,2.758,10.319,10.319,0,0,1-6.948,4.915,10.378,10.378,0,0,1-5.452-.431,10.382,10.382,0,0,1-4.835-3.61,10.329,10.329,0,0,1,0-12.289,10.392,10.392,0,0,1,4.834-3.609,10.374,10.374,0,0,1,5.451-.431,10.319,10.319,0,0,1,6.949,4.914,9.646,9.646,0,0,1,1.106,2.758,7.257,7.257,0,0,1,.193,1.068,4.713,4.713,0,0,1,.063.791c0,.2.005.357.007.488a.6.6,0,0,1-.01.166" fill="#ff6b00"/>
        <path id="Path_184003" data-name="Path 184003" d="M108.959,180.609a1.625,1.625,0,0,0-1.36.777c-.369-.284-.827-.615-1.337-.962-.281-.191-.55-.367-.8-.529a1.653,1.653,0,0,0,.223-2.118c.308-.215.653-.468,1.019-.751.322-.25.618-.491.881-.713a1.659,1.659,0,1,0-.29-.933,1.675,1.675,0,0,0,.106.563c-.3.209-.628.451-.977.721-.374.29-.713.567-1,.817a1.658,1.658,0,1,0-1.112,2.884,1.629,1.629,0,0,0,.785-.207c.277.2.585.421.914.644.527.359,1.018.671,1.425.913a1.96,1.96,0,0,0-.129.7,1.666,1.666,0,1,0,1.658-1.809" fill="#f5f5f5"/>
        <path id="Path_184004" data-name="Path 184004" d="M108.959,180.609a1.214,1.214,0,0,1,.622.112,1.8,1.8,0,0,1,1.05,1.394,1.959,1.959,0,0,1-.221,1.267,1.7,1.7,0,0,1-1.226.871,1.653,1.653,0,0,1-1.559-.675,2,2,0,0,1-.25-1.884l.025.072c-.742-.472-1.547-.972-2.347-1.556l.069,0a1.719,1.719,0,0,1-2.544-1.578,1.724,1.724,0,0,1,2.888-1.209h-.1l.978-.8,1.007-.746-.026.083a1.721,1.721,0,0,1,1.148-2.253,1.726,1.726,0,1,1-.946,2.632l.087.012c-.661.549-1.3,1.027-1.908,1.461l.013-.072a1.709,1.709,0,0,1-.236,2.179l-.006-.068c.9.577,1.586,1.113,2.134,1.506l-.04.007a1.68,1.68,0,0,1,.963-.718,1.158,1.158,0,0,1,.42-.044,2.3,2.3,0,0,0-.412.072,1.675,1.675,0,0,0-.924.72l-.015.025-.026-.018c-.554-.383-1.246-.909-2.147-1.476l-.048-.03.041-.038a1.617,1.617,0,0,0,.21-2.058l-.029-.042.042-.03c.6-.437,1.236-.916,1.891-1.466l.052-.043.035.055a1.6,1.6,0,1,0,.888-2.432,1.589,1.589,0,0,0-.974.793,1.57,1.57,0,0,0-.08,1.277l.02.049-.045.034-1,.742-.972.791-.05.041-.044-.042a1.588,1.588,0,1,0-.31,2.569l.036-.02.033.024c.8.584,1.594,1.085,2.331,1.558l.043.028-.018.044a1.892,1.892,0,0,0,.226,1.779,1.552,1.552,0,0,0,1.46.643,1.607,1.607,0,0,0,1.168-.817,1.9,1.9,0,0,0,.225-1.216,1.763,1.763,0,0,0-1-1.371,1.845,1.845,0,0,0-.608-.145" fill="#263238"/>
        <path id="Path_184005" data-name="Path 184005" d="M260.7,143.38s-.019-.129-.037-.381-.043-.637-.075-1.118c-.015-.247-.031-.521-.05-.823s-.1-.628-.15-.983a17.141,17.141,0,0,0-.492-2.429,22.471,22.471,0,0,0-2.611-6.243,23.527,23.527,0,0,0-15.819-11.014,21.688,21.688,0,0,0-2.959-.341c-.5-.018-1.013-.067-1.525-.059l-1.549.081c-.259.018-.522.016-.781.051l-.78.12c-.521.086-1.051.147-1.574.256a25.614,25.614,0,0,0-6.169,2.257c-.493.267-.967.579-1.456.87a11.951,11.951,0,0,0-1.411.972,21.414,21.414,0,0,0-4.943,4.965,22.643,22.643,0,0,0-3.341,6.44,23.162,23.162,0,0,0,0,14.753,22.637,22.637,0,0,0,3.342,6.443,21.393,21.393,0,0,0,4.943,4.966,12.093,12.093,0,0,0,1.412.973c.489.29.962.6,1.456.87a24.32,24.32,0,0,0,3.05,1.341,24.6,24.6,0,0,0,3.119.916c.524.109,1.054.17,1.574.256l.781.121c.259.034.522.032.781.05l1.549.081c.512.008,1.021-.041,1.525-.059a21.722,21.722,0,0,0,2.96-.341,23.533,23.533,0,0,0,15.818-11.015,22.464,22.464,0,0,0,2.61-6.243,17.13,17.13,0,0,0,.492-2.428c.053-.356.118-.682.15-.984s.035-.576.05-.822c.032-.481.057-.853.075-1.118s.037-.381.037-.381.006.129,0,.382-.022.639-.039,1.121q-.015.372-.033.827c-.027.3-.086.632-.134.989a16.728,16.728,0,0,1-.462,2.448,22.319,22.319,0,0,1-2.574,6.31,23.678,23.678,0,0,1-15.935,11.2,22.074,22.074,0,0,1-3,.355c-.511.019-1.026.07-1.545.063L235.409,167c-.263-.017-.529-.015-.793-.049l-.791-.12c-.528-.086-1.065-.147-1.6-.256a25.162,25.162,0,0,1-3.165-.921,24.782,24.782,0,0,1-3.1-1.355c-.5-.271-.982-.586-1.479-.88a12.187,12.187,0,0,1-1.433-.985,21.656,21.656,0,0,1-5.022-5.033,22.95,22.95,0,0,1-3.4-6.537,23.48,23.48,0,0,1,0-14.976,22.944,22.944,0,0,1,3.4-6.536,21.668,21.668,0,0,1,5.021-5.031,12.1,12.1,0,0,1,1.433-.984c.5-.294.977-.609,1.479-.88a24.707,24.707,0,0,1,3.1-1.355,25.113,25.113,0,0,1,3.165-.921c.531-.109,1.068-.17,1.6-.256l.791-.12c.263-.034.529-.032.792-.049l1.569-.077c.519-.007,1.034.044,1.545.063a22.058,22.058,0,0,1,2.995.355,23.681,23.681,0,0,1,15.936,11.2,22.305,22.305,0,0,1,2.574,6.311,16.763,16.763,0,0,1,.463,2.448c.048.358.107.686.134.989q.018.456.033.828c.017.482.03.855.039,1.121s0,.382,0,.382" fill="#ff6b00"/>
        <path id="Path_184006" data-name="Path 184006" d="M251.609,155.417a2.776,2.776,0,0,1-.52.035l-1.491.032-5.484.054c-4.662.013-11.043.03-18.093.051H224.56v-.171c.021-6.757.039-12.819.053-17.231.022-2.165.04-3.922.053-5.178.013-.584.024-1.05.032-1.4a2.577,2.577,0,0,1,.033-.488,2.814,2.814,0,0,1,.033.488c.008.353.018.819.031,1.4.013,1.256.031,3.013.054,5.178.013,4.412.032,10.474.052,17.231l-.17-.17h1.29l18.093.05,5.484.055,1.491.031a3.244,3.244,0,0,1,.52.034" fill="#263238"/>
        <path id="Path_184007" data-name="Path 184007" d="M248.623,137.012a6.719,6.719,0,0,1-.8.767l-2.269,1.992c-1.926,1.67-4.6,3.961-7.57,6.474l-.45.381-.115.1-.111-.1-3.366-3.128.209,0-4.944,4.078-1.435,1.148a3.07,3.07,0,0,1-.536.382,3.325,3.325,0,0,1,.47-.461l1.376-1.218,4.865-4.172.106-.091.1.1c1.052.969,2.191,2.015,3.383,3.112l-.226,0,.449-.381c2.969-2.513,5.669-4.774,7.635-6.4l2.339-1.909a7,7,0,0,1,.888-.666" fill="#263238"/>
        <path id="Path_184008" data-name="Path 184008" d="M248.623,142.644a8.456,8.456,0,0,1-.118-1.677c-.031-1.04-.05-2.48-.052-4.086l.17.17h-.29c-1.673,0-3.186-.02-4.282-.05a9.189,9.189,0,0,1-1.773-.121,9.189,9.189,0,0,1,1.773-.121c1.1-.031,2.609-.05,4.282-.05h.461v.171c0,1.606-.022,3.046-.053,4.086a8.456,8.456,0,0,1-.118,1.677" fill="#263238"/>
        <path id="Path_184009" data-name="Path 184009" d="M298.485,89.765a1.8,1.8,0,0,1-.033-.287c-.014-.206-.034-.485-.06-.842-.012-.186-.025-.393-.04-.619s-.074-.473-.115-.74a12.929,12.929,0,0,0-.374-1.828,16.935,16.935,0,0,0-1.972-4.694,17.594,17.594,0,0,0-21.138-7.5,16.129,16.129,0,0,0-4.447,2.394,16.073,16.073,0,0,0-3.714,3.732,17.023,17.023,0,0,0-2.511,4.84,17.421,17.421,0,0,0,0,11.087,17.01,17.01,0,0,0,2.511,4.842,16.084,16.084,0,0,0,3.715,3.733,16.091,16.091,0,0,0,4.447,2.394,17.641,17.641,0,0,0,21.139-7.5,16.928,16.928,0,0,0,1.971-4.694,12.918,12.918,0,0,0,.374-1.827c.041-.268.09-.513.115-.74s.028-.433.04-.62c.026-.356.046-.635.06-.841a1.8,1.8,0,0,1,.033-.287,1.788,1.788,0,0,1,0,.288c-.006.207-.015.487-.025.845q-.01.282-.023.623c-.019.229-.064.477-.1.746A12.64,12.64,0,0,1,298,94.114a16.792,16.792,0,0,1-1.934,4.762,17.851,17.851,0,0,1-12.019,8.463,17.916,17.916,0,0,1-9.4-.755,16.472,16.472,0,0,1-4.538-2.429,16.418,16.418,0,0,1-3.793-3.8,17.34,17.34,0,0,1-2.566-4.937,17.74,17.74,0,0,1,0-11.31,17.368,17.368,0,0,1,2.566-4.935A20.2,20.2,0,0,1,268.07,77.1a19.992,19.992,0,0,1,2.034-1.724,16.486,16.486,0,0,1,4.537-2.43,17.933,17.933,0,0,1,9.4-.755,17.86,17.86,0,0,1,12.019,8.463A16.762,16.762,0,0,1,298,85.416a12.629,12.629,0,0,1,.345,1.846c.035.27.079.518.1.746s.016.436.023.624c.01.358.019.638.025.845a1.788,1.788,0,0,1,0,.288" fill="#ff6b00"/>
        <path id="Path_184010" data-name="Path 184010" d="M281.3,80.282l2.373,4.808a.621.621,0,0,0,.464.338l5.307.771a.616.616,0,0,1,.341,1.052l-3.839,3.742a.616.616,0,0,0-.177.546l.906,5.285a.617.617,0,0,1-.9.65l-4.746-2.5a.619.619,0,0,0-.574,0l-4.746,2.5a.617.617,0,0,1-.9-.65l.906-5.285a.616.616,0,0,0-.177-.546l-3.84-3.742a.617.617,0,0,1,.342-1.052l5.306-.771a.621.621,0,0,0,.465-.338l2.373-4.808a.617.617,0,0,1,1.106,0" fill="#fafafa"/>
        <path id="Path_184011" data-name="Path 184011" d="M281.3,80.282c-.008.005-.028-.05-.1-.127a.6.6,0,0,0-.995.193c-.134.281-.289.6-.461.962l-1.275,2.633-.387.8-.207.42a.7.7,0,0,1-.412.33c-.659.112-1.321.2-2.035.312l-2.229.332-1.177.178a.512.512,0,0,0-.279.816l3.856,3.748a.767.767,0,0,1,.234.756c-.04.237-.081.475-.121.715q-.123.718-.248,1.453-.251,1.47-.511,3a.493.493,0,0,0,.216.545.47.47,0,0,0,.3.074.781.781,0,0,0,.316-.12l1.4-.74,2.871-1.51.367-.193a.746.746,0,0,1,.483-.057,1.8,1.8,0,0,1,.4.181l.36.189,1.426.75,2.782,1.461a.483.483,0,0,0,.558-.124.459.459,0,0,0,.122-.272,1.492,1.492,0,0,0-.039-.344q-.129-.75-.253-1.484-.25-1.47-.489-2.875c-.04-.234-.079-.467-.118-.7a.762.762,0,0,1,.266-.727l.981-.953,1.879-1.822.893-.866a.52.52,0,0,0-.067-.854,1.8,1.8,0,0,0-.53-.114l-.563-.084L287.42,86l-2.026-.3-.931-.14a4.483,4.483,0,0,1-.455-.079.693.693,0,0,1-.374-.3l-1.281-2.638-.8-1.668-.2-.437a.793.793,0,0,1-.061-.153.739.739,0,0,1,.084.141c.057.108.131.249.225.425.2.392.481.944.84,1.648l1.314,2.606a.541.541,0,0,0,.3.23c.118.033.287.045.431.069l.933.13,2.028.286,1.091.154.564.08a1.921,1.921,0,0,1,.6.133.713.713,0,0,1,.363.555.728.728,0,0,1-.249.623l-.888.871-1.869,1.831-.978.957a.519.519,0,0,0-.2.52c.04.23.08.463.12.7q.243,1.4.5,2.873.126.733.256,1.484a1.61,1.61,0,0,1,.043.411.726.726,0,0,1-.185.416.738.738,0,0,1-.847.188l-2.8-1.466-1.427-.749-.359-.189a1.634,1.634,0,0,0-.337-.157.483.483,0,0,0-.315.038l-.359.188L277.3,96.784l-1.406.738a1.025,1.025,0,0,1-.415.149.728.728,0,0,1-.451-.113.752.752,0,0,1-.33-.8q.264-1.527.517-3l.252-1.452q.061-.36.123-.715a.517.517,0,0,0-.163-.544l-3.856-3.784a.721.721,0,0,1-.116-.694.71.71,0,0,1,.515-.459l1.2-.174,2.231-.316,2.016-.289a.536.536,0,0,0,.319-.249l.207-.411.4-.791,1.314-2.614q.271-.534.483-.952a.652.652,0,0,1,.655-.4.61.61,0,0,1,.429.223.37.37,0,0,1,.081.144" fill="#263238"/>
        <path id="Path_184012" data-name="Path 184012" d="M251.094,35.263a.946.946,0,0,1-.029-.21c-.012-.159-.028-.362-.049-.617a6.434,6.434,0,0,0-.118-.995,9.488,9.488,0,0,0-.278-1.338,12.478,12.478,0,0,0-1.45-3.433A12.877,12.877,0,0,0,233.709,23.2a12.071,12.071,0,0,0-3.248,1.751,14.37,14.37,0,0,0-1.456,1.239,14.658,14.658,0,0,0-1.257,1.488,12.782,12.782,0,0,0,0,15.172,11.716,11.716,0,0,0,2.713,2.729,12.091,12.091,0,0,0,3.249,1.751,12.913,12.913,0,0,0,15.461-5.473,12.435,12.435,0,0,0,1.45-3.433,9.477,9.477,0,0,0,.278-1.337,6.448,6.448,0,0,0,.118-.995c.021-.255.037-.458.049-.617a.946.946,0,0,1,.029-.21.914.914,0,0,1,.008.211c0,.159-.008.364-.014.62A5.963,5.963,0,0,1,251,37.1a9.084,9.084,0,0,1-.249,1.356,12.282,12.282,0,0,1-1.413,3.5,13.115,13.115,0,0,1-8.828,6.23,13.168,13.168,0,0,1-6.916-.551,12.373,12.373,0,0,1-3.339-1.786,12.1,12.1,0,0,1-2.792-2.795,13.1,13.1,0,0,1,0-15.585,14.994,14.994,0,0,1,1.294-1.526,14.651,14.651,0,0,1,1.5-1.268A12.368,12.368,0,0,1,233.6,22.89a13.165,13.165,0,0,1,6.915-.551,13.107,13.107,0,0,1,8.828,6.23,12.306,12.306,0,0,1,1.414,3.5A9.19,9.19,0,0,1,251,33.426a5.955,5.955,0,0,1,.085,1.006c.006.256.01.461.014.62a.914.914,0,0,1-.008.211" fill="#ff6b00"/>
        <path id="Path_184013" data-name="Path 184013" d="M243.861,33.695a5.933,5.933,0,1,0-11.047,3h0l.016.023c.228.383.513.657.8,1.06l3.445,4.563a1.071,1.071,0,0,0,1.71,0l3.388-4.488a12.712,12.712,0,0,0,.861-1.142l.013-.016h0a5.886,5.886,0,0,0,.819-3m-5.933,2.583a2.611,2.611,0,1,1,2.611-2.611,2.611,2.611,0,0,1-2.611,2.611" fill="#f5f5f5"/>
        <path id="Path_184014" data-name="Path 184014" d="M237.928,36.278a6.275,6.275,0,0,0,.631-.109,2.6,2.6,0,0,0,1.4-.953,2.549,2.549,0,1,0-4.071,0,2.593,2.593,0,0,0,1.4.953,6.276,6.276,0,0,0,.631.109,1.966,1.966,0,0,1-.644-.055,2.59,2.59,0,0,1-1.471-.946,2.654,2.654,0,0,1-.4-2.522,2.67,2.67,0,0,1,5.028,0,2.658,2.658,0,0,1-.4,2.522,2.6,2.6,0,0,1-1.472.946,1.966,1.966,0,0,1-.644.055" fill="#263238"/>
        <path id="Path_184015" data-name="Path 184015" d="M243.862,33.694a4.3,4.3,0,0,1-.038.824,5.885,5.885,0,0,1-.748,2.194l-.033-.057h.078l-.046.061-.012.015,0,0L239,42.15a1.35,1.35,0,0,1-.84.652,1.138,1.138,0,0,1-1.054-.323c-.466-.59-.909-1.194-1.385-1.815-.943-1.249-1.933-2.559-2.957-3.913l0,.007-.016-.024-.086-.113h.145l-.061.107a6.285,6.285,0,0,1-.523-1.15,5.981,5.981,0,0,1,8.858-6.957,5.925,5.925,0,0,1,2.575,3.474,4.219,4.219,0,0,1,.14.677,2.759,2.759,0,0,1,.05.505c.011.275.009.417.009.417a8.351,8.351,0,0,0-.252-1.585,5.91,5.91,0,0,0-2.575-3.4,5.977,5.977,0,0,0-2.845-.879,5.866,5.866,0,0,0-5.825,7.705,6.155,6.155,0,0,0,.511,1.123l.062.107h-.127l.057-.113.017.022,0,.006c1.02,1.353,2.006,2.659,2.944,3.9q.7.928,1.37,1.807a1.013,1.013,0,0,0,.934.289,1.222,1.222,0,0,0,.768-.6c1.645-2.163,3.044-4,4.1-5.387l0,0,.012-.017.03.06h-.068l.033-.056a6,6,0,0,0,.775-2.161c.04-.265.053-.469.063-.607s.014-.211.014-.211" fill="#263238"/>
        <path id="Path_184016" data-name="Path 184016" d="M187.894,27.355s-.019-.126-.037-.372-.042-.622-.073-1.09c-.014-.241-.031-.508-.049-.8s-.1-.613-.147-.959a16.579,16.579,0,0,0-.48-2.369,21.879,21.879,0,0,0-2.547-6.088,22.94,22.94,0,0,0-15.427-10.74,21.271,21.271,0,0,0-2.885-.333c-.492-.016-.988-.064-1.488-.056l-1.51.078c-.253.018-.509.016-.762.05l-.761.117c-.507.084-1.024.144-1.534.249a24.148,24.148,0,0,0-3.041.894,23.754,23.754,0,0,0-2.974,1.307c-.482.262-.943.566-1.42.849a11.719,11.719,0,0,0-1.376.948,25.578,25.578,0,0,0-2.586,2.2,25.752,25.752,0,0,0-2.234,2.643,22.066,22.066,0,0,0-3.259,6.28,24.362,24.362,0,0,0-1.176,7.192,24.38,24.38,0,0,0,1.175,7.194,22.088,22.088,0,0,0,3.258,6.282,25.772,25.772,0,0,0,2.235,2.644,25.468,25.468,0,0,0,2.586,2.2,11.609,11.609,0,0,0,1.376.949c.477.283.939.587,1.42.848a23.565,23.565,0,0,0,2.975,1.308,24.147,24.147,0,0,0,3.041.894c.511.105,1.027.165,1.535.249l.761.118c.253.033.509.031.762.049l1.51.079c.5.007,1-.04,1.488-.057a21.3,21.3,0,0,0,2.886-.333,22.946,22.946,0,0,0,15.426-10.741,21.873,21.873,0,0,0,2.546-6.088,16.6,16.6,0,0,0,.48-2.368c.052-.347.116-.665.147-.959s.035-.562.049-.8c.031-.468.056-.831.073-1.09s.037-.372.037-.372.006.126,0,.372c-.009.261-.021.624-.037,1.094-.01.242-.02.511-.032.807s-.084.616-.131.965a16.317,16.317,0,0,1-.45,2.387,21.786,21.786,0,0,1-2.51,6.156A23.094,23.094,0,0,1,169.19,50.065a21.319,21.319,0,0,1-2.923.346c-.5.019-1,.069-1.507.062l-1.531-.075c-.256-.017-.516-.015-.772-.048l-.772-.117c-.515-.084-1.039-.143-1.557-.249a24.547,24.547,0,0,1-3.087-.9,24.093,24.093,0,0,1-3.02-1.322c-.49-.264-.959-.572-1.443-.858a11.955,11.955,0,0,1-1.4-.961,25.989,25.989,0,0,1-2.628-2.228,25.943,25.943,0,0,1-2.271-2.681,22.41,22.41,0,0,1-3.314-6.377,24.7,24.7,0,0,1-1.195-7.306,24.685,24.685,0,0,1,1.2-7.3,22.385,22.385,0,0,1,3.314-6.375,26.184,26.184,0,0,1,2.271-2.68,25.988,25.988,0,0,1,2.628-2.228,11.745,11.745,0,0,1,1.4-.96c.484-.287.953-.594,1.442-.858a23.948,23.948,0,0,1,3.02-1.322,24.375,24.375,0,0,1,3.087-.9c.518-.107,1.041-.166,1.556-.25l.772-.117c.257-.033.516-.031.773-.048l1.53-.075c.506-.007,1.009.043,1.507.061a21.513,21.513,0,0,1,2.923.347,23.1,23.1,0,0,1,15.543,10.928,21.779,21.779,0,0,1,2.511,6.156,16.328,16.328,0,0,1,.45,2.388c.047.349.105.669.131.965s.022.565.032.807c.016.47.028.833.037,1.094s0,.372,0,.372" fill="#ff6b00"/>
        <path id="Path_184017" data-name="Path 184017" d="M163.98,22.677a.873.873,0,0,1,.291-.062,3.568,3.568,0,0,1,.855-.019,4.607,4.607,0,0,1,2.835,1.3,4.756,4.756,0,0,1-.023,6.813,4.766,4.766,0,0,1-5.631.764,4.756,4.756,0,0,1-1.838-6.561,4.6,4.6,0,0,1,2.385-2.01,3.609,3.609,0,0,1,.829-.211.873.873,0,0,1,.3-.017c.008.039-.4.08-1.072.362a4.614,4.614,0,0,0-2.209,2.006,4.5,4.5,0,0,0-.036,4.278,4.4,4.4,0,0,0,1.819,1.832,4.43,4.43,0,0,0,5.2-.706,4.407,4.407,0,0,0,1.265-2.25,4.5,4.5,0,0,0-1.174-4.113,4.61,4.61,0,0,0-2.664-1.345c-.718-.095-1.127-.024-1.13-.064" fill="#263238"/>
        <path id="Path_184018" data-name="Path 184018" d="M165.734,16.747a.668.668,0,0,1-.069-.145c-.048-.118-.11-.268-.186-.456q-.255-.646-.713-1.817l.063.038-4.266.614.082-.085c-.064.787-.137,1.66-.213,2.595l-.006.065-.061.026a10.484,10.484,0,0,0-2.394,1.411l-.06.046-.068-.031-2.375-1.071.162-.041-2.6,3.438,0-.183c.519.617,1.091,1.3,1.679,1.992l.06.071-.036.087a10.425,10.425,0,0,0-.7,2.678l-.011.1-.092.035-2.438.916.108-.178c.183,1.341.383,2.788.586,4.27l-.157-.15,2.594.226.108.009.041.1a10.552,10.552,0,0,0,1.393,2.385l.068.086-.045.1-1.08,2.372-.055-.221,3.431,2.608-.231.005c.631-.528,1.31-1.1,2-1.674l.086-.072.105.043a10.419,10.419,0,0,0,2.666.7h0l.153.12v0l0,0,0,.01.008.019.015.039.028.077.057.153.114.307.23.611c.151.408.3.813.453,1.217l-.2-.12,4.272-.578-.16.167q.117-1.31.231-2.594l.009-.111.1-.042a10.373,10.373,0,0,0,2.386-1.389l.087-.067.1.046,2.37,1.082-.216.055,2.615-3.426.006.214q-.852-1.017-1.67-2l-.065-.078.039-.094a10.4,10.4,0,0,0,.711-2.672l.013-.1.091-.034,2.44-.906-.1.167c-.2-1.5-.388-2.922-.567-4.273l.129.123-2.593-.237-.081-.008-.031-.074a10.453,10.453,0,0,0-1.388-2.4l-.045-.059.03-.067c.4-.859.754-1.633,1.091-2.365l.034.133L170.4,15.858l.106,0-2.013,1.655-.028.024-.034-.014a11.138,11.138,0,0,0-2.011-.633l-.513-.1a.669.669,0,0,1-.168-.038.988.988,0,0,1,.174.008c.114.012.289.031.519.071a10.11,10.11,0,0,1,2.046.583l-.062.009,1.982-1.691.05-.043.054.041,3.446,2.589.071.052-.037.081c-.332.735-.681,1.513-1.069,2.376l-.015-.126a10.672,10.672,0,0,1,1.442,2.451l-.112-.082,2.595.219.114.01.015.114c.187,1.35.384,2.767.591,4.269l.017.122-.117.044L175,28.762l.1-.131a10.67,10.67,0,0,1-.723,2.76l-.027-.171,1.678,1.994.087.1-.083.109-2.6,3.433-.086.113-.129-.059-2.371-1.078.185-.021a10.735,10.735,0,0,1-2.468,1.441l.112-.153q-.112,1.284-.226,2.594l-.013.147-.146.02-4.272.582-.148.02-.052-.14q-.226-.6-.453-1.216l-.23-.612-.115-.306-.056-.154-.03-.077-.013-.038-.008-.019,0-.01,0-.005,0,0,.153.12h0a10.7,10.7,0,0,1-2.763-.73l.19-.029-2,1.673-.114.095-.119-.09-3.428-2.612-.115-.089.059-.133c.374-.818.745-1.627,1.084-2.369l.021.185a10.829,10.829,0,0,1-1.436-2.47l.149.109-2.6-.232-.138-.013-.017-.137c-.2-1.483-.394-2.93-.573-4.272l-.017-.132.123-.046,2.441-.907-.1.131a10.756,10.756,0,0,1,.735-2.756l.024.158c-.582-.7-1.151-1.382-1.668-2l-.076-.091.073-.093q1.377-1.8,2.621-3.421l.065-.084.1.044,2.366,1.09-.125.015a10.672,10.672,0,0,1,2.461-1.42l-.067.091c.086-.933.168-1.806.242-2.592l.008-.076.073-.01,4.276-.544.048-.006.017.044q.414,1.172.645,1.817c.066.2.12.352.161.474a1.023,1.023,0,0,1,.05.169" fill="#263238"/>
        <path id="Path_184019" data-name="Path 184019" d="M136.924,197.636l-.956.322c-4.266,1.439-16.954,5.634-20.791,7.2,0,0,6.791,60.075,7.589,65.658s1,27.918,1,27.918H196.02s-.193-60.205.016-69.543c.27-12.082,1.767-24.033,1.767-24.033l-12.621-4.934-14.757-7.777Z" fill="#ff6b00"/>
        <g id="Group_122770" data-name="Group 122770" opacity="0.3">
          <g id="Group_122769" data-name="Group 122769">
            <g id="Group_122768" data-name="Group 122768" clip-path="url(#clip-path-5)">
              <path id="Path_184020" data-name="Path 184020" d="M153,210.635q-8.847,32.859-18.643,65.453c-.769,2.561-1.534,5.374-.494,7.837a7.033,7.033,0,0,0,5.575,3.966,11.252,11.252,0,0,0,6.865-1.548c4.884-2.726,8.054-7.86,9.614-13.232s1.7-11.038,1.826-16.63l1.023-44.738Z"/>
            </g>
          </g>
        </g>
        <path id="Path_184021" data-name="Path 184021" d="M115.176,205.162s-10.6,4.7-9.771,23.531a231.75,231.75,0,0,0,2.505,24.534l29.8-8.582-7.577-32.7Z" fill="#ff6b00"/>
        <path id="Path_184022" data-name="Path 184022" d="M185.852,235.473l-1.6,21.736,29.958-9.7s-6.423-38.366-16.6-42.344L186.65,223.907Z" fill="#ff6b00"/>
        <path id="Path_184023" data-name="Path 184023" d="M189.258,229.2a2.132,2.132,0,0,1,.056.442c.023.328.053.75.09,1.272.064,1.149.151,2.737.258,4.679.195,3.953.407,9.416.6,15.45.193,6.017.368,11.461.5,15.454.06,1.945.109,3.534.145,4.684.009.523.017.946.024,1.274a2.166,2.166,0,0,1-.016.446,2.069,2.069,0,0,1-.056-.443c-.023-.327-.054-.749-.091-1.271-.063-1.149-.15-2.736-.257-4.679-.2-3.953-.407-9.417-.6-15.453-.193-6.014-.367-11.458-.5-15.451-.06-1.945-.109-3.534-.144-4.684-.01-.523-.018-.946-.024-1.274a2.167,2.167,0,0,1,.016-.446" fill="#263238"/>
        <path id="Path_184024" data-name="Path 184024" d="M130,220.046a3.516,3.516,0,0,1-.392-.691l-.966-1.929a31.946,31.946,0,0,0-3.732-6,14.575,14.575,0,0,0-5.546-4.228,17.437,17.437,0,0,0-2.815-.792,2.819,2.819,0,0,1,.8.031,9.288,9.288,0,0,1,2.11.527,13.956,13.956,0,0,1,5.728,4.235,28.059,28.059,0,0,1,3.685,6.117c.382.83.672,1.509.865,1.981a3.416,3.416,0,0,1,.266.749" fill="#263238"/>
        <path id="Path_184025" data-name="Path 184025" d="M192.761,204.251a43.221,43.221,0,0,0-1.889,5.029,43.2,43.2,0,0,0-.886,5.3,5.462,5.462,0,0,1-.059-1.591,18.282,18.282,0,0,1,1.985-7.388,5.446,5.446,0,0,1,.849-1.348" fill="#263238"/>
        <path id="Path_184026" data-name="Path 184026" d="M126.127,213.61c0,.018-.108-.008-.294.032a1.141,1.141,0,0,0-.655.478,2.771,2.771,0,0,0-.457,1.24,5.355,5.355,0,0,1-.217.846,1.658,1.658,0,0,1-.607.816,2.006,2.006,0,0,1-2.215-.238,7.875,7.875,0,0,1-1.585-2.014,3.64,3.64,0,0,0-.886-.953A1.985,1.985,0,0,0,118,213.4a1.3,1.3,0,0,0-1.043.675,3.446,3.446,0,0,0-.316,1.4c-.035.5-.041,1.016-.1,1.525a3.19,3.19,0,0,1-.483,1.469,2.028,2.028,0,0,1-.574.539,1.834,1.834,0,0,1-.735.233,2.686,2.686,0,0,1-1.415-.268,5.822,5.822,0,0,1-1.889-1.75,6.741,6.741,0,0,0-1.506-1.533,2.248,2.248,0,0,0-1.63-.428,1.72,1.72,0,0,0-1.056.708,1.219,1.219,0,0,0-.226.782c.012.192.063.288.043.295a.6.6,0,0,1-.114-.285,1.239,1.239,0,0,1,.179-.866,1.848,1.848,0,0,1,1.131-.829,2.438,2.438,0,0,1,1.81.412,6.871,6.871,0,0,1,1.6,1.558,5.62,5.62,0,0,0,1.8,1.639,2.384,2.384,0,0,0,1.239.228,1.445,1.445,0,0,0,1.061-.636,5.931,5.931,0,0,0,.514-2.819,3.727,3.727,0,0,1,.361-1.543,1.653,1.653,0,0,1,1.334-.852,2.947,2.947,0,0,1,2.39,1.53,7.853,7.853,0,0,0,1.489,1.961,1.754,1.754,0,0,0,1.9.266,2.272,2.272,0,0,0,.767-1.493,2.812,2.812,0,0,1,.542-1.284,1.164,1.164,0,0,1,.752-.463.558.558,0,0,1,.306.039" fill="#fafafa"/>
        <path id="Path_184027" data-name="Path 184027" d="M132.184,223.691a1.214,1.214,0,0,1,.014.392,2.453,2.453,0,0,1-.372,1.063,3.119,3.119,0,0,1-1.344,1.174,2.638,2.638,0,0,1-2.346-.034,14.657,14.657,0,0,0-2.4-1.409,2.461,2.461,0,0,0-2.556,1.279c-.621.916-.872,2.118-1.5,3.236a3.793,3.793,0,0,1-1.361,1.417,2.187,2.187,0,0,1-2.032.162,3.56,3.56,0,0,1-1.421-1.447c-.339-.558-.62-1.124-.962-1.623a2.386,2.386,0,0,0-1.3-1.051,1.811,1.811,0,0,0-1.529.3,5.763,5.763,0,0,0-1.841,2.514,20.534,20.534,0,0,1-1.287,2.533,4.347,4.347,0,0,1-3.363,2.212,2.356,2.356,0,0,1-1.109-.194,1.38,1.38,0,0,1-.258-.139c-.056-.035-.082-.056-.079-.061a2.994,2.994,0,0,0,1.436.256,4.254,4.254,0,0,0,3.161-2.208,21.375,21.375,0,0,0,1.231-2.522,6,6,0,0,1,1.926-2.663,2.151,2.151,0,0,1,1.8-.356,2.722,2.722,0,0,1,1.5,1.181c.364.527.648,1.1.978,1.637a3.23,3.23,0,0,0,1.266,1.307,1.831,1.831,0,0,0,1.708-.143,3.47,3.47,0,0,0,1.236-1.285c.6-1.047.858-2.258,1.532-3.247a3.693,3.693,0,0,1,1.268-1.177,2.185,2.185,0,0,1,1.634-.2,4.137,4.137,0,0,1,1.331.721,9.36,9.36,0,0,0,1.106.75,2.432,2.432,0,0,0,2.15.075,3.027,3.027,0,0,0,1.308-1.068,2.969,2.969,0,0,0,.474-1.379" fill="#fafafa"/>
        <path id="Path_184028" data-name="Path 184028" d="M128.7,238.283c0,.016-.088-.023-.251-.036a.963.963,0,0,0-.658.209,2,2,0,0,0-.631.933,3.356,3.356,0,0,0-.065,1.531,3.888,3.888,0,0,1-.148,1.98,2.1,2.1,0,0,1-1.985,1.137,3.144,3.144,0,0,1-2.348-1.091,9.531,9.531,0,0,1-1.491-2.389l.124.094a2,2,0,0,0-1.857.921,4.753,4.753,0,0,0-.784,2.254,16.312,16.312,0,0,1-.332,1.848,3.983,3.983,0,0,1-.89,1.647,2.227,2.227,0,0,1-1.663.763,2.6,2.6,0,0,1-1.608-.686,15.5,15.5,0,0,1-1.9-2.461,2.888,2.888,0,0,0-2.162-1.235,2.714,2.714,0,0,0-1.968.658,2.859,2.859,0,0,0-.835,1.368,3.6,3.6,0,0,0-.061,1.4q-.009,0-.039-.087a1.565,1.565,0,0,1-.068-.27,2.734,2.734,0,0,1,.033-1.072,2.953,2.953,0,0,1,.835-1.482,2.983,2.983,0,0,1,3.407-.41,3.729,3.729,0,0,1,1.088.949,16.035,16.035,0,0,0,1.883,2.4,2.281,2.281,0,0,0,1.4.6,1.881,1.881,0,0,0,1.4-.661,3.652,3.652,0,0,0,.8-1.5,16.51,16.51,0,0,0,.323-1.809,5.084,5.084,0,0,1,.853-2.413,2.343,2.343,0,0,1,2.2-1.046l.087.016.038.078a9.326,9.326,0,0,0,1.419,2.319,2.844,2.844,0,0,0,2.113,1.017,1.825,1.825,0,0,0,1.749-.953,3.728,3.728,0,0,0,.166-1.852,3.473,3.473,0,0,1,.123-1.607,2.08,2.08,0,0,1,.722-.97.984.984,0,0,1,.734-.173.57.57,0,0,1,.243.1" fill="#fafafa"/>
        <path id="Path_184029" data-name="Path 184029" d="M211.661,235.392c0,.022-.127.017-.344.1a1.622,1.622,0,0,0-.77.62,4.231,4.231,0,0,0-.609,1.478,8.624,8.624,0,0,1-.579,2.115,2.2,2.2,0,0,1-.869,1,1.585,1.585,0,0,1-1.447.043,2.884,2.884,0,0,1-1.1-1.063,9.568,9.568,0,0,1-.722-1.4,4.394,4.394,0,0,0-.883-1.291,1.527,1.527,0,0,0-1.365-.529,1.316,1.316,0,0,0-.93,1.146,9.925,9.925,0,0,0-.091,1.782A4.95,4.95,0,0,1,200.7,242.8a3,3,0,0,1-3.245.777,9.828,9.828,0,0,1-2.366-1.938,2.444,2.444,0,0,0-2.262-.785,2.856,2.856,0,0,0-1.629,1.229,5.328,5.328,0,0,0-.638,1.475c-.233.864-.313,1.359-.345,1.353a1.38,1.38,0,0,1,.027-.363c.032-.235.081-.583.184-1.025a5.213,5.213,0,0,1,.6-1.547,3.049,3.049,0,0,1,1.734-1.366,2.2,2.2,0,0,1,1.321.056,3.711,3.711,0,0,1,1.2.751,9.837,9.837,0,0,0,2.3,1.857,2.664,2.664,0,0,0,2.87-.72,4.63,4.63,0,0,0,1.14-3.174,9.933,9.933,0,0,1,.1-1.846,2.185,2.185,0,0,1,.376-.886,1.474,1.474,0,0,1,.819-.528,1.858,1.858,0,0,1,1.685.625,4.711,4.711,0,0,1,.944,1.4,9.391,9.391,0,0,0,.686,1.368,2.588,2.588,0,0,0,.967.966,1.3,1.3,0,0,0,1.188-.018,1.941,1.941,0,0,0,.774-.869,8.745,8.745,0,0,0,.612-2.05,4.216,4.216,0,0,1,.691-1.513,1.613,1.613,0,0,1,.859-.6.815.815,0,0,1,.366-.03" fill="#fafafa"/>
        <path id="Path_184030" data-name="Path 184030" d="M208.106,219.335a.836.836,0,0,1-.126.251c-.092.158-.233.388-.433.674a6.8,6.8,0,0,1-.816.982,3.607,3.607,0,0,1-1.456.9,2.542,2.542,0,0,1-2.071-.184c-.686-.419-1.013-1.221-1.628-1.648a1.052,1.052,0,0,0-1.033-.106,1.8,1.8,0,0,0-.8.86,3.241,3.241,0,0,0-.326,1.236c-.021.448,0,.917-.021,1.4a4.04,4.04,0,0,1-.27,1.432,2.035,2.035,0,0,1-.994,1.058,3.219,3.219,0,0,1-2.631-.153,11.708,11.708,0,0,1-1.966-1.3,5.812,5.812,0,0,0-1.729-.946,2.3,2.3,0,0,0-1.561.079,2.076,2.076,0,0,0-.95.725,1.563,1.563,0,0,0-.233.993.646.646,0,0,1-.074-.274,1.3,1.3,0,0,1,.19-.794,2.169,2.169,0,0,1,.989-.833,2.485,2.485,0,0,1,1.707-.138,5.91,5.91,0,0,1,1.832.948,12.067,12.067,0,0,0,1.927,1.236,2.92,2.92,0,0,0,2.347.138,1.689,1.689,0,0,0,.821-.884,3.719,3.719,0,0,0,.239-1.306c.018-.464,0-.93.023-1.4a3.59,3.59,0,0,1,.368-1.374,2.13,2.13,0,0,1,.968-1.014,1.388,1.388,0,0,1,1.357.144c.724.54,1.014,1.315,1.6,1.67a2.288,2.288,0,0,0,1.843.192,3.46,3.46,0,0,0,1.391-.8,7.375,7.375,0,0,0,.841-.919,8.683,8.683,0,0,1,.67-.842" fill="#fafafa"/>
        <path id="Path_184031" data-name="Path 184031" d="M190.641,258.657a1.008,1.008,0,0,1-.352.4,1.936,1.936,0,0,1-1.5.243,3.74,3.74,0,0,1-1.057-.36,10.793,10.793,0,0,1-1.1-.718,6.408,6.408,0,0,0-1.278-.732,2.148,2.148,0,0,0-1.558-.04,2.744,2.744,0,0,0-1.274,1.184,14.7,14.7,0,0,0-.889,1.776,9.77,9.77,0,0,1-1.04,1.918,2.938,2.938,0,0,1-.883.783,1.718,1.718,0,0,1-.576.217c-.1.02-.2.049-.306.061l-.314,0a2.164,2.164,0,0,1-1.184-.416,4.271,4.271,0,0,1-.9-.87c-.524-.65-.955-1.369-1.468-2.029a3.828,3.828,0,0,0-1.924-1.483,3.1,3.1,0,0,0-2.4.5,5.662,5.662,0,0,0-1.768,1.862c-.465.728-.846,1.5-1.28,2.244a7.649,7.649,0,0,1-1.57,2,4.125,4.125,0,0,1-2.22,1.06,3.082,3.082,0,0,1-2.244-.672,7.558,7.558,0,0,1-1.452-1.638,9.987,9.987,0,0,0-2.464-2.87,2.792,2.792,0,0,0-1.525-.462,3.567,3.567,0,0,0-1.409.323,3.894,3.894,0,0,0-1.74,1.53,3.143,3.143,0,0,0-.453,1.407,5,5,0,0,1-.005.527c-.006,0-.016-.043-.029-.132a2.852,2.852,0,0,1-.038-.4,3.055,3.055,0,0,1,.406-1.475,3.989,3.989,0,0,1,1.775-1.641,3.744,3.744,0,0,1,1.491-.368,3.01,3.01,0,0,1,1.66.475,10.035,10.035,0,0,1,2.571,2.912,7.352,7.352,0,0,0,1.4,1.561,2.766,2.766,0,0,0,2.017.594,3.8,3.8,0,0,0,2.033-.99,7.314,7.314,0,0,0,1.493-1.923c.423-.726.8-1.507,1.283-2.259a6.011,6.011,0,0,1,1.876-1.972,3.45,3.45,0,0,1,2.68-.542,4.159,4.159,0,0,1,2.111,1.613c.528.684.955,1.4,1.456,2.028a2.618,2.618,0,0,0,1.843,1.173,2.143,2.143,0,0,0,1.813-.923,9.609,9.609,0,0,0,1.019-1.849,14.821,14.821,0,0,1,.927-1.8,3,3,0,0,1,1.416-1.271,2.386,2.386,0,0,1,1.73.065,6.537,6.537,0,0,1,1.31.78,10.881,10.881,0,0,0,1.069.73,3.66,3.66,0,0,0,1,.375,1.909,1.909,0,0,0,1.433-.166,2.927,2.927,0,0,0,.392-.343" fill="#fafafa"/>
        <path id="Path_184032" data-name="Path 184032" d="M189.341,235.918s-.013.04-.055.11a.716.716,0,0,1-.277.236,1.577,1.577,0,0,1-1.36-.122c-.565-.263-1.009-.9-1.76-1.207a1.11,1.11,0,0,0-1.151.2,2.847,2.847,0,0,0-.631,1.283,8.651,8.651,0,0,1-.556,1.594,2.215,2.215,0,0,1-.594.726,1.889,1.889,0,0,1-.916.357,4.305,4.305,0,0,1-3.512-1.839,10.662,10.662,0,0,0-1.506-1.483,3.092,3.092,0,0,0-1.988-.637,5.444,5.444,0,0,0-3.817,2.246c-.974,1.26-1.629,2.712-2.49,3.993a6.653,6.653,0,0,1-3.4,2.826,3.824,3.824,0,0,1-2.1.129,3.531,3.531,0,0,1-1.7-1.029,15.575,15.575,0,0,0-2.339-2.5,2.287,2.287,0,0,0-1.367-.35,2.408,2.408,0,0,0-1.195.444,5.463,5.463,0,0,0-1.416,1.564c-.622,1-.846,1.625-.88,1.608a2.058,2.058,0,0,1,.155-.451,9.273,9.273,0,0,1,.608-1.23,5.409,5.409,0,0,1,1.419-1.654,2.606,2.606,0,0,1,1.29-.507,2.52,2.52,0,0,1,1.517.361,15.083,15.083,0,0,1,2.417,2.506,3.236,3.236,0,0,0,1.564.933,3.522,3.522,0,0,0,1.928-.136,6.342,6.342,0,0,0,3.215-2.709c.838-1.251,1.491-2.71,2.5-4.017a5.759,5.759,0,0,1,4.087-2.376,3.425,3.425,0,0,1,2.2.712,10.728,10.728,0,0,1,1.549,1.537,5.826,5.826,0,0,0,1.485,1.319,3.012,3.012,0,0,0,1.75.445,1.629,1.629,0,0,0,1.3-.92,8.527,8.527,0,0,0,.557-1.536,3.038,3.038,0,0,1,.72-1.378,1.319,1.319,0,0,1,1.373-.218c.821.359,1.239,1.019,1.754,1.27a1.532,1.532,0,0,0,1.265.18,1.089,1.089,0,0,0,.363-.281" fill="#fafafa"/>
        <path id="Path_184033" data-name="Path 184033" d="M189.692,212.335c-.014.014-.107-.107-.349-.235a1.616,1.616,0,0,0-1.157-.083,2.259,2.259,0,0,0-1.41,1.151,12.239,12.239,0,0,0-.849,2.4,5.281,5.281,0,0,1-.653,1.381,2.557,2.557,0,0,1-1.345,1.009,3.188,3.188,0,0,1-1.8-.05,6.485,6.485,0,0,1-1.7-.81,9.6,9.6,0,0,0-3.379-1.832,3.11,3.11,0,0,0-1.919.313,5.678,5.678,0,0,0-1.621,1.291c-.972,1.044-1.626,2.325-2.542,3.381a6.858,6.858,0,0,1-1.527,1.383,3.76,3.76,0,0,1-1.9.613,5.312,5.312,0,0,1-3.332-1.381c-.883-.71-1.618-1.445-2.4-1.968a4.188,4.188,0,0,0-2.314-.845,3,3,0,0,0-1.765.567,1.964,1.964,0,0,0-.712.934c-.094.259-.092.411-.114.408a1.042,1.042,0,0,1,.045-.429,1.956,1.956,0,0,1,.7-1.022,3.092,3.092,0,0,1,1.846-.656,4.35,4.35,0,0,1,2.458.833c.813.526,1.572,1.264,2.441,1.945a5.055,5.055,0,0,0,3.14,1.287,4.535,4.535,0,0,0,3.172-1.894c.88-1.018,1.533-2.3,2.545-3.4a5.991,5.991,0,0,1,1.727-1.368,3.454,3.454,0,0,1,2.133-.34,9.732,9.732,0,0,1,3.5,1.9,4.154,4.154,0,0,0,3.228.851,2.28,2.28,0,0,0,1.206-.885,5.143,5.143,0,0,0,.638-1.3,11.817,11.817,0,0,1,.916-2.416,2.784,2.784,0,0,1,.717-.811,2.32,2.32,0,0,1,.831-.372,1.637,1.637,0,0,1,1.225.155.884.884,0,0,1,.314.3" fill="#fafafa"/>
        <path id="Path_184034" data-name="Path 184034" d="M186.182,201.245a.655.655,0,0,1-.04.256,4.061,4.061,0,0,1-.245.7,2.345,2.345,0,0,1-.722.95,1.246,1.246,0,0,1-1.557-.1,7.257,7.257,0,0,1-1.053-1.574,2.25,2.25,0,0,0-.651-.714,1.934,1.934,0,0,0-.959-.3,2.772,2.772,0,0,0-2.033.761,6.673,6.673,0,0,0-1.415,2.011,5.123,5.123,0,0,1-.718,1.122,1.5,1.5,0,0,1-1.241.556,1.7,1.7,0,0,1-1.133-.656,3.292,3.292,0,0,1-.562-1.072,4.313,4.313,0,0,0-.876-1.849,1.408,1.408,0,0,0-.765-.4.926.926,0,0,0-.729.223,3.1,3.1,0,0,0-.712,1.276,2.946,2.946,0,0,1-.587,1.031,1.163,1.163,0,0,1-.653.377.45.45,0,0,1-.263-.018,1.191,1.191,0,0,0,.812-.451,2.946,2.946,0,0,0,.5-1,3.2,3.2,0,0,1,.735-1.4,1.183,1.183,0,0,1,.925-.307,1.677,1.677,0,0,1,.936.459,4.48,4.48,0,0,1,.983,1.954,2.97,2.97,0,0,0,.514.963,1.367,1.367,0,0,0,.9.527,1.158,1.158,0,0,0,.952-.446,4.893,4.893,0,0,0,.662-1.046,6.9,6.9,0,0,1,1.5-2.109,3.089,3.089,0,0,1,2.286-.828,2.242,2.242,0,0,1,1.111.37,2.523,2.523,0,0,1,.727.818,7.512,7.512,0,0,0,.971,1.543,1.028,1.028,0,0,0,1.278.123,2.288,2.288,0,0,0,.709-.847c.29-.557.377-.906.409-.9" fill="#fafafa"/>
        <path id="Path_184035" data-name="Path 184035" d="M141.624,201.3a1.152,1.152,0,0,1,.066.324,9.179,9.179,0,0,1,.084.942,4.457,4.457,0,0,1-.178,1.5,2.5,2.5,0,0,1-1.3,1.528,1.784,1.784,0,0,1-1.2.154,1.914,1.914,0,0,1-1.064-.767c-.271-.358-.47-.762-.714-1.135a1.8,1.8,0,0,0-3.3.172,3.68,3.68,0,0,0-.425,1.457,11.091,11.091,0,0,0,.028,1.623,5.122,5.122,0,0,1-.121,1.7,2.366,2.366,0,0,1-.963,1.393,1.873,1.873,0,0,1-1.637.132,3.6,3.6,0,0,1-1.29-.85c-.7-.727-1.126-1.547-1.727-2.128a2.621,2.621,0,0,0-2.043-.83,2.564,2.564,0,0,0-1.7.727,2.713,2.713,0,0,0-.7,1.24,3.732,3.732,0,0,0-.067,1.241.851.851,0,0,1-.093-.318,2.537,2.537,0,0,1,.025-.954A2.78,2.78,0,0,1,124,207.1a2.75,2.75,0,0,1,1.824-.84,2.88,2.88,0,0,1,2.264.869c.647.612,1.1,1.445,1.752,2.107a3.287,3.287,0,0,0,1.171.762,1.531,1.531,0,0,0,1.341-.106,2.031,2.031,0,0,0,.806-1.195,4.8,4.8,0,0,0,.107-1.581,5.576,5.576,0,0,1,.449-3.271,2.123,2.123,0,0,1,3.863-.169c.252.4.443.8.688,1.127a1.626,1.626,0,0,0,.894.677,1.523,1.523,0,0,0,1.029-.115A2.307,2.307,0,0,0,141.408,204a4.526,4.526,0,0,0,.227-1.436c.005-.81-.043-1.264-.011-1.266" fill="#fafafa"/>
        <path id="Path_184036" data-name="Path 184036" d="M178.229,122.616c-4.628-1-8.986,3.437-13.691,2.922-2.857-.312-5.17-2.378-7.788-3.563a14.48,14.48,0,0,0-12.885.6c-3.655,2.262-5.941,4.541-6.1,8.836-3.644-1.7-9.072,3.166-10.689,7.554s-.753,8.711.752,13.139a61.7,61.7,0,0,0,12,20.788c.471.536,1.2,1.111,1.815.755a1.557,1.557,0,0,0,.563-1.3c.314-4.193-.568-8.37-1.279-12.515s-1.251-8.433-.269-12.522,3.785-7.981,7.827-9.141c2.986-.856,6.223-.135,9.05,1.151s5.371,3.113,8.087,4.62a17.128,17.128,0,0,0,8.828,2.589c3.1-.127,6.3-1.866,7.378-4.778s-.735-6.766-3.817-7.152a6.105,6.105,0,0,0,.218-11.979" fill="#263238"/>
        <path id="Path_184037" data-name="Path 184037" d="M170.458,196.325l-1.195-8.916s11.608-3.26,10.334-15.1c-.615-5.719-2.84-17.392-4.977-27.935a22.2,22.2,0,0,0-24.4-17.632l-1.141.137c-12.218,2.2-17.179,13.8-14.645,25.953l6.886,47.559a14.711,14.711,0,0,0,29.139-4.062" fill="#ffbe9d"/>
        <path id="Path_184038" data-name="Path 184038" d="M169.277,187.4a27.7,27.7,0,0,1-15.944-2.531s4.666,8.074,16.339,5.592Z" fill="#eb996e"/>
        <path id="Path_184039" data-name="Path 184039" d="M170.984,151.552a1.736,1.736,0,0,1-1.414,1.966,1.658,1.658,0,0,1-1.933-1.379,1.734,1.734,0,0,1,1.411-1.967,1.661,1.661,0,0,1,1.936,1.38" fill="#263238"/>
        <path id="Path_184040" data-name="Path 184040" d="M172.772,151.244c-.183.245-1.576-.548-3.393-.325-1.818.2-3.04,1.292-3.263,1.093-.109-.087.056-.51.586-1a4.674,4.674,0,0,1,2.58-1.147,4.481,4.481,0,0,1,2.734.533c.61.362.847.738.756.849" fill="#263238"/>
        <path id="Path_184041" data-name="Path 184041" d="M153.682,153.007a1.752,1.752,0,0,1-1.407,2,1.676,1.676,0,0,1-1.941-1.412,1.755,1.755,0,0,1,1.406-2,1.677,1.677,0,0,1,1.942,1.414" fill="#263238"/>
        <path id="Path_184042" data-name="Path 184042" d="M155.327,152.661c-.183.245-1.578-.547-3.394-.324-1.817.2-3.039,1.291-3.263,1.092-.109-.087.055-.509.587-1a4.67,4.67,0,0,1,2.58-1.148,4.489,4.489,0,0,1,2.734.534c.608.362.847.737.756.848" fill="#263238"/>
        <path id="Path_184043" data-name="Path 184043" d="M163.163,165.627a12.088,12.088,0,0,1,2.887-.887c.458-.1.886-.249.927-.575a2.373,2.373,0,0,0-.476-1.338l-1.8-3.369c-2.511-4.8-4.388-8.774-4.194-8.874s2.388,3.713,4.9,8.516q.912,1.777,1.742,3.4a2.717,2.717,0,0,1,.459,1.792,1.174,1.174,0,0,1-.683.77,3.159,3.159,0,0,1-.774.205,11.94,11.94,0,0,1-2.991.363" fill="#263238"/>
        <path id="Path_184044" data-name="Path 184044" d="M157.965,167.526c.294-.053.534,1.92,2.391,3.117s3.93.728,3.979,1c.042.121-.423.44-1.307.57a4.94,4.94,0,0,1-3.308-.725,4.307,4.307,0,0,1-1.878-2.628c-.175-.816-.014-1.331.123-1.336" fill="#263238"/>
        <path id="Path_184045" data-name="Path 184045" d="M154.411,144.348c-.12.516-1.963.5-4.064,1.012-2.112.471-3.756,1.3-4.092.893-.152-.2.092-.7.73-1.26a7.278,7.278,0,0,1,6.214-1.451c.82.221,1.261.562,1.212.806" fill="#263238"/>
        <path id="Path_184046" data-name="Path 184046" d="M171.472,145.277c-.27.451-1.574.173-3.082.334-1.513.108-2.747.611-3.092.214-.153-.194,0-.631.508-1.089a4.486,4.486,0,0,1,4.974-.442c.583.361.809.765.692.983" fill="#263238"/>
        <path id="Path_184047" data-name="Path 184047" d="M136.45,161.469c-.212-.063-8.415-1.428-7.185,6.627s9.061,5.159,9.04,4.925-1.855-11.552-1.855-11.552" fill="#ffbe9d"/>
        <path id="Path_184048" data-name="Path 184048" d="M135.38,170.346c-.039-.02-.125.12-.346.265a1.425,1.425,0,0,1-1.045.181c-.9-.182-1.822-1.424-2.082-2.87a4.683,4.683,0,0,1,.086-2.068,1.641,1.641,0,0,1,.891-1.239.723.723,0,0,1,.887.259c.142.208.115.377.16.384.026.017.153-.161.037-.484a.906.906,0,0,0-.394-.456,1.074,1.074,0,0,0-.807-.087,1.993,1.993,0,0,0-1.275,1.473,4.806,4.806,0,0,0-.144,2.319c.3,1.615,1.362,3.007,2.577,3.166a1.523,1.523,0,0,0,1.251-.409c.219-.237.234-.424.2-.434" fill="#eb996e"/>
        <path id="Path_184049" data-name="Path 184049" d="M176.825,141.59a17.2,17.2,0,0,1-15.584-1.6c-3.17-2.094-5.811-5.334-9.549-6.011a9.679,9.679,0,0,0-7.226,1.887,18.721,18.721,0,0,0-4.954,5.787c3.007,5.736,2.278,12.63,1.471,19.055a3.241,3.241,0,0,1-.718,1.979c-.868.85-2.369.447-3.307-.325a10.051,10.051,0,0,1-2.827-5.008,33.509,33.509,0,0,1-1.5-13.125,22.807,22.807,0,0,1,4.851-12.176,21.607,21.607,0,0,1,14.364-7.494,26.538,26.538,0,0,1,15.935,3.629,15.541,15.541,0,0,1,5.652,5.124" fill="#263238"/>
        <path id="Path_184050" data-name="Path 184050" d="M181.966,125.058a1.739,1.739,0,0,1,.011.71,3.3,3.3,0,0,1-.929,1.8,5.175,5.175,0,0,1-2.9,1.371,8.637,8.637,0,0,1-2.021.117,4.317,4.317,0,0,1-2.175-.707,2.872,2.872,0,0,1-1.284-2.162,2.529,2.529,0,0,1,1.469-2.27,3.145,3.145,0,0,1,1.432-.36,2.658,2.658,0,0,1,1.463.457,3.7,3.7,0,0,1,1.544,2.682,4.3,4.3,0,0,1-.918,3.12,6.535,6.535,0,0,1-2.731,2.014,10.717,10.717,0,0,1-7,.078,30.615,30.615,0,0,1-6.411-2.883,38.925,38.925,0,0,0-5.839-2.811,12.085,12.085,0,0,0-5.718-.685,11.526,11.526,0,0,0-4.688,1.824,14.39,14.39,0,0,0-4.779,5.519,18.727,18.727,0,0,0-.821,1.841,5.837,5.837,0,0,1-.265.655.565.565,0,0,1,.036-.177c.032-.114.077-.286.152-.5a15.018,15.018,0,0,1,.757-1.883,14.23,14.23,0,0,1,4.761-5.688,11.757,11.757,0,0,1,4.8-1.917,12.366,12.366,0,0,1,5.888.664,38.708,38.708,0,0,1,5.908,2.817,30.6,30.6,0,0,0,6.333,2.841,10.353,10.353,0,0,0,6.739-.057,6.16,6.16,0,0,0,2.573-1.882,3.916,3.916,0,0,0,.855-2.844,3.348,3.348,0,0,0-1.371-2.428,2.452,2.452,0,0,0-2.546-.094,2.212,2.212,0,0,0-1.311,1.961,2.587,2.587,0,0,0,1.138,1.94,4.076,4.076,0,0,0,2.031.684,8.529,8.529,0,0,0,1.964-.084,5.07,5.07,0,0,0,2.826-1.259,3.327,3.327,0,0,0,.96-1.705,5.571,5.571,0,0,0,.069-.7" fill="#455a64"/>
        <path id="Path_184051" data-name="Path 184051" d="M126.469,146.1a13.5,13.5,0,0,0,2.546.345,7.007,7.007,0,0,0,2.676-.607,11.766,11.766,0,0,0,2.856-1.823,9.509,9.509,0,0,0,3.024-5.249,19.327,19.327,0,0,0,.237-2.57,2.093,2.093,0,0,1,.126.7,8.086,8.086,0,0,1-.082,1.926,9.283,9.283,0,0,1-3.041,5.5,11.4,11.4,0,0,1-2.976,1.861,6.893,6.893,0,0,1-2.82.549,6.432,6.432,0,0,1-1.9-.339,2.072,2.072,0,0,1-.644-.291" fill="#455a64"/>
        <path id="Path_184052" data-name="Path 184052" d="M127.525,151.911c0-.075.971.022,2.486-.247a11.173,11.173,0,0,0,8.686-7.37c.512-1.451.575-2.423.649-2.413a1.971,1.971,0,0,1-.006.682,9.288,9.288,0,0,1-.372,1.82,10.784,10.784,0,0,1-8.913,7.563,9.275,9.275,0,0,1-1.857.07,1.98,1.98,0,0,1-.673-.105" fill="#455a64"/>
        <path id="Path_184053" data-name="Path 184053" d="M149.837,161.392a.222.222,0,1,1,.123-.273.212.212,0,0,1-.123.273" fill="#eb996e"/>
        <path id="Path_184054" data-name="Path 184054" d="M153.215,160.188a.26.26,0,1,1,.113-.3.231.231,0,0,1-.113.3" fill="#eb996e"/>
        <path id="Path_184055" data-name="Path 184055" d="M155.546,159.849c-.108.027-.232-.1-.276-.271s.008-.343.116-.37.232.1.276.272-.008.342-.116.369" fill="#eb996e"/>
        <path id="Path_184056" data-name="Path 184056" d="M151.806,163.367c-.111.013-.207-.033-.216-.1s.074-.139.185-.152.207.033.216.1-.075.139-.185.152" fill="#eb996e"/>
        <path id="Path_184057" data-name="Path 184057" d="M154.9,162.246a.231.231,0,1,1,.15-.266.217.217,0,0,1-.15.266" fill="#eb996e"/>
        <path id="Path_184058" data-name="Path 184058" d="M171.238,158.277a.23.23,0,1,1,.12-.279.215.215,0,0,1-.12.279" fill="#eb996e"/>
        <path id="Path_184059" data-name="Path 184059" d="M173.578,157.776a.261.261,0,1,1,.142-.292.233.233,0,0,1-.142.292" fill="#eb996e"/>
        <path id="Path_184060" data-name="Path 184060" d="M169.154,158.587a.179.179,0,1,1,.137-.231.191.191,0,0,1-.137.231" fill="#eb996e"/>
        <path id="Path_184061" data-name="Path 184061" d="M171.193,160.742a.235.235,0,0,1-.238-.4.235.235,0,0,1,.238.4" fill="#eb996e"/>
        <path id="Path_184062" data-name="Path 184062" d="M173.166,160.1a.172.172,0,1,1,.224-.139.189.189,0,0,1-.224.139" fill="#eb996e"/>
        <path id="Path_184063" data-name="Path 184063" d="M128.832,165.731c.013.04-.443.038-.806-.49a1.4,1.4,0,0,1-.211-1.054,1.767,1.767,0,0,1,.731-1.088,1.849,1.849,0,0,1,1.267-.314,2.055,2.055,0,0,1,.984.376c.494.366.577.766.543.771-.054.033-.215-.3-.68-.56a1.823,1.823,0,0,0-1.91.019,1.527,1.527,0,0,0-.615.866,1.223,1.223,0,0,0,.107.856c.243.469.614.564.59.618" fill="#263238"/>
        <path id="Path_184064" data-name="Path 184064" d="M190,254.006l.608,17.645s-51.155,10.134-57.735,13.524S123.6,289.09,124,298.861l81.748-.14s10.075-3.776,9.875-14.742-2.94-37.321-2.94-37.321Z" fill="#ffbe9d"/>
        <path id="Path_184065" data-name="Path 184065" d="M132.463,299.133l6.793-.621,6.484-15.493c-1.051-.178-22.93-3.412-24.219-3.059L116.275,298.6s15.72.531,16.188.532" fill="#ffbe9d"/>
        <path id="Path_184066" data-name="Path 184066" d="M117.5,298.895c.017.032.146.059.365.083,1.806.2,10.15-.31,10.15-.31.382-1.078-.34-4.315-1.378-4.505s-9.919.41-9.919.41-1.4.183-1.747,2.534c-.215,1.452,2.529,1.788,2.529,1.788" fill="#ffbe9d"/>
        <path id="Path_184067" data-name="Path 184067" d="M114.683,294.154c.016.031.146.059.364.083,1.807.2,9.695.111,10.036-.85.382-1.078-.225-3.775-1.264-3.965s-9.918.409-9.918.409-1.4.184-1.747,2.535c-.216,1.452,2.529,1.788,2.529,1.788" fill="#ffbe9d"/>
        <path id="Path_184068" data-name="Path 184068" d="M113.284,289.52c.017.031.146.059.364.083,1.807.2,9.695.111,10.036-.85.382-1.077-.225-3.775-1.263-3.965s-9.919.41-9.919.41-1.4.183-1.747,2.534c-.215,1.452,2.529,1.788,2.529,1.788" fill="#ffbe9d"/>
        <path id="Path_184069" data-name="Path 184069" d="M111.971,284.911c.016.031.146.059.364.083,1.807.2,9.695.111,10.036-.85.382-1.077-.225-3.775-1.263-3.965s-9.919.41-9.919.41-1.4.183-1.747,2.534c-.216,1.452,2.529,1.788,2.529,1.788" fill="#ffbe9d"/>
        <path id="Path_184070" data-name="Path 184070" d="M124.332,294.119a15.494,15.494,0,0,1-3.84.355,14.69,14.69,0,0,1-3.8-.137,15.556,15.556,0,0,1,3.841-.355,14.68,14.68,0,0,1,3.8.137" fill="#eb996e"/>
        <path id="Path_184071" data-name="Path 184071" d="M124.375,289.469a30.321,30.321,0,0,1-5.46.421,30.375,30.375,0,0,1-5.476-.074,30.354,30.354,0,0,1,5.46-.422,30.319,30.319,0,0,1,5.476.075" fill="#eb996e"/>
        <g id="Group_122773" data-name="Group 122773" opacity="0.78">
          <g id="Group_122772" data-name="Group 122772">
            <g id="Group_122771" data-name="Group 122771" clip-path="url(#clip-path-6)">
              <path id="Path_184072" data-name="Path 184072" d="M124,284.742a30.361,30.361,0,0,1-5.46.422,30.308,30.308,0,0,1-5.476-.075,30.3,30.3,0,0,1,5.46-.421,30.378,30.378,0,0,1,5.476.074" fill="#eb996e"/>
            </g>
          </g>
        </g>
        <path id="Path_184073" data-name="Path 184073" d="M136.662,281.819s-14.892-6.621-15.822-5.665a21.9,21.9,0,0,0-2.363,4.031Z" fill="#ffbe9d"/>
        <path id="Path_184074" data-name="Path 184074" d="M202.041,287.047c-.063.018-.366-1.066-1.075-2.729a27.7,27.7,0,0,0-1.412-2.837,27.061,27.061,0,0,0-4.755-6.1,27.586,27.586,0,0,0-2.407-2.062c-1.439-1.093-2.417-1.651-2.383-1.708a3.449,3.449,0,0,1,.711.348,18.41,18.41,0,0,1,1.822,1.157,24,24,0,0,1,2.483,2.027,24.975,24.975,0,0,1,4.815,6.176,23.972,23.972,0,0,1,1.359,2.9,18,18,0,0,1,.678,2.049,3.372,3.372,0,0,1,.164.775" fill="#eb996e"/>
        <path id="Path_184075" data-name="Path 184075" d="M142.152,203.968l-15.4,43.841L109.429,252.8s6.278,26.573,12.691,31.345a14.923,14.923,0,0,0,9.391,3.124c6.922-.483,14.686-5.363,17.646-12.178,2.629-6.056,9.655-68.672,9.655-68.672Z" fill="#ffbe9d"/>
        <path id="Path_184076" data-name="Path 184076" d="M158.6,208.282l.9-10.683-2.477-8.573-.959-3.28,1.874,1.915,3.418-3.642s-1.109-6.47-2.034-6.47a17.276,17.276,0,0,0-3.46,1.016c-.7.257-1.226.463-1.226.463l-2.893,1.479,2.893-4.437s2.98,2.479,4.5.325c1.166-1.647-3.176-5.339-4.812-6.64a1.619,1.619,0,0,0-1.329-.319l-1.687.339a2.457,2.457,0,0,0-2.469-2.249,3.8,3.8,0,0,0-3.236,1.938l-1.78.32a2.964,2.964,0,0,0-2.78,1.94l-3.908,10.631,5.016,21.614" fill="#ffbe9d"/>
        <path id="Path_184077" data-name="Path 184077" d="M142.152,203.968s-.044-.129-.111-.384l-.283-1.131c-.245-1.013-.6-2.473-1.045-4.334-.89-3.771-2.164-9.164-3.714-15.733l-.01-.04.015-.04,2.442-6.685q.642-1.758,1.315-3.6a3.448,3.448,0,0,1,1.1-1.71,3.156,3.156,0,0,1,1.966-.7l-.03,0,1.78-.323-.12.088a4.356,4.356,0,0,1,1.3-1.406,3.571,3.571,0,0,1,1.862-.617,2.752,2.752,0,0,1,1.914.6,2.334,2.334,0,0,1,.95,1.82l-.209-.181,1.276-.257a5.51,5.51,0,0,1,.67-.115,1.79,1.79,0,0,1,.717.106,1.981,1.981,0,0,1,.611.37l.517.422c.342.284.682.576,1.016.877A22.684,22.684,0,0,1,158,172.931a6.336,6.336,0,0,1,1.453,2.391,1.563,1.563,0,0,1-.021.867,2.079,2.079,0,0,1-.5.7,2.1,2.1,0,0,1-1.546.562,5.331,5.331,0,0,1-2.874-1.245l.261-.039-2.9,4.435-.225-.25,2.9-1.477.008,0,.007,0c.977-.37,1.94-.736,2.913-1.046a12.8,12.8,0,0,1,1.48-.4,1.306,1.306,0,0,1,.435-.026.686.686,0,0,1,.381.3,3.445,3.445,0,0,1,.357.695,34.154,34.154,0,0,1,1.372,5.605l.014.076-.055.058-3.425,3.636-.106.113-.108-.111-1.869-1.92.239-.139,3.4,11.865.005.018v.019c-.3,3.365-.544,6.03-.71,7.873-.087.9-.154,1.6-.2,2.085-.025.224-.044.4-.059.536a1,1,0,0,1-.029.18.816.816,0,0,1,0-.183c.007-.135.018-.313.031-.538.035-.491.084-1.19.148-2.09.144-1.844.352-4.512.614-7.88l0,.037c-.962-3.279-2.13-7.259-3.474-11.842l-.16-.546.4.406,1.877,1.911-.214,0,3.411-3.647-.04.134a34.135,34.135,0,0,0-1.368-5.533,3.1,3.1,0,0,0-.32-.624.421.421,0,0,0-.179-.167,1.187,1.187,0,0,0-.308.029,12.7,12.7,0,0,0-1.436.393c-.961.309-1.921.675-2.89,1.044l.015-.007-2.892,1.481-.584.3.358-.549,2.892-4.438.1-.16.157.12a5.007,5.007,0,0,0,2.659,1.161,1.733,1.733,0,0,0,1.292-.466,1.784,1.784,0,0,0,.4-.555,1.214,1.214,0,0,0,.01-.672,6.059,6.059,0,0,0-1.374-2.237,22.4,22.4,0,0,0-1.892-1.9q-.495-.445-1-.869a4.4,4.4,0,0,0-1.023-.732,1.956,1.956,0,0,0-1.2.022l-1.276.256-.215.043.006-.224a2,2,0,0,0-.818-1.53,2.4,2.4,0,0,0-1.682-.529,3.563,3.563,0,0,0-2.881,1.835l-.043.074-.076.014-1.781.318-.015,0h-.014a2.832,2.832,0,0,0-1.76.621,3.118,3.118,0,0,0-1,1.566l-1.327,3.591c-.866,2.339-1.691,4.57-2.47,6.675l.005-.08c1.5,6.58,2.734,11.983,3.6,15.76l.971,4.351q.156.73.243,1.141c.053.258.07.393.07.393" fill="#eb996e"/>
        <path id="Path_184078" data-name="Path 184078" d="M154.491,184.36a19.334,19.334,0,0,1,3-1.613l1.111-.541-.924.827a2.886,2.886,0,0,0-.617.788,2.923,2.923,0,0,0-.341,1.58,3.006,3.006,0,0,0,.406,1.275,7.382,7.382,0,0,0,.813.984c-.009.035-.529-.153-1.024-.848a3,3,0,0,1-.521-1.381,3.082,3.082,0,0,1,.354-1.778,3.044,3.044,0,0,1,.7-.88l.188.286a19.379,19.379,0,0,1-3.144,1.3" fill="#eb996e"/>
        <path id="Path_184079" data-name="Path 184079" d="M146.3,178.585a9.167,9.167,0,0,1,.837-1.612c.556-.972,1.345-2.3,2.235-3.76.449-.729.865-1.42,1.276-2.048a4.293,4.293,0,0,1,1.415-1.432,2.226,2.226,0,0,1,1.331-.294c.326.041.479.15.471.165s-.176-.031-.479-.027a2.312,2.312,0,0,0-1.2.373c-.941.555-1.6,2.015-2.515,3.449-.89,1.457-1.713,2.767-2.324,3.705a9.154,9.154,0,0,1-1.052,1.481" fill="#eb996e"/>
        <path id="Path_184080" data-name="Path 184080" d="M141.008,178.548a6.271,6.271,0,0,1,.505-1.453c.36-.877.9-2.074,1.538-3.37s1.272-2.447,1.752-3.265a6.231,6.231,0,0,1,.85-1.282,6.955,6.955,0,0,1-.629,1.4l-1.654,3.3-1.627,3.316a7.032,7.032,0,0,1-.735,1.349" fill="#eb996e"/>
        <path id="Path_184081" data-name="Path 184081" d="M128.633,243.526a3.761,3.761,0,0,1-.25.794l-.791,2.12c-.674,1.788-1.6,4.259-2.574,7s-1.817,5.247-2.421,7.059c-.287.851-.529,1.568-.724,2.144a3.763,3.763,0,0,1-.307.774,3.741,3.741,0,0,1,.174-.814c.134-.518.344-1.263.617-2.18.544-1.833,1.349-4.351,2.326-7.1s1.94-5.211,2.675-6.977c.367-.883.674-1.594.9-2.08a3.737,3.737,0,0,1,.378-.742" fill="#eb996e"/>
        <path id="Path_184082" data-name="Path 184082" d="M151.474,263.738a.853.853,0,0,1-.015.2c-.02.153-.046.347-.079.589-.078.541-.188,1.3-.327,2.258-.149.98-.33,2.18-.6,3.563a28.757,28.757,0,0,1-1.288,4.619,15.274,15.274,0,0,1-3.013,4.967,22.716,22.716,0,0,1-5.193,4.189,27.925,27.925,0,0,1-6.809,2.832,15.048,15.048,0,0,1-3.883.543,11.744,11.744,0,0,1-3.983-.7,14.656,14.656,0,0,1-6.343-4.687,25.168,25.168,0,0,1-3.675-6.392c-.894-2.185-1.422-4.36-2.039-6.343l-1.712-5.536c-1.057-3.381-1.863-6.136-2.366-8.053-.254-.959-.439-1.706-.554-2.215-.053-.238-.095-.429-.129-.579a.814.814,0,0,1-.031-.2,1.01,1.01,0,0,1,.067.192c.042.148.1.336.162.571l.618,2.195c.544,1.9,1.385,4.643,2.473,8.015l1.754,5.524c.632,1.99,1.169,4.152,2.061,6.306a25.013,25.013,0,0,0,3.641,6.3,14.368,14.368,0,0,0,6.193,4.572,11.422,11.422,0,0,0,3.863.679,14.777,14.777,0,0,0,3.8-.526,27.8,27.8,0,0,0,6.73-2.778,22.541,22.541,0,0,0,5.143-4.106,15.12,15.12,0,0,0,3-4.859,29.272,29.272,0,0,0,1.327-4.567c.292-1.374.494-2.569.664-3.545l.392-2.248c.047-.24.085-.432.114-.583a.892.892,0,0,1,.051-.2" fill="#eb996e"/>
        <path id="Path_184083" data-name="Path 184083" d="M23.123,253.691a7.669,7.669,0,0,0-3.977-5.079c-2.123-.915-4.582-.394-6.754.4s-4.307,1.846-6.614,1.988-4.912-.952-5.6-3.158c-.649-2.074.6-4.285,2.167-5.792A13.929,13.929,0,0,1,15.015,238.6a13.932,13.932,0,0,1,9.729,8.822" fill="#a757f7"/>
        <g id="Group_122776" data-name="Group 122776" opacity="0.5">
          <g id="Group_122775" data-name="Group 122775">
            <g id="Group_122774" data-name="Group 122774" clip-path="url(#clip-path-7)">
              <path id="Path_184084" data-name="Path 184084" d="M23.123,253.691a7.669,7.669,0,0,0-3.977-5.079c-2.123-.915-4.582-.394-6.754.4s-4.307,1.846-6.614,1.988-4.912-.952-5.6-3.158c-.649-2.074.6-4.285,2.167-5.792A13.929,13.929,0,0,1,15.015,238.6a13.932,13.932,0,0,1,9.729,8.822"/>
            </g>
          </g>
        </g>
        <path id="Path_184085" data-name="Path 184085" d="M41.4,262.96c3.385-3.216,3.216-8.814,1.527-13.167s-5.374-7.7-9.49-9.9a30.058,30.058,0,0,0-26.2-.849,12.433,12.433,0,0,1,10.053,5.9c1.855,3.081,2.267,6.82,3.8,10.074A15.858,15.858,0,0,0,41.4,262.96" fill="#a757f7"/>
        <path id="Path_184086" data-name="Path 184086" d="M43.03,243.639c3.748-4.424,4.247-11.526,3.695-17.3s-1.89-11.581-.98-17.307c.54-3.392,1.856-6.631,2.3-10.037s-.186-7.258-2.825-9.457c-3.034-2.527-7.81-1.931-10.966.442s-4.984,6.1-6.32,9.815c-2.935,8.162-4.013,17.213-1.6,25.545s8.069,15.782,16.37,18.3" fill="#a757f7"/>
        <path id="Path_184087" data-name="Path 184087" d="M44.829,279.938a3.12,3.12,0,0,0,.014-.51c0-.334,0-.827-.028-1.462-.047-1.268-.17-3.105-.454-5.358a71.225,71.225,0,0,0-1.44-7.846,36.145,36.145,0,0,0-3.581-9.085,37.838,37.838,0,0,0-5.851-7.823,37.2,37.2,0,0,0-6.134-5.1c-.936-.649-1.842-1.14-2.621-1.594-.8-.421-1.5-.764-2.069-1.041l-1.348-.566a2.8,2.8,0,0,0-.478-.178,3.35,3.35,0,0,0,.453.235c.327.153.767.358,1.321.619.562.292,1.249.65,2.036,1.082.768.467,1.661.968,2.584,1.625A38.53,38.53,0,0,1,39.07,255.829c3.446,6.028,4.389,12.365,5.074,16.808.311,2.243.466,4.071.551,5.336q.054.917.086,1.457a3.1,3.1,0,0,0,.048.508" fill="#293826"/>
        <path id="Path_184088" data-name="Path 184088" d="M77.156,226.186c6.934,4.185,6.913,7.992,5.755,11.587s-5.414,6.091-8.943,4.745a10.942,10.942,0,0,1-4.673-4.236,19.6,19.6,0,0,0-4.123-4.858c-1.729-1.251-4.237-1.73-5.974-.489" fill="#a757f7"/>
        <g id="Group_122779" data-name="Group 122779" opacity="0.5">
          <g id="Group_122778" data-name="Group 122778">
            <g id="Group_122777" data-name="Group 122777" clip-path="url(#clip-path-8)">
              <path id="Path_184089" data-name="Path 184089" d="M77.156,226.186c6.934,4.185,6.913,7.992,5.755,11.587s-5.414,6.091-8.943,4.745a10.942,10.942,0,0,1-4.673-4.236,19.6,19.6,0,0,0-4.123-4.858c-1.729-1.251-4.237-1.73-5.974-.489"/>
            </g>
          </g>
        </g>
        <path id="Path_184090" data-name="Path 184090" d="M82.348,230.774c-1.813-2.505-6.292-3.231-9.121-1.981s-4.9,3.73-6.754,6.2-3.66,5.088-6.229,6.81-6.157,2.345-8.717.611a7.492,7.492,0,0,1-2.961-5.128,17.071,17.071,0,0,1,.407-6.046c.612-2.908,1.611-5.945,3.938-7.793,2.594-2.06,6.193-2.157,9.5-2.049a35.644,35.644,0,0,1,11.218,1.726c3.565,1.317,7.2,4.16,8.716,7.646" fill="#a757f7"/>
        <path id="Path_184091" data-name="Path 184091" d="M50.592,274.384a.565.565,0,0,0,.019-.152c.006-.119.014-.266.023-.448.015-.418.035-.993.06-1.721.044-1.52.1-3.676.182-6.329.084-2.672.193-5.853.385-9.381s.46-7.4.995-11.442A36.783,36.783,0,0,1,53.4,239.1a30.068,30.068,0,0,1,2.125-5.084,29.3,29.3,0,0,1,2.681-4.209,27.4,27.4,0,0,1,2.927-3.213,21.507,21.507,0,0,1,5.19-3.539c.339-.155.634-.307.9-.415l.677-.263.415-.168a.549.549,0,0,0,.138-.067.6.6,0,0,0-.148.037l-.426.139-.691.237c-.27.1-.571.243-.916.391a20.776,20.776,0,0,0-5.287,3.485,27.063,27.063,0,0,0-2.983,3.219,29.16,29.16,0,0,0-2.73,4.232,30.085,30.085,0,0,0-2.163,5.128,36.773,36.773,0,0,0-1.166,5.86c-.537,4.052-.79,7.937-.972,11.468s-.264,6.716-.32,9.39-.075,4.838-.083,6.333c0,.729,0,1.3,0,1.722,0,.182.005.329.007.448a.569.569,0,0,0,.013.153" fill="#293826"/>
        <path id="Path_184092" data-name="Path 184092" d="M48.1,277.518a19.886,19.886,0,0,0,.759-2.978,31.225,31.225,0,0,0,.318-8.366,55.613,55.613,0,0,0-2.642-12.139c-1.423-4.461-3.355-9.232-5.006-14.36a66.13,66.13,0,0,1-1.991-7.6,67.621,67.621,0,0,1-.983-7.25,105.927,105.927,0,0,1-.221-12.4c.119-3.532.307-6.387.424-8.36.058-.972.1-1.734.134-2.273.012-.247.021-.442.028-.592a1.068,1.068,0,0,0,0-.2.889.889,0,0,0-.031.2c-.014.149-.034.343-.058.589-.046.538-.11,1.3-.192,2.269-.154,1.971-.375,4.826-.523,8.361a102.026,102.026,0,0,0,.155,12.428,66.772,66.772,0,0,0,.97,7.285,65.336,65.336,0,0,0,1.994,7.634c1.656,5.144,3.6,9.909,5.029,14.353a56.487,56.487,0,0,1,2.7,12.071,32.292,32.292,0,0,1-.218,8.325c-.171.971-.327,1.723-.463,2.225-.059.239-.105.429-.14.575a1.006,1.006,0,0,0-.038.2" fill="#293826"/>
        <path id="Path_184093" data-name="Path 184093" d="M30.906,280.651H63.465l.744-6.267h-33.3Z" fill="#4a6445"/>
        <path id="Path_184094" data-name="Path 184094" d="M59.972,279.938l-4.071,18.8H38.208l-3.809-18.8Z" fill="#4a6445"/>
        <path id="Path_184095" data-name="Path 184095" d="M30.906,280.651c0,.086,7.159.135,15.987.11s15.988-.114,15.988-.2-7.158-.135-15.989-.11-15.986.114-15.986.2" fill="#4a6445"/>
        <path id="Path_184096" data-name="Path 184096" d="M36.494,289.931a13.435,13.435,0,0,1,2.867-1.644,10.154,10.154,0,0,1,3.487-.7,12.274,12.274,0,0,1,4.287.787c1.484.5,2.87,1.086,4.22,1.407a10.031,10.031,0,0,0,3.647.11,7.5,7.5,0,0,0,2.344-.742,4.535,4.535,0,0,0,.565-.359c.122-.092.183-.144.177-.153-.018-.025-.278.161-.8.4a8.189,8.189,0,0,1-2.321.633,10.238,10.238,0,0,1-3.552-.171c-1.3-.326-2.689-.916-4.185-1.423a12.17,12.17,0,0,0-4.393-.778,9.968,9.968,0,0,0-3.562.782,9.218,9.218,0,0,0-2.122,1.238,5.46,5.46,0,0,0-.506.436c-.11.106-.164.165-.157.173" fill="#293826"/>
        <path id="Path_184097" data-name="Path 184097" d="M36.741,291.186a14.177,14.177,0,0,1,2.754-1.622,9.35,9.35,0,0,1,3.362-.693,12.107,12.107,0,0,1,4.147.747c1.435.479,2.78,1.035,4.066,1.381a10.459,10.459,0,0,0,3.505.394,5.94,5.94,0,0,0,2.3-.615,4.166,4.166,0,0,0,.548-.347c.118-.089.176-.14.17-.148-.018-.026-.269.156-.77.386a6.318,6.318,0,0,1-2.259.505,10.705,10.705,0,0,1-3.414-.45c-1.259-.354-2.6-.916-4.045-1.4a12.017,12.017,0,0,0-4.252-.737,9.209,9.209,0,0,0-3.441.776,9.114,9.114,0,0,0-2.032,1.23,5.488,5.488,0,0,0-.485.426c-.106.1-.158.16-.151.168" fill="#fff"/>
        <path id="Path_184098" data-name="Path 184098" d="M36.172,288.684a15.466,15.466,0,0,1,2.944-1.735,10.822,10.822,0,0,1,3.574-.859,11.556,11.556,0,0,1,4.424.779,39.642,39.642,0,0,0,4.369,1.427,11.112,11.112,0,0,0,3.766.006,8.468,8.468,0,0,0,2.419-.765,4.672,4.672,0,0,0,.588-.365c.126-.094.189-.148.183-.156-.017-.025-.286.167-.823.412a9.307,9.307,0,0,1-2.4.658,11.366,11.366,0,0,1-3.678-.071,44.4,44.4,0,0,1-4.323-1.439,11.548,11.548,0,0,0-4.541-.772,10.957,10.957,0,0,0-5.817,2.252,5.831,5.831,0,0,0-.521.45c-.114.109-.17.17-.163.178" fill="#fff"/>
        <path id="Path_184099" data-name="Path 184099" d="M30.618,280.678c0,.086,7.324.155,16.357.155s16.359-.069,16.359-.155-7.323-.155-16.359-.155-16.357.069-16.357.155" fill="#293826"/>
        <line id="Line_185" data-name="Line 185" x2="297.503" transform="translate(0.484 298.738)" fill="#f5f5f5"/>
        <path id="Path_184100" data-name="Path 184100" d="M297.987,298.738c0,.1-66.6.178-148.745.178-82.169,0-148.758-.08-148.758-.178s66.589-.178,148.758-.178c82.141,0,148.745.08,148.745.178" fill="#263238"/>
      </g>
    </g>
  </g>
</svg>
